<svg xmlns="http://www.w3.org/2000/svg" xmlns:xlink="http://www.w3.org/1999/xlink" width="246.67" height="226.508" viewBox="0 0 246.67 226.508">
  <defs>
    <linearGradient id="linear-gradient" y1="0.5" x2="1" y2="0.5" gradientUnits="objectBoundingBox">
      <stop offset="0" stop-color="#fff" stop-opacity="0.4"/>
      <stop offset="0.122" stop-color="#fbfcff" stop-opacity="0.498"/>
      <stop offset="0.418" stop-color="#f3f6ff" stop-opacity="0.714"/>
      <stop offset="0.674" stop-color="#edf2ff" stop-opacity="0.867"/>
      <stop offset="0.876" stop-color="#eaefff" stop-opacity="0.965"/>
      <stop offset="1" stop-color="#e9efff"/>
    </linearGradient>
    <linearGradient id="linear-gradient-2" y1="0.5" x2="1" y2="0.5" gradientUnits="objectBoundingBox">
      <stop offset="0" stop-color="#e9efff"/>
      <stop offset="0.124" stop-color="#eaefff" stop-opacity="0.965"/>
      <stop offset="0.326" stop-color="#edf2ff" stop-opacity="0.867"/>
      <stop offset="0.582" stop-color="#f3f6ff" stop-opacity="0.714"/>
      <stop offset="0.878" stop-color="#fbfcff" stop-opacity="0.498"/>
      <stop offset="1" stop-color="#fff" stop-opacity="0.4"/>
    </linearGradient>
    <linearGradient id="linear-gradient-4" y1="0.5" x2="1" y2="0.5" gradientUnits="objectBoundingBox">
      <stop offset="0" stop-color="#6aaeff"/>
      <stop offset="1" stop-color="#005eff"/>
    </linearGradient>
    <linearGradient id="linear-gradient-29" y1="0.5" x2="1" y2="0.5" gradientUnits="objectBoundingBox">
      <stop offset="0" stop-color="#e9efff"/>
      <stop offset="1" stop-color="#d4e3ff"/>
    </linearGradient>
    <linearGradient id="linear-gradient-30" y1="0.5" x2="1" y2="0.5" gradientUnits="objectBoundingBox">
      <stop offset="0" stop-color="#e9efff"/>
      <stop offset="1" stop-color="#94bfff"/>
    </linearGradient>
    <linearGradient id="linear-gradient-32" y1="0.5" x2="1" y2="0.5" gradientUnits="objectBoundingBox">
      <stop offset="0" stop-color="#e9f4ff"/>
      <stop offset="1" stop-color="#d4e3ff"/>
    </linearGradient>
    <linearGradient id="linear-gradient-41" y1="0.5" x2="1" y2="0.5" gradientUnits="objectBoundingBox">
      <stop offset="0" stop-color="#025"/>
      <stop offset="1" stop-color="#003a7f"/>
    </linearGradient>
    <linearGradient id="linear-gradient-42" y1="0.5" x2="1" y2="0.5" gradientUnits="objectBoundingBox">
      <stop offset="0" stop-color="#f22aff"/>
      <stop offset="1" stop-color="#6c00e9"/>
    </linearGradient>
    <linearGradient id="linear-gradient-51" y1="0.5" x2="1" y2="0.5" gradientUnits="objectBoundingBox">
      <stop offset="0" stop-color="#ff0007"/>
      <stop offset="1" stop-color="#ffaaac"/>
    </linearGradient>
    <linearGradient id="linear-gradient-77" x1="-0.016" y1="0.075" x2="0.987" y2="0.075" gradientUnits="objectBoundingBox">
      <stop offset="0" stop-color="#e9f2ff" stop-opacity="0.4"/>
      <stop offset="0.056" stop-color="#e9f1ff" stop-opacity="0.451"/>
      <stop offset="0.285" stop-color="#e9f1ff" stop-opacity="0.647"/>
      <stop offset="0.5" stop-color="#e9f1ff" stop-opacity="0.8"/>
      <stop offset="0.698" stop-color="#e9f1ff" stop-opacity="0.91"/>
      <stop offset="0.87" stop-color="#e9f1ff" stop-opacity="0.976"/>
      <stop offset="0.999" stop-color="#e9f1ff"/>
    </linearGradient>
    <linearGradient id="linear-gradient-78" x1="-0.022" y1="0.075" x2="0.981" y2="0.075" xlink:href="#linear-gradient-29"/>
    <linearGradient id="linear-gradient-79" x1="-0.017" y1="0.404" x2="0.984" y2="0.404" xlink:href="#linear-gradient-51"/>
    <linearGradient id="linear-gradient-80" x1="-0.523" y1="-2.014" x2="0.45" y2="-2.014" gradientUnits="objectBoundingBox">
      <stop offset="0" stop-color="#004daa"/>
      <stop offset="1" stop-color="#0029e9"/>
    </linearGradient>
    <linearGradient id="linear-gradient-81" x1="-0.686" y1="-2.691" x2="0.247" y2="-2.691" xlink:href="#linear-gradient-80"/>
    <linearGradient id="linear-gradient-82" x1="-0.21" y1="-2.386" x2="0.777" y2="-2.386" xlink:href="#linear-gradient-80"/>
    <linearGradient id="linear-gradient-83" x1="-0.127" y1="-0.874" x2="0.764" y2="-0.874" xlink:href="#linear-gradient-4"/>
    <linearGradient id="linear-gradient-84" x1="-0.098" y1="-1.987" x2="0.878" y2="-1.987" xlink:href="#linear-gradient-80"/>
    <linearGradient id="linear-gradient-85" x1="-0.207" y1="-2.272" x2="0.765" y2="-2.272" xlink:href="#linear-gradient-41"/>
    <linearGradient id="linear-gradient-86" x1="-0.021" y1="-1.433" x2="0.947" y2="-1.433" xlink:href="#linear-gradient-4"/>
    <linearGradient id="linear-gradient-87" x1="-0.135" y1="-1.214" x2="0.847" y2="-1.214" xlink:href="#linear-gradient-80"/>
    <linearGradient id="linear-gradient-88" x1="-0.073" y1="-2.409" x2="0.886" y2="-2.409" xlink:href="#linear-gradient-41"/>
    <linearGradient id="linear-gradient-89" x1="-0.081" y1="-1.144" x2="0.78" y2="-1.144" xlink:href="#linear-gradient-80"/>
    <linearGradient id="linear-gradient-90" x1="-0.146" y1="-1.829" x2="0.822" y2="-1.829" xlink:href="#linear-gradient-41"/>
    <linearGradient id="linear-gradient-91" x1="-0.028" y1="-1.375" x2="0.962" y2="-1.375" xlink:href="#linear-gradient-4"/>
    <linearGradient id="linear-gradient-92" x1="-0.076" y1="-1.539" x2="0.88" y2="-1.539" xlink:href="#linear-gradient-80"/>
    <linearGradient id="linear-gradient-93" x1="-0.153" y1="-0.638" x2="0.861" y2="-0.638" xlink:href="#linear-gradient-4"/>
    <linearGradient id="linear-gradient-94" x1="-0.156" y1="-1.842" x2="0.841" y2="-1.842" xlink:href="#linear-gradient-80"/>
    <linearGradient id="linear-gradient-95" x1="-0.039" y1="-0.147" x2="0.976" y2="-0.147" gradientUnits="objectBoundingBox">
      <stop offset="0" stop-color="#d4e3ff"/>
      <stop offset="1" stop-color="#e9efff"/>
    </linearGradient>
    <linearGradient id="linear-gradient-96" x1="0.033" y1="0.483" x2="1.033" y2="0.483" gradientUnits="objectBoundingBox">
      <stop offset="0" stop-color="#e9f2ff" stop-opacity="0.4"/>
      <stop offset="0.056" stop-color="#e7f1ff" stop-opacity="0.451"/>
      <stop offset="0.285" stop-color="#e0edff" stop-opacity="0.647"/>
      <stop offset="0.5" stop-color="#dbeaff" stop-opacity="0.8"/>
      <stop offset="0.698" stop-color="#d7e8ff" stop-opacity="0.91"/>
      <stop offset="0.87" stop-color="#d4e7ff" stop-opacity="0.976"/>
      <stop offset="0.999" stop-color="#d4e7ff"/>
    </linearGradient>
    <linearGradient id="linear-gradient-97" x1="-94.125" y1="0.5" x2="-93.125" y2="0.5" gradientUnits="objectBoundingBox">
      <stop offset="0" stop-color="#ff7f83"/>
      <stop offset="1" stop-color="#ffd4d5"/>
    </linearGradient>
    <linearGradient id="linear-gradient-98" x1="-67.405" y1="0.5" x2="-66.405" y2="0.5" xlink:href="#linear-gradient-4"/>
    <linearGradient id="linear-gradient-99" x1="-69.269" y1="0.5" x2="-68.269" y2="0.5" xlink:href="#linear-gradient-4"/>
    <linearGradient id="linear-gradient-100" x1="-46.594" y1="0.5" x2="-45.594" y2="0.5" gradientUnits="objectBoundingBox">
      <stop offset="0" stop-color="#e9efff"/>
      <stop offset="0.155" stop-color="#d9e5ff"/>
      <stop offset="0.481" stop-color="#bfd6ff"/>
      <stop offset="0.773" stop-color="#afccff"/>
      <stop offset="1" stop-color="#aac9ff"/>
    </linearGradient>
    <linearGradient id="linear-gradient-101" x1="-95.103" y1="0.5" x2="-94.103" y2="0.5" xlink:href="#linear-gradient-97"/>
    <linearGradient id="linear-gradient-102" x1="-79.828" y1="0.5" x2="-78.828" y2="0.5" xlink:href="#linear-gradient-97"/>
    <linearGradient id="linear-gradient-103" x1="-14.188" y1="0.5" x2="-13.188" y2="0.5" xlink:href="#linear-gradient-29"/>
    <linearGradient id="linear-gradient-104" x1="-140.599" y1="0.5" x2="-139.599" y2="0.5" gradientUnits="objectBoundingBox">
      <stop offset="0" stop-color="#e9f2ff" stop-opacity="0.4"/>
      <stop offset="0.056" stop-color="#e1edff" stop-opacity="0.451"/>
      <stop offset="0.285" stop-color="#c6daff" stop-opacity="0.647"/>
      <stop offset="0.5" stop-color="#b0ccff" stop-opacity="0.8"/>
      <stop offset="0.698" stop-color="#a0c1ff" stop-opacity="0.91"/>
      <stop offset="0.87" stop-color="#97bbff" stop-opacity="0.976"/>
      <stop offset="0.999" stop-color="#94b9ff"/>
    </linearGradient>
    <linearGradient id="linear-gradient-105" x1="-172.659" y1="0.5" x2="-171.659" y2="0.5" xlink:href="#linear-gradient-104"/>
    <linearGradient id="linear-gradient-106" x1="-87.074" y1="0.5" x2="-86.074" y2="0.5" gradientUnits="objectBoundingBox">
      <stop offset="0.001" stop-color="#bfccff"/>
      <stop offset="0.113" stop-color="#c2cfff" stop-opacity="0.918"/>
      <stop offset="0.345" stop-color="#cbd7ff" stop-opacity="0.702"/>
      <stop offset="0.673" stop-color="#d9e4ff" stop-opacity="0.365"/>
      <stop offset="1" stop-color="#e9f2ff" stop-opacity="0"/>
    </linearGradient>
    <linearGradient id="linear-gradient-107" x1="-267.117" y1="0.5" x2="-266.117" y2="0.5" xlink:href="#linear-gradient-4"/>
    <linearGradient id="linear-gradient-108" x1="-131.798" y1="0.5" x2="-130.797" y2="0.5" xlink:href="#linear-gradient-42"/>
    <linearGradient id="linear-gradient-109" x1="-322.813" y1="0.5" x2="-321.813" y2="0.5" xlink:href="#linear-gradient-4"/>
    <linearGradient id="linear-gradient-110" x1="-21.728" y1="1.917" x2="-20.739" y2="1.917" xlink:href="#linear-gradient-41"/>
    <linearGradient id="linear-gradient-111" x1="-23.348" y1="1.993" x2="-22.36" y2="1.993" xlink:href="#linear-gradient-41"/>
    <linearGradient id="linear-gradient-112" x1="-38.892" y1="0.725" x2="-37.845" y2="0.725" xlink:href="#linear-gradient-97"/>
    <linearGradient id="linear-gradient-113" x1="-41.628" y1="0.737" x2="-40.58" y2="0.737" xlink:href="#linear-gradient-97"/>
    <linearGradient id="linear-gradient-114" x1="-12.463" y1="0.915" x2="-11.45" y2="0.915" xlink:href="#linear-gradient-41"/>
    <linearGradient id="linear-gradient-115" x1="-28.881" y1="0.996" x2="-27.854" y2="0.996" gradientUnits="objectBoundingBox">
      <stop offset="0" stop-color="#6aaeff"/>
      <stop offset="1" stop-color="#0002e9"/>
    </linearGradient>
    <linearGradient id="linear-gradient-116" x1="-28.324" y1="1.309" x2="-27.303" y2="1.309" xlink:href="#linear-gradient-97"/>
    <linearGradient id="linear-gradient-117" x1="-45.46" y1="1.336" x2="-44.473" y2="1.336" xlink:href="#linear-gradient-97"/>
    <linearGradient id="linear-gradient-118" x1="-7.527" y1="0.716" x2="-6.575" y2="0.716" xlink:href="#linear-gradient-4"/>
    <linearGradient id="linear-gradient-119" x1="-49.485" y1="2.852" x2="-48.506" y2="2.852" xlink:href="#linear-gradient-29"/>
    <linearGradient id="linear-gradient-120" x1="-60.124" y1="1.966" x2="-59.087" y2="1.966" gradientUnits="objectBoundingBox">
      <stop offset="0" stop-color="#0011bf"/>
      <stop offset="0.997" stop-color="#6a8cff" stop-opacity="0"/>
    </linearGradient>
    <linearGradient id="linear-gradient-121" x1="-32.086" y1="0.864" x2="-31.138" y2="0.864" xlink:href="#linear-gradient-120"/>
    <linearGradient id="linear-gradient-122" x1="-108.033" y1="3.028" x2="-107.084" y2="3.028" xlink:href="#linear-gradient-120"/>
    <linearGradient id="linear-gradient-123" x1="-19.228" y1="2.473" x2="-18.225" y2="2.473" gradientUnits="objectBoundingBox">
      <stop offset="0" stop-color="#00092a"/>
      <stop offset="1" stop-color="#003a7f"/>
    </linearGradient>
    <linearGradient id="linear-gradient-124" x1="0" y1="0.5" x2="1" y2="0.5" xlink:href="#linear-gradient-104"/>
    <linearGradient id="linear-gradient-125" x1="1" y1="0.5" x2="0" y2="0.5" xlink:href="#linear-gradient-104"/>
    <linearGradient id="linear-gradient-126" x1="0" y1="0.5" x2="1" y2="0.5" xlink:href="#linear-gradient-104"/>
    <linearGradient id="linear-gradient-128" x1="0" y1="0.5" x2="1" y2="0.5" xlink:href="#linear-gradient-104"/>
  </defs>
  <g id="Group_673" data-name="Group 673" transform="translate(-1019.718 -345.509)">
    <path id="Path_9152" data-name="Path 9152" d="M1386.642,819.539l69.471,40.161a15.7,15.7,0,0,0,14.221,0l69.47-40.157c3.927-2.27,3.926-5.949,0-8.217l-69.41-40.075a15.734,15.734,0,0,0-14.228,0l-69.517,40.079C1382.717,813.592,1382.715,817.269,1386.642,819.539Z" transform="translate(-276.36 -321.963)" fill="url(#linear-gradient)"/>
    <path id="Path_9153" data-name="Path 9153" d="M1021.316,1025.794l37.693,21.79a8.519,8.519,0,0,0,7.716,0l37.693-21.788c2.131-1.232,2.13-3.228,0-4.458l-37.66-21.744a8.537,8.537,0,0,0-7.72,0l-37.718,21.746C1019.186,1022.567,1019.185,1024.562,1021.316,1025.794Z" transform="translate(0 -495.928)" fill="url(#linear-gradient-2)"/>
    <path id="Path_9154" data-name="Path 9154" d="M1804.224,1107.63l23.435,13.548a5.3,5.3,0,0,0,4.8,0l23.435-13.546c1.325-.766,1.324-2.007,0-2.772l-23.415-13.519a5.307,5.307,0,0,0-4.8,0l-23.451,13.52C1802.9,1105.624,1802.9,1106.864,1804.224,1107.63Z" transform="translate(-594.901 -565.855)" fill="url(#linear-gradient)"/>
    <path id="Path_9155" data-name="Path 9155" d="M1713.975,935.331l-3.3-1.907-1.648.954,3.3,1.906Z" transform="translate(-523.375 -446.389)" fill="url(#linear-gradient-4)"/>
    <path id="Path_9156" data-name="Path 9156" d="M1709.029,937.387v1.9l3.3,1.906v-1.9Z" transform="translate(-523.375 -449.397)" fill="url(#linear-gradient-4)"/>
    <path id="Path_9157" data-name="Path 9157" d="M1686.828,951.153l-3.3-1.907-1.648.954,3.3,1.906Z" transform="translate(-502.764 -458.401)" fill="url(#linear-gradient-4)"/>
    <path id="Path_9158" data-name="Path 9158" d="M1681.882,953.208v1.9l3.3,1.906v-1.9Z" transform="translate(-502.764 -461.41)" fill="url(#linear-gradient-4)"/>
    <path id="Path_9159" data-name="Path 9159" d="M1658.663,966.974l-3.3-1.907-1.648.954,3.3,1.906Z" transform="translate(-481.379 -470.414)" fill="url(#linear-gradient-4)"/>
    <path id="Path_9160" data-name="Path 9160" d="M1653.717,969.03v1.9l3.3,1.906v-1.9Z" transform="translate(-481.379 -473.423)" fill="url(#linear-gradient-4)"/>
    <path id="Path_9161" data-name="Path 9161" d="M1750.956,941.347l0,1.9,1.648.952v-1.9Z" transform="translate(-555.207 -452.404)" fill="none" stroke="#000" stroke-miterlimit="10" stroke-width="1"/>
    <path id="Path_9162" data-name="Path 9162" d="M1750.965,935.331l3.3-1.907,1.648.954-3.3,1.906Z" transform="translate(-555.217 -446.389)" fill="url(#linear-gradient-4)"/>
    <path id="Path_9163" data-name="Path 9163" d="M1761.1,937.387v1.9l-3.3,1.906v-1.9Z" transform="translate(-560.405 -449.397)" fill="url(#linear-gradient-4)"/>
    <path id="Path_9164" data-name="Path 9164" d="M1778.1,957.168l0,1.9,1.648.951v-1.9Z" transform="translate(-575.819 -464.417)" fill="none" stroke="#000" stroke-miterlimit="10" stroke-width="1"/>
    <path id="Path_9165" data-name="Path 9165" d="M1778.112,951.153l3.3-1.907,1.648.954-3.3,1.906Z" transform="translate(-575.828 -458.401)" fill="url(#linear-gradient-4)"/>
    <path id="Path_9166" data-name="Path 9166" d="M1788.246,953.208v1.9l-3.3,1.906v-1.9Z" transform="translate(-581.017 -461.41)" fill="url(#linear-gradient-4)"/>
    <path id="Path_9167" data-name="Path 9167" d="M1806.267,972.99l0,1.9,1.648.952v-1.9Z" transform="translate(-597.204 -476.43)" fill="none" stroke="#000" stroke-miterlimit="10" stroke-width="1"/>
    <path id="Path_9168" data-name="Path 9168" d="M1806.277,966.974l3.3-1.907,1.648.954-3.3,1.906Z" transform="translate(-597.213 -470.414)" fill="url(#linear-gradient-4)"/>
    <path id="Path_9169" data-name="Path 9169" d="M1816.411,969.03v1.9l-3.3,1.906v-1.9Z" transform="translate(-602.402 -473.423)" fill="url(#linear-gradient-4)"/>
    <path id="Path_9170" data-name="Path 9170" d="M1657.515,934.81,1677.4,946.4l19.983-11.431-19.882-11.6Z" transform="translate(-484.263 -438.761)" fill="#f3f6ff"/>
    <path id="Path_9171" data-name="Path 9171" d="M1657.515,970.869l.011,7.753,19.921,11.5-.051-7.66Z" transform="translate(-484.263 -474.82)" fill="#d4dffc"/>
    <path id="Path_9172" data-name="Path 9172" d="M1655.323,996.574l0,1.9,1.648.951v-1.9Z" transform="translate(-482.596 -494.337)" fill="#d4dffc"/>
    <path id="Path_9173" data-name="Path 9173" d="M1655.333,990.558l3.3-1.907,1.648.954-3.3,1.906Z" transform="translate(-482.605 -488.321)" fill="url(#linear-gradient-4)"/>
    <path id="Path_9174" data-name="Path 9174" d="M1665.467,992.614v1.9l-3.3,1.906v-1.9Z" transform="translate(-487.794 -491.33)" fill="url(#linear-gradient-4)"/>
    <path id="Path_9175" data-name="Path 9175" d="M1682.47,1012.4l0,1.9,1.648.952v-1.9Z" transform="translate(-503.208 -506.35)" fill="#d4dffc"/>
    <path id="Path_9176" data-name="Path 9176" d="M1682.479,1006.38l3.3-1.907,1.648.954-3.3,1.906Z" transform="translate(-503.217 -500.334)" fill="url(#linear-gradient-4)"/>
    <path id="Path_9177" data-name="Path 9177" d="M1692.614,1008.435v1.9l-3.3,1.906v-1.9Z" transform="translate(-508.406 -503.343)" fill="url(#linear-gradient-4)"/>
    <path id="Path_9178" data-name="Path 9178" d="M1710.635,1028.217l0,1.9,1.648.951v-1.9Z" transform="translate(-524.592 -518.362)" fill="#d4dffc"/>
    <path id="Path_9179" data-name="Path 9179" d="M1710.644,1022.2l3.3-1.907,1.648.954-3.3,1.906Z" transform="translate(-524.602 -512.346)" fill="url(#linear-gradient-4)"/>
    <path id="Path_9180" data-name="Path 9180" d="M1720.778,1024.257v1.9l-3.3,1.905v-1.9Z" transform="translate(-529.791 -515.355)" fill="url(#linear-gradient-4)"/>
    <path id="Path_9181" data-name="Path 9181" d="M1740.158,990.638l19.933-11.507v-7.584l-19.983,11.432Z" transform="translate(-546.972 -475.335)" fill="#dee7fc"/>
    <path id="Path_9182" data-name="Path 9182" d="M1819.895,996.586l0,1.9-1.648.952v-1.9Z" transform="translate(-606.304 -494.346)" fill="#d4dffc"/>
    <path id="Path_9183" data-name="Path 9183" d="M1809.485,990.571l-3.3-1.907-1.648.954,3.3,1.906Z" transform="translate(-595.894 -488.33)" fill="url(#linear-gradient-4)"/>
    <path id="Path_9184" data-name="Path 9184" d="M1804.539,992.626v1.9l3.3,1.906v-1.9Z" transform="translate(-595.894 -491.339)" fill="url(#linear-gradient-4)"/>
    <path id="Path_9185" data-name="Path 9185" d="M1792.748,1012.408l0,1.9-1.648.952v-1.9Z" transform="translate(-585.692 -506.359)" fill="#d4dffc"/>
    <path id="Path_9186" data-name="Path 9186" d="M1782.338,1006.392l-3.3-1.907-1.648.954,3.3,1.906Z" transform="translate(-575.282 -500.343)" fill="url(#linear-gradient-4)"/>
    <path id="Path_9187" data-name="Path 9187" d="M1777.392,1008.448v1.9l3.3,1.906v-1.9Z" transform="translate(-575.282 -503.352)" fill="url(#linear-gradient-4)"/>
    <path id="Path_9188" data-name="Path 9188" d="M1764.583,1028.229l0,1.9-1.648.951v-1.9Z" transform="translate(-564.307 -518.372)" fill="#d4dffc"/>
    <path id="Path_9189" data-name="Path 9189" d="M1754.173,1022.213l-3.3-1.907-1.648.954,3.3,1.906Z" transform="translate(-553.897 -512.356)" fill="url(#linear-gradient-4)"/>
    <path id="Path_9190" data-name="Path 9190" d="M1749.228,1024.269v1.9l3.3,1.905v-1.9Z" transform="translate(-553.897 -515.365)" fill="url(#linear-gradient-4)"/>
    <g id="Group_614" data-name="Group 614" transform="translate(1182.524 489.917)">
      <path id="Path_9191" data-name="Path 9191" d="M1716.048,957.741l-20.017-11.518,1.428-.828,20.027,11.524Z" transform="translate(-1696.031 -945.395)" fill="url(#linear-gradient-4)"/>
    </g>
    <path id="Path_9192" data-name="Path 9192" d="M1353.034,862.422l15.505,8.952,54.268-31.328-15.5-8.949Z" transform="translate(-253.078 -368.694)" fill="#f3f6ff"/>
    <path id="Path_9193" data-name="Path 9193" d="M1417.445,899.6l15.511,17.907,54.262-31.328-15.5-17.907Z" transform="translate(-301.983 -396.92)" fill="url(#linear-gradient-29)"/>
    <path id="Path_9194" data-name="Path 9194" d="M1353.034,961.226v44.758l31.016,17.907V988.085l-15.511-17.907Z" transform="translate(-253.078 -467.498)" fill="url(#linear-gradient-30)"/>
    <path id="Path_9195" data-name="Path 9195" d="M1481.879,1009.8l54.262-31.328V942.662l-54.262,31.328Z" transform="translate(-350.907 -453.403)" fill="url(#linear-gradient-30)"/>
    <path id="Path_9196" data-name="Path 9196" d="M1481.882,556v53.709l38.75-22.372.007-53.713Z" transform="translate(-350.909 -142.831)" fill="#f3f6ff"/>
    <path id="Path_9197" data-name="Path 9197" d="M1327.388,557.705l-38.763,22.378V481.617l38.769-22.374Z" transform="translate(-204.175 -86.355)" fill="url(#linear-gradient-32)"/>
    <path id="Path_9198" data-name="Path 9198" d="M1481.855,379.041v26.847l54.272-31.328-.011-26.847Z" transform="translate(-350.889 -1.674)" fill="#f3f6ff"/>
    <path id="Path_9199" data-name="Path 9199" d="M1675.089,532.923l0,35.8,31.01-17.9,0-35.8Z" transform="translate(-497.603 -128.706)" fill="url(#linear-gradient-32)"/>
    <path id="Path_9200" data-name="Path 9200" d="M1127.6,625.892l0,35.8,31.01-17.9,0-35.8Z" transform="translate(-81.906 -199.294)" fill="url(#linear-gradient-32)"/>
    <path id="Path_9201" data-name="Path 9201" d="M1127.61,811.814l31.009-17.9v44.757L1127.6,856.577Z" transform="translate(-81.912 -340.46)" fill="#f3f6ff"/>
    <g id="Group_615" data-name="Group 615" transform="translate(1107.404 470.823)">
      <path id="Path_9202" data-name="Path 9202" d="M1383.974,880.567l0-5h.609l0,3.948,23.264-13.437v13.959h-.609v-12.9Z" transform="translate(-1383.974 -866.075)" fill="#d4dffc"/>
    </g>
    <g id="Group_616" data-name="Group 616" transform="translate(1134.542 453.457)">
      <path id="Path_9203" data-name="Path 9203" d="M1496.714,823.022l-.008-13.6,19.395-11.181v-4.3h.609v4.651l-19.395,11.181.008,13.251Z" transform="translate(-1496.706 -793.937)" fill="#d4dffc"/>
    </g>
    <g id="Group_617" data-name="Group 617" transform="translate(1154.089 431.079)">
      <path id="Path_9204" data-name="Path 9204" d="M1578.21,728.092l-.3-.527,38.579-22.29v-4.3h.609v4.652l-.152.088Z" transform="translate(-1577.906 -700.975)" fill="#d4dffc"/>
    </g>
    <g id="Group_618" data-name="Group 618" transform="translate(1060.913 484.524)">
      <path id="Path_9205" data-name="Path 9205" d="M1190.844,950.638v-5h.609v3.948l46.036-26.592.3.527Z" transform="translate(-1190.844 -922.992)" fill="#d4dffc"/>
    </g>
    <g id="Group_621" data-name="Group 621" transform="translate(1060.872 453.458)">
      <g id="Group_619" data-name="Group 619" transform="translate(0 0)">
        <rect id="Rectangle_383" data-name="Rectangle 383" width="0.609" height="1.826" transform="translate(0 0.003) rotate(-0.261)" fill="#d4dffc"/>
      </g>
      <g id="Group_620" data-name="Group 620" transform="translate(0.033 7.109)">
        <rect id="Rectangle_384" data-name="Rectangle 384" width="0.609" height="1.826" transform="translate(0 0.003) rotate(-0.266)" fill="#d4dffc"/>
      </g>
    </g>
    <g id="Group_624" data-name="Group 624" transform="translate(1153.904 390.798)">
      <g id="Group_622" data-name="Group 622" transform="translate(0 0)">
        <rect id="Rectangle_385" data-name="Rectangle 385" width="0.609" height="1.826" fill="#d4dffc"/>
      </g>
      <g id="Group_623" data-name="Group 623" transform="translate(0 7.105)">
        <rect id="Rectangle_386" data-name="Rectangle 386" width="0.609" height="1.826" fill="#d4dffc"/>
      </g>
    </g>
    <g id="Group_625" data-name="Group 625" transform="translate(1157.796 372.369)">
      <path id="Path_9206" data-name="Path 9206" d="M1628.212,479.994l-.032-21.852-34.866,20.133-.006-5h.609l.005,3.947,34.866-20.133.034,22.905Z" transform="translate(-1593.308 -457.088)" fill="#d4dffc"/>
    </g>
    <g id="Group_632" data-name="Group 632" transform="translate(1103.513 345.509)">
      <g id="Group_626" data-name="Group 626" transform="translate(0 36.75)">
        <rect id="Rectangle_387" data-name="Rectangle 387" width="0.609" height="1.826" fill="#d4dffc"/>
      </g>
      <g id="Group_627" data-name="Group 627" transform="translate(0 28.453)">
        <path id="Path_9207" data-name="Path 9207" d="M1368.42,466.707h-.609v-2l1.733-1,.3.527-1.429.825Z" transform="translate(-1367.812 -463.705)" fill="#d4dffc"/>
      </g>
      <g id="Group_628" data-name="Group 628" transform="translate(4.883 2.995)">
        <path id="Path_9208" data-name="Path 9208" d="M1388.4,382.117l-.3-.527,3.15-1.818.3.527Zm6.3-3.637-.3-.527,3.15-1.818.3.527Zm6.3-3.637-.3-.527,3.15-1.818.3.527Zm6.3-3.637-.3-.527,3.15-1.818.3.527Zm6.3-3.637-.3-.527,3.15-1.819.3.527Zm6.3-3.637-.3-.527,3.15-1.818.3.527Zm6.3-3.637-.3-.527,3.149-1.818.3.527Z" transform="translate(-1388.096 -357.951)" fill="#d4dffc"/>
      </g>
      <g id="Group_629" data-name="Group 629" transform="translate(48.978 0)">
        <path id="Path_9209" data-name="Path 9209" d="M1573.306,347.862h-.609v-1.3l-1.124.649-.3-.527,2.038-1.177Z" transform="translate(-1571.27 -345.509)" fill="#d4dffc"/>
      </g>
      <g id="Group_630" data-name="Group 630" transform="translate(50.394 5.2)">
        <path id="Path_9210" data-name="Path 9210" d="M1577.763,375.652h-.608l0-2.847h.608Zm.005-5.694h-.608l0-2.847h.609Z" transform="translate(-1577.155 -367.11)" fill="#d4dffc"/>
      </g>
      <g id="Group_631" data-name="Group 631" transform="translate(50.391 16.589)">
        <rect id="Rectangle_388" data-name="Rectangle 388" width="0.609" height="1.826" fill="#d4dffc"/>
      </g>
    </g>
    <g id="Group_639" data-name="Group 639" transform="translate(1060.872 376.831)">
      <g id="Group_633" data-name="Group 633" transform="translate(0 38.972)">
        <rect id="Rectangle_389" data-name="Rectangle 389" width="1.826" height="0.609" transform="translate(0 1.826) rotate(-89.916)" fill="#d4dffc"/>
      </g>
      <g id="Group_634" data-name="Group 634" transform="translate(0.007 27.584)">
        <path id="Path_9211" data-name="Path 9211" d="M1191.311,598.751h-.609l0-2.847h.609Zm.009-5.694h-.609l0-2.847h.609Z" transform="translate(-1190.702 -590.209)" fill="#d4dffc"/>
      </g>
      <g id="Group_635" data-name="Group 635" transform="translate(0.024 21.734)">
        <path id="Path_9212" data-name="Path 9212" d="M1191.383,568.914h-.609l0-2,1.733-1,.3.527-1.429.826Z" transform="translate(-1190.774 -565.91)" fill="#d4dffc"/>
      </g>
      <g id="Group_636" data-name="Group 636" transform="translate(4.996 3.046)">
        <path id="Path_9213" data-name="Path 9213" d="M1211.73,505.624l-.3-.527,3.235-1.869.3.527Zm6.471-3.737-.3-.527,3.235-1.869.3.527Zm6.471-3.738-.3-.527,3.235-1.869.3.527Zm6.471-3.738-.3-.527,3.235-1.869.3.527Zm6.471-3.737-.3-.527,3.236-1.869.3.527Z" transform="translate(-1211.426 -488.278)" fill="#d4dffc"/>
      </g>
      <g id="Group_637" data-name="Group 637" transform="translate(37.351 0)">
        <path id="Path_9214" data-name="Path 9214" d="M1347.868,477.978h-.609l0-1.3-1.124.649-.3-.527,2.039-1.178Z" transform="translate(-1345.834 -475.623)" fill="#d4dffc"/>
      </g>
      <g id="Group_638" data-name="Group 638" transform="translate(38.764 7.665)">
        <rect id="Rectangle_390" data-name="Rectangle 390" width="1.826" height="0.609" transform="translate(0 1.826) rotate(-89.888)" fill="#d4dffc"/>
      </g>
    </g>
    <g id="Group_642" data-name="Group 642" transform="translate(1076.556 426.341)">
      <g id="Group_640" data-name="Group 640" transform="translate(0 3.555)">
        <rect id="Rectangle_391" data-name="Rectangle 391" width="1.826" height="0.609" transform="matrix(0.866, -0.5, 0.5, 0.866, 0, 0.913)" fill="#d4dffc"/>
      </g>
      <g id="Group_641" data-name="Group 641" transform="translate(6.162 0)">
        <rect id="Rectangle_392" data-name="Rectangle 392" width="1.826" height="0.609" transform="matrix(0.866, -0.5, 0.5, 0.866, 0, 0.913)" fill="#d4dffc"/>
      </g>
    </g>
    <g id="Group_645" data-name="Group 645" transform="translate(1123.082 439.768)">
      <g id="Group_643" data-name="Group 643" transform="translate(0 3.56)">
        <rect id="Rectangle_393" data-name="Rectangle 393" width="1.826" height="0.609" transform="matrix(0.865, -0.501, 0.501, 0.865, 0, 0.916)" fill="#d4dffc"/>
      </g>
      <g id="Group_644" data-name="Group 644" transform="translate(6.145 0)">
        <rect id="Rectangle_394" data-name="Rectangle 394" width="1.826" height="0.609" transform="matrix(0.865, -0.501, 0.501, 0.865, 0, 0.916)" fill="#d4dffc"/>
      </g>
    </g>
    <path id="Path_9215" data-name="Path 9215" d="M1127.592,634.835l30.984-17.929.029-8.917-31.01,17.9Z" transform="translate(-81.906 -199.294)" fill="url(#linear-gradient-4)"/>
    <path id="Path_9216" data-name="Path 9216" d="M1127.641,811.814l.013,8.959,31.009-17.9-.013-8.959Z" transform="translate(-81.943 -340.46)" fill="url(#linear-gradient-4)"/>
    <path id="Path_9217" data-name="Path 9217" d="M1288.626,481.617v8.952l38.783-22.382-.014-8.943Z" transform="translate(-204.175 -86.355)" fill="url(#linear-gradient-4)"/>
    <path id="Path_9218" data-name="Path 9218" d="M1481.824,387.981l54.266-31.315,0-8.953-54.261,31.327Z" transform="translate(-350.865 -1.674)" fill="url(#linear-gradient-4)"/>
    <path id="Path_9219" data-name="Path 9219" d="M1481.838,556l-.014,8.943,38.769-22.374v-8.946Z" transform="translate(-350.865 -142.831)" fill="url(#linear-gradient-4)"/>
    <path id="Path_9220" data-name="Path 9220" d="M1675.067,532.923l-.011,8.958,31.006-17.9.014-8.96Z" transform="translate(-497.581 -128.706)" fill="url(#linear-gradient-4)"/>
    <path id="Path_9221" data-name="Path 9221" d="M1474.98,901.839a2.52,2.52,0,0,1-.152.861c-.657-1.847-3.393-3.232-6.662-3.232s-6,1.382-6.659,3.226a2.5,2.5,0,0,1-.152-.855c0-2.264,3.049-4.1,6.811-4.1S1474.98,899.575,1474.98,901.839Z" transform="translate(-335.323 -419.297)" fill="#2e4c8e"/>
    <path id="Path_9222" data-name="Path 9222" d="M1475.308,908.143c-.009.03-.021.064-.033.094-.719,1.8-3.415,3.137-6.628,3.137s-5.907-1.336-6.622-3.137c-.012-.033-.027-.067-.037-.1.664-1.844,3.393-3.226,6.659-3.226S1474.65,906.3,1475.308,908.143Z" transform="translate(-335.803 -424.739)" fill="url(#linear-gradient-41)"/>
    <g id="Group_646" data-name="Group 646" transform="translate(1111.655 486.287)">
      <path id="Path_9223" data-name="Path 9223" d="M1416.475,940.339l-14.843-9.333,1.192-.688,14.843,9.333Z" transform="translate(-1401.632 -930.317)" fill="url(#linear-gradient-42)"/>
    </g>
    <g id="Group_647" data-name="Group 647" transform="translate(1141.99 468.764)">
      <path id="Path_9224" data-name="Path 9224" d="M1543.143,867.179l-15.5-8.954,1.217-.7,15.5,8.953Z" transform="translate(-1527.648 -857.523)" fill="url(#linear-gradient-42)"/>
    </g>
    <path id="Path_9225" data-name="Path 9225" d="M1475.879,992.9a3.357,3.357,0,0,1-1.132.6c-2.433.755-6.027-.9-8.681-4.181s-3.511-7.143-2.261-9.364a3.364,3.364,0,0,1,.823-.981c2.313-1.868,6.705-.265,9.812,3.581S1478.191,991.033,1475.879,992.9Z" transform="translate(-336.755 -480.381)" fill="url(#linear-gradient-4)"/>
    <path id="Path_9226" data-name="Path 9226" d="M1626.388,906.58a3.362,3.362,0,0,1-1.132.6c-2.434.755-6.027-.9-8.681-4.18s-3.511-7.143-2.261-9.364a3.352,3.352,0,0,1,.823-.981c2.312-1.868,6.7-.265,9.812,3.58S1628.7,904.712,1626.388,906.58Z" transform="translate(-451.033 -414.84)" fill="url(#linear-gradient-4)"/>
    <path id="Path_9227" data-name="Path 9227" d="M1529.842,933.959l8.829,11.9,11.784-6.8-8.825-11.9Z" transform="translate(-387.323 -441.632)" fill="url(#linear-gradient-42)"/>
    <path id="Path_9228" data-name="Path 9228" d="M1539.771,1009.657a.4.4,0,0,1-.136.072,1.351,1.351,0,0,1-1.314-1.626.4.4,0,0,1,.1-.118c.277-.224.8-.032,1.178.43S1540.049,1009.433,1539.771,1009.657Z" transform="translate(-393.711 -502.929)" fill="url(#linear-gradient-4)"/>
    <path id="Path_9229" data-name="Path 9229" d="M1623.505,962.992a.4.4,0,0,1-.136.072,1.351,1.351,0,0,1-1.314-1.627.4.4,0,0,1,.1-.118c.278-.224.805-.032,1.178.43S1623.783,962.768,1623.505,962.992Z" transform="translate(-457.287 -467.498)" fill="url(#linear-gradient-4)"/>
    <path id="Path_9230" data-name="Path 9230" d="M1385.272,1091.394v8.951l7.752,4.476v-8.951Z" transform="translate(-277.555 -566.331)" fill="url(#linear-gradient-4)"/>
    <g id="Group_648" data-name="Group 648" transform="translate(1076.394 502.701)">
      <path id="Path_9231" data-name="Path 9231" d="M1274.841,1050.3l-19.686-11.365V998.5h.609v40.084l19.077,11.014,7.452-4.3v-13.422l7.9-4.562.3.527-7.6,4.386v13.423Z" transform="translate(-1255.155 -998.5)" fill="#d4dffc"/>
    </g>
    <g id="Group_649" data-name="Group 649" transform="translate(1088.023 399.442)">
      <path id="Path_9232" data-name="Path 9232" d="M1303.768,581.35a.3.3,0,0,1-.152-.568L1323,569.592a.3.3,0,1,1,.3.527l-19.382,11.19A.3.3,0,0,1,1303.768,581.35Z" transform="translate(-1303.464 -569.551)" fill="#d4dffc"/>
    </g>
    <g id="Group_650" data-name="Group 650" transform="translate(1088.028 401.677)">
      <path id="Path_9233" data-name="Path 9233" d="M1303.786,597.35a.3.3,0,0,1-.152-.568l31.009-17.9a.3.3,0,1,1,.3.527l-31.01,17.9A.3.3,0,0,1,1303.786,597.35Z" transform="translate(-1303.481 -578.838)" fill="#d4dffc"/>
    </g>
    <g id="Group_651" data-name="Group 651" transform="translate(1088.029 410.629)">
      <path id="Path_9234" data-name="Path 9234" d="M1303.794,634.535a.3.3,0,0,1-.152-.568l31-17.9a.3.3,0,0,1,.3.527l-31,17.9A.3.3,0,0,1,1303.794,634.535Z" transform="translate(-1303.49 -616.024)" fill="#d4dffc"/>
    </g>
    <g id="Group_652" data-name="Group 652" transform="translate(1088.031 426.294)">
      <path id="Path_9235" data-name="Path 9235" d="M1303.8,692.9a.3.3,0,0,1-.152-.568l19.381-11.19a.3.3,0,1,1,.3.527l-19.382,11.19A.3.3,0,0,1,1303.8,692.9Z" transform="translate(-1303.498 -681.101)" fill="#d4dffc"/>
    </g>
    <g id="Group_653" data-name="Group 653" transform="translate(1088.036 428.53)">
      <path id="Path_9236" data-name="Path 9236" d="M1303.821,708.9a.3.3,0,0,1-.152-.568l31.01-17.9a.3.3,0,0,1,.3.527l-31.01,17.9A.3.3,0,0,1,1303.821,708.9Z" transform="translate(-1303.516 -690.387)" fill="#d4dffc"/>
    </g>
    <g id="Group_654" data-name="Group 654" transform="translate(1088.038 437.482)">
      <path id="Path_9237" data-name="Path 9237" d="M1303.83,746.084a.3.3,0,0,1-.152-.568l31-17.9a.3.3,0,1,1,.3.527l-31,17.9A.3.3,0,0,1,1303.83,746.084Z" transform="translate(-1303.525 -727.573)" fill="#d4dffc"/>
    </g>
    <path id="Path_9238" data-name="Path 9238" d="M1312.213,811.916l.013,7.828,27.421-15.833v-7.667Z" transform="translate(-222.083 -342.231)" fill="url(#linear-gradient-42)"/>
    <g id="Group_655" data-name="Group 655" transform="translate(1136.922 421.824)">
      <path id="Path_9239" data-name="Path 9239" d="M1506.9,673.466a.3.3,0,0,1-.153-.568l17.892-10.33a.3.3,0,1,1,.3.527l-17.892,10.33A.3.3,0,0,1,1506.9,673.466Z" transform="translate(-1506.595 -662.528)" fill="#d4dffc"/>
    </g>
    <g id="Group_656" data-name="Group 656" transform="translate(1136.926 423.887)">
      <path id="Path_9240" data-name="Path 9240" d="M1506.916,688.236a.3.3,0,0,1-.152-.568l28.627-16.528a.3.3,0,0,1,.3.527L1507.068,688.2A.3.3,0,0,1,1506.916,688.236Z" transform="translate(-1506.611 -671.1)" fill="#d4dffc"/>
    </g>
    <g id="Group_657" data-name="Group 657" transform="translate(1136.928 432.151)">
      <path id="Path_9241" data-name="Path 9241" d="M1506.925,722.564a.3.3,0,0,1-.153-.568l28.621-16.526a.3.3,0,1,1,.3.527l-28.621,16.526A.3.3,0,0,1,1506.925,722.564Z" transform="translate(-1506.62 -705.428)" fill="#d4dffc"/>
    </g>
    <g id="Group_658" data-name="Group 658" transform="translate(1181.056 410.966)">
      <path id="Path_9242" data-name="Path 9242" d="M1690.235,625.507a.3.3,0,0,1-.152-.568l12.943-7.472a.3.3,0,1,1,.3.527l-12.943,7.473A.3.3,0,0,1,1690.235,625.507Z" transform="translate(-1689.93 -617.425)" fill="#d4dffc"/>
    </g>
    <g id="Group_659" data-name="Group 659" transform="translate(1181.059 412.459)">
      <path id="Path_9243" data-name="Path 9243" d="M1690.247,636.191a.3.3,0,0,1-.152-.568l20.708-11.956a.3.3,0,1,1,.3.528L1690.4,636.151A.3.3,0,0,1,1690.247,636.191Z" transform="translate(-1689.942 -623.627)" fill="#d4dffc"/>
    </g>
    <g id="Group_660" data-name="Group 660" transform="translate(1181.06 418.437)">
      <path id="Path_9244" data-name="Path 9244" d="M1690.252,661.023a.3.3,0,0,1-.152-.568l20.7-11.955a.3.3,0,1,1,.3.527l-20.7,11.955A.3.3,0,0,1,1690.252,661.023Z" transform="translate(-1689.948 -648.459)" fill="#d4dffc"/>
    </g>
    <g id="Group_661" data-name="Group 661" transform="translate(1051.012 433.015)">
      <path id="Path_9245" data-name="Path 9245" d="M1150.021,716.514a.3.3,0,0,1-.152-.568l11.926-6.885a.3.3,0,1,1,.3.527l-11.926,6.885A.3.3,0,0,1,1150.021,716.514Z" transform="translate(-1149.717 -709.02)" fill="#d4dffc"/>
    </g>
    <g id="Group_662" data-name="Group 662" transform="translate(1051.015 434.391)">
      <path id="Path_9246" data-name="Path 9246" d="M1150.032,726.359a.3.3,0,0,1-.152-.568l19.081-11.016a.3.3,0,0,1,.3.527l-19.081,11.016A.3.3,0,0,1,1150.032,726.359Z" transform="translate(-1149.728 -714.734)" fill="#d4dffc"/>
    </g>
    <g id="Group_663" data-name="Group 663" transform="translate(1051.016 439.899)">
      <path id="Path_9247" data-name="Path 9247" d="M1150.037,749.24a.3.3,0,0,1-.152-.568l19.077-11.016a.3.3,0,0,1,.3.527L1150.189,749.2A.3.3,0,0,1,1150.037,749.24Z" transform="translate(-1149.732 -737.616)" fill="#d4dffc"/>
    </g>
    <g id="Group_664" data-name="Group 664" transform="translate(1050.766 477.233)">
      <path id="Path_9248" data-name="Path 9248" d="M1149,900.634a.3.3,0,0,1-.153-.568l12.682-7.322a.3.3,0,1,1,.3.527l-12.682,7.322A.3.3,0,0,1,1149,900.634Z" transform="translate(-1148.693 -892.703)" fill="#d4dffc"/>
    </g>
    <g id="Group_665" data-name="Group 665" transform="translate(1050.769 478.696)">
      <path id="Path_9249" data-name="Path 9249" d="M1149.01,911.1a.3.3,0,0,1-.152-.568l20.29-11.715a.3.3,0,1,1,.3.527l-20.29,11.715A.3.3,0,0,1,1149.01,911.1Z" transform="translate(-1148.705 -898.78)" fill="#d4dffc"/>
    </g>
    <g id="Group_666" data-name="Group 666" transform="translate(1050.77 484.553)">
      <path id="Path_9250" data-name="Path 9250" d="M1149.015,935.434a.3.3,0,0,1-.152-.568l20.287-11.714a.3.3,0,0,1,.3.527l-20.287,11.714A.3.3,0,0,1,1149.015,935.434Z" transform="translate(-1148.711 -923.112)" fill="#d4dffc"/>
    </g>
    <path id="Path_9251" data-name="Path 9251" d="M1156.853,965.9l.008,4.844,16.968-9.8V956.2Z" transform="translate(-104.123 -463.684)" fill="url(#linear-gradient-51)"/>
    <g id="Group_667" data-name="Group 667" transform="translate(1134.542 379.291)">
      <path id="Path_9252" data-name="Path 9252" d="M1497.01,495.408a.3.3,0,0,1-.152-.568l15.5-8.954a.3.3,0,1,1,.3.527l-15.5,8.954A.3.3,0,0,1,1497.01,495.408Z" transform="translate(-1496.706 -485.845)" fill="#d4dffc"/>
    </g>
    <g id="Group_668" data-name="Group 668" transform="translate(1134.542 377.056)">
      <path id="Path_9253" data-name="Path 9253" d="M1497.01,497.31a.3.3,0,0,1-.152-.568l34.888-20.142a.3.3,0,0,1,.3.527l-34.889,20.142A.3.3,0,0,1,1497.01,497.31Z" transform="translate(-1496.706 -476.559)" fill="#d4dffc"/>
    </g>
    <g id="Group_669" data-name="Group 669" transform="translate(1134.539 372.58)">
      <path id="Path_9254" data-name="Path 9254" d="M1497,478.723a.3.3,0,0,1-.153-.568l34.887-20.147a.3.3,0,1,1,.3.527l-34.886,20.147A.3.3,0,0,1,1497,478.723Z" transform="translate(-1496.693 -457.967)" fill="#d4dffc"/>
    </g>
    <path id="Path_9255" data-name="Path 9255" d="M1277.882,1170.923l-3.3-1.907-1.648.954,3.3,1.905Z" transform="translate(-192.262 -625.267)" fill="url(#linear-gradient-4)"/>
    <path id="Path_9256" data-name="Path 9256" d="M1272.937,1172.979v1.9l3.3,1.905v-1.9Z" transform="translate(-192.262 -628.276)" fill="url(#linear-gradient-4)"/>
    <path id="Path_9257" data-name="Path 9257" d="M1250.735,1186.744l-3.3-1.907-1.648.954,3.3,1.906Z" transform="translate(-171.65 -637.28)" fill="url(#linear-gradient-4)"/>
    <path id="Path_9258" data-name="Path 9258" d="M1245.79,1188.8v1.9l3.3,1.906v-1.9Z" transform="translate(-171.65 -640.289)" fill="url(#linear-gradient-4)"/>
    <path id="Path_9259" data-name="Path 9259" d="M1222.571,1202.566l-3.3-1.907-1.648.954,3.3,1.906Z" transform="translate(-150.266 -649.293)" fill="url(#linear-gradient-4)"/>
    <path id="Path_9260" data-name="Path 9260" d="M1217.625,1204.621v1.9l3.3,1.906v-1.9Z" transform="translate(-150.266 -652.302)" fill="url(#linear-gradient-4)"/>
    <path id="Path_9261" data-name="Path 9261" d="M1314.864,1176.939l0,1.9,1.648.951v-1.9Z" transform="translate(-224.094 -631.283)" fill="none" stroke="#000" stroke-miterlimit="10" stroke-width="1"/>
    <path id="Path_9262" data-name="Path 9262" d="M1314.873,1170.923l3.3-1.907,1.648.954-3.3,1.905Z" transform="translate(-224.103 -625.267)" fill="url(#linear-gradient-4)"/>
    <path id="Path_9263" data-name="Path 9263" d="M1325.007,1172.979v1.9l-3.3,1.905v-1.9Z" transform="translate(-229.292 -628.276)" fill="url(#linear-gradient-4)"/>
    <path id="Path_9264" data-name="Path 9264" d="M1342.01,1192.76l0,1.9,1.648.952v-1.9Z" transform="translate(-244.706 -643.296)" fill="none" stroke="#000" stroke-miterlimit="10" stroke-width="1"/>
    <path id="Path_9265" data-name="Path 9265" d="M1342.019,1186.744l3.3-1.907,1.648.954-3.3,1.906Z" transform="translate(-244.715 -637.28)" fill="url(#linear-gradient-4)"/>
    <path id="Path_9266" data-name="Path 9266" d="M1352.154,1188.8v1.9l-3.3,1.906v-1.9Z" transform="translate(-249.904 -640.289)" fill="url(#linear-gradient-4)"/>
    <path id="Path_9267" data-name="Path 9267" d="M1370.175,1208.582l0,1.9,1.648.952v-1.9Z" transform="translate(-266.09 -655.309)" fill="none" stroke="#000" stroke-miterlimit="10" stroke-width="1"/>
    <path id="Path_9268" data-name="Path 9268" d="M1370.184,1202.566l3.3-1.907,1.648.954-3.3,1.906Z" transform="translate(-266.1 -649.293)" fill="url(#linear-gradient-4)"/>
    <path id="Path_9269" data-name="Path 9269" d="M1380.319,1204.621v1.9l-3.3,1.906v-1.9Z" transform="translate(-271.288 -652.302)" fill="url(#linear-gradient-4)"/>
    <path id="Path_9270" data-name="Path 9270" d="M1221.423,1170.4,1241.305,1182l19.983-11.432-19.882-11.6Z" transform="translate(-153.149 -617.639)" fill="#f3f6ff"/>
    <path id="Path_9271" data-name="Path 9271" d="M1221.423,1206.461l.011,7.753,19.922,11.5-.051-7.66Z" transform="translate(-153.149 -653.698)" fill="#d4dffc"/>
    <path id="Path_9272" data-name="Path 9272" d="M1219.231,1232.166l0,1.9,1.648.951v-1.9Z" transform="translate(-151.483 -673.215)" fill="#d4dffc"/>
    <path id="Path_9273" data-name="Path 9273" d="M1219.24,1226.15l3.3-1.907,1.648.954-3.3,1.906Z" transform="translate(-151.492 -667.2)" fill="url(#linear-gradient-4)"/>
    <path id="Path_9274" data-name="Path 9274" d="M1229.375,1228.206v1.9l-3.3,1.906v-1.9Z" transform="translate(-156.681 -670.209)" fill="url(#linear-gradient-4)"/>
    <path id="Path_9275" data-name="Path 9275" d="M1246.378,1247.987l0,1.9,1.648.952v-1.9Z" transform="translate(-172.094 -685.228)" fill="#d4dffc"/>
    <path id="Path_9276" data-name="Path 9276" d="M1246.387,1241.971l3.3-1.907,1.648.954-3.3,1.906Z" transform="translate(-172.104 -679.212)" fill="url(#linear-gradient-4)"/>
    <path id="Path_9277" data-name="Path 9277" d="M1256.521,1244.027v1.9l-3.3,1.906v-1.9Z" transform="translate(-177.292 -682.221)" fill="url(#linear-gradient-4)"/>
    <path id="Path_9278" data-name="Path 9278" d="M1274.542,1263.809l0,1.9,1.648.951v-1.9Z" transform="translate(-193.479 -697.241)" fill="#d4dffc"/>
    <path id="Path_9279" data-name="Path 9279" d="M1274.552,1257.793l3.3-1.907,1.648.954-3.3,1.905Z" transform="translate(-193.488 -691.225)" fill="url(#linear-gradient-4)"/>
    <path id="Path_9280" data-name="Path 9280" d="M1284.686,1259.848v1.9l-3.3,1.905v-1.9Z" transform="translate(-198.677 -694.234)" fill="url(#linear-gradient-4)"/>
    <path id="Path_9281" data-name="Path 9281" d="M1304.065,1226.23,1324,1214.723v-7.584l-19.983,11.432Z" transform="translate(-215.859 -654.213)" fill="#dee7fc"/>
    <path id="Path_9282" data-name="Path 9282" d="M1383.8,1232.178l0,1.9-1.648.951v-1.9Z" transform="translate(-275.191 -673.225)" fill="#d4dffc"/>
    <path id="Path_9283" data-name="Path 9283" d="M1373.393,1226.162l-3.3-1.907-1.648.954,3.3,1.906Z" transform="translate(-264.781 -667.209)" fill="url(#linear-gradient-4)"/>
    <path id="Path_9284" data-name="Path 9284" d="M1368.447,1228.218v1.9l3.3,1.905v-1.9Z" transform="translate(-264.781 -670.218)" fill="url(#linear-gradient-4)"/>
    <path id="Path_9285" data-name="Path 9285" d="M1356.656,1248l0,1.9-1.648.951v-1.9Z" transform="translate(-254.579 -685.238)" fill="#d4dffc"/>
    <path id="Path_9286" data-name="Path 9286" d="M1346.246,1241.984l-3.3-1.907-1.648.954,3.3,1.906Z" transform="translate(-244.169 -679.222)" fill="url(#linear-gradient-4)"/>
    <path id="Path_9287" data-name="Path 9287" d="M1341.3,1244.039v1.9l3.3,1.905v-1.9Z" transform="translate(-244.169 -682.231)" fill="url(#linear-gradient-4)"/>
    <path id="Path_9288" data-name="Path 9288" d="M1328.491,1263.821l0,1.9-1.648.951v-1.9Z" transform="translate(-233.194 -697.25)" fill="#d4dffc"/>
    <path id="Path_9289" data-name="Path 9289" d="M1318.081,1257.805l-3.3-1.907-1.648.954,3.3,1.906Z" transform="translate(-222.784 -691.235)" fill="url(#linear-gradient-4)"/>
    <path id="Path_9290" data-name="Path 9290" d="M1313.135,1259.861v1.9l3.3,1.906v-1.9Z" transform="translate(-222.784 -694.243)" fill="url(#linear-gradient-4)"/>
    <g id="Group_670" data-name="Group 670" transform="translate(1077.545 546.63)">
      <path id="Path_9291" data-name="Path 9291" d="M1279.955,1193.333l-20.017-11.518,1.428-.828,20.026,11.524Z" transform="translate(-1259.938 -1180.987)" fill="url(#linear-gradient-4)"/>
    </g>
    <path id="Path_9292" data-name="Path 9292" d="M1702.028,820.52l-1.51,2.025-.073.1-.92,1.229-3.574-.712a12.078,12.078,0,0,1-2.057,1.118l1.385,1.65.159.19-.883.208-5.4,1.263-1.557-1.854a23.811,23.811,0,0,1-2.914.042l-1.421,1.906-5.875-1.169-.239-.048-.266-.054.044-.057,1.379-1.847a12.663,12.663,0,0,1-2.1-1.043l-3.565.834-1.07-1.274-1.672-1.994,1.439-.336,2.1-.492a3.479,3.479,0,0,1-.074-1.541l-2.11-.421-1.465-.292,2.5-3.35,3.534.7c.136-.1.278-.19.422-.28.049-.033.1-.063.149-.095q.281-.17.585-.332c.29-.154.595-.3.911-.44l-.181-.216-1.332-1.586,6.281-1.471,1.5,1.788c.382-.03.77-.052,1.158-.065q.795-.027,1.6,0c.09,0,.182.006.272.01l.384-.515.027-.038.131-.176.821-1.1,1.283.256,5.1,1.015-1.364,1.829a13.568,13.568,0,0,1,1.246.558,10.474,10.474,0,0,1,.928.531l3.436-.8,2.742,3.268-1.791.418-1.674.392a3.466,3.466,0,0,1,.043,1.565l1.865.373Z" transform="translate(-493.58 -353.274)" fill="url(#linear-gradient-77)"/>
    <path id="Path_9293" data-name="Path 9293" d="M1702.816,804.536l-1.51,2.024-.073.1-.92,1.229-3.574-.712a12.082,12.082,0,0,1-2.057,1.118l1.385,1.65.159.19-.883.208-5.4,1.263-1.557-1.854a23.8,23.8,0,0,1-2.914.042l-1.421,1.906-5.875-1.169-.239-.048-.266-.054.044-.057,1.379-1.847a12.662,12.662,0,0,1-2.1-1.043l-3.565.834-1.07-1.274-1.672-1.994,1.439-.336,2.1-.492a3.485,3.485,0,0,1-.074-1.541l-2.11-.421-1.466-.291,2.5-3.35,3.534.7c.136-.1.278-.19.422-.28.049-.033.1-.063.149-.095.188-.113.382-.224.584-.332.29-.154.595-.3.911-.44l-.182-.216-1.332-1.586,6.281-1.471,1.5,1.788c.383-.03.77-.052,1.158-.065q.795-.027,1.6,0c.09,0,.182.006.272.01l.384-.515.027-.038.131-.175.822-1.1,1.283.256,5.1,1.015-1.364,1.829a13.561,13.561,0,0,1,1.246.558,10.388,10.388,0,0,1,.928.531l3.437-.8,2.742,3.268-1.791.418-1.674.392a3.463,3.463,0,0,1,.043,1.565l1.865.373Z" transform="translate(-494.178 -341.137)" fill="url(#linear-gradient-78)"/>
    <ellipse id="Ellipse_174" data-name="Ellipse 174" cx="5.061" cy="2.647" rx="5.061" ry="2.647" transform="translate(1187.407 459.544) rotate(-0.468)" fill="url(#linear-gradient-79)"/>
    <path id="Path_9294" data-name="Path 9294" d="M1776.47,856.569l.553-.355C1776.845,856.336,1776.661,856.454,1776.47,856.569Z" transform="translate(-574.582 -387.765)" fill="none" stroke="#000" stroke-miterlimit="10" stroke-width="1"/>
    <path id="Path_9295" data-name="Path 9295" d="M1699.046,803.109q-.474.207-.911.44c-.2.107-.4.218-.584.332l-.149.093.132-2.668Z" transform="translate(-514.547 -346.075)" fill="url(#linear-gradient-80)"/>
    <path id="Path_9296" data-name="Path 9296" d="M1770.707,800.081l-.118,2.388a13.576,13.576,0,0,0-1.248-.558Z" transform="translate(-569.17 -345.145)" fill="url(#linear-gradient-81)"/>
    <path id="Path_9297" data-name="Path 9297" d="M1793.115,822.432l-.119,2.412-1.437.337-1.866-.372a3.461,3.461,0,0,0-.042-1.565l1.674-.392Z" transform="translate(-584.59 -362.115)" fill="url(#linear-gradient-82)"/>
    <path id="Path_9298" data-name="Path 9298" d="M1796.241,835.232l-.119,2.412-2.5,3.351.119-2.412.919-1.23Z" transform="translate(-587.603 -371.834)" fill="url(#linear-gradient-83)"/>
    <path id="Path_9299" data-name="Path 9299" d="M1782.462,846.905l-.119,2.412-3.575-.712.119-2.412Z" transform="translate(-576.326 -380.156)" fill="url(#linear-gradient-84)"/>
    <path id="Path_9300" data-name="Path 9300" d="M1772.777,846.193l-.119,2.412-.553.355-1.384-1.651A12,12,0,0,0,1772.777,846.193Z" transform="translate(-570.217 -380.156)" fill="url(#linear-gradient-85)"/>
    <path id="Path_9301" data-name="Path 9301" d="M1756.954,858.479l-.119,2.411-6.279,1.472.119-2.412,5.4-1.264Z" transform="translate(-554.906 -389.485)" fill="url(#linear-gradient-86)"/>
    <path id="Path_9302" data-name="Path 9302" d="M1745.763,858.738l-.119,2.412-1.557-1.856.119-2.411Z" transform="translate(-549.994 -388.273)" fill="url(#linear-gradient-87)"/>
    <path id="Path_9303" data-name="Path 9303" d="M1735.017,856.883l-.119,2.411a23.754,23.754,0,0,1-2.913.043l.119-2.411A23.923,23.923,0,0,0,1735.017,856.883Z" transform="translate(-540.805 -388.273)" fill="url(#linear-gradient-88)"/>
    <path id="Path_9304" data-name="Path 9304" d="M1727.619,857.062l-.119,2.411-1.422,1.906.119-2.411Z" transform="translate(-536.32 -388.409)" fill="url(#linear-gradient-89)"/>
    <path id="Path_9305" data-name="Path 9305" d="M1698.972,848.5l-1.379,1.847q-.447-.228-.843-.478l.119-2.412A12.5,12.5,0,0,0,1698.972,848.5Z" transform="translate(-514.052 -381.114)" fill="url(#linear-gradient-90)"/>
    <path id="Path_9306" data-name="Path 9306" d="M1706.074,860.971l-.119,2.411-6.38-1.27.119-2.412.266.053.239.048Z" transform="translate(-516.198 -390.412)" fill="url(#linear-gradient-91)"/>
    <path id="Path_9307" data-name="Path 9307" d="M1685.623,847.454l-.119,2.412-3.566.836.119-2.412Z" transform="translate(-502.806 -381.114)" fill="url(#linear-gradient-92)"/>
    <path id="Path_9308" data-name="Path 9308" d="M1673.408,840.617l-.119,2.412-2.742-3.268.119-2.412,1.672,1.993Z" transform="translate(-494.157 -373.441)" fill="url(#linear-gradient-93)"/>
    <path id="Path_9309" data-name="Path 9309" d="M1673.852,826.8l-2.1.492-1.668-.332.119-2.412,1.465.292,2.111.421A3.468,3.468,0,0,0,1673.852,826.8Z" transform="translate(-493.806 -363.723)" fill="url(#linear-gradient-94)"/>
    <path id="Path_9310" data-name="Path 9310" d="M1723.6,804.536l-1.51,2.024c-7.218-6.67-15.807-8.494-22.81-8.606l-1.332-1.586,6.281-1.471,1.5,1.788c.382-.03.77-.052,1.158-.065q.795-.027,1.6,0c.09,0,.182.006.272.01l.384-.515.027-.038.131-.175.822-1.1,1.283.256,5.1,1.015-1.364,1.829a13.561,13.561,0,0,1,1.246.558,10.4,10.4,0,0,1,.928.531l3.437-.8,2.742,3.268-1.791.418-1.674.392a3.463,3.463,0,0,1,.043,1.565l1.865.373Z" transform="translate(-514.964 -341.137)" fill="url(#linear-gradient-95)"/>
    <ellipse id="Ellipse_175" data-name="Ellipse 175" cx="16.365" cy="8.558" rx="16.365" ry="8.558" transform="translate(1158.766 545.77) rotate(-0.468)" fill="url(#linear-gradient-96)"/>
    <path id="Path_9311" data-name="Path 9311" d="M1586.332,943.462s-.165-1.7-.62-1.68-1.995-2.691-2.4-2.542,1.136,2.315.6,2.582-1.87,1.306-1.157,2.018a12.037,12.037,0,0,0,2.2,1.513l1.543-.771Z" transform="translate(-427.343 -450.8)" fill="url(#linear-gradient-97)"/>
    <path id="Path_9312" data-name="Path 9312" d="M1639.842,1215.143s.936,3.035-1.92,3.115c-1.857.052-5.72-2.591-5.558-3.154s4.166-.037,4.166-.037l1.611-.813Z" transform="translate(-465.162 -659.615)" fill="#012860"/>
    <path id="Path_9313" data-name="Path 9313" d="M1663.023,1206.142s.936,3.035-1.921,3.115c-1.858.052-5.72-2.59-5.558-3.154s4.165-.037,4.165-.037l1.611-.812Z" transform="translate(-482.762 -652.781)" fill="#012860"/>
    <path id="Path_9314" data-name="Path 9314" d="M1651.4,1117.535l-1.4,22.526s-.43.524-2.356.363c-1.505-.126-1.764-.458-1.764-.458l-.469-21.933,1.235-2.593Z" transform="translate(-475.074 -584.589)" fill="url(#linear-gradient-98)"/>
    <path id="Path_9315" data-name="Path 9315" d="M1674.58,1108.534l-1.4,22.526s-.43.525-2.356.363c-1.505-.126-1.764-.458-1.764-.458l-.469-21.933,1.234-2.593Z" transform="translate(-492.674 -577.754)" fill="url(#linear-gradient-99)"/>
    <path id="Path_9316" data-name="Path 9316" d="M1679.251,986.507s4.03,5.194,4.2,8.026-2.915,4.512-2.915,4.512-1.3-.96-1.421-1.063-4.716-8.368-4.682-8.5S1679.251,986.507,1679.251,986.507Z" transform="translate(-497.109 -486.693)" fill="url(#linear-gradient-100)"/>
    <path id="Path_9317" data-name="Path 9317" d="M1657.884,962.067l.177,2.867-3.5-.2a15.543,15.543,0,0,0-.4-3.121l-.24-.206.274-.446,3.994-.629Z" transform="translate(-481.534 -466.821)" fill="url(#linear-gradient-101)"/>
    <path id="Path_9318" data-name="Path 9318" d="M1646.793,941.118a9.7,9.7,0,0,0-.709,3.5,5.714,5.714,0,0,0,.709,2.858s2.538.549,3.567-.412a2.1,2.1,0,0,0,.732-2.012l-.48-1.578-1.326-3.064-1.074-.114Z" transform="translate(-475.583 -451.606)" fill="url(#linear-gradient-102)"/>
    <path id="Path_9319" data-name="Path 9319" d="M1587.485,957.773s6.952,11.523,8,12.664c.521.568,1.638.288,2.623-.134a.5.5,0,0,1,.069-.03.735.735,0,0,0,.069-.03,13.749,13.749,0,0,0,1.737-.947c.038.856.082,1.728.093,2.582,0,.153.006.307.006.458a111.238,111.238,0,0,1-.881,12.5,87.622,87.622,0,0,0,0,11.843s.669.573,4.274,1.076a11.209,11.209,0,0,0,6.656-1.35l1.1-3.122.513,2.384a4.413,4.413,0,0,0,1.852-.239,5.729,5.729,0,0,0,1.92-.875s-.321-15.432-1-19.632a36.331,36.331,0,0,1-.425-4.282,62.121,62.121,0,0,0-.453-6.422,3.781,3.781,0,0,0-.409-1.268,5.289,5.289,0,0,0-2.963-2.3,9.394,9.394,0,0,0-7.992.65c-.23.137-.461.285-.686.447,0,0-.03.019-.088.06-.45.3-2.538,1.7-3.745,2.538-.208.143-.392.272-.535.376-.294.214-.936-.39-1.712-1.375a.008.008,0,0,1,0-.005,83.215,83.215,0,0,1-5.007-7.857,4.372,4.372,0,0,0-2.08.5A2.625,2.625,0,0,0,1587.485,957.773Z" transform="translate(-431.091 -463.139)" fill="url(#linear-gradient-103)"/>
    <path id="Path_9320" data-name="Path 9320" d="M1632.194,1010.3a13.774,13.774,0,0,0,1.736-.947c.038.856.082,1.728.093,2.582,0,0,1.63-3.932.669-3.679C1633.763,1008.5,1632.91,1009.957,1632.194,1010.3Z" transform="translate(-465.037 -503.202)" fill="url(#linear-gradient-104)"/>
    <path id="Path_9321" data-name="Path 9321" d="M1620.831,988.148c.039.129.667,2.165,1.363,2.2.722.033.884-1.2.884-1.2-.208.143-.392.271-.535.376C1622.25,989.737,1621.608,989.133,1620.831,988.148Z" transform="translate(-456.409 -487.939)" fill="url(#linear-gradient-105)"/>
    <path id="Path_9322" data-name="Path 9322" d="M1685.935,1014.189c1.509,1.514-1.029,5.029-1.029,5.029a4.41,4.41,0,0,0,1.852-.239,5.73,5.73,0,0,0,1.92-.875s-.321-15.432-1-19.632a36.3,36.3,0,0,1-.425-4.282,62.187,62.187,0,0,0-.453-6.422,3.781,3.781,0,0,0-.409-1.268l0,0s.118,8.634-1.589,9.248c-1.97.708-.464,1.4.582,2.845,1.166,1.622,2.614,10.392.412,11.74C1683.842,1011.525,1684.426,1012.677,1685.935,1014.189Z" transform="translate(-504.254 -486.685)" fill="url(#linear-gradient-106)"/>
    <g id="Group_671" data-name="Group 671" transform="translate(1169.583 518.397)">
      <path id="Path_9323" data-name="Path 9323" d="M1643.631,1064.828l.126-.277a4.141,4.141,0,0,1-1.262-.847l-.226.2A4.4,4.4,0,0,0,1643.631,1064.828Z" transform="translate(-1642.269 -1063.704)" fill="url(#linear-gradient-107)"/>
    </g>
    <path id="Path_9324" data-name="Path 9324" d="M1647.715,1053.7v3.534a5.317,5.317,0,0,0,.671.252,7.181,7.181,0,0,0,2.377.143v-3.181Z" transform="translate(-476.821 -537.708)" fill="url(#linear-gradient-108)"/>
    <g id="Group_672" data-name="Group 672" transform="translate(1173.88 519.459)">
      <path id="Path_9325" data-name="Path 9325" d="M1660.142,1068.562c.695-.051,1.213-.141,1.235-.145l-.053-.3c-.005,0-.526.091-1.2.14Z" transform="translate(-1660.12 -1068.117)" fill="url(#linear-gradient-109)"/>
    </g>
    <path id="Path_9326" data-name="Path 9326" d="M1648.246,926.465s-1.166,2.446-.274,3.521,2.085,1.432,2.149,2.172-.458.594-.629,1.092a1.439,1.439,0,0,0,.12,1.029s.995-1.046,1.458-.377.48,1.32,0,1.56-.909,0-.943.343.771,1.372,2.314.926,2.229-1.149,2.435-2.195a4.466,4.466,0,0,0-.411-2.332s1.074-2.446-.229-3.361-2.149-.48-2.766-.709-.183-1.052-.755-1.212-.915,1.166-1.372,1.052-.039-1.553-.389-2.172S1648.246,926.465,1648.246,926.465Z" transform="translate(-476.761 -440.474)" fill="#012860"/>
    <path id="Path_9327" data-name="Path 9327" d="M1823.223,1086.333s1.256,3.426-.709,3.34-6.242-2.131-6.1-3.009,4.609-.321,4.609-.321l1.376-.587Z" transform="translate(-604.905 -562.05)" fill="url(#linear-gradient-110)"/>
    <path id="Path_9328" data-name="Path 9328" d="M1844.049,1080.36s1.244,3.393-.7,3.307-6.181-2.11-6.043-2.98,4.565-.317,4.565-.317l1.362-.582Z" transform="translate(-620.768 -557.519)" fill="url(#linear-gradient-111)"/>
    <path id="Path_9329" data-name="Path 9329" d="M1837.533,990.812a23.773,23.773,0,0,0-.673,6.016c.233,2.223-.718,16.052-.718,16.052s-.172.32-.837.311a1.9,1.9,0,0,1-1.054-.3s-1.273-21.869-.8-23.395,3.972-1.022,3.972-1.022Z" transform="translate(-617.765 -488.124)" fill="url(#linear-gradient-112)"/>
    <path id="Path_9330" data-name="Path 9330" d="M1857.782,986.512a23.537,23.537,0,0,0-.667,5.958c.23,2.2-.711,15.9-.711,15.9s-.17.317-.829.308a1.884,1.884,0,0,1-1.044-.3s-1.26-21.657-.795-23.168,3.933-1.012,3.933-1.012Z" transform="translate(-633.17 -484.877)" fill="url(#linear-gradient-113)"/>
    <path id="Path_9331" data-name="Path 9331" d="M1822.306,957.473a7.657,7.657,0,0,1,2.7-.812c2.587-.048,2.342.66,5.086.661a10.629,10.629,0,0,0,5.388-2,6.687,6.687,0,0,0-.156-3.876,6.222,6.222,0,0,1-.259-4.039,2.562,2.562,0,0,0-2.559-.657c-2.183.573-6.174-.414-6.174-.414l0,0a11.07,11.07,0,0,0,4.675-.259c.514-.147.976-.292,1.391-.437a11.712,11.712,0,0,0,2.733-1.265l-1.734-.058c-1.289-.04-3.113-.1-4.808-.133-2.293-.056-4.349-.081-4.533-.007-.428.173-1.127,1.19-1.127,1.19Z" transform="translate(-609.384 -454.516)" fill="url(#linear-gradient-114)"/>
    <path id="Path_9332" data-name="Path 9332" d="M1861.07,860.325s3.438,5.661,3.367,8.069-6.146,3.772-6.146,3.772l-.021-6.2Z" transform="translate(-636.69 -390.887)" fill="url(#linear-gradient-115)"/>
    <path id="Path_9333" data-name="Path 9333" d="M1827.579,818.031s-1.048,1.735-.744,2.321c.149.288-1,2-.164,2.525,1.143.714,2.832.528,4.546-.99s.468-4.056.468-4.056l-1.92-1.445Z" transform="translate(-612.465 -357.526)" fill="url(#linear-gradient-116)"/>
    <path id="Path_9334" data-name="Path 9334" d="M1785.6,838.948s-1.945-4.6-2.229-4.289.449,1.774-.053,2.416-1.192.957-.456,1.8a11.219,11.219,0,0,0,2.671,1.781Z" transform="translate(-579.19 -371.388)" fill="url(#linear-gradient-117)"/>
    <path id="Path_9335" data-name="Path 9335" d="M1796.062,862.743a8,8,0,0,0,3.311-3.286c-.064.175-.478,1.355-.2,1.918a3.151,3.151,0,0,0,.349.514l.029.039a.546.546,0,0,1,.037.046c.008.012.019.024.029.038a1.493,1.493,0,0,1,.322,1.386c-.152.621-.463,1.255-.763,2.322l0,0a17.714,17.714,0,0,0-.539,2.875,46.972,46.972,0,0,0-.28,5.7s.182.1.511.245a13.707,13.707,0,0,0,3.4.97,11.071,11.071,0,0,0,4.675-.259c.514-.147.976-.292,1.391-.437a11.708,11.708,0,0,0,2.732-1.265c.7-.468.808-.775.808-.775l-.151-.958c-.3-1.852-.967-5.9-1.431-7.641-.4-1.5-.12-3.507.047-5.615a21,21,0,0,0,.058-3.38c-.338-4.172-5.375-4.09-5.375-4.09a7.158,7.158,0,0,0-5.546,2.821,10.986,10.986,0,0,1-3.286,3.577c-.383.176-.672.127-.832-.174-.1-.2-.3-.651-.551-1.228,0,0,0,0,0,0-.937-2.135-2.692-5.981-3.877-5.1C1789.421,852.089,1793.526,864.2,1796.062,862.743Z" transform="translate(-585.315 -383.691)" fill="url(#linear-gradient-118)"/>
    <path id="Path_9336" data-name="Path 9336" d="M1831.961,927.342a9.876,9.876,0,0,1-1.953-.4,4.874,4.874,0,0,1-1.292-.914,5.088,5.088,0,0,0,.91,1.712,2.933,2.933,0,0,0,.716.62s-.336-.982.216-.93A7.187,7.187,0,0,0,1831.961,927.342Z" transform="translate(-614.251 -440.77)" fill="url(#linear-gradient-119)"/>
    <path id="Path_9337" data-name="Path 9337" d="M1826.212,900.932a7.027,7.027,0,0,1,2.058-1.794c.83-.275.78-.335-.143-.741a4.326,4.326,0,0,1-1.474-1.173,1.494,1.494,0,0,1,.322,1.386C1826.823,899.231,1826.512,899.865,1826.212,900.932Z" transform="translate(-612.35 -418.903)" fill="url(#linear-gradient-120)"/>
    <path id="Path_9338" data-name="Path 9338" d="M1856.863,892.295a12.045,12.045,0,0,1,2.973,2.966c.425.728.488,1.406-.086,1.922a7.636,7.636,0,0,0-.614.624,11.456,11.456,0,0,0-1,1.323,11.7,11.7,0,0,0,2.732-1.265c.7-.468.808-.775.808-.775s-.058-.366-.151-.958c-.3-1.852-.967-5.9-1.431-7.641-.4-1.5-.12-3.507.047-5.615,0,0-2.792,2.136-1.971,3.029s1.472,2.687.723,3.278S1854.791,890.714,1856.863,892.295Z" transform="translate(-635.116 -408.009)" fill="url(#linear-gradient-121)"/>
    <path id="Path_9339" data-name="Path 9339" d="M1808.208,874.495c-.035.578,1.248-.492,1.248-.492v0c-.383.176-.672.127-.832-.174-.1-.2-.3-.651-.551-1.228A5.229,5.229,0,0,1,1808.208,874.495Z" transform="translate(-598.577 -400.205)" fill="url(#linear-gradient-122)"/>
    <path id="Path_9340" data-name="Path 9340" d="M1839.055,947.107s3.992.986,6.174.414a2.562,2.562,0,0,1,2.559.657c.016-.081.034-.166.05-.252a10.282,10.282,0,0,0,.017-2.782,11.716,11.716,0,0,1-2.732,1.265c-.415.145-.877.29-1.391.437a11.071,11.071,0,0,1-4.675.259Z" transform="translate(-622.101 -455.287)" fill="url(#linear-gradient-123)"/>
    <path id="Path_9341" data-name="Path 9341" d="M1831.413,813.466s1.585.231.983,2.478-1.265,3.335-.142,4.06.63,1.373.368,2.1c-.593,1.652-.717,4.3,2.847,3.844s6.553-2.5,5.407-5.085c-.638-1.44-2.965-1.977-1.816-3.113.6-.59.526-2.271-.193-4.023-.932-2.272-2.357-3.752-4.8-3.259A3.414,3.414,0,0,0,1831.413,813.466Z" transform="translate(-616.298 -352.96)" fill="#012860"/>
    <path id="Path_9342" data-name="Path 9342" d="M1051.35,883.684s.568,24.688.828,47.882c0,0,.584-37.36.828-47.882Z" transform="translate(-24.017 -408.622)" fill="url(#linear-gradient-124)"/>
    <circle id="Ellipse_176" data-name="Ellipse 176" cx="6.128" cy="6.128" r="6.128" transform="translate(1022.033 464.083)" fill="url(#linear-gradient-125)"/>
    <path id="Path_9343" data-name="Path 9343" d="M1923.026,633.291s.569,38.609.828,74.882c0,0,.584-58.426.828-74.882Z" transform="translate(-685.858 -218.506)" fill="url(#linear-gradient-126)"/>
    <circle id="Ellipse_177" data-name="Ellipse 177" cx="6.128" cy="6.128" r="6.128" transform="translate(1231.868 403.807)" fill="url(#linear-gradient-125)"/>
    <path id="Path_9344" data-name="Path 9344" d="M1540.092,1130.583s.427,18.553.622,35.984c0,0,.439-28.076.622-35.984Z" transform="translate(-395.106 -596.086)" fill="url(#linear-gradient-128)"/>
    <circle id="Ellipse_178" data-name="Ellipse 178" cx="4.605" cy="4.605" r="4.605" transform="translate(1141.003 526.246)" fill="url(#linear-gradient-125)"/>
  </g>
</svg>
