<svg xmlns="http://www.w3.org/2000/svg" xmlns:xlink="http://www.w3.org/1999/xlink" width="241.681" height="215.77" viewBox="0 0 241.681 215.77">
  <defs>
    <linearGradient id="linear-gradient" y1="0.5" x2="1" y2="0.5" gradientUnits="objectBoundingBox">
      <stop offset="0" stop-color="#fff" stop-opacity="0.4"/>
      <stop offset="0.309" stop-color="#fefeff" stop-opacity="0.408"/>
      <stop offset="0.468" stop-color="#fcfdff" stop-opacity="0.439"/>
      <stop offset="0.592" stop-color="#f8fbff" stop-opacity="0.49"/>
      <stop offset="0.698" stop-color="#f3f8ff" stop-opacity="0.565"/>
      <stop offset="0.793" stop-color="#ecf4ff" stop-opacity="0.663"/>
      <stop offset="0.88" stop-color="#e3efff" stop-opacity="0.78"/>
      <stop offset="0.959" stop-color="#d9eaff" stop-opacity="0.918"/>
      <stop offset="0.999" stop-color="#d4e7ff"/>
    </linearGradient>
    <linearGradient id="linear-gradient-2" y1="0.5" x2="1" y2="0.5" gradientUnits="objectBoundingBox">
      <stop offset="0.001" stop-color="#d4e7ff"/>
      <stop offset="0.041" stop-color="#d9eaff" stop-opacity="0.918"/>
      <stop offset="0.12" stop-color="#e3efff" stop-opacity="0.78"/>
      <stop offset="0.207" stop-color="#ecf4ff" stop-opacity="0.663"/>
      <stop offset="0.302" stop-color="#f3f8ff" stop-opacity="0.565"/>
      <stop offset="0.408" stop-color="#f8fbff" stop-opacity="0.49"/>
      <stop offset="0.532" stop-color="#fcfdff" stop-opacity="0.439"/>
      <stop offset="0.691" stop-color="#fefeff" stop-opacity="0.408"/>
      <stop offset="1" stop-color="#fff" stop-opacity="0.4"/>
    </linearGradient>
    <linearGradient id="linear-gradient-4" y1="0.5" x2="1" y2="0.5" gradientUnits="objectBoundingBox">
      <stop offset="0" stop-color="#e9f2ff"/>
      <stop offset="1" stop-color="#d4e3ff"/>
    </linearGradient>
    <linearGradient id="linear-gradient-5" y1="0.5" x2="1" y2="0.5" gradientUnits="objectBoundingBox">
      <stop offset="0" stop-color="#6aaeff"/>
      <stop offset="1" stop-color="#005eff"/>
    </linearGradient>
    <linearGradient id="linear-gradient-7" y1="0.5" x2="1" y2="0.5" gradientUnits="objectBoundingBox">
      <stop offset="0" stop-color="#e9efff"/>
      <stop offset="1" stop-color="#d4e3ff"/>
    </linearGradient>
    <linearGradient id="linear-gradient-10" y1="0.5" x2="1" y2="0.5" gradientUnits="objectBoundingBox">
      <stop offset="0" stop-color="#e9f2ff" stop-opacity="0.4"/>
      <stop offset="0.056" stop-color="#e1edff" stop-opacity="0.451"/>
      <stop offset="0.285" stop-color="#c6daff" stop-opacity="0.647"/>
      <stop offset="0.5" stop-color="#b0ccff" stop-opacity="0.8"/>
      <stop offset="0.698" stop-color="#a0c1ff" stop-opacity="0.91"/>
      <stop offset="0.87" stop-color="#97bbff" stop-opacity="0.976"/>
      <stop offset="0.999" stop-color="#94b9ff"/>
    </linearGradient>
    <linearGradient id="linear-gradient-16" y1="0.5" x2="1" y2="0.5" gradientUnits="objectBoundingBox">
      <stop offset="0" stop-color="#ff0007"/>
      <stop offset="1" stop-color="#ffaaac"/>
    </linearGradient>
    <linearGradient id="linear-gradient-17" y1="0.5" x2="1" y2="0.5" gradientUnits="objectBoundingBox">
      <stop offset="0" stop-color="#025"/>
      <stop offset="1" stop-color="#003a7f"/>
    </linearGradient>
    <linearGradient id="linear-gradient-19" y1="0.5" x2="1" y2="0.5" gradientUnits="objectBoundingBox">
      <stop offset="0" stop-color="#f22aff"/>
      <stop offset="1" stop-color="#6c00e9"/>
    </linearGradient>
    <linearGradient id="linear-gradient-38" y1="0.5" x2="1" y2="0.5" gradientUnits="objectBoundingBox">
      <stop offset="0" stop-color="#e9f2ff" stop-opacity="0.4"/>
      <stop offset="0.056" stop-color="#e7f1ff" stop-opacity="0.451"/>
      <stop offset="0.285" stop-color="#e0edff" stop-opacity="0.647"/>
      <stop offset="0.5" stop-color="#dbeaff" stop-opacity="0.8"/>
      <stop offset="0.698" stop-color="#d7e8ff" stop-opacity="0.91"/>
      <stop offset="0.87" stop-color="#d4e7ff" stop-opacity="0.976"/>
      <stop offset="0.999" stop-color="#d4e7ff"/>
    </linearGradient>
    <linearGradient id="linear-gradient-79" x1="0" y1="0.5" x2="1" y2="0.5" xlink:href="#linear-gradient-7"/>
    <linearGradient id="linear-gradient-85" x1="0" y1="0.5" x2="1" y2="0.5" xlink:href="#linear-gradient-16"/>
    <linearGradient id="linear-gradient-87" y1="0.5" x2="1" y2="0.5" gradientUnits="objectBoundingBox">
      <stop offset="0" stop-color="#ff7f83"/>
      <stop offset="1" stop-color="#ffd4d5"/>
    </linearGradient>
    <linearGradient id="linear-gradient-89" y1="0.5" x2="1" y2="0.5" gradientUnits="objectBoundingBox">
      <stop offset="0" stop-color="#ffd4d5"/>
      <stop offset="1" stop-color="#ff7f83"/>
    </linearGradient>
    <linearGradient id="linear-gradient-92" x1="0.778" y1="0.149" x2="0.112" y2="0.931" gradientUnits="objectBoundingBox">
      <stop offset="0.001" stop-color="#6aaeff"/>
      <stop offset="1" stop-color="#005eff"/>
    </linearGradient>
    <linearGradient id="linear-gradient-93" y1="0.5" x2="1" y2="0.5" gradientUnits="objectBoundingBox">
      <stop offset="0" stop-color="#005eff"/>
      <stop offset="1" stop-color="#6aaeff"/>
    </linearGradient>
    <linearGradient id="linear-gradient-94" y1="0.5" x2="1" y2="0.5" gradientUnits="objectBoundingBox">
      <stop offset="0.003" stop-color="#6a8cff" stop-opacity="0"/>
      <stop offset="1" stop-color="#0011bf"/>
    </linearGradient>
    <linearGradient id="linear-gradient-95" y1="0.5" x2="1" y2="0.5" gradientUnits="objectBoundingBox">
      <stop offset="0" stop-color="#e9f2ff" stop-opacity="0.4"/>
      <stop offset="0.13" stop-color="#e7f0ff" stop-opacity="0.447"/>
      <stop offset="0.363" stop-color="#e3edff" stop-opacity="0.565"/>
      <stop offset="0.672" stop-color="#dce8ff" stop-opacity="0.765"/>
      <stop offset="1" stop-color="#d4e3ff"/>
    </linearGradient>
    <linearGradient id="linear-gradient-99" y1="0.5" x2="1" y2="0.5" gradientUnits="objectBoundingBox">
      <stop offset="0" stop-color="#bfd5ff"/>
      <stop offset="1" stop-color="#59f"/>
    </linearGradient>
    <linearGradient id="linear-gradient-102" x1="0" y1="0.5" x2="1" y2="0.5" xlink:href="#linear-gradient-99"/>
    <linearGradient id="linear-gradient-117" x1="1" y1="0.5" x2="0" y2="0.5" xlink:href="#linear-gradient-10"/>
    <linearGradient id="linear-gradient-118" x1="0" y1="0.5" x2="1" y2="0.5" xlink:href="#linear-gradient-10"/>
    <linearGradient id="linear-gradient-120" x1="0" y1="0.5" x2="1" y2="0.5" xlink:href="#linear-gradient-10"/>
    <linearGradient id="linear-gradient-122" x1="0" y1="0.5" x2="1" y2="0.5" xlink:href="#linear-gradient-10"/>
  </defs>
  <g id="Group_613" data-name="Group 613" transform="translate(-995.333 -348.661)">
    <path id="Path_9016" data-name="Path 9016" d="M1411.6,842.945l53.845,31.127a12.167,12.167,0,0,0,11.022,0l53.844-31.124c3.044-1.759,3.043-4.611,0-6.369l-53.8-31.061a12.2,12.2,0,0,0-11.028,0l-53.88,31.064C1408.563,838.335,1408.561,841.185,1411.6,842.945Z" transform="translate(-320.5 -352.666)" fill="url(#linear-gradient)"/>
    <path id="Path_9017" data-name="Path 9017" d="M1114.53,993.554l29.215,16.889a6.6,6.6,0,0,0,5.98,0l29.214-16.887c1.651-.955,1.651-2.5,0-3.456l-29.189-16.853a6.617,6.617,0,0,0-5.983,0L1114.532,990.1C1112.879,991.053,1112.878,992.6,1114.53,993.554Z" transform="translate(-91.32 -482.985)" fill="url(#linear-gradient-2)"/>
    <path id="Path_9018" data-name="Path 9018" d="M1372.935,1112.4l18.164,10.5a4.1,4.1,0,0,0,3.718,0l18.164-10.5a1.134,1.134,0,0,0,0-2.148l-18.148-10.478a4.113,4.113,0,0,0-3.72,0l-18.176,10.479A1.133,1.133,0,0,0,1372.935,1112.4Z" transform="translate(-291.734 -581.147)" fill="url(#linear-gradient-2)"/>
    <g id="Group_605" data-name="Group 605" transform="translate(1054.203 399.772)">
      <path id="Path_9019" data-name="Path 9019" d="M1327.232,739.649l-71.212-41.114.467-.809,69.809,40.3V705.755l67.576-38.914,2.134,19.78,10.139,5.853,30.815-17.791-23.346-13.478V624.542l-83.021-47.932v36.124l-.235.135-71.8,41.034-.464-.812,71.569-40.9v-37.2L1414.55,624v36.664l24.281,14.018-32.685,18.871-11.018-6.361-2.031-18.827-65.866,37.93Z" transform="translate(-1256.021 -574.99)" fill="#e3ebff"/>
    </g>
    <path id="Path_9020" data-name="Path 9020" d="M1263.536,749.8a9.787,9.787,0,0,1-.725,3.7,13.544,13.544,0,0,1-3.335,4.75,22.884,22.884,0,0,1-5.91,3.956,38.43,38.43,0,0,1-16.37,3.429c-12.42,0-22.834-5.173-25.607-12.135a9.873,9.873,0,0,1-.725-3.7c0-8.745,11.792-15.833,26.332-15.833.251,0,.5,0,.753.007.2,0,.4.007.6.014.168,0,.336.012.5.018.111,0,.221.009.329.016.361.016.72.039,1.077.067.133.009.269.021.4.032.067,0,.133.009.2.016.154.014.308.028.462.044.177.016.352.034.527.055.152.016.3.035.451.053.214.025.428.053.64.083l.053.007c.2.028.389.058.58.087.211.032.421.067.628.1q.621.107,1.224.228a.03.03,0,0,0,.014,0l.483.1c.06.011.12.025.18.039.113.025.223.048.334.076s.223.053.334.078l.041.009c.131.032.262.064.391.1.322.078.642.164.955.253.145.042.292.083.435.127q.432.124.849.262c.094.03.187.06.279.092s.191.062.285.094c.2.067.389.136.58.2l.064.023c.154.055.306.113.458.173.067.023.131.048.2.076q.338.131.67.269c.476.2.939.4,1.39.619l.382.187q.732.362,1.42.757c.145.083.29.168.432.253.021.012.042.025.06.037l.316.193q.089.055.172.111c.11.069.219.138.327.212.074.046.145.094.216.145.092.06.182.122.269.184.364.253.714.511,1.047.78.09.069.177.141.262.212.186.152.37.308.547.467l.138.124a.092.092,0,0,1,.016.014c.071.064.143.129.212.2.032.028.062.058.092.087.064.058.127.12.189.182a.516.516,0,0,1,.048.048c.058.058.115.113.17.17.025.023.048.048.071.071a.05.05,0,0,1,.009.012c.069.071.138.143.2.216.041.039.076.078.11.117s.071.081.108.12c.166.182.322.364.472.55.041.051.08.1.122.152a.092.092,0,0,1,.018.023c.071.09.141.177.207.269s.147.2.216.295q.238.331.447.67c.034.055.069.11.1.166.191.315.364.635.52.957l.069.145.014.028c.039.083.076.166.108.248.073.161.138.322.2.486.037.1.074.2.108.3.085.246.161.492.223.741.014.048.025.1.037.145q.041.162.076.324c.019.092.037.186.053.281a.677.677,0,0,1,.011.067l.021.111q.025.145.042.29c0,.03.009.06.012.087a.018.018,0,0,0,0,.009c.011.1.021.2.03.3,0,.044.007.087.009.131a.052.052,0,0,1,0,.018c.007.076.011.154.014.23a1.021,1.021,0,0,1,0,.117.313.313,0,0,1,0,.064C1263.534,749.6,1263.536,749.7,1263.536,749.8Z" transform="translate(-166.859 -298.293)" fill="url(#linear-gradient-4)"/>
    <path id="Path_9021" data-name="Path 9021" d="M1263.539,804.076v7.4c0,8.745-11.8,15.833-26.339,15.833s-26.332-7.089-26.332-15.833v-7.4a9.877,9.877,0,0,0,.724,3.7c2.771,6.965,13.186,12.136,25.608,12.136s22.844-5.171,25.615-12.136A9.875,9.875,0,0,0,1263.539,804.076Z" transform="translate(-166.861 -352.57)" fill="url(#linear-gradient-5)"/>
    <path id="Path_9022" data-name="Path 9022" d="M1281.614,774.692v5.3a6.615,6.615,0,0,1-.078,1.017c-.854,5.8-8.954,10.34-18.815,10.34s-17.96-4.539-18.815-10.34a6.615,6.615,0,0,1-.078-1.017v-5.3a7.012,7.012,0,0,0,.518,2.648,7.77,7.77,0,0,0,.492,1.023c2.544,4.474,9.589,7.685,17.883,7.685s15.338-3.211,17.883-7.685a7.818,7.818,0,0,0,.492-1.023A7.146,7.146,0,0,0,1281.614,774.692Z" transform="translate(-192.378 -329.822)" fill="url(#linear-gradient-5)"/>
    <path id="Path_9023" data-name="Path 9023" d="M1281.612,735.744a7.088,7.088,0,0,1-.519,2.653c-1.988,5-9.464,8.706-18.376,8.706s-16.383-3.71-18.371-8.706a7.088,7.088,0,0,1-.519-2.653c0-6.273,8.458-11.359,18.891-11.359S1281.612,729.47,1281.612,735.744Z" transform="translate(-192.377 -290.876)" fill="#f3f6ff"/>
    <ellipse id="Ellipse_161" data-name="Ellipse 161" cx="0.901" cy="1.757" rx="0.901" ry="1.757" transform="translate(1060.771 468.585)" fill="url(#linear-gradient-7)"/>
    <ellipse id="Ellipse_162" data-name="Ellipse 162" cx="1.243" cy="1.757" rx="1.243" ry="1.757" transform="translate(1068.89 469.519)" fill="url(#linear-gradient-7)"/>
    <ellipse id="Ellipse_163" data-name="Ellipse 163" cx="1.062" cy="1.757" rx="1.062" ry="1.757" transform="translate(1077.79 468.635)" fill="url(#linear-gradient-7)"/>
    <path id="Path_9024" data-name="Path 9024" d="M1281.614,803.7a7.174,7.174,0,0,1-.518,2.648c-1.988,5-9.466,8.708-18.375,8.708s-16.387-3.71-18.375-8.708a7.039,7.039,0,0,1-.518-2.648,6.761,6.761,0,0,1,.078-1.023c.855,5.8,8.948,10.34,18.815,10.34s17.961-4.539,18.815-10.34A6.761,6.761,0,0,1,1281.614,803.7Z" transform="translate(-192.378 -351.486)" fill="url(#linear-gradient-10)"/>
    <g id="Group_606" data-name="Group 606" transform="translate(1023.303 348.661)">
      <path id="Path_9025" data-name="Path 9025" d="M1165.323,440.927a46.133,46.133,0,1,1,46.133-46.133A46.185,46.185,0,0,1,1165.323,440.927Zm0-90.708a44.575,44.575,0,1,0,44.575,44.575A44.625,44.625,0,0,0,1165.323,350.219Z" transform="translate(-1119.19 -348.661)" fill="url(#linear-gradient-4)"/>
    </g>
    <g id="Group_607" data-name="Group 607" transform="translate(1040.316 354.528)">
      <path id="Path_9026" data-name="Path 9026" d="M1221.7,460.976a35.887,35.887,0,0,1-13.629-8.212c-6.181-5.773-13.55-16.523-13.55-34.956s7.366-29.183,13.545-34.956a35.876,35.876,0,0,1,13.624-8.212l.412,1.5a35.029,35.029,0,0,0-13.029,7.9c-5.928,5.56-12.994,15.932-12.994,33.764s7.068,28.2,13,33.764a35.044,35.044,0,0,0,13.034,7.9Z" transform="translate(-1194.524 -374.641)" fill="url(#linear-gradient-4)"/>
    </g>
    <g id="Group_608" data-name="Group 608" transform="translate(1065.189 351.811)">
      <path id="Path_9027" data-name="Path 9027" d="M1307.383,451.662l-.411-1.5.206.752-.206-.751a35.044,35.044,0,0,0,13.034-7.9c5.93-5.56,13-15.932,13-33.764s-7.071-28.2-13-33.764a35.055,35.055,0,0,0-13.038-7.9l-2.3-.632,2.224-.848c.494-.188,12.2-4.576,20.914-1.852l-.465,1.487c-6.091-1.9-14.035,0-17.775,1.121a38.369,38.369,0,0,1,11.441,7.431c6.183,5.772,13.554,16.523,13.554,34.956s-7.368,29.183-13.55,34.956A35.883,35.883,0,0,1,1307.383,451.662Z" transform="translate(-1304.667 -362.609)" fill="url(#linear-gradient-4)"/>
    </g>
    <g id="Group_609" data-name="Group 609" transform="translate(1023.706 366.479)">
      <path id="Path_9028" data-name="Path 9028" d="M1166.714,490.137c-25.221,0-45.74-14.035-45.74-31.287s20.519-31.287,45.74-31.287c25.191,0,45.686,14.035,45.686,31.287S1191.906,490.137,1166.714,490.137Zm0-61.016c-24.362,0-44.182,13.336-44.182,29.729s19.82,29.729,44.182,29.729c24.333,0,44.128-13.336,44.128-29.729S1191.047,429.121,1166.714,429.121Z" transform="translate(-1120.974 -427.563)" fill="url(#linear-gradient-4)"/>
    </g>
    <g id="Group_610" data-name="Group 610" transform="translate(1048.54 352.98)">
      <path id="Path_9029" data-name="Path 9029" d="M1249.875,370.832c-.093-.027-9.435-2.681-18.623-.814l-.311-1.527a45.239,45.239,0,0,1,19.368.844Z" transform="translate(-1230.941 -367.784)" fill="url(#linear-gradient-4)"/>
    </g>
    <circle id="Ellipse_164" data-name="Ellipse 164" cx="3.253" cy="3.253" r="3.253" transform="translate(1045.114 421.551)" fill="url(#linear-gradient-16)"/>
    <circle id="Ellipse_165" data-name="Ellipse 165" cx="3.253" cy="3.253" r="3.253" transform="translate(1086.152 419.339)" fill="url(#linear-gradient-17)"/>
    <circle id="Ellipse_166" data-name="Ellipse 166" cx="3.253" cy="3.253" r="3.253" transform="translate(1045.114 367.258)" fill="url(#linear-gradient-5)"/>
    <circle id="Ellipse_167" data-name="Ellipse 167" cx="3.253" cy="3.253" r="3.253" transform="translate(1082.899 366.071)" fill="url(#linear-gradient-19)"/>
    <path id="Path_9030" data-name="Path 9030" d="M1250.294,518.131a3.4,3.4,0,0,0,.274.678c.008.018.018.035.028.053a2.614,2.614,0,0,0,.656.784l.008.006.185.132a2.915,2.915,0,0,0,2.992-.111l.238-.138,9.227-5.343,1.255-.726h0l10.335-5.984.581-.336,5.407-3.13.023-.012a6,6,0,0,0,1.483-1.194,7.684,7.684,0,0,0,.891-1.176,7.94,7.94,0,0,0,1.086-2.829,4.789,4.789,0,0,0-.38-3.131,2.523,2.523,0,0,0-.865-.929l0,0a2.333,2.333,0,0,0-.946-.329,3.1,3.1,0,0,0-1.381.168c-.068.023-.136.048-.2.076a5.284,5.284,0,0,0-1.571,1.028,3.165,3.165,0,0,0-1.7-1.215c-1.529-.44-3.476.242-5.173,1.994a9.064,9.064,0,0,0-.748-2.278q-.092-.187-.194-.368a6.082,6.082,0,0,0-2.166-2.294l0,0a5.536,5.536,0,0,0-.612-.315,5.7,5.7,0,0,0-1.538-.427c-2.664-.357-5.871,1.01-8.658,4.029-4.085,4.425-5.915,10.917-4.6,15.471a5.574,5.574,0,0,0-2.028,1.448q-.171.185-.329.382A7.156,7.156,0,0,0,1250.294,518.131Z" transform="translate(-197.248 -109.982)" fill="url(#linear-gradient-10)"/>
    <path id="Path_9031" data-name="Path 9031" d="M1346.982,502.068a9.065,9.065,0,0,1,.748,2.278c1.7-1.752,3.644-2.434,5.173-1.994l-.144-.1C1351.489,500.5,1349.153,500.475,1346.982,502.068Z" transform="translate(-272.237 -117.864)" fill="url(#linear-gradient-5)"/>
    <path id="Path_9032" data-name="Path 9032" d="M1372.566,502.427l.144.1a3.166,3.166,0,0,1,1.7,1.215,5.288,5.288,0,0,1,1.571-1.028c.068-.028.136-.053.2-.076a3.1,3.1,0,0,1,1.381-.168,2.33,2.33,0,0,1,.945.329l-1.621-1.16-.2-.14a2.775,2.775,0,0,0-2.652-.061A5.361,5.361,0,0,0,1372.566,502.427Z" transform="translate(-292.044 -118.041)" fill="url(#linear-gradient-5)"/>
    <path id="Path_9033" data-name="Path 9033" d="M1258.677,504.443l1.844,1.318c-1.316-4.554.513-11.046,4.6-15.471,2.787-3.019,5.994-4.386,8.658-4.029a5.689,5.689,0,0,1,1.538.427,5.522,5.522,0,0,1,.613.315l-1.354-.985-.167-.122c-2.924-2.045-7.4-.96-11.131,3.078C1259.19,493.4,1257.361,499.89,1258.677,504.443Z" transform="translate(-203.548 -105.463)" fill="url(#linear-gradient-5)"/>
    <path id="Path_9034" data-name="Path 9034" d="M1242.427,580.068a2.552,2.552,0,0,0,.8.89h0l1.7,1.21a2.608,2.608,0,0,1-.656-.784c-.01-.018-.02-.035-.028-.053a3.4,3.4,0,0,1-.274-.678,7.157,7.157,0,0,1,1.571-6.02q.158-.2.329-.382a5.575,5.575,0,0,1,2.028-1.448l-1.844-1.318a5.576,5.576,0,0,0-2.028,1.449c-.114.124-.225.252-.33.383C1242.021,575.393,1241.448,578.324,1242.427,580.068Z" transform="translate(-190.923 -172.505)" fill="url(#linear-gradient-5)"/>
    <path id="Path_9035" data-name="Path 9035" d="M1065.37,869.569l-35.019,20.217-35.019-20.224,34.725-20.048.294-.169Z" transform="translate(0 -387.616)" fill="#f3f6ff"/>
    <path id="Path_9036" data-name="Path 9036" d="M995.338,938.868v11.552l35.018,20.218V959.092Z" transform="translate(-0.003 -456.923)" fill="url(#linear-gradient-7)"/>
    <path id="Path_9037" data-name="Path 9037" d="M1150.4,970.66l35.018-20.216V938.9L1150.4,959.114Z" transform="translate(-120.052 -456.945)" fill="url(#linear-gradient-7)"/>
    <path id="Path_9038" data-name="Path 9038" d="M1099.652,1021.3a.957.957,0,0,0-.128.681,1.628,1.628,0,0,0,.232.63,1.709,1.709,0,0,0,.2.266c.445.476,1.029.54,1.3.144a1.365,1.365,0,0,0-.308-1.577C1100.511,1020.974,1099.927,1020.909,1099.652,1021.3Z" transform="translate(-80.652 -520.542)" fill="url(#linear-gradient-5)"/>
    <path id="Path_9039" data-name="Path 9039" d="M1113.122,1029.43a.958.958,0,0,0-.128.681,1.626,1.626,0,0,0,.232.63,1.712,1.712,0,0,0,.2.266c.445.476,1.029.54,1.3.144a1.365,1.365,0,0,0-.308-1.577C1113.981,1029.1,1113.4,1029.035,1113.122,1029.43Z" transform="translate(-91.08 -526.833)" fill="url(#linear-gradient-5)"/>
    <path id="Path_9040" data-name="Path 9040" d="M1126.591,1037.277a.958.958,0,0,0-.128.681,1.623,1.623,0,0,0,.232.63,1.713,1.713,0,0,0,.2.266c.445.476,1.029.54,1.3.144a1.365,1.365,0,0,0-.308-1.578C1127.45,1036.947,1126.866,1036.882,1126.591,1037.277Z" transform="translate(-101.507 -532.908)" fill="url(#linear-gradient-5)"/>
    <path id="Path_9041" data-name="Path 9041" d="M1019.793,976.222v1a.347.347,0,0,0,.173.3l3.528,2.039a.178.178,0,0,0,.267-.154v-.982a.416.416,0,0,0-.208-.36l-3.473-2A.192.192,0,0,0,1019.793,976.222Z" transform="translate(-18.936 -485.692)" fill="url(#linear-gradient-16)"/>
    <path id="Path_9042" data-name="Path 9042" d="M1285.073,969.327a.957.957,0,0,1,.128.681,1.621,1.621,0,0,1-.232.63,1.685,1.685,0,0,1-.2.266c-.445.476-1.029.54-1.3.144a1.365,1.365,0,0,1,.308-1.577C1284.215,969,1284.8,968.932,1285.073,969.327Z" transform="translate(-222.952 -480.303)" fill="url(#linear-gradient-5)"/>
    <path id="Path_9043" data-name="Path 9043" d="M1271.6,977.453a.957.957,0,0,1,.128.681,1.623,1.623,0,0,1-.232.63,1.7,1.7,0,0,1-.2.266c-.445.476-1.029.54-1.3.144a1.365,1.365,0,0,1,.308-1.577C1270.745,977.123,1271.329,977.058,1271.6,977.453Z" transform="translate(-212.524 -486.594)" fill="url(#linear-gradient-5)"/>
    <path id="Path_9044" data-name="Path 9044" d="M1258.134,985.3a.957.957,0,0,1,.128.681,1.621,1.621,0,0,1-.232.63,1.688,1.688,0,0,1-.2.266c-.445.476-1.029.54-1.3.144a1.365,1.365,0,0,1,.308-1.577C1257.276,984.97,1257.86,984.905,1258.134,985.3Z" transform="translate(-202.096 -492.669)" fill="url(#linear-gradient-5)"/>
    <path id="Path_9045" data-name="Path 9045" d="M1178.824,1027.227v1a.347.347,0,0,1-.173.3l-3.528,2.039a.178.178,0,0,1-.267-.154v-.982a.416.416,0,0,1,.208-.36l3.473-2A.192.192,0,0,1,1178.824,1027.227Z" transform="translate(-138.981 -525.178)" fill="url(#linear-gradient-16)"/>
    <path id="Path_9046" data-name="Path 9046" d="M1010.358,931.158V933.1c0,.391-.467.709-1.044.709s-1.045-.318-1.045-.709v-1.939c0,.391.468.709,1.045.709S1010.358,931.549,1010.358,931.158Z" transform="translate(-10.014 -450.954)" fill="url(#linear-gradient-5)"/>
    <path id="Path_9047" data-name="Path 9047" d="M1010.358,928.726c0,.391-.467.709-1.044.709s-1.045-.318-1.045-.709.468-.709,1.045-.709S1010.358,928.335,1010.358,928.726Z" transform="translate(-10.014 -448.522)" fill="url(#linear-gradient-7)"/>
    <path id="Path_9048" data-name="Path 9048" d="M1147.892,851.447v1.939c0,.391-.467.709-1.044.709s-1.045-.318-1.045-.709v-1.939c0,.391.468.709,1.045.709S1147.892,851.838,1147.892,851.447Z" transform="translate(-116.49 -389.244)" fill="url(#linear-gradient-5)"/>
    <path id="Path_9049" data-name="Path 9049" d="M1149.395,889.786s6.31-23.876-.294-40.272l.294-.169,35.018,20.224Z" transform="translate(-119.043 -387.616)" fill="url(#linear-gradient-38)"/>
    <path id="Path_9050" data-name="Path 9050" d="M1147.892,849.015c0,.391-.467.709-1.044.709s-1.045-.318-1.045-.709.468-.709,1.045-.709S1147.892,848.624,1147.892,849.015Z" transform="translate(-116.49 -386.812)" fill="url(#linear-gradient-7)"/>
    <path id="Path_9051" data-name="Path 9051" d="M1289.172,930v1.939c0,.391-.467.709-1.044.709s-1.045-.318-1.045-.709V930c0,.391.468.709,1.045.709S1289.172,930.4,1289.172,930Z" transform="translate(-225.864 -450.061)" fill="url(#linear-gradient-5)"/>
    <path id="Path_9052" data-name="Path 9052" d="M1289.172,927.574c0,.391-.467.709-1.044.709s-1.045-.318-1.045-.709.468-.709,1.045-.709S1289.172,927.183,1289.172,927.574Z" transform="translate(-225.864 -447.63)" fill="url(#linear-gradient-7)"/>
    <path id="Path_9053" data-name="Path 9053" d="M1147.867,1009.317v1.939c0,.391-.467.709-1.044.709s-1.045-.318-1.045-.709v-1.939c0,.391.468.709,1.045.709S1147.867,1009.708,1147.867,1009.317Z" transform="translate(-116.47 -511.462)" fill="url(#linear-gradient-5)"/>
    <path id="Path_9054" data-name="Path 9054" d="M1147.867,1006.885c0,.391-.467.709-1.044.709s-1.045-.318-1.045-.709.468-.709,1.045-.709S1147.867,1006.494,1147.867,1006.885Z" transform="translate(-116.47 -509.031)" fill="url(#linear-gradient-7)"/>
    <path id="Path_9055" data-name="Path 9055" d="M995.424,990.051V1001.6l35.018,20.218v-11.546Z" transform="translate(-0.07 -496.547)" fill="url(#linear-gradient-5)"/>
    <path id="Path_9056" data-name="Path 9056" d="M1150.491,1021.843l35.018-20.216V990.079l-35.018,20.218Z" transform="translate(-120.119 -496.569)" fill="url(#linear-gradient-5)"/>
    <path id="Path_9057" data-name="Path 9057" d="M1099.739,1072.487a.958.958,0,0,0-.128.681,1.625,1.625,0,0,0,.232.63,1.7,1.7,0,0,0,.2.266c.445.476,1.029.54,1.3.144a1.366,1.366,0,0,0-.308-1.578C1100.6,1072.157,1100.013,1072.092,1099.739,1072.487Z" transform="translate(-80.719 -560.167)" fill="url(#linear-gradient-7)"/>
    <path id="Path_9058" data-name="Path 9058" d="M1113.209,1080.613a.959.959,0,0,0-.128.681,1.625,1.625,0,0,0,.232.63,1.705,1.705,0,0,0,.2.266c.445.476,1.029.54,1.3.144a1.365,1.365,0,0,0-.308-1.577C1114.068,1080.283,1113.483,1080.218,1113.209,1080.613Z" transform="translate(-91.147 -566.458)" fill="url(#linear-gradient-7)"/>
    <path id="Path_9059" data-name="Path 9059" d="M1126.678,1088.46a.959.959,0,0,0-.128.681,1.625,1.625,0,0,0,.232.63,1.7,1.7,0,0,0,.2.266c.445.476,1.029.54,1.3.144a1.365,1.365,0,0,0-.308-1.578C1127.537,1088.13,1126.952,1088.065,1126.678,1088.46Z" transform="translate(-101.574 -572.533)" fill="url(#linear-gradient-7)"/>
    <path id="Path_9060" data-name="Path 9060" d="M1019.88,1027.4v1a.347.347,0,0,0,.173.3l3.528,2.039a.178.178,0,0,0,.267-.154v-.982a.415.415,0,0,0-.208-.36l-3.473-2.005A.192.192,0,0,0,1019.88,1027.4Z" transform="translate(-19.003 -525.316)" fill="#f3f6ff"/>
    <path id="Path_9061" data-name="Path 9061" d="M1285.159,1020.51a.959.959,0,0,1,.128.681,1.63,1.63,0,0,1-.232.63,1.7,1.7,0,0,1-.2.266c-.445.476-1.029.54-1.3.144a1.365,1.365,0,0,1,.308-1.577C1284.3,1020.18,1284.885,1020.115,1285.159,1020.51Z" transform="translate(-223.018 -519.928)" fill="url(#linear-gradient-7)"/>
    <path id="Path_9062" data-name="Path 9062" d="M1271.689,1028.636a.957.957,0,0,1,.128.681,1.628,1.628,0,0,1-.232.63,1.713,1.713,0,0,1-.2.266c-.445.476-1.029.54-1.3.144a1.365,1.365,0,0,1,.308-1.577C1270.831,1028.306,1271.415,1028.241,1271.689,1028.636Z" transform="translate(-212.59 -526.219)" fill="url(#linear-gradient-7)"/>
    <path id="Path_9063" data-name="Path 9063" d="M1258.22,1036.483a.958.958,0,0,1,.128.681,1.628,1.628,0,0,1-.232.63,1.709,1.709,0,0,1-.2.267c-.445.476-1.029.54-1.3.144a1.365,1.365,0,0,1,.309-1.577C1257.362,1036.153,1257.946,1036.088,1258.22,1036.483Z" transform="translate(-202.163 -532.293)" fill="url(#linear-gradient-7)"/>
    <path id="Path_9064" data-name="Path 9064" d="M1178.91,1078.41v1a.347.347,0,0,1-.173.3l-3.528,2.039a.178.178,0,0,1-.267-.154v-.982a.416.416,0,0,1,.208-.36l3.472-2.005A.192.192,0,0,1,1178.91,1078.41Z" transform="translate(-139.048 -564.803)" fill="#f3f6ff"/>
    <path id="Path_9065" data-name="Path 9065" d="M995.34,1041.161v11.552l35.018,20.218v-11.546Z" transform="translate(-0.005 -536.115)" fill="url(#linear-gradient-7)"/>
    <path id="Path_9066" data-name="Path 9066" d="M1150.407,1072.953l35.018-20.216v-11.548l-35.018,20.218Z" transform="translate(-120.054 -536.137)" fill="url(#linear-gradient-7)"/>
    <path id="Path_9067" data-name="Path 9067" d="M1099.654,1123.6a.957.957,0,0,0-.128.681,1.625,1.625,0,0,0,.232.63,1.7,1.7,0,0,0,.2.266c.445.476,1.029.54,1.3.144a1.365,1.365,0,0,0-.308-1.577C1100.513,1123.267,1099.929,1123.2,1099.654,1123.6Z" transform="translate(-80.653 -599.735)" fill="url(#linear-gradient-5)"/>
    <path id="Path_9068" data-name="Path 9068" d="M1113.124,1131.722a.957.957,0,0,0-.128.681,1.622,1.622,0,0,0,.232.63,1.693,1.693,0,0,0,.2.267c.445.476,1.029.54,1.3.144a1.365,1.365,0,0,0-.308-1.577C1113.983,1131.392,1113.4,1131.327,1113.124,1131.722Z" transform="translate(-91.081 -606.025)" fill="url(#linear-gradient-5)"/>
    <path id="Path_9069" data-name="Path 9069" d="M1126.594,1139.571a.958.958,0,0,0-.128.681,1.622,1.622,0,0,0,.232.63,1.68,1.68,0,0,0,.2.266c.445.476,1.029.54,1.3.144a1.365,1.365,0,0,0-.308-1.577C1127.453,1139.24,1126.868,1139.175,1126.594,1139.571Z" transform="translate(-101.509 -612.101)" fill="url(#linear-gradient-5)"/>
    <path id="Path_9070" data-name="Path 9070" d="M1019.8,1078.515v1a.348.348,0,0,0,.173.3l3.528,2.039a.178.178,0,0,0,.267-.154v-.982a.416.416,0,0,0-.208-.36l-3.473-2.005A.192.192,0,0,0,1019.8,1078.515Z" transform="translate(-18.938 -564.884)" fill="url(#linear-gradient-16)"/>
    <path id="Path_9071" data-name="Path 9071" d="M1285.075,1071.62a.958.958,0,0,1,.128.681,1.624,1.624,0,0,1-.232.63,1.715,1.715,0,0,1-.2.267c-.445.476-1.029.54-1.3.144a1.365,1.365,0,0,1,.308-1.577C1284.217,1071.29,1284.8,1071.225,1285.075,1071.62Z" transform="translate(-222.953 -559.496)" fill="url(#linear-gradient-5)"/>
    <path id="Path_9072" data-name="Path 9072" d="M1271.605,1079.746a.958.958,0,0,1,.128.681,1.625,1.625,0,0,1-.232.63,1.712,1.712,0,0,1-.2.266c-.445.476-1.029.54-1.3.144a1.365,1.365,0,0,1,.308-1.577C1270.747,1079.416,1271.331,1079.351,1271.605,1079.746Z" transform="translate(-212.525 -565.786)" fill="url(#linear-gradient-5)"/>
    <path id="Path_9073" data-name="Path 9073" d="M1258.136,1087.593a.958.958,0,0,1,.128.681,1.625,1.625,0,0,1-.232.63,1.722,1.722,0,0,1-.2.267c-.445.476-1.029.54-1.3.144a1.365,1.365,0,0,1,.308-1.577C1257.278,1087.263,1257.862,1087.2,1258.136,1087.593Z" transform="translate(-202.098 -571.862)" fill="url(#linear-gradient-5)"/>
    <path id="Path_9074" data-name="Path 9074" d="M1178.826,1129.52v1a.347.347,0,0,1-.173.3l-3.528,2.039a.178.178,0,0,1-.267-.154v-.982a.416.416,0,0,1,.208-.36l3.473-2.005A.192.192,0,0,1,1178.826,1129.52Z" transform="translate(-138.983 -604.371)" fill="url(#linear-gradient-16)"/>
    <path id="Path_9075" data-name="Path 9075" d="M1681.444,525.727v58.439l-67.476-38.958V486.766Z" transform="translate(-478.93 -106.918)" fill="#f3f6ff"/>
    <path id="Path_9076" data-name="Path 9076" d="M1912.761,711.294l3.755-1.877V650.977l-3.755,1.877Z" transform="translate(-710.249 -234.045)" fill="url(#linear-gradient-5)"/>
    <path id="Path_9077" data-name="Path 9077" d="M1685.2,517.414l-67.477-38.96-3.755,1.877,67.477,38.96Z" transform="translate(-478.93 -100.482)" fill="url(#linear-gradient-5)"/>
    <path id="Path_9078" data-name="Path 9078" d="M1689.684,543.5V596.06l-60.689-35.04V508.456Z" transform="translate(-490.563 -123.709)" fill="url(#linear-gradient-7)"/>
    <path id="Path_9079" data-name="Path 9079" d="M1599.373,745.557l-4.257,8.8,68.777,39.451,2.956-9.293Z" transform="translate(-464.336 -307.267)" fill="url(#linear-gradient-5)"/>
    <path id="Path_9080" data-name="Path 9080" d="M1899.673,920.927l12.1-6.986-5.387-4.184-3.754,1.877Z" transform="translate(-700.116 -434.386)" fill="url(#linear-gradient-5)"/>
    <path id="Path_9081" data-name="Path 9081" d="M1656.21,546.921l.005,9.31,48.392,27.939v-9.313Z" transform="translate(-511.634 -153.488)" fill="url(#linear-gradient-19)"/>
    <path id="Path_9082" data-name="Path 9082" d="M1656.21,631.46v2.084l10.833,6.254v-2.085Z" transform="translate(-511.634 -218.935)" fill="#f3f6ff"/>
    <path id="Path_9083" data-name="Path 9083" d="M1815.977,724.2v2.084l10.833,6.254v-2.085Z" transform="translate(-635.321 -290.735)" fill="#f3f6ff"/>
    <path id="Path_9084" data-name="Path 9084" d="M1653.077,678.027l4.9,2.828,1.225,2.115,6.122,3.528v9.9l-12.244-7.069Z" transform="translate(-509.208 -254.986)" fill="url(#linear-gradient-16)"/>
    <path id="Path_9085" data-name="Path 9085" d="M1677.471,695.22l6.74,3.819-.005.769-6.121-3.528Z" transform="translate(-528.093 -268.297)" fill="url(#linear-gradient-17)"/>
    <path id="Path_9086" data-name="Path 9086" d="M1791.586,763.743v4.536a2.468,2.468,0,0,0,1.233,2.136l13.773,7.959a1.032,1.032,0,0,0,1.548-.893v-4.543a2.306,2.306,0,0,0-1.154-2l-13.94-8.041A.974.974,0,0,0,1791.586,763.743Z" transform="translate(-616.438 -320.59)" fill="url(#linear-gradient-5)"/>
    <path id="Path_9087" data-name="Path 9087" d="M1836.568,802.69a.537.537,0,0,0-.072.383.914.914,0,0,0,.13.354.965.965,0,0,0,.115.149c.25.267.578.3.733.081a.766.766,0,0,0-.173-.886C1837.051,802.5,1836.723,802.468,1836.568,802.69Z" transform="translate(-651.201 -351.385)" fill="#f3f6ff"/>
    <path id="Path_9088" data-name="Path 9088" d="M1845.657,807.338a.538.538,0,0,0-.072.383.914.914,0,0,0,.13.354.978.978,0,0,0,.115.15c.25.267.578.3.733.081a.766.766,0,0,0-.173-.886C1846.14,807.152,1845.811,807.116,1845.657,807.338Z" transform="translate(-658.237 -354.983)" fill="#f3f6ff"/>
    <path id="Path_9089" data-name="Path 9089" d="M1854.617,812.912a.537.537,0,0,0-.072.383.916.916,0,0,0,.13.354.969.969,0,0,0,.115.15c.25.267.578.3.733.081a.767.767,0,0,0-.173-.886C1855.1,812.726,1854.771,812.69,1854.617,812.912Z" transform="translate(-665.174 -359.298)" fill="#f3f6ff"/>
    <path id="Path_9090" data-name="Path 9090" d="M1800.451,780.239v.717a.39.39,0,0,0,.195.338l2.178,1.259a.163.163,0,0,0,.245-.141v-.719a.365.365,0,0,0-.182-.316l-2.2-1.272A.154.154,0,0,0,1800.451,780.239Z" transform="translate(-623.301 -333.997)" fill="#f3f6ff"/>
    <path id="Path_9091" data-name="Path 9091" d="M1741.856,745.558v1.693l2.933,1.694v1.694l1.467-1.7-1.467-3.383v1.693Z" transform="translate(-577.938 -307.267)" fill="url(#linear-gradient-17)"/>
    <path id="Path_9092" data-name="Path 9092" d="M1470.6,1017.281l-4.742,2.738-4.743-2.738,4.743-2.738Z" transform="translate(-360.596 -515.508)" fill="url(#linear-gradient-5)"/>
    <path id="Path_9093" data-name="Path 9093" d="M1486.859,1026.668v.528l-4.742,2.738v-.528Z" transform="translate(-376.855 -524.895)" fill="url(#linear-gradient-17)"/>
    <path id="Path_9094" data-name="Path 9094" d="M1461.116,1026.668v.528l4.743,2.738v-.527Z" transform="translate(-360.596 -524.895)" fill="url(#linear-gradient-17)"/>
    <path id="Path_9095" data-name="Path 9095" d="M1428.267,897.377c0,.095,0,.188.009.281a4.729,4.729,0,0,0,.07.561,4.55,4.55,0,0,0,.259.879c.047.117.1.234.154.347a6.452,6.452,0,0,0,1.4,1.862,10.609,10.609,0,0,0,2.749,1.841,17.882,17.882,0,0,0,7.616,1.6c5.776,0,10.621-2.406,11.911-5.645l.009-.022a4.538,4.538,0,0,0,.249-.858,4.251,4.251,0,0,0,.07-.559v-.571a.039.039,0,0,0,0-.013c-.263-3.927-5.642-7.062-12.237-7.062-.117,0-.235,0-.351,0-.095,0-.188,0-.281.006-.077,0-.156.006-.234.009l-.154.008c-.167.007-.334.018-.5.031l-.188.015c-.031,0-.062,0-.092.007-.072.006-.144.013-.214.021s-.164.016-.246.025-.141.016-.21.025c-.1.012-.2.024-.3.038a.141.141,0,0,0-.026,0l-.269.04-.293.047c-.192.034-.382.07-.57.107h-.006c-.076.015-.151.031-.225.047l-.083.018-.155.035-.155.037-.019,0c-.061.015-.123.03-.182.046-.15.037-.3.075-.444.118l-.2.058c-.135.039-.266.08-.395.123-.044.013-.088.028-.13.043s-.089.028-.131.043c-.092.031-.182.064-.271.1l-.03.01c-.071.025-.142.053-.213.08l-.09.035c-.105.042-.21.083-.312.126-.222.092-.437.187-.647.287l-.178.087c-.228.112-.448.231-.661.352l-.2.118-.027.016-.148.09-.08.052c-.052.033-.1.063-.152.1l-.1.068c-.042.028-.085.056-.124.086-.17.117-.331.237-.487.363-.043.032-.083.065-.123.1-.086.07-.172.143-.255.217l-.065.058-.007.006-.1.09c-.015.013-.029.028-.043.042-.03.027-.059.056-.087.084l-.024.022c-.026.027-.053.053-.078.08-.012.01-.022.022-.034.033s0,0,0,.006c-.032.033-.065.067-.1.1-.019.018-.036.037-.052.055s-.032.037-.051.055c-.077.086-.149.17-.219.256l-.056.071s-.007.006-.009.01c-.033.043-.065.083-.1.126s-.068.092-.1.138q-.111.153-.208.311c-.015.027-.031.052-.046.077-.089.147-.17.3-.243.445l-.032.068s0,.009-.006.013c-.018.038-.036.077-.05.115-.034.074-.064.149-.093.225-.016.047-.034.095-.05.142-.04.114-.076.229-.1.345l-.018.066-.035.151c-.007.043-.016.087-.024.132a.152.152,0,0,0-.006.031c0,.016-.006.034-.009.05-.007.046-.015.09-.019.136a.349.349,0,0,0-.006.04.005.005,0,0,1,0,0c0,.046-.009.092-.013.139,0,.021,0,.041,0,.06a.018.018,0,0,0,0,.009c0,.035,0,.073-.006.106a.369.369,0,0,0,0,.055.164.164,0,0,0,0,.031C1428.267,897.284,1428.267,897.331,1428.267,897.377Z" transform="translate(-335.166 -419.099)" fill="#f3f6ff"/>
    <path id="Path_9096" data-name="Path 9096" d="M1466.185,915l2.955,1.706L1472.1,915l-2.956-1.706Z" transform="translate(-364.521 -437.124)" fill="url(#linear-gradient-4)"/>
    <path id="Path_9097" data-name="Path 9097" d="M1428.267,925.27a4.534,4.534,0,0,0,.337,1.721,6.279,6.279,0,0,0,1.551,2.209,10.65,10.65,0,0,0,2.749,1.841,17.476,17.476,0,0,0,6.666,1.573q.471.022.95.022c.315,0,.626-.007.935-.022,5.359-.243,9.755-2.56,10.976-5.623a4.588,4.588,0,0,0,.337-1.721c0-.095,0-.19-.01-.284v-1.113a4.251,4.251,0,0,1-.07.559,4.536,4.536,0,0,1-.249.858l-.009.022c-1.221,3.063-5.617,5.38-10.976,5.623-.309.015-.62.022-.935.022s-.636-.007-.95-.022a17.477,17.477,0,0,1-6.666-1.573,10.607,10.607,0,0,1-2.749-1.841,6.454,6.454,0,0,1-1.4-1.861c-.056-.114-.107-.231-.154-.348a4.549,4.549,0,0,1-.259-.879,4.732,4.732,0,0,1-.07-.561v1.119c0,.018,0,.035,0,.053a.365.365,0,0,0,0,.055.15.15,0,0,0,0,.03C1428.267,925.177,1428.267,925.223,1428.267,925.27Z" transform="translate(-335.166 -445.314)" fill="url(#linear-gradient-5)"/>
    <path id="Path_9098" data-name="Path 9098" d="M1466.185,920.851v.329l2.955,1.706v-.329Z" transform="translate(-364.521 -442.974)" fill="url(#linear-gradient-5)"/>
    <path id="Path_9099" data-name="Path 9099" d="M1482.226,920.85v.329l-2.956,1.706v-.329Z" transform="translate(-374.651 -442.974)" fill="url(#linear-gradient-5)"/>
    <path id="Path_9100" data-name="Path 9100" d="M1478.313,977.424c0,.007,0,.015,0,.022s0,.028,0,.043a.392.392,0,0,0,.021.068.205.205,0,0,0,.012.027.507.507,0,0,0,.108.144.837.837,0,0,0,.212.142,1.379,1.379,0,0,0,.586.123.977.977,0,0,0,.919-.435v0a.336.336,0,0,0,.019-.065.425.425,0,0,0,.006-.043V977.4a.023.023,0,0,0,0-.009V962.578c-.309.015-.62.022-.935.022s-.636-.007-.95-.022V977.41s0,0,0,0a0,0,0,0,0,0,.006A0,0,0,0,0,1478.313,977.424Z" transform="translate(-373.91 -475.278)" fill="url(#linear-gradient-79)"/>
    <path id="Path_9101" data-name="Path 9101" d="M1448.332,862.235v10.351l11.952-6.9V855.334Z" transform="translate(-350.7 -392.253)" fill="#bdd0ff"/>
    <path id="Path_9102" data-name="Path 9102" d="M1446.053,895.1l-.665-.332V884.42l.665.332Z" transform="translate(-348.42 -414.771)" fill="url(#linear-gradient-5)"/>
    <path id="Path_9103" data-name="Path 9103" d="M1445.387,860.762l11.952-6.9.665.333-11.952,6.9Z" transform="translate(-348.42 -391.113)" fill="url(#linear-gradient-5)"/>
    <path id="Path_9104" data-name="Path 9104" d="M1450.994,865.383v9.31l10.75-6.206v-9.31Z" transform="translate(-352.76 -395.227)" fill="#fff"/>
    <path id="Path_9105" data-name="Path 9105" d="M1477.423,911.108V913l-1.933,1.137v-1.916Z" transform="translate(-371.725 -435.432)" fill="#bdd0ff"/>
    <path id="Path_9106" data-name="Path 9106" d="M1474.51,917.965l-.286-.192v-1.558l.286-.165Z" transform="translate(-370.744 -439.257)" fill="url(#linear-gradient-5)"/>
    <path id="Path_9107" data-name="Path 9107" d="M1486.793,923.943l-2.826-1.632-5.654,3.264,2.826,1.632Z" transform="translate(-373.91 -444.105)" fill="#fff"/>
    <path id="Path_9108" data-name="Path 9108" d="M1496.548,929.472v.322l-5.653,3.273v-.332Z" transform="translate(-383.65 -449.649)" fill="url(#linear-gradient-5)"/>
    <path id="Path_9109" data-name="Path 9109" d="M1481.2,938.662l-2.827-1.615V936.7l2.827,1.632Z" transform="translate(-373.96 -455.243)" fill="url(#linear-gradient-5)"/>
    <path id="Path_9110" data-name="Path 9110" d="M1553.47,860.977l-.379.395-.8-1.294s.084-1.186.324-3.06a24.258,24.258,0,0,0,.114-3.931l.637-1.076a15.356,15.356,0,0,1,.053,2.335,41.2,41.2,0,0,0-.137,5.08A14.82,14.82,0,0,0,1553.47,860.977Z" transform="translate(-431.183 -389.679)" fill="url(#linear-gradient-85)"/>
    <path id="Path_9111" data-name="Path 9111" d="M1572.088,998.771a4.994,4.994,0,0,1,.305,2.048c-.087,1.089-.949.528-3.283.014-1.525-.335-2.775-.7-2.585-1.191s3.452-.968,3.452-.968l1.036-.108Z" transform="translate(-442.187 -503.139)" fill="#012860"/>
    <path id="Path_9112" data-name="Path 9112" d="M1558.915,1011.488a5.07,5.07,0,0,1,.31,2.078c-.089,1.105-.963.535-3.331.015-1.547-.34-2.815-.706-2.624-1.208s3.5-.983,3.5-.983l1.052-.11Z" transform="translate(-431.924 -512.982)" fill="#012860"/>
    <path id="Path_9113" data-name="Path 9113" d="M1580.27,879.9s.115,2.478-.7,3.679-1.7,5.838-1.782,10.419,0,12.124,0,12.124a2.046,2.046,0,0,1-1.181.252,1.725,1.725,0,0,1-.93-.349l-1.807-25.006.742-2.128Z" transform="translate(-447.889 -410.492)" fill="url(#linear-gradient-38)"/>
    <path id="Path_9114" data-name="Path 9114" d="M1567.218,890.861s.117,2.515-.708,3.733-1.724,5.924-1.808,10.573,0,12.3,0,12.3a2.077,2.077,0,0,1-1.2.255,1.75,1.75,0,0,1-.943-.354L1560.725,892l.753-2.159Z" transform="translate(-437.711 -418.965)" fill="#f3f6ff"/>
    <path id="Path_9115" data-name="Path 9115" d="M1554.028,799.377a2.22,2.22,0,0,0-.618,1.252s-.322.456-.5.428-1.433-.584-1.433-.584.373-.613.07-.986a.785.785,0,0,1-.057-.928,3.193,3.193,0,0,1,.613-.65c.37-.315.785-.584.862-.421.139.289-.542,1.063-.388,1.072h.006a7.631,7.631,0,0,0,1.868-.212A1.151,1.151,0,0,1,1554.028,799.377Z" transform="translate(-430.462 -347.432)" fill="url(#linear-gradient-87)"/>
    <path id="Path_9116" data-name="Path 9116" d="M1549.969,820.638s-.741-1.448-.769-5.444,0-4.382,0-4.382a3.91,3.91,0,0,1,1.355-.22,4.967,4.967,0,0,1,1.381.289l-.15,2.786Z" transform="translate(-428.78 -357.612)" fill="url(#linear-gradient-5)"/>
    <path id="Path_9117" data-name="Path 9117" d="M1566.039,796.945a10.611,10.611,0,0,1,0,1.906c-.1.73,1.094,1.322,1.135,1.295s1.5-1.53,1.5-1.53l-.351-2.209s-.043-.368-.149-.409-1.588-.289-1.588-.289Z" transform="translate(-441.821 -346.092)" fill="url(#linear-gradient-89)"/>
    <path id="Path_9118" data-name="Path 9118" d="M1559.052,782.913a3.309,3.309,0,0,1-2.139,1.4,7.621,7.621,0,0,1-1.868.212h-.006c-.154-.009.527-.783.388-1.072-.077-.163-.492.106-.862.421a6.44,6.44,0,0,1,.077-1.654,11.018,11.018,0,0,1,.459-1.77l1.839-1.14S1560.154,781.039,1559.052,782.913Z" transform="translate(-432.926 -333.397)" fill="url(#linear-gradient-89)"/>
    <path id="Path_9119" data-name="Path 9119" d="M1565.855,822.891s-.4,1.469-2.756,2.646-6.891,1.065-6.891,1.065a17.228,17.228,0,0,1-.459-1.993,14.793,14.793,0,0,1-.185-1.552,41.219,41.219,0,0,1,.137-5.08,15.34,15.34,0,0,0-.053-2.335c-.1-.988-.273-1.852-.388-3.014a10.851,10.851,0,0,1,1.517-5.814,8.208,8.208,0,0,1,2.659-1.53,10.075,10.075,0,0,1,2.56-.234,1.442,1.442,0,0,1,1.127.844l.013.026c.038.068.073.139.106.216a.081.081,0,0,0,.013.029,7.306,7.306,0,0,1,.441,2.824c0,.17,0,.344-.011.525a16.8,16.8,0,0,0,.836,5.327c.234.816.483,1.623.708,2.428A22.671,22.671,0,0,1,1565.855,822.891Z" transform="translate(-433.463 -353.311)" fill="url(#linear-gradient-5)"/>
    <path id="Path_9120" data-name="Path 9120" d="M1555.642,816.2a1.32,1.32,0,0,0-2.062-.539,4.343,4.343,0,0,0-1.2,1.943c-1.021,2.866-1.478,6.526-.363,7.111,2.315,1.213,3.252-3.886,3.748-6.2A3.876,3.876,0,0,0,1555.642,816.2Z" transform="translate(-430.468 -361.307)" fill="url(#linear-gradient-92)"/>
    <path id="Path_9121" data-name="Path 9121" d="M1592.008,818.722a16.8,16.8,0,0,1-.836-5.327,8.018,8.018,0,0,0-.43-3.349,28.561,28.561,0,0,1,2.2,5.969A3.494,3.494,0,0,1,1592.008,818.722Z" transform="translate(-460.95 -357.192)" fill="url(#linear-gradient-93)"/>
    <path id="Path_9122" data-name="Path 9122" d="M1584.074,836.455s-.4,1.469-2.756,2.646c2.187-2.057,1.451-5.55-1.363-5.991s.134-2.924,1.16-3.728-.057-2.776-1.6-2.831,2.4-4,2.4-4c0,.17,0,.344-.011.525a16.8,16.8,0,0,0,.835,5.327c.234.816.483,1.623.708,2.428A22.672,22.672,0,0,1,1584.074,836.455Z" transform="translate(-451.682 -366.875)" fill="url(#linear-gradient-94)"/>
    <path id="Path_9123" data-name="Path 9123" d="M1553.038,765.085a3.265,3.265,0,0,0,.845,2.977c1.268,1.047,1.274,1.194,1.39,1.654a1.463,1.463,0,0,1-.122.919s.955-1.011,1.213-.68-.39,1.3.5,1.507a2.779,2.779,0,0,0,2.8-1.346,3.467,3.467,0,0,0,.28-1.924s.115-1.819-.933-2.572c-.765-.549-.93-.092-1.552-.437-.213-.118-.023-.813-.822-.813-.606,0-.864.7-1.562.367-.566-.268.187-1.039-.585-1.389S1553.038,765.085,1553.038,765.085Z" transform="translate(-431.708 -321.008)" fill="#012860"/>
    <path id="Path_9124" data-name="Path 9124" d="M1625.151,1079.507v0a1.27,1.27,0,0,1-.639,1.112l-2.175,1.256-.919.529-53.9,31.117a4.84,4.84,0,0,1-4.836,0l-21.7-12.52-.414-.24-2.175-1.256a1.274,1.274,0,0,1-.639-1.056v-.062a1.272,1.272,0,0,1,.639-1.1l57.712-33.319a3.4,3.4,0,0,1,3.4,0l25,14.433A1.268,1.268,0,0,1,1625.151,1079.507Z" transform="translate(-419.929 -553.419)" fill="url(#linear-gradient-95)"/>
    <path id="Path_9125" data-name="Path 9125" d="M1625.151,962.167v0a1.27,1.27,0,0,1-.639,1.112l-2.175,1.256-.919.529-53.9,31.117a4.841,4.841,0,0,1-4.836,0l-21.7-12.52-.414-.24-2.175-1.256a1.275,1.275,0,0,1-.639-1.056v-.062a1.272,1.272,0,0,1,.639-1.1l57.712-33.32a3.4,3.4,0,0,1,3.4,0l25,14.434A1.267,1.267,0,0,1,1625.151,962.167Z" transform="translate(-419.929 -462.577)" fill="url(#linear-gradient-7)"/>
    <path id="Path_9126" data-name="Path 9126" d="M1625.142,1017.016v4.74a1.272,1.272,0,0,1-.639,1.1l-56.992,32.9a4.832,4.832,0,0,1-4.836,0l-24.289-14.019a1.274,1.274,0,0,1-.633-1.262l-.006,0v-4.521a1.274,1.274,0,0,0,.639,1.056l2.175,1.256.414.24,21.7,12.52a4.84,4.84,0,0,0,4.836,0l53.9-31.117.919-.53,2.175-1.256A1.27,1.27,0,0,0,1625.142,1017.016Z" transform="translate(-419.921 -517.423)" fill="url(#linear-gradient-5)"/>
    <path id="Path_9127" data-name="Path 9127" d="M1636.235,981.274l-47.142,27.215a4.223,4.223,0,0,1-4.223,0l-4.024-2.324-12.261-7.08-4.739-2.735a.929.929,0,0,1,0-1.609l48.5-28a2.423,2.423,0,0,1,2.422,0l21.462,12.393A1.238,1.238,0,0,1,1636.235,981.274Z" transform="translate(-439.768 -478.247)" fill="#f3f6ff"/>
    <ellipse id="Ellipse_168" data-name="Ellipse 168" cx="2.566" cy="1.717" rx="2.566" ry="1.717" transform="translate(1186.665 491.236) rotate(-0.29)" fill="#f3f6ff"/>
    <path id="Path_9128" data-name="Path 9128" d="M1850.755,985.141l-.659.38a.162.162,0,0,0,0,.28l.61.352a.411.411,0,0,0,.411,0l.61-.352a.162.162,0,0,0,0-.28l-.659-.38A.313.313,0,0,0,1850.755,985.141Z" transform="translate(-661.672 -492.713)" fill="url(#linear-gradient-5)"/>
    <path id="Path_9129" data-name="Path 9129" d="M1714.947,1139.421v.343a.742.742,0,0,1-.371.642l-4.882,2.82a.545.545,0,0,1-.438.049l-.048-.016a.554.554,0,0,1-.176-.116.538.538,0,0,1-.167-.394v-.311a.849.849,0,0,1,.424-.737l4.578-2.644.225-.13a.572.572,0,0,1,.183-.067.535.535,0,0,1,.148-.007.576.576,0,0,1,.524.568Z" transform="translate(-552.397 -611.744)" fill="#f3f6ff"/>
    <path id="Path_9130" data-name="Path 9130" d="M1712.732,1138.348a.53.53,0,0,0-.148.007.57.57,0,0,0-.183.067l-.225.13-4.578,2.643a.85.85,0,0,0-.424.737v.31a.538.538,0,0,0,.167.394.556.556,0,0,0,.176.116l-.364-.113a.471.471,0,0,1-.167-.053h0a.545.545,0,0,1-.3-.491v-.308a.85.85,0,0,1,.424-.737l4.8-2.773a.554.554,0,0,1,.468-.046l.025.009Z" transform="translate(-550.706 -611.239)" fill="url(#linear-gradient-99)"/>
    <path id="Path_9131" data-name="Path 9131" d="M1749.2,1119.724v.343a.742.742,0,0,1-.371.642l-4.882,2.82a.544.544,0,0,1-.438.049l-.049-.016a.551.551,0,0,1-.176-.116.536.536,0,0,1-.167-.394v-.311a.849.849,0,0,1,.424-.737l4.578-2.644.225-.13a.567.567,0,0,1,.183-.067.537.537,0,0,1,.148-.007.555.555,0,0,1,.25.083A.562.562,0,0,1,1749.2,1119.724Z" transform="translate(-578.915 -596.495)" fill="#f3f6ff"/>
    <path id="Path_9132" data-name="Path 9132" d="M1746.984,1118.65a.535.535,0,0,0-.148.007.564.564,0,0,0-.183.067l-.225.13-4.578,2.643a.849.849,0,0,0-.424.737v.311a.538.538,0,0,0,.167.394.551.551,0,0,0,.176.116l-.364-.113a.468.468,0,0,1-.167-.053h0a.545.545,0,0,1-.3-.491v-.308a.851.851,0,0,1,.424-.737l4.805-2.773a.552.552,0,0,1,.468-.046l.026.009Z" transform="translate(-577.224 -595.989)" fill="url(#linear-gradient-99)"/>
    <path id="Path_9133" data-name="Path 9133" d="M1684.9,1162.348v.206a.445.445,0,0,1-.222.385l-2.931,1.693a.327.327,0,0,1-.263.029l-.029-.01a.333.333,0,0,1-.106-.069.322.322,0,0,1-.1-.236v-.186a.51.51,0,0,1,.255-.442l2.749-1.587.135-.078a.339.339,0,0,1,.11-.041.316.316,0,0,1,.089,0,.331.331,0,0,1,.15.05A.337.337,0,0,1,1684.9,1162.348Z" transform="translate(-531.018 -629.67)" fill="#012860"/>
    <path id="Path_9134" data-name="Path 9134" d="M1584.452,1120.656l7.56,4.365a1.029,1.029,0,0,0,1.026,0h0a.643.643,0,0,0,0-1.115l-7.352-4.245a1.152,1.152,0,0,0-1.15,0l-.084.048A.546.546,0,0,0,1584.452,1120.656Z" transform="translate(-455.868 -596.769)" fill="url(#linear-gradient-99)"/>
    <ellipse id="Ellipse_169" data-name="Ellipse 169" cx="0.662" cy="0.443" rx="0.662" ry="0.443" transform="translate(1126.105 521.609) rotate(-0.29)" fill="url(#linear-gradient-102)"/>
    <path id="Path_9135" data-name="Path 9135" d="M1591.518,1059.817l17.684,10.214a2.415,2.415,0,0,0,2.415,0l13.651-7.881a1,1,0,0,0,0-1.731l-17.9-10.337a2.091,2.091,0,0,0-2.092,0l-13.76,7.944A1.034,1.034,0,0,0,1591.518,1059.817Z" transform="translate(-461.15 -542.805)" fill="url(#linear-gradient-5)"/>
    <path id="Path_9136" data-name="Path 9136" d="M1807.714,998.822l4.161,2.4a1.567,1.567,0,0,0,1.568,0h0a.844.844,0,0,0,0-1.462l-4.033-2.327a1.7,1.7,0,0,0-1.695,0h0A.8.8,0,0,0,1807.714,998.822Z" transform="translate(-628.614 -502.087)" fill="url(#linear-gradient-19)"/>
    <path id="Path_9137" data-name="Path 9137" d="M1712.946,1032.387l9.442,5.451a3.556,3.556,0,0,0,3.557,0h0a1.916,1.916,0,0,0,0-3.318l-9.152-5.281a3.846,3.846,0,0,0-3.845,0h0A1.818,1.818,0,0,0,1712.946,1032.387Z" transform="translate(-554.853 -526.486)" fill="url(#linear-gradient-16)"/>
    <g id="Group_611" data-name="Group 611" transform="translate(1142.025 512.351)">
      <path id="Path_9138" data-name="Path 9138" d="M1647.583,1073.886l1.2.709a11.294,11.294,0,0,0-1.734.406l.4.338a10.9,10.9,0,0,1,1.782-.405l.1-.013,2.139,1.267-.946.573.5.3.946-.573,2.141,1.268c-.007.02-.013.04-.021.06a3.58,3.58,0,0,1-.658,1.072l.569.236a3.758,3.758,0,0,0,.659-1.042l1.2.709c0,.04.007.08.009.12h0a2.5,2.5,0,0,1-.278,1.284l.6.193a2.689,2.689,0,0,0,.3-1.383c-.067-1.315-1.07-2.655-2.753-3.693l.019.013-.025-.017-.025-.016-.062-.038-.017-.011-.013-.008-.032-.019-.088-.051-.04-.022-.012-.007a13.206,13.206,0,0,0-6.221-1.619h0a11.586,11.586,0,0,0-2.308.194l.331.357a10.785,10.785,0,0,1,2.14-.181h0Zm7.2,3.822a2.059,2.059,0,0,0,.006-1.038,4.009,4.009,0,0,1,.972,1.617Zm-2.444-1.447,1.106-.672a1.787,1.787,0,0,1,.766,1.779Zm-2.369-1.4a6.225,6.225,0,0,1,2.977.436l-1.108.671Zm-1.553-.919a12.563,12.563,0,0,1,2.715.565,9.42,9.42,0,0,0-1.735.015Z" transform="translate(-1644.911 -1073.511)" fill="url(#linear-gradient-7)"/>
    </g>
    <g id="Group_612" data-name="Group 612" transform="translate(1138.657 514.896)">
      <path id="Path_9139" data-name="Path 9139" d="M1630,1086.161c.067,1.32,1.078,2.665,2.773,3.706l.011.008.062.038.017.011.013.007a.309.309,0,0,0,.032.02l.088.051.04.022.012.007a13.209,13.209,0,0,0,6.221,1.619h0a11.548,11.548,0,0,0,2.308-.194l-.331-.356a10.767,10.767,0,0,1-2.14.181h0c-.066,0-.133,0-.2,0l-1.2-.71a11.262,11.262,0,0,0,1.734-.406l-.4-.338a10.894,10.894,0,0,1-1.782.405l-.1.013-2.139-1.268.946-.572-.5-.3-.946.573-2.141-1.268c.006-.021.013-.04.02-.06a3.577,3.577,0,0,1,.658-1.072l-.569-.236a3.765,3.765,0,0,0-.658,1.042l-1.2-.709c0-.041-.007-.08-.009-.12h0a2.494,2.494,0,0,1,.278-1.283l-.6-.194A2.69,2.69,0,0,0,1630,1086.161Zm5.047,4.5a9.452,9.452,0,0,0,1.735-.015l.979.58A12.569,12.569,0,0,1,1635.047,1090.657Zm-1.815-.791,1.108-.67,1.869,1.106A6.2,6.2,0,0,1,1633.232,1089.866Zm-1.263-2.073,1.871,1.106-1.106.672A1.785,1.785,0,0,1,1631.969,1087.793Zm-1.551-.919.978.579a2.058,2.058,0,0,0-.006,1.038A4.006,4.006,0,0,1,1630.418,1086.874Z" transform="translate(-1629.997 -1084.778)" fill="url(#linear-gradient-7)"/>
    </g>
    <path id="Path_9140" data-name="Path 9140" d="M1318.2,1146.715v3.849c0,.777-.927,1.408-2.072,1.408s-2.075-.631-2.075-1.408v-3.849c0,.777.929,1.408,2.075,1.408S1318.2,1147.492,1318.2,1146.715Z" transform="translate(-246.741 -617.832)" fill="url(#linear-gradient-16)"/>
    <path id="Path_9141" data-name="Path 9141" d="M1318.2,1141.888c0,.777-.927,1.408-2.072,1.408s-2.075-.631-2.075-1.408.929-1.408,2.075-1.408S1318.2,1141.111,1318.2,1141.888Z" transform="translate(-246.741 -613.005)" fill="url(#linear-gradient-5)"/>
    <path id="Path_9142" data-name="Path 9142" d="M1507.495,769.286v3.85c0,.776-.927,1.408-2.073,1.408s-2.075-.631-2.075-1.408v-3.85c0,.777.929,1.408,2.075,1.408S1507.495,770.063,1507.495,769.286Z" transform="translate(-393.291 -325.637)" fill="url(#linear-gradient-16)"/>
    <path id="Path_9143" data-name="Path 9143" d="M1507.495,764.46c0,.777-.927,1.408-2.073,1.408s-2.075-.632-2.075-1.408.929-1.408,2.075-1.408S1507.495,763.683,1507.495,764.46Z" transform="translate(-393.291 -320.811)" fill="url(#linear-gradient-5)"/>
    <path id="Path_9144" data-name="Path 9144" d="M1476.375,1236.658v3.85c0,.776-.927,1.408-2.073,1.408s-2.075-.631-2.075-1.408v-3.85c0,.777.929,1.408,2.075,1.408S1476.375,1237.435,1476.375,1236.658Z" transform="translate(-369.199 -687.464)" fill="url(#linear-gradient-16)"/>
    <path id="Path_9145" data-name="Path 9145" d="M1476.375,1231.831c0,.777-.927,1.408-2.073,1.408s-2.075-.631-2.075-1.408.929-1.408,2.075-1.408S1476.375,1231.055,1476.375,1231.831Z" transform="translate(-369.199 -682.637)" fill="url(#linear-gradient-5)"/>
    <path id="Path_9146" data-name="Path 9146" d="M1986.069,1041.279v3.849c0,.777-.927,1.408-2.073,1.408s-2.075-.631-2.075-1.408v-3.849c0,.776.929,1.408,2.075,1.408S1986.069,1042.056,1986.069,1041.279Z" transform="translate(-763.79 -536.207)" fill="url(#linear-gradient-16)"/>
    <path id="Path_9147" data-name="Path 9147" d="M1986.069,1036.452c0,.776-.927,1.408-2.073,1.408s-2.075-.631-2.075-1.408.929-1.408,2.075-1.408S1986.069,1035.675,1986.069,1036.452Z" transform="translate(-763.79 -531.38)" fill="url(#linear-gradient-5)"/>
    <path id="Path_9148" data-name="Path 9148" d="M1989.683,754.814s.221,17.968.321,34.849c0,0,.227-27.191.321-34.849Z" transform="translate(-769.799 -314.433)" fill="url(#linear-gradient-10)"/>
    <circle id="Ellipse_170" data-name="Ellipse 170" cx="2.375" cy="2.375" r="2.375" transform="translate(1217.83 436.126)" fill="url(#linear-gradient-117)"/>
    <path id="Path_9149" data-name="Path 9149" d="M1554.893,644.126s.22,17.968.321,34.849c0,0,.226-27.191.321-34.849Z" transform="translate(-433.196 -228.741)" fill="url(#linear-gradient-118)"/>
    <circle id="Ellipse_171" data-name="Ellipse 171" cx="2.375" cy="2.375" r="2.375" transform="translate(1119.643 411.13)" fill="url(#linear-gradient-117)"/>
    <path id="Path_9150" data-name="Path 9150" d="M1058.944,607.993s.441,28.98.642,56.207c0,0,.453-43.855.642-56.207Z" transform="translate(-49.246 -200.768)" fill="url(#linear-gradient-120)"/>
    <circle id="Ellipse_172" data-name="Ellipse 172" cx="4.75" cy="4.75" r="4.75" transform="translate(1005.59 398.716)" fill="url(#linear-gradient-117)"/>
    <path id="Path_9151" data-name="Path 9151" d="M1758.5,1031.582s.441,28.98.642,56.207c0,0,.453-43.855.642-56.207Z" transform="translate(-590.822 -528.699)" fill="url(#linear-gradient-122)"/>
    <circle id="Ellipse_173" data-name="Ellipse 173" cx="4.75" cy="4.75" r="4.75" transform="translate(1163.568 494.374)" fill="url(#linear-gradient-117)"/>
  </g>
</svg>
