<svg xmlns="http://www.w3.org/2000/svg" width="100" height="100" viewBox="0 0 100 100">
  <g id="data-science_1_" data-name="data-science (1)" transform="translate(-1.769 -1.769)">
    <g id="Group_287" data-name="Group 287" transform="translate(5.318 5.318)">
      <path id="Path_8069" data-name="Path 8069" d="M66.23,23.59H39V20.272H64.857l5.664-5.664V7h3.318v8.982Z" transform="translate(19.064 -2.023)" fill="#68607c"/>
      <path id="Path_8070" data-name="Path 8070" d="M48,31H62.931v3.318H48Z" transform="translate(24.994 13.792)" fill="#68607c"/>
      <path id="Path_8071" data-name="Path 8071" d="M45,22H59.931v3.318H45Z" transform="translate(23.017 7.861)" fill="#68607c"/>
      <path id="Path_8072" data-name="Path 8072" d="M73.838,63.59H70.52V55.982l-5.664-5.664H39V47H66.23l7.608,7.608Z" transform="translate(19.064 24.335)" fill="#68607c"/>
      <path id="Path_8073" data-name="Path 8073" d="M46,40H59.272v3.318H46Z" transform="translate(23.676 19.723)" fill="#68607c"/>
      <path id="Path_8074" data-name="Path 8074" d="M38.838,23.59H11.608L4,15.982V7H7.318v7.608l5.664,5.664H38.838Z" transform="translate(-4 -2.023)" fill="#68607c"/>
      <path id="Path_8075" data-name="Path 8075" d="M7,31H21.931v3.318H7Z" transform="translate(-2.023 13.792)" fill="#68607c"/>
      <path id="Path_8076" data-name="Path 8076" d="M10,22H24.931v3.318H10Z" transform="translate(-0.046 7.861)" fill="#68607c"/>
      <path id="Path_8077" data-name="Path 8077" d="M7.318,63.59H4V54.608L11.608,47h27.23v3.318H12.982L7.318,55.982Z" transform="translate(-4 24.335)" fill="#68607c"/>
      <path id="Path_8078" data-name="Path 8078" d="M10,40H24.931v3.318H10Z" transform="translate(-0.046 19.723)" fill="#68607c"/>
      <path id="Path_8079" data-name="Path 8079" d="M31,7h3.318V21.931H31Z" transform="translate(13.792 -2.023)" fill="#68607c"/>
      <path id="Path_8080" data-name="Path 8080" d="M41.318,28.884H38V11.608L45.608,4h5.664V7.318h-4.29l-5.664,5.664Z" transform="translate(18.405 -4)" fill="#68607c"/>
      <path id="Path_8081" data-name="Path 8081" d="M31.272,28.884H27.954v-15.9L22.29,7.318H18V4h5.664l7.608,7.608Z" transform="translate(5.225 -4)" fill="#68607c"/>
      <path id="Path_8082" data-name="Path 8082" d="M31,47h3.318V63.59H31Z" transform="translate(13.792 24.335)" fill="#68607c"/>
      <path id="Path_8083" data-name="Path 8083" d="M51.272,69.884H45.608L38,62.276V45h3.318V60.9l5.664,5.664h4.29Z" transform="translate(18.405 23.017)" fill="#68607c"/>
      <path id="Path_8084" data-name="Path 8084" d="M23.664,69.884H18V66.566h4.29L27.954,60.9V45h3.318V62.276Z" transform="translate(5.225 23.017)" fill="#68607c"/>
    </g>
    <circle id="Ellipse_71" data-name="Ellipse 71" cx="5" cy="5" r="5" transform="translate(6.769 31.769)" fill="#006dfe"/>
    <circle id="Ellipse_72" data-name="Ellipse 72" cx="5" cy="5" r="5" transform="translate(1.769 46.769)" fill="#006dfe"/>
    <circle id="Ellipse_73" data-name="Ellipse 73" cx="5" cy="5" r="5" transform="translate(6.769 61.769)" fill="#006dfe"/>
    <circle id="Ellipse_74" data-name="Ellipse 74" cx="5" cy="5" r="5" transform="translate(1.769 91.769)" fill="#006dfe"/>
    <circle id="Ellipse_75" data-name="Ellipse 75" cx="5" cy="5" r="5" transform="translate(19.769 91.769)" fill="#006dfe"/>
    <circle id="Ellipse_76" data-name="Ellipse 76" cx="5" cy="5" r="5" transform="translate(46.769 91.769)" fill="#006dfe"/>
    <circle id="Ellipse_77" data-name="Ellipse 77" cx="5" cy="5" r="5" transform="translate(73.769 91.769)" fill="#006dfe"/>
    <circle id="Ellipse_78" data-name="Ellipse 78" cx="5" cy="5" r="5" transform="translate(91.769 91.769)" fill="#006dfe"/>
    <circle id="Ellipse_79" data-name="Ellipse 79" cx="5" cy="5" r="5" transform="translate(86.769 61.769)" fill="#006dfe"/>
    <circle id="Ellipse_80" data-name="Ellipse 80" cx="5" cy="5" r="5" transform="translate(91.769 46.769)" fill="#006dfe"/>
    <circle id="Ellipse_81" data-name="Ellipse 81" cx="5" cy="5" r="5" transform="translate(86.769 31.769)" fill="#006dfe"/>
    <circle id="Ellipse_82" data-name="Ellipse 82" cx="5" cy="5" r="5" transform="translate(91.769 1.769)" fill="#006dfe"/>
    <circle id="Ellipse_83" data-name="Ellipse 83" cx="5" cy="5" r="5" transform="translate(73.769 1.769)" fill="#006dfe"/>
    <circle id="Ellipse_84" data-name="Ellipse 84" cx="5" cy="5" r="5" transform="translate(46.769 1.769)" fill="#006dfe"/>
    <circle id="Ellipse_85" data-name="Ellipse 85" cx="5" cy="5" r="5" transform="translate(19.769 1.769)" fill="#006dfe"/>
    <circle id="Ellipse_86" data-name="Ellipse 86" cx="5" cy="5" r="5" transform="translate(1.769 1.769)" fill="#006dfe"/>
    <path id="Path_8085" data-name="Path 8085" d="M56.133,17.264l1.344-1.443a27.769,27.769,0,0,1,3.965,2.157c.5.3.979.63,1.46.979l-1.526,5.06a27.1,27.1,0,0,1,3.65,3.65l5.06-1.526a28.57,28.57,0,0,1,2.157,3.451c.365.647.68,1.294,1,1.974l-3.9,3.633a25.025,25.025,0,0,1,1.344,4.977l5.193,1.211a29.713,29.713,0,0,1,0,6.271l-5.193,1.211a25.024,25.024,0,0,1-1.344,4.977l3.882,3.633c-.3.68-.63,1.327-.979,1.974A28.57,28.57,0,0,1,70.085,62.9l-5.06-1.526a27.1,27.1,0,0,1-3.65,3.65l1.526,5.06c-.481.348-.962.68-1.46.979a29.621,29.621,0,0,1-3.965,2.173l-1.344-1.443v-.017l-2.289-2.439a25.025,25.025,0,0,1-4.977,1.344l-1.211,5.193a29.713,29.713,0,0,1-6.271,0l-1.211-5.193A25.024,25.024,0,0,1,35.2,69.338l-2.289,2.439L31.564,73.22A27.77,27.77,0,0,1,27.6,71.064c-.5-.3-.979-.63-1.46-.979l1.526-5.06a27.1,27.1,0,0,1-3.65-3.65L18.956,62.9A28.57,28.57,0,0,1,16.8,59.451c-.365-.647-.68-1.294-1-1.974l3.9-3.633a25.025,25.025,0,0,1-1.344-4.977l-5.193-1.211a29.713,29.713,0,0,1,0-6.271l5.193-1.211A25.025,25.025,0,0,1,19.7,35.2L15.82,31.564c.3-.68.63-1.327.979-1.974a28.57,28.57,0,0,1,2.157-3.451l5.06,1.526a27.1,27.1,0,0,1,3.65-3.65l-1.526-5.06c.481-.348.962-.68,1.46-.979A29.622,29.622,0,0,1,31.564,15.8l1.344,1.443v.017L35.2,19.7a25.025,25.025,0,0,1,4.977-1.344l1.211-5.193a29.713,29.713,0,0,1,6.271,0l1.211,5.193A25.025,25.025,0,0,1,53.844,19.7Z" transform="translate(7.249 7.249)" fill="#006dfe"/>
    <path id="Path_8530" data-name="Path 8530" d="M22,0A22,22,0,1,1,0,22,22,22,0,0,1,22,0Z" transform="translate(29.769 29.769)" fill="#7ab3ff"/>
    <path id="Path_8086" data-name="Path 8086" d="M50.543,30v8.295c0,2.754-5.939,4.977-13.272,4.977S24,41.049,24,38.295V30c0,2.754,5.939,4.977,13.272,4.977S50.543,32.754,50.543,30Z" transform="translate(14.497 18.451)" fill="#ffe5ca"/>
    <path id="Path_8087" data-name="Path 8087" d="M37.272,48.272C29.939,48.272,24,46.049,24,43.295V35c0,2.754,5.939,4.977,13.272,4.977S50.543,37.754,50.543,35v8.295C50.543,46.049,44.6,48.272,37.272,48.272Z" transform="translate(14.497 21.746)" fill="#ffe5ca"/>
    <ellipse id="Ellipse_88" data-name="Ellipse 88" cx="13" cy="5" rx="13" ry="5" transform="translate(38.769 34.769)" fill="#006dfe"/>
    <path id="Path_8088" data-name="Path 8088" d="M50.543,25v8.295c0,2.754-5.939,4.977-13.272,4.977S24,36.049,24,33.295V25c0,2.754,5.939,4.977,13.272,4.977S50.543,27.754,50.543,25Z" transform="translate(14.497 15.156)" fill="#ffe5ca"/>
    <path id="Path_8089" data-name="Path 8089" d="M25.947,35.227a26.394,26.394,0,0,0,10.042,1.727c7.333,0,13.272-2.223,13.272-4.977V27c0,4.242-10.171,7.729-23.313,8.227Z" transform="translate(15.78 16.474)" fill="#fac7a4"/>
    <path id="Path_8090" data-name="Path 8090" d="M25.947,40.227a26.394,26.394,0,0,0,10.042,1.727c7.333,0,13.272-2.223,13.272-4.977V32c0,4.242-10.171,7.729-23.313,8.227Z" transform="translate(15.78 19.769)" fill="#fac7a4"/>
    <path id="Path_8091" data-name="Path 8091" d="M25.947,45.227a26.394,26.394,0,0,0,10.042,1.727c7.333,0,13.272-2.223,13.272-4.977V37c0,4.242-10.171,7.729-23.313,8.227Z" transform="translate(15.78 23.064)" fill="#fac7a4"/>
  </g>
</svg>
