<svg xmlns="http://www.w3.org/2000/svg" width="85.277" height="104.227" viewBox="0 0 85.277 104.227">
  <g id="deep-learning" transform="translate(-9.5 -4.5)">
    <g id="Group_495" data-name="Group 495" transform="translate(18.974 13.974)">
      <path id="Path_8503" data-name="Path 8503" d="M47.664,39.821a.952.952,0,0,1-.627-.237L14.821,11.159a.948.948,0,1,1,1.255-1.421L47.664,37.61,79.252,9.737a.948.948,0,0,1,1.255,1.421L48.291,39.584A.952.952,0,0,1,47.664,39.821Z" transform="translate(-14.499 -9.499)" fill="#006dfe"/>
    </g>
    <g id="Group_496" data-name="Group 496" transform="translate(18.975 13.975)">
      <path id="Path_8504" data-name="Path 8504" d="M79.879,39.821a.943.943,0,0,1-.627-.237L47.663,11.712,16.075,39.584a.948.948,0,0,1-1.255-1.421L47.036,9.737a.945.945,0,0,1,1.253,0L80.5,38.163a.948.948,0,0,1-.625,1.658Z" transform="translate(-14.5 -9.5)" fill="#006dfe"/>
    </g>
    <g id="Group_497" data-name="Group 497" transform="translate(9.5 4.5)">
      <circle id="Ellipse_113" data-name="Ellipse 113" cx="9.475" cy="9.475" r="9.475" transform="translate(0.948 0.948)" fill="#fff"/>
      <path id="Path_8505" data-name="Path 8505" d="M19.923,25.345A10.423,10.423,0,1,1,30.345,14.923,10.434,10.434,0,0,1,19.923,25.345Zm0-18.95a8.528,8.528,0,1,0,8.528,8.528A8.538,8.538,0,0,0,19.923,6.4Z" transform="translate(-9.5 -4.5)" fill="#006dfe"/>
    </g>
    <g id="Group_498" data-name="Group 498" transform="translate(41.716 4.5)">
      <circle id="Ellipse_114" data-name="Ellipse 114" cx="9.475" cy="9.475" r="9.475" transform="translate(0.948 0.948)" fill="#a7cbfb"/>
      <path id="Path_8506" data-name="Path 8506" d="M36.923,25.345A10.423,10.423,0,1,1,47.345,14.923,10.434,10.434,0,0,1,36.923,25.345Zm0-18.95a8.528,8.528,0,1,0,8.528,8.528A8.538,8.538,0,0,0,36.923,6.4Z" transform="translate(-26.5 -4.5)" fill="#006dfe"/>
    </g>
    <g id="Group_499" data-name="Group 499" transform="translate(73.931 4.5)">
      <circle id="Ellipse_115" data-name="Ellipse 115" cx="9.475" cy="9.475" r="9.475" transform="translate(0.948 0.948)" fill="#fff"/>
      <path id="Path_8507" data-name="Path 8507" d="M53.923,25.345A10.423,10.423,0,1,1,64.345,14.923,10.434,10.434,0,0,1,53.923,25.345Zm0-18.95a8.528,8.528,0,1,0,8.528,8.528A8.538,8.538,0,0,0,53.923,6.4Z" transform="translate(-43.5 -4.5)" fill="#006dfe"/>
    </g>
    <g id="Group_500" data-name="Group 500" transform="translate(9.5 32.926)">
      <circle id="Ellipse_116" data-name="Ellipse 116" cx="9.475" cy="9.475" r="9.475" transform="translate(0.948 0.948)" fill="#a7cbfb"/>
      <path id="Path_8508" data-name="Path 8508" d="M19.923,40.345A10.423,10.423,0,1,1,30.345,29.923,10.434,10.434,0,0,1,19.923,40.345Zm0-18.95a8.528,8.528,0,1,0,8.528,8.528A8.538,8.538,0,0,0,19.923,21.4Z" transform="translate(-9.5 -19.5)" fill="#006dfe"/>
    </g>
    <g id="Group_501" data-name="Group 501" transform="translate(41.716 32.926)">
      <circle id="Ellipse_117" data-name="Ellipse 117" cx="9.475" cy="9.475" r="9.475" transform="translate(0.948 0.948)" fill="#fff"/>
      <path id="Path_8509" data-name="Path 8509" d="M36.923,40.345A10.423,10.423,0,1,1,47.345,29.923,10.434,10.434,0,0,1,36.923,40.345Zm0-18.95a8.528,8.528,0,1,0,8.528,8.528A8.538,8.538,0,0,0,36.923,21.4Z" transform="translate(-26.5 -19.5)" fill="#006dfe"/>
    </g>
    <g id="Group_502" data-name="Group 502" transform="translate(73.931 32.926)">
      <circle id="Ellipse_118" data-name="Ellipse 118" cx="9.475" cy="9.475" r="9.475" transform="translate(0.948 0.948)" fill="#a7cbfb"/>
      <path id="Path_8510" data-name="Path 8510" d="M53.923,40.345A10.423,10.423,0,1,1,64.345,29.923,10.434,10.434,0,0,1,53.923,40.345Zm0-18.95a8.528,8.528,0,1,0,8.528,8.528A8.538,8.538,0,0,0,53.923,21.4Z" transform="translate(-43.5 -19.5)" fill="#006dfe"/>
    </g>
    <g id="Group_503" data-name="Group 503" transform="translate(41.717 75.564)">
      <path id="Path_8511" data-name="Path 8511" d="M45.95,51.975A9.478,9.478,0,0,0,27.191,50.05a9.38,9.38,0,0,0,2.3,8.285,8,8,0,0,1,2.246,5.4v.561h9.475v-.559a8.078,8.078,0,0,1,2.266-5.422A9.346,9.346,0,0,0,45.95,51.975Z" transform="translate(-26.054 -41.553)" fill="none"/>
      <path id="Path_8512" data-name="Path 8512" d="M41.66,65.688H32.185a.948.948,0,0,1-.948-.948v-.563a7.094,7.094,0,0,0-2-4.755,10.394,10.394,0,0,1,5.435-17.188A10.434,10.434,0,0,1,47.345,52.421,10.314,10.314,0,0,1,44.625,59.4a7.169,7.169,0,0,0-2.018,4.785v.559A.948.948,0,0,1,41.66,65.688Zm-8.537-1.9h7.6a9.026,9.026,0,0,1,2.507-5.676A8.474,8.474,0,0,0,42.293,45.8a8.6,8.6,0,0,0-7.228-1.709,8.5,8.5,0,0,0-4.431,14.05A9.064,9.064,0,0,1,33.123,63.793Z" transform="translate(-26.501 -42)" fill="#006dfe"/>
    </g>
    <g id="Group_504" data-name="Group 504" transform="translate(46.453 97.357)">
      <path id="Path_8513" data-name="Path 8513" d="M34.685,64.87A5.692,5.692,0,0,1,29,59.185V54.448a.948.948,0,0,1,.948-.948h9.475a.948.948,0,0,1,.948.948v4.738A5.692,5.692,0,0,1,34.685,64.87ZM30.9,55.4v3.79a3.79,3.79,0,0,0,7.58,0V55.4Z" transform="translate(-29 -53.5)" fill="#006dfe"/>
    </g>
    <g id="Group_505" data-name="Group 505" transform="translate(46.453 102.095)">
      <path id="Path_8514" data-name="Path 8514" d="M39.423,57.9H29.948a.948.948,0,1,1,0-1.9h9.475a.948.948,0,0,1,0,1.9Z" transform="translate(-29 -56)" fill="#006dfe"/>
    </g>
    <g id="Group_506" data-name="Group 506" transform="translate(51.191 87.882)">
      <path id="Path_8515" data-name="Path 8515" d="M32.448,59.87a.948.948,0,0,1-.948-.948V49.448a.948.948,0,1,1,1.9,0v9.475A.948.948,0,0,1,32.448,59.87Z" transform="translate(-31.5 -48.5)" fill="#006dfe"/>
    </g>
    <g id="Group_507" data-name="Group 507" transform="translate(9.501 75.564)">
      <path id="Path_8516" data-name="Path 8516" d="M28.95,51.975A9.478,9.478,0,0,0,10.191,50.05a9.38,9.38,0,0,0,2.3,8.285,8,8,0,0,1,2.246,5.4v.561h9.475v-.559a8.078,8.078,0,0,1,2.266-5.422A9.346,9.346,0,0,0,28.95,51.975Z" transform="translate(-9.054 -41.553)" fill="none"/>
      <path id="Path_8517" data-name="Path 8517" d="M24.66,65.688H15.185a.948.948,0,0,1-.948-.948v-.563a7.093,7.093,0,0,0-2-4.755,10.394,10.394,0,0,1,5.435-17.188A10.434,10.434,0,0,1,30.345,52.421,10.314,10.314,0,0,1,27.626,59.4a7.169,7.169,0,0,0-2.018,4.785v.559A.948.948,0,0,1,24.66,65.688Zm-8.537-1.9h7.6a9.026,9.026,0,0,1,2.507-5.676A8.474,8.474,0,0,0,25.293,45.8a8.6,8.6,0,0,0-7.228-1.709,8.5,8.5,0,0,0-4.431,14.05A9.054,9.054,0,0,1,16.123,63.793Z" transform="translate(-9.501 -42)" fill="#006dfe"/>
    </g>
    <g id="Group_508" data-name="Group 508" transform="translate(14.238 97.357)">
      <path id="Path_8518" data-name="Path 8518" d="M17.685,64.87A5.692,5.692,0,0,1,12,59.185V54.448a.948.948,0,0,1,.948-.948h9.475a.948.948,0,0,1,.948.948v4.738A5.692,5.692,0,0,1,17.685,64.87ZM13.9,55.4v3.79a3.79,3.79,0,0,0,7.58,0V55.4Z" transform="translate(-12 -53.5)" fill="#006dfe"/>
    </g>
    <g id="Group_509" data-name="Group 509" transform="translate(14.238 102.095)">
      <path id="Path_8519" data-name="Path 8519" d="M22.423,57.9H12.948a.948.948,0,1,1,0-1.9h9.475a.948.948,0,1,1,0,1.9Z" transform="translate(-12 -56)" fill="#006dfe"/>
    </g>
    <g id="Group_510" data-name="Group 510" transform="translate(18.975 87.882)">
      <path id="Path_8520" data-name="Path 8520" d="M15.448,59.87a.948.948,0,0,1-.948-.948V49.448a.948.948,0,1,1,1.9,0v9.475A.948.948,0,0,1,15.448,59.87Z" transform="translate(-14.5 -48.5)" fill="#006dfe"/>
    </g>
    <g id="Group_511" data-name="Group 511" transform="translate(73.932 75.564)">
      <path id="Path_8521" data-name="Path 8521" d="M62.95,51.975A9.478,9.478,0,0,0,44.191,50.05a9.38,9.38,0,0,0,2.3,8.285,8,8,0,0,1,2.246,5.4v.561h9.475v-.559a8.078,8.078,0,0,1,2.266-5.422A9.346,9.346,0,0,0,62.95,51.975Z" transform="translate(-43.054 -41.553)" fill="none"/>
      <path id="Path_8522" data-name="Path 8522" d="M58.66,65.688H49.185a.948.948,0,0,1-.948-.948v-.563a7.093,7.093,0,0,0-2-4.755,10.394,10.394,0,0,1,5.435-17.188A10.434,10.434,0,0,1,64.345,52.421,10.314,10.314,0,0,1,61.626,59.4a7.169,7.169,0,0,0-2.018,4.785v.559A.948.948,0,0,1,58.66,65.688Zm-8.537-1.9h7.6a9.026,9.026,0,0,1,2.507-5.676A8.474,8.474,0,0,0,59.293,45.8a8.6,8.6,0,0,0-7.228-1.709,8.5,8.5,0,0,0-4.431,14.05A9.054,9.054,0,0,1,50.123,63.793Z" transform="translate(-43.501 -42)" fill="#006dfe"/>
    </g>
    <g id="Group_512" data-name="Group 512" transform="translate(78.669 97.357)">
      <path id="Path_8523" data-name="Path 8523" d="M51.685,64.87A5.692,5.692,0,0,1,46,59.185V54.448a.948.948,0,0,1,.948-.948h9.475a.948.948,0,0,1,.948.948v4.738A5.692,5.692,0,0,1,51.685,64.87ZM47.9,55.4v3.79a3.79,3.79,0,1,0,7.58,0V55.4Z" transform="translate(-46 -53.5)" fill="#006dfe"/>
    </g>
    <g id="Group_513" data-name="Group 513" transform="translate(78.669 102.095)">
      <path id="Path_8524" data-name="Path 8524" d="M56.423,57.9H46.948a.948.948,0,0,1,0-1.9h9.475a.948.948,0,1,1,0,1.9Z" transform="translate(-46 -56)" fill="#006dfe"/>
    </g>
    <g id="Group_514" data-name="Group 514" transform="translate(83.407 87.882)">
      <path id="Path_8525" data-name="Path 8525" d="M49.448,59.87a.948.948,0,0,1-.948-.948V49.448a.948.948,0,0,1,1.9,0v9.475A.948.948,0,0,1,49.448,59.87Z" transform="translate(-48.5 -48.5)" fill="#006dfe"/>
    </g>
    <g id="Group_515" data-name="Group 515" transform="translate(18.975 51.876)">
      <path id="Path_8526" data-name="Path 8526" d="M79.879,40.87H15.448a.948.948,0,0,1-.948-.948V30.448a.948.948,0,1,1,1.9,0v8.528H78.931V30.448a.948.948,0,0,1,1.9,0v9.475A.948.948,0,0,1,79.879,40.87Z" transform="translate(-14.5 -29.5)" fill="#006dfe"/>
    </g>
    <g id="Group_516" data-name="Group 516" transform="translate(51.191 61.351)">
      <path id="Path_8527" data-name="Path 8527" d="M32.448,45.87a.948.948,0,0,1-.948-.948V35.448a.948.948,0,1,1,1.9,0v9.475A.948.948,0,0,1,32.448,45.87Z" transform="translate(-31.5 -34.5)" fill="#006dfe"/>
    </g>
    <g id="Group_517" data-name="Group 517" transform="translate(28.45 97.357)">
      <path id="Path_8528" data-name="Path 8528" d="M33.713,55.4H20.448a.948.948,0,1,1,0-1.9H33.713a.948.948,0,0,1,0,1.9Z" transform="translate(-19.5 -53.5)" fill="#006dfe"/>
    </g>
    <g id="Group_518" data-name="Group 518" transform="translate(60.664 97.357)">
      <path id="Path_8529" data-name="Path 8529" d="M50.712,55.4H37.447a.948.948,0,1,1,0-1.9H50.712a.948.948,0,1,1,0,1.9Z" transform="translate(-36.499 -53.5)" fill="#006dfe"/>
    </g>
  </g>
</svg>
