<svg xmlns="http://www.w3.org/2000/svg" xmlns:xlink="http://www.w3.org/1999/xlink" width="177" height="43" viewBox="0 0 177 43">
  <defs>
    <linearGradient id="linear-gradient" x1="0.185" y1="0.261" x2="2.172" y2="1.625" gradientUnits="objectBoundingBox">
      <stop offset="0" stop-color="#006dfe"/>
      <stop offset="1" stop-color="#3b3b3b"/>
    </linearGradient>
  </defs>
  <g id="Logo" transform="translate(-392 -47)">
    <text id="Datasci" transform="translate(459 80)" fill="#006dfe" font-size="28" font-family="Poppins-SemiBold, Poppins" font-weight="600"><tspan x="0" y="0">Datasci</tspan></text>
    <g id="icon" transform="translate(-581.259 -506.04)">
      <g id="Group_281" data-name="Group 281" transform="translate(973.259 554.631)">
        <path id="Path_8064" data-name="Path 8064" d="M1105.461,566.585v8.165a1.6,1.6,0,0,0,1.591,1.591h2.982a1.6,1.6,0,0,0,1.591-1.591v-3.185a1.6,1.6,0,0,1,1.591-1.591h2.918a1.6,1.6,0,0,0,1.591-1.591V564.1a19.266,19.266,0,0,0-2.817-.207,18.989,18.989,0,0,0-9.458,2.507A1.564,1.564,0,0,1,1105.461,566.585Z" transform="translate(-1086.08 -563.895)" fill="url(#linear-gradient)"/>
        <path id="Path_8065" data-name="Path 8065" d="M1020.128,617.283a19.052,19.052,0,0,0-3.309-5.9,1.6,1.6,0,0,1-1.587,1.514h-6.343a1.6,1.6,0,0,0-1.591,1.591V617.4a1.6,1.6,0,0,1-1.591,1.591h-3.185a1.6,1.6,0,0,0-1.591,1.591v3.564a1.6,1.6,0,0,0,1.591,1.591h5.691a1.6,1.6,0,0,1,1.591,1.591v7.095a1.6,1.6,0,0,1-1.591,1.591h-7.094a1.6,1.6,0,0,1-1.591-1.591v-5.691a1.6,1.6,0,0,0-1.591-1.591h-5.691a1.6,1.6,0,0,1-1.591-1.591v-5.109a1.6,1.6,0,0,0-1.591-1.591H980.9a1.578,1.578,0,0,1-.849-.249,12.72,12.72,0,0,0,5.931,23.974h32.215a12.722,12.722,0,0,0,1.934-25.3Z" transform="translate(-973.259 -604.422)" fill="url(#linear-gradient)"/>
      </g>
      <g id="Group_282" data-name="Group 282" transform="translate(1006.761 553.04)">
        <path id="Rectangle_338" data-name="Rectangle 338" d="M4.1,0h0a4.1,4.1,0,0,1,4.1,4.1v0a4.1,4.1,0,0,1-4.1,4.1h0A4.1,4.1,0,0,1,0,4.1v0A4.1,4.1,0,0,1,4.1,0Z" transform="translate(0)" fill="url(#linear-gradient)"/>
      </g>
      <g id="Group_283" data-name="Group 283" transform="translate(1000.66 562.565)">
        <path id="Rectangle_339" data-name="Rectangle 339" d="M2.391,0h0A2.391,2.391,0,0,1,4.782,2.391v0A2.391,2.391,0,0,1,2.391,4.782h0A2.391,2.391,0,0,1,0,2.391v0A2.391,2.391,0,0,1,2.391,0Z" transform="translate(0 0)" fill="url(#linear-gradient)"/>
      </g>
      <g id="Group_284" data-name="Group 284" transform="translate(992.51 568.933)">
        <path id="Rectangle_340" data-name="Rectangle 340" d="M3.282,0h0A3.282,3.282,0,0,1,6.564,3.282v0A3.282,3.282,0,0,1,3.282,6.564h0A3.282,3.282,0,0,1,0,3.282v0A3.282,3.282,0,0,1,3.282,0Z" transform="translate(0 0)" fill="url(#linear-gradient)"/>
      </g>
      <g id="Group_285" data-name="Group 285" transform="translate(981.164 557.586)">
        <path id="Rectangle_341" data-name="Rectangle 341" d="M4.81,0h0a4.81,4.81,0,0,1,4.81,4.81v0a4.81,4.81,0,0,1-4.81,4.81h0A4.81,4.81,0,0,1,0,4.81v0A4.81,4.81,0,0,1,4.81,0Z" transform="translate(0 0)" fill="url(#linear-gradient)"/>
      </g>
      <g id="Group_286" data-name="Group 286" transform="translate(1001.383 577.805)">
        <path id="Rectangle_342" data-name="Rectangle 342" d="M3.282,0h0A3.282,3.282,0,0,1,6.564,3.282v0A3.282,3.282,0,0,1,3.282,6.565h0A3.282,3.282,0,0,1,0,3.282v0A3.282,3.282,0,0,1,3.282,0Z" transform="translate(0)" fill="url(#linear-gradient)"/>
      </g>
    </g>
  </g>
</svg>
