<svg xmlns="http://www.w3.org/2000/svg" width="801.253" height="495.21" viewBox="0 0 801.253 495.21">
  <g id="hero-illustration" transform="translate(-804.857 -427.747)">
    <path id="Path_7692" data-name="Path 7692" d="M837.889,1069.567c-12.666,4.589-26.783,11.2-31.556,26.122-4.954,15.491,3.209,33.53,14.933,42.16s26,10.081,39.707,10.944c30.987,1.952,62.032,2.017,93.062,2.081l432.662.893c51.946.107,104.8,10.631,154.49-7.708,21.679-8,66.194-18.667,64.9-46.06-.971-20.477-35.946-29.113-52.6-32.884s-34.567-9.52-51.653-8.733c-95.412,4.391-175.6-15.666-278.668-17.006-74.544-.969-133.2,3.746-207.359,12.9C960.347,1059.115,891.294,1050.217,837.889,1069.567Z" transform="translate(0 -231.912)" fill="#eff1f7"/>
    <g id="Group_175" data-name="Group 175" transform="translate(1399.199 518.213)">
      <path id="Path_7693" data-name="Path 7693" d="M1894.93,718.813c-23.136-25.952-3.68-46.713-.22-85.641s-24.491-59.689-57.094-59.689c-30.071,0-60.554,20.762-57.094,59.689s22.915,59.689-.22,85.641-40.437,103.072,57.314,103.072S1918.066,744.765,1894.93,718.813Z" transform="translate(-1762.314 -573.483)" fill="#fab2c2"/>
      <line id="Line_8" data-name="Line 8" y2="261.755" transform="translate(75.302 69.073)" fill="none" stroke="#ff96af" stroke-linecap="round" stroke-linejoin="round" stroke-width="2"/>
      <path id="Path_7694" data-name="Path 7694" d="M1864.8,738.21s-30.808,2.212-30.808-21.382" transform="translate(-1789.497 -627.846)" fill="none" stroke="#ff96af" stroke-linecap="round" stroke-linejoin="round" stroke-width="2"/>
      <path id="Path_7695" data-name="Path 7695" d="M1883.621,864.038s40.714,4.424,40.714-33.18" transform="translate(-1808.32 -671.092)" fill="none" stroke="#ff96af" stroke-linecap="round" stroke-linejoin="round" stroke-width="2"/>
    </g>
    <g id="Group_176" data-name="Group 176" transform="translate(1500.883 619.512)">
      <path id="Path_7696" data-name="Path 7696" d="M2018.757,838.186c-16.161-18.128-2.571-32.63-.154-59.822s-17.107-41.693-39.881-41.693c-21.005,0-42.3,14.5-39.881,41.693s16.007,41.694-.155,59.822-28.246,72,40.035,72S2034.918,856.314,2018.757,838.186Z" transform="translate(-1926.122 -736.671)" fill="#c2cef9"/>
      <line id="Line_9" data-name="Line 9" y2="182.84" transform="translate(52.6 48.248)" fill="none" stroke="#87a0f9" stroke-linecap="round" stroke-linejoin="round" stroke-width="2"/>
      <path id="Path_7697" data-name="Path 7697" d="M1997.71,851.736s-21.52,1.545-21.52-14.937" transform="translate(-1945.11 -774.645)" fill="none" stroke="#87a0f9" stroke-linecap="round" stroke-linejoin="round" stroke-width="2"/>
      <path id="Path_7698" data-name="Path 7698" d="M2010.858,939.628s28.439,3.09,28.439-23.177" transform="translate(-1958.258 -804.852)" fill="none" stroke="#87a0f9" stroke-linecap="round" stroke-linejoin="round" stroke-width="2"/>
    </g>
    <g id="Group_201" data-name="Group 201" transform="translate(939.706 427.747)">
      <rect id="Rectangle_296" data-name="Rectangle 296" width="517.928" height="335.605" rx="23.243" fill="#d4e0ff"/>
      <rect id="Rectangle_297" data-name="Rectangle 297" width="268.686" height="474.644" rx="11.621" transform="translate(496.285 21.642) rotate(90)" fill="#ebf1ff"/>
      <g id="Group_177" data-name="Group 177" transform="translate(87.343 170.079)">
        <rect id="Rectangle_298" data-name="Rectangle 298" width="9.992" height="31.106" transform="translate(0 46.354)" fill="#87a0f9"/>
        <rect id="Rectangle_299" data-name="Rectangle 299" width="9.992" height="77.46" transform="translate(20.233)" fill="#0055fe"/>
        <rect id="Rectangle_300" data-name="Rectangle 300" width="9.992" height="51.764" transform="translate(40.467 25.697)" fill="#9cb0e6"/>
        <rect id="Rectangle_301" data-name="Rectangle 301" width="9.992" height="29.43" transform="translate(60.7 48.031)" fill="#fa3e6a"/>
        <rect id="Rectangle_302" data-name="Rectangle 302" width="9.992" height="42.604" transform="translate(80.933 34.857)" fill="#fa8aa4"/>
      </g>
      <g id="Group_182" data-name="Group 182" transform="translate(53.356 51.393)">
        <g id="Group_178" data-name="Group 178">
          <path id="Path_7699" data-name="Path 7699" d="M1147.77,510.538a39.725,39.725,0,1,0,39.725,39.724A39.724,39.724,0,0,0,1147.77,510.538Zm0,64.2a24.472,24.472,0,1,1,24.472-24.472A24.473,24.473,0,0,1,1147.77,574.735Z" transform="translate(-1108.046 -510.538)" fill="#0055fe"/>
          <path id="Path_7700" data-name="Path 7700" d="M1172.04,510.538V525.79a24.473,24.473,0,0,1,24.472,24.472h15.252A39.724,39.724,0,0,0,1172.04,510.538Z" transform="translate(-1132.316 -510.538)" fill="#fa3e6a"/>
          <path id="Path_7701" data-name="Path 7701" d="M1179.351,574.532a24.472,24.472,0,0,1-41.777,17.3l-10.785,10.785a39.725,39.725,0,0,0,67.815-28.09Z" transform="translate(-1115.154 -534.808)" fill="#87a0f9"/>
        </g>
        <rect id="Rectangle_303" data-name="Rectangle 303" width="12.074" height="12.074" transform="translate(91.189 2.449)" fill="#0055fe"/>
        <rect id="Rectangle_304" data-name="Rectangle 304" width="12.074" height="12.074" transform="translate(91.189 33.688)" fill="#fa3e6a"/>
        <rect id="Rectangle_305" data-name="Rectangle 305" width="12.074" height="12.074" transform="translate(91.189 64.926)" fill="#87a0f9"/>
        <g id="Group_179" data-name="Group 179" transform="translate(113.521 6.317)">
          <path id="Path_7702" data-name="Path 7702" d="M1328.527,525.053h-35.435a2.17,2.17,0,1,1,0-4.339h35.435a2.17,2.17,0,0,1,0,4.339Z" transform="translate(-1290.923 -520.714)" fill="#9cb0e6"/>
        </g>
        <g id="Group_180" data-name="Group 180" transform="translate(113.521 37.555)">
          <path id="Path_7703" data-name="Path 7703" d="M1328.527,575.377h-35.435a2.17,2.17,0,0,1,0-4.34h35.435a2.17,2.17,0,0,1,0,4.34Z" transform="translate(-1290.923 -571.037)" fill="#9cb0e6"/>
        </g>
        <g id="Group_181" data-name="Group 181" transform="translate(113.521 68.793)">
          <path id="Path_7704" data-name="Path 7704" d="M1328.527,625.7h-35.435a2.17,2.17,0,0,1,0-4.34h35.435a2.17,2.17,0,0,1,0,4.34Z" transform="translate(-1290.923 -621.36)" fill="#9cb0e6"/>
        </g>
      </g>
      <path id="Path_7705" data-name="Path 7705" d="M1464.951,1038.241h-132.02l14.428-69.85H1454.13Z" transform="translate(-1139.977 -632.786)" fill="#ebf1ff"/>
      <path id="Rectangle_306" data-name="Rectangle 306" d="M14.874,0H168.612a14.874,14.874,0,0,1,14.874,14.874v0a0,0,0,0,1,0,0H0a0,0,0,0,1,0,0v0A14.874,14.874,0,0,1,14.874,0Z" transform="translate(167.221 405.455)" fill="#d4e0ff"/>
      <g id="Group_200" data-name="Group 200" transform="translate(267.266 172.501)">
        <g id="Group_183" data-name="Group 183" transform="translate(0 49.549)">
          <path id="Path_7706" data-name="Path 7706" d="M1515.638,791.387h-60.03a2.964,2.964,0,0,1,0-5.928h60.03a2.964,2.964,0,0,1,0,5.928Z" transform="translate(-1452.644 -785.459)" fill="#bdcaf9"/>
        </g>
        <g id="Group_184" data-name="Group 184" transform="translate(75.309 49.549)">
          <path id="Path_7707" data-name="Path 7707" d="M1608.079,791.387h-31.151a2.964,2.964,0,0,1,0-5.928h31.151a2.964,2.964,0,1,1,0,5.928Z" transform="translate(-1573.964 -785.459)" fill="#bdcaf9"/>
        </g>
        <g id="Group_185" data-name="Group 185" transform="translate(0 65.355)">
          <path id="Path_7708" data-name="Path 7708" d="M1501.807,816.85h-46.2a2.964,2.964,0,0,1,0-5.928h46.2a2.964,2.964,0,0,1,0,5.928Z" transform="translate(-1452.644 -810.922)" fill="#bdcaf9"/>
        </g>
        <g id="Group_186" data-name="Group 186" transform="translate(61.479 65.355)">
          <path id="Path_7709" data-name="Path 7709" d="M1610.266,816.85h-55.619a2.964,2.964,0,0,1,0-5.928h55.619a2.964,2.964,0,0,1,0,5.928Z" transform="translate(-1551.684 -810.922)" fill="#bdcaf9"/>
        </g>
        <g id="Group_187" data-name="Group 187" transform="translate(0 82.15)">
          <path id="Path_7710" data-name="Path 7710" d="M1530.631,843.9h-75.023a2.963,2.963,0,0,1,0-5.927h75.023a2.963,2.963,0,1,1,0,5.927Z" transform="translate(-1452.644 -837.977)" fill="#bdcaf9"/>
        </g>
        <g id="Group_188" data-name="Group 188" transform="translate(123.025 49.549)">
          <path id="Path_7711" data-name="Path 7711" d="M1713.825,791.387h-60.031a2.964,2.964,0,0,1,0-5.928h60.031a2.964,2.964,0,0,1,0,5.928Z" transform="translate(-1650.831 -785.459)" fill="#bdcaf9"/>
        </g>
        <g id="Group_189" data-name="Group 189" transform="translate(133.312 65.355)">
          <path id="Path_7712" data-name="Path 7712" d="M1716.566,816.85h-46.2a2.964,2.964,0,0,1,0-5.928h46.2a2.964,2.964,0,0,1,0,5.928Z" transform="translate(-1667.403 -810.922)" fill="#bdcaf9"/>
        </g>
        <g id="Group_190" data-name="Group 190" transform="translate(90.345 82.15)">
          <path id="Path_7713" data-name="Path 7713" d="M1676.172,843.9h-75.023a2.963,2.963,0,0,1,0-5.927h75.023a2.963,2.963,0,1,1,0,5.927Z" transform="translate(-1598.185 -837.977)" fill="#bdcaf9"/>
        </g>
        <g id="Group_199" data-name="Group 199">
          <g id="Group_191" data-name="Group 191">
            <path id="Path_7714" data-name="Path 7714" d="M1505.066,711.565h-49.458a2.963,2.963,0,0,1,0-5.927h49.458a2.963,2.963,0,1,1,0,5.927Z" transform="translate(-1452.644 -705.638)" fill="#bdcaf9"/>
          </g>
          <g id="Group_192" data-name="Group 192" transform="translate(64.737)">
            <path id="Path_7715" data-name="Path 7715" d="M1591.048,711.565H1559.9a2.963,2.963,0,1,1,0-5.927h31.151a2.963,2.963,0,1,1,0,5.927Z" transform="translate(-1556.933 -705.638)" fill="#bdcaf9"/>
          </g>
          <g id="Group_193" data-name="Group 193" transform="translate(0 15.806)">
            <path id="Path_7716" data-name="Path 7716" d="M1501.807,737.028h-46.2a2.963,2.963,0,0,1,0-5.927h46.2a2.963,2.963,0,1,1,0,5.927Z" transform="translate(-1452.644 -731.101)" fill="#bdcaf9"/>
          </g>
          <g id="Group_194" data-name="Group 194" transform="translate(61.479 15.806)">
            <path id="Path_7717" data-name="Path 7717" d="M1610.266,737.028h-55.619a2.963,2.963,0,1,1,0-5.927h55.619a2.963,2.963,0,1,1,0,5.927Z" transform="translate(-1551.684 -731.101)" fill="#bdcaf9"/>
          </g>
          <g id="Group_195" data-name="Group 195" transform="translate(0 32.6)">
            <path id="Path_7718" data-name="Path 7718" d="M1530.631,764.083h-75.023a2.964,2.964,0,0,1,0-5.927h75.023a2.964,2.964,0,0,1,0,5.927Z" transform="translate(-1452.644 -758.155)" fill="#bdcaf9"/>
          </g>
          <g id="Group_196" data-name="Group 196" transform="translate(112.453)">
            <path id="Path_7719" data-name="Path 7719" d="M1686.222,711.565h-49.458a2.963,2.963,0,1,1,0-5.927h49.458a2.963,2.963,0,1,1,0,5.927Z" transform="translate(-1633.8 -705.638)" fill="#bdcaf9"/>
          </g>
          <g id="Group_197" data-name="Group 197" transform="translate(133.312 15.806)">
            <path id="Path_7720" data-name="Path 7720" d="M1727.138,737.028h-56.771a2.963,2.963,0,1,1,0-5.927h56.771a2.963,2.963,0,1,1,0,5.927Z" transform="translate(-1667.403 -731.101)" fill="#bdcaf9"/>
          </g>
          <g id="Group_198" data-name="Group 198" transform="translate(90.345 32.6)">
            <path id="Path_7721" data-name="Path 7721" d="M1676.172,764.083h-75.023a2.964,2.964,0,0,1,0-5.927h75.023a2.964,2.964,0,0,1,0,5.927Z" transform="translate(-1598.185 -758.155)" fill="#bdcaf9"/>
          </g>
        </g>
      </g>
      <line id="Line_10" data-name="Line 10" x2="148.567" transform="translate(58.084 247.539)" fill="none" stroke="#87a0f9" stroke-miterlimit="10" stroke-width="1"/>
      <path id="Path_7722" data-name="Path 7722" d="M1452.644,510.538v77h196.011" transform="translate(-1185.378 -459.145)" fill="none" stroke="#87a0f9" stroke-miterlimit="10" stroke-width="1"/>
      <path id="Path_7723" data-name="Path 7723" d="M1452.644,571.6h21.922l18.553-22.56,22.608,8.077,34.922-46.577,25.02,34.382,17.121-14.864,17.248,25.916,38.616-31.633" transform="translate(-1185.378 -459.145)" fill="none" stroke="#87a0f9" stroke-miterlimit="10" stroke-width="1"/>
      <circle id="Ellipse_57" data-name="Ellipse 57" cx="3.654" cy="3.654" r="3.654" transform="translate(285.651 108.798)" fill="#87a0f9"/>
      <circle id="Ellipse_58" data-name="Ellipse 58" cx="3.654" cy="3.654" r="3.654" transform="translate(304.122 86.238)" fill="#87a0f9"/>
      <circle id="Ellipse_59" data-name="Ellipse 59" cx="3.654" cy="3.654" r="3.654" transform="translate(326.506 94.498)" fill="#87a0f9"/>
      <circle id="Ellipse_60" data-name="Ellipse 60" cx="3.654" cy="3.654" r="3.654" transform="translate(361.616 47.738)" fill="#87a0f9"/>
      <circle id="Ellipse_61" data-name="Ellipse 61" cx="3.654" cy="3.654" r="3.654" transform="translate(386.527 82.583)" fill="#87a0f9"/>
      <circle id="Ellipse_62" data-name="Ellipse 62" cx="3.654" cy="3.654" r="3.654" transform="translate(403.755 67.995)" fill="#87a0f9"/>
      <circle id="Ellipse_63" data-name="Ellipse 63" cx="3.654" cy="3.654" r="3.654" transform="translate(421.005 92.8)" fill="#87a0f9"/>
    </g>
    <g id="Group_204" data-name="Group 204" transform="translate(1158.964 702.253)">
      <rect id="Rectangle_307" data-name="Rectangle 307" width="26.587" height="70.683" transform="translate(57.472 87.526) rotate(-160)" fill="#0055fe"/>
      <rect id="Rectangle_308" data-name="Rectangle 308" width="21.844" height="4.086" transform="translate(53.846 90.554) rotate(-160)" fill="#87a0f9"/>
      <rect id="Rectangle_309" data-name="Rectangle 309" width="8.441" height="4.086" transform="translate(46.151 92.101) rotate(-160)" fill="#b0b0b0"/>
      <path id="Rectangle_310" data-name="Rectangle 310" d="M0,0H26.587a0,0,0,0,1,0,0V0a6.72,6.72,0,0,1-6.72,6.72H6.72A6.72,6.72,0,0,1,0,0V0A0,0,0,0,1,0,0Z" transform="translate(81.647 21.105) rotate(-160)" fill="#87a0f9"/>
      <rect id="Rectangle_311" data-name="Rectangle 311" width="10.776" height="8.941" transform="translate(76.517 12.087) rotate(-160)" fill="#b0b0b0"/>
      <g id="Group_202" data-name="Group 202" transform="translate(18.665 66.763)">
        <path id="Path_7724" data-name="Path 7724" d="M1453.469,1074.926h-48.094v-14.288h48.094a34.417,34.417,0,0,0,0-68.834V977.516a48.705,48.705,0,0,1,0,97.41Z" transform="translate(-1405.375 -977.516)" fill="#87a0f9"/>
      </g>
      <rect id="Rectangle_312" data-name="Rectangle 312" width="16.287" height="20.288" transform="translate(46.692 150.489) rotate(-180)" fill="#87a0f9"/>
      <rect id="Rectangle_313" data-name="Rectangle 313" width="42.582" height="8.655" rx="1.534" transform="translate(59.839 130.202) rotate(-180)" fill="#0055fe"/>
      <rect id="Rectangle_314" data-name="Rectangle 314" width="127.44" height="14.14" rx="1.534" transform="translate(127.44 178.223) rotate(-180)" fill="#0055fe"/>
      <path id="Path_7725" data-name="Path 7725" d="M1540.355,1165.542h9.564l2.858-8.469H1537.5Z" transform="translate(-1436.817 -978.849)" fill="#b0b0b0"/>
      <path id="Path_7726" data-name="Path 7726" d="M1391.238,1165.542h9.564l2.858-8.469H1388.38Z" transform="translate(-1380.265 -978.849)" fill="#b0b0b0"/>
      <rect id="Rectangle_315" data-name="Rectangle 315" width="15.417" height="25.93" transform="translate(68.169 58.135) rotate(20)" fill="#87a0f9"/>
      <g id="Group_203" data-name="Group 203" transform="translate(20.51 95.57)">
        <path id="Rectangle_316" data-name="Rectangle 316" d="M3.069,0H8.956a3.069,3.069,0,0,1,3.069,3.069v13.58a0,0,0,0,1,0,0H0a0,0,0,0,1,0,0V3.069A3.069,3.069,0,0,1,3.069,0Z" transform="translate(0 9.328)" fill="#fa8aa4"/>
        <path id="Rectangle_317" data-name="Rectangle 317" d="M3.069,0H8.956a3.069,3.069,0,0,1,3.069,3.069v7.309a0,0,0,0,1,0,0H0a0,0,0,0,1,0,0V3.069A3.069,3.069,0,0,1,3.069,0Z" transform="translate(24.051 15.599)" fill="#87a0f9"/>
        <path id="Rectangle_318" data-name="Rectangle 318" d="M3.069,0H8.956a3.069,3.069,0,0,1,3.069,3.069V25.977a0,0,0,0,1,0,0H0a0,0,0,0,1,0,0V3.069A3.069,3.069,0,0,1,3.069,0Z" transform="translate(12.025)" fill="#fa3e6a"/>
      </g>
    </g>
    <g id="Group_205" data-name="Group 205" transform="translate(860.659 587.167)">
      <path id="Path_7727" data-name="Path 7727" d="M1026.446,1135.338s-2.928,8.987-2.181,13.1,22.6,2.989,30.26,3.363,11.208-.934,10.46-2.989-9.526-2.386-13.822-5.209a86.442,86.442,0,0,1-9.9-8.261Z" transform="translate(-943.823 -855.52)" fill="#87a0f9"/>
      <path id="Path_7728" data-name="Path 7728" d="M899.837,1129.067s-4.883,8.093-5.085,12.265,21.341,8.02,28.717,10.115,11.129,1.624,10.865-.547-8.74-4.478-12.287-8.2a86.512,86.512,0,0,1-7.776-10.285Z" transform="translate(-894.751 -853.142)" fill="#87a0f9"/>
      <path id="Path_7729" data-name="Path 7729" d="M997.169,958.452s8.607,21.422,5.188,53.387-5.188,37.847-5.188,37.847-4.982,5.37-16.949,0c0,0,2.505-38.87,0-50.888s-19.928-51.83-19.928-51.83-6.6,43.15-15.17,57.875-27.4,44.42-27.4,44.42-7.67,3.329-15.465-2.907c0,0,16.754-36.8,19.568-55.558s4.124-54.113,4.124-54.113l32.046-27.194h15.476Z" transform="translate(-897.596 -769.868)" fill="#3d3d3d"/>
      <path id="Path_7730" data-name="Path 7730" d="M1026.672,708.878s1.315,3.615,0,9.64c0,0,1.753,6.9,3.4,8.982s-2.958,1.862-3.944,1.862c0,0-2.081,7.777-3.834,8.435s-9.311-3.615-9.311-3.615l2.413-18.2Z" transform="translate(-939.589 -693.786)" fill="#faaeb1"/>
      <path id="Path_7731" data-name="Path 7731" d="M1016.477,746.218s-3.6,8.109-3.423,12.073l-5.766-4.145,2.7-9.73Z" transform="translate(-937.43 -707.264)" fill="#faaeb1"/>
      <path id="Path_7732" data-name="Path 7732" d="M1011.668,760.77s20.413,5.584,28.265,17.273,9.77,23.554,18.145,24.426,18.145-7.386,18.145-7.386,8.2,3.2,9.6,11.051c0,0-11.341,18.145-28.962,17.8s-34.2-12.039-34.2-12.039Z" transform="translate(-939.092 -713.466)" fill="#e9ecf5"/>
      <path id="Path_7733" data-name="Path 7733" d="M1115.662,801.288a82.975,82.975,0,0,1,2.518-11.144c1.664-5.292,3.024-13.305,5.746-13s.3,8.618,0,11.491c0,0,10.735,3.629,9.676,8.013s-6.653,11.793-10.432,13.457Z" transform="translate(-978.531 -719.671)" fill="#faaeb1"/>
      <path id="Path_7734" data-name="Path 7734" d="M993.937,781.69c1.664,6.667-.442,49.825,6.225,64.212s20,57.332,18.246,61.649-20.546,18.3-45.615,11.334c-6.316-1.754-10.175-22.106-10.175-22.106s-4.561,19.906-8.579,21.468-27.9-4.464-30.8-8.258-4.464-24.775,0-37.943,18.749-56.04,18.972-66.856,3.348-32.969,3.348-32.969l32.329-8.039Z" transform="translate(-904.495 -714.76)" fill="#e9ecf5"/>
      <path id="Path_7735" data-name="Path 7735" d="M941.958,795.919s-10.233,24.106-9.8,33.033,9.8,17.632,9.8,17.632L952,801.722Z" transform="translate(-908.931 -726.796)" fill="#e9ecf5"/>
      <path id="Path_7736" data-name="Path 7736" d="M1011.668,760.77s20.413,5.584,28.265,17.273,9.77,23.554,18.145,24.426,18.145-7.386,18.145-7.386" transform="translate(-939.092 -713.466)" fill="none" stroke="#fff" stroke-linecap="round" stroke-linejoin="round" stroke-width="2"/>
      <path id="Path_7737" data-name="Path 7737" d="M991.723,691.807c6.808,4.606,3.243,15.676-2.342,20.361s-10.09,11.892-8.92,17.659-.27,15.316-8.018,15.676a12.528,12.528,0,0,0-11.892,11.712c0,4.5-5.045,11.892-18.739,7.748s-18.019-9.73-17.3-14.775,5.586-4.685,9.19-8.83-1.622-7.027,4.685-13.514,15.856-6.307,16.216-11.352-2.162-19.821,6.848-27.208S979.471,683.518,991.723,691.807Z" transform="translate(-906.01 -684.565)" fill="#3d3d3d"/>
      <path id="Path_7738" data-name="Path 7738" d="M1032.09,841.737a40.34,40.34,0,0,1-15.131-13.807" transform="translate(-941.098 -738.936)" fill="none" stroke="#b7c8f4" stroke-linecap="round" stroke-linejoin="round" stroke-width="1"/>
      <path id="Path_7739" data-name="Path 7739" d="M945.685,856.75c3.353-11.47,6-21.9,6.1-26.506" transform="translate(-914.068 -739.814)" fill="none" stroke="#b7c8f4" stroke-linecap="round" stroke-linejoin="round" stroke-width="1"/>
      <path id="Path_7740" data-name="Path 7740" d="M980.222,735.229a34.071,34.071,0,0,1-.141,10.132c-.718,3.313-2.607,6.545-5.646,8.049s-6.918,1.163-9.593,3.266c-3.361,2.642-3.2,7.648-4.295,11.781a17.835,17.835,0,0,1-14.334,12.77" transform="translate(-914.268 -703.779)" fill="none" stroke="#656e87" stroke-linecap="round" stroke-linejoin="round" stroke-width="2"/>
      <path id="Path_7741" data-name="Path 7741" d="M961.765,750.305a9.8,9.8,0,0,1-3.958,3.761c-3.049,1.51-6.918,1.163-9.593,3.266-3.361,2.643-3.2,7.648-4.295,11.781a17.837,17.837,0,0,1-14.334,12.771" transform="translate(-907.962 -709.497)" fill="none" stroke="#656e87" stroke-linecap="round" stroke-linejoin="round" stroke-width="2"/>
      <line id="Line_11" data-name="Line 11" y1="4.746" x2="0.504" transform="translate(84.683 23.542)" fill="none" stroke="#3d3d3d" stroke-linecap="round" stroke-linejoin="round" stroke-width="1"/>
      <path id="Path_7742" data-name="Path 7742" d="M1030.448,746.087a7.608,7.608,0,0,1-3.422-1.67" transform="translate(-944.916 -707.264)" fill="none" stroke="#3d3d3d" stroke-linecap="round" stroke-linejoin="round" stroke-width="1"/>
    </g>
    <g id="Group_215" data-name="Group 215" transform="translate(1318.08 605.484)">
      <g id="Group_206" data-name="Group 206" transform="translate(0 123.594)">
        <rect id="Rectangle_319" data-name="Rectangle 319" width="217.073" height="8.494" transform="translate(217.073 8.494) rotate(-180)" fill="#87a0f9"/>
        <rect id="Rectangle_320" data-name="Rectangle 320" width="5.562" height="143.466" transform="translate(204.006 151.96) rotate(-180)" fill="#6182f9"/>
        <rect id="Rectangle_321" data-name="Rectangle 321" width="5.562" height="14.854" transform="translate(204.006 151.96) rotate(-180)" fill="#87a0f9"/>
        <rect id="Rectangle_322" data-name="Rectangle 322" width="5.562" height="143.466" transform="translate(19.972 151.96) rotate(-180)" fill="#6182f9"/>
        <rect id="Rectangle_323" data-name="Rectangle 323" width="5.562" height="14.854" transform="translate(19.972 151.96) rotate(-180)" fill="#87a0f9"/>
      </g>
      <g id="Group_208" data-name="Group 208" transform="translate(26.418)">
        <rect id="Rectangle_324" data-name="Rectangle 324" width="151.8" height="98.363" rx="6.812" transform="translate(151.8 98.363) rotate(-180)" fill="#fff"/>
        <rect id="Rectangle_325" data-name="Rectangle 325" width="78.75" height="139.114" rx="3.406" transform="translate(145.458 6.343) rotate(90)" fill="#87a0f9"/>
        <path id="Path_7743" data-name="Path 7743" d="M1765.3,893h38.694l-4.229-20.472h-31.293Z" transform="translate(-1708.743 -774.169)" fill="#ebf1ff"/>
        <path id="Rectangle_326" data-name="Rectangle 326" d="M0,0H53.778a0,0,0,0,1,0,0V0a4.359,4.359,0,0,1-4.359,4.359H4.359A4.359,4.359,0,0,1,0,0V0A0,0,0,0,1,0,0Z" transform="translate(102.789 123.195) rotate(-180)" fill="#ebf1ff"/>
        <g id="Group_207" data-name="Group 207" transform="translate(20.845 17.51)">
          <circle id="Ellipse_64" data-name="Ellipse 64" cx="16.819" cy="16.819" r="16.819" fill="#0055fe"/>
          <path id="Path_7744" data-name="Path 7744" d="M1724.591,742.282V759.1h-16.819A16.819,16.819,0,0,1,1724.591,742.282Z" transform="translate(-1707.772 -742.282)" fill="#fa3e6a"/>
          <path id="Path_7745" data-name="Path 7745" d="M1736.484,781.269a16.819,16.819,0,0,1-28.712-11.893h16.819Z" transform="translate(-1707.772 -752.557)" fill="#f3f6ff"/>
        </g>
      </g>
      <g id="Group_214" data-name="Group 214" transform="translate(88.338 20.226)">
        <g id="Group_209" data-name="Group 209">
          <path id="Path_7746" data-name="Path 7746" d="M1798.92,751h-22.808a2.17,2.17,0,0,1,0-4.34h22.808a2.17,2.17,0,0,1,0,4.34Z" transform="translate(-1773.943 -746.656)" fill="#9cb3ff"/>
        </g>
        <g id="Group_210" data-name="Group 210" transform="translate(33.994)">
          <path id="Path_7747" data-name="Path 7747" d="M1853.683,751h-22.807a2.17,2.17,0,0,1,0-4.34h22.807a2.17,2.17,0,1,1,0,4.34Z" transform="translate(-1828.706 -746.656)" fill="#9cb3ff"/>
        </g>
        <g id="Group_211" data-name="Group 211" transform="translate(0 11.572)">
          <path id="Path_7748" data-name="Path 7748" d="M1788.794,769.638h-12.681a2.17,2.17,0,0,1,0-4.34h12.681a2.17,2.17,0,1,1,0,4.34Z" transform="translate(-1773.943 -765.298)" fill="#9cb3ff"/>
        </g>
        <g id="Group_212" data-name="Group 212" transform="translate(23.868 11.572)">
          <path id="Path_7749" data-name="Path 7749" d="M1855.284,769.638h-40.72a2.17,2.17,0,1,1,0-4.34h40.72a2.17,2.17,0,0,1,0,4.34Z" transform="translate(-1812.393 -765.298)" fill="#9cb3ff"/>
        </g>
        <g id="Group_213" data-name="Group 213" transform="translate(0 23.868)">
          <path id="Path_7750" data-name="Path 7750" d="M1809.9,789.446h-33.784a2.17,2.17,0,0,1,0-4.34H1809.9a2.17,2.17,0,1,1,0,4.34Z" transform="translate(-1773.943 -785.106)" fill="#9cb3ff"/>
        </g>
      </g>
      <rect id="Rectangle_327" data-name="Rectangle 327" width="110.004" height="17.063" rx="1.703" transform="translate(157.267 75.386) rotate(-180)" fill="#6e8aeb"/>
    </g>
    <g id="Group_216" data-name="Group 216" transform="translate(1307.823 620.642)">
      <path id="Path_7751" data-name="Path 7751" d="M1665.771,1135.384s1.733,10.266,0,11.706-16.291,2.88-23.81,3.039-23.516,1.76-25.916,0-.48-6.4,9.278-7.679,23.946-11.93,23.946-11.93Z" transform="translate(-1615.111 -887.169)" fill="#666"/>
      <path id="Path_7752" data-name="Path 7752" d="M1688,1008.581l-20.317,74.83s9.245,5.727,18.026,5.727c0,0,23.043-36.27,25.457-40.279S1688,1008.581,1688,1008.581Z" transform="translate(-1635.049 -840.924)" fill="#3d3d3d"/>
      <path id="Path_7753" data-name="Path 7753" d="M1838.631,757.122c-2.983-.827-5.674-2.025-7.273-3.76-5.33-5.779-.588-9.213,2.881-7.363a6.674,6.674,0,0,0,4.177.721s-5.33-3.6-3.745-7.2,7.49,3.313,15.125,5.042,21.751-1.441,21.751,10.516c0,0,4.321-1.873,5.33,4.609s-5.618,10.516-5.618,14.837-5.307,12.358-10.144,9.708Z" transform="translate(-1696.215 -738.493)" fill="#3d3d3d"/>
      <path id="Path_7754" data-name="Path 7754" d="M1839.9,762.718s-1.873,5.186-1.873,8.787c0,0-6.915,9.939-8.355,11.236s4.9,2.881,6.194,2.881c0,0-.576,9.939,1.729,11.38s15.557,0,18.87-6.338,5.042-17.632,3.746-23.724S1839.9,762.718,1839.9,762.718Z" transform="translate(-1696.404 -747.577)" fill="#faaeb1"/>
      <path id="Path_7755" data-name="Path 7755" d="M1871.109,793.831a7.034,7.034,0,0,0,6.77,2.881c4.61-.576,6.339-7.923,4.466-10.227s-8.643-.72-8.643-.72Z" transform="translate(-1712.198 -756.219)" fill="#faaeb1"/>
      <path id="Path_7756" data-name="Path 7756" d="M1855.765,808.239l-1.186,13.108,15.591-5.474,1.3-17.718Z" transform="translate(-1705.929 -761.12)" fill="#faaeb1"/>
      <path id="Path_7757" data-name="Path 7757" d="M1868.719,768.9s-4.7,11.694-7.2,11.867-2.593-14.316-2.593-14.316a65.716,65.716,0,0,1-15.458-1.833l-1.827-5.081,5.906-1.3,20.022,2.61Z" transform="translate(-1701.022 -745.983)" fill="#3d3d3d"/>
      <path id="Path_7758" data-name="Path 7758" d="M1832.582,826.31s7.772-3.04,22.8-7.373l1.566,7.373s7.774,11.45,6.83,31.274-6.879,43.425-8.4,46.021-39.277,8.024-47.065,0,11.564-41.537,13.452-52.157,6.533-15.577,6.533-15.577Z" transform="translate(-1687.688 -769.001)" fill="#eff1f7"/>
      <path id="Path_7759" data-name="Path 7759" d="M1818.342,847.878c9.975,1.061,16.5,10.461,15.944,17.356s-8.5,28.623-42.344,30.294-45.128-16.923-45.128-16.923-1.672-8.566,8.775-9.82c0,0,9.4,5.68,20.475,5.556s21.311-4.93,27.579-12.66S1813.113,847.323,1818.342,847.878Z" transform="translate(-1665.022 -779.965)" fill="#eff1f7"/>
      <path id="Path_7760" data-name="Path 7760" d="M1793.994,878.987c11.073-.125,21.311-4.93,27.579-12.66,1.8-2.217,3.342-4.342,4.756-6.234" transform="translate(-1682.953 -784.61)" fill="none" stroke="#bdbdbd" stroke-linecap="round" stroke-linejoin="round" stroke-width="1"/>
      <path id="Path_7761" data-name="Path 7761" d="M1834.346,875.858c-.558,6.895-8.5,28.623-42.344,30.294s-45.128-16.923-45.128-16.923" transform="translate(-1665.082 -790.588)" fill="none" stroke="#bdbdbd" stroke-linecap="round" stroke-linejoin="round" stroke-width="1"/>
      <path id="Path_7762" data-name="Path 7762" d="M1742.859,876.789s-5.543-6.492-8.831-7.836-6.427-.15-10.163,2.989-8.37,7.4-7.174,10.2,2.093,7.287,4.633,7.287,6.576-3.438,6.576-3.438,3.848,4.862,7.454.414S1742.859,876.789,1742.859,876.789Z" transform="translate(-1653.563 -787.763)" fill="#faaeb1"/>
      <path id="Path_7763" data-name="Path 7763" d="M1723.551,888.941a6.1,6.1,0,0,0,3.587-2.6s1.2,2.566,3.437,6.451" transform="translate(-1656.237 -794.563)" fill="none" stroke="#fff" stroke-miterlimit="10" stroke-width="1" opacity="0.5"/>
      <path id="Path_7764" data-name="Path 7764" d="M1839.763,807.3s4.052.8,6.741-.6" transform="translate(-1700.31 -764.361)" fill="none" stroke="#3d3d3d" stroke-linecap="round" stroke-linejoin="round" stroke-width="1"/>
      <path id="Path_7765" data-name="Path 7765" d="M1849.071,781.188a19.624,19.624,0,0,0,0,5.18" transform="translate(-1703.773 -754.685)" fill="none" stroke="#3d3d3d" stroke-linecap="round" stroke-linejoin="round" stroke-width="1"/>
      <path id="Path_7766" data-name="Path 7766" d="M1722.369,1134.3s3.421,13.1,2.3,15.821-12.158,4.159-19.837,3.2-25.915,3.635-29.115.3.96-6.216,5.919-7.5,15.07-3.144,20.413-7.731Z" transform="translate(-1637.671 -888.604)" fill="#666"/>
      <path id="Path_7767" data-name="Path 7767" d="M1765.536,955.333l-3.074,7.552s-57.013,3.643-66.473,12.815,13.039,78.968,13.295,82.292-3.068,5.369-1.534,8.181a10.362,10.362,0,0,1,1.534,4.346s13.025,1.79,20.318-4.091a204.957,204.957,0,0,0,2.947-34.77c0-19.43,1.279-26.078,1.279-26.078s43.718,3.579,57.524-.511,23.586-29.683,18.44-48.461Z" transform="translate(-1644.904 -820.729)" fill="#3d3d3d"/>
      <path id="Path_7768" data-name="Path 7768" d="M1855.633,868.406c-14.214,1.433-25.218,42.3-29.044,61.842s-9.7,37.311-33.416,33.758-37.482-8.44-39.259,4.886,8.439,16.435,35.535,16.435,44.936-1.626,49.119-29.907,13.51-66.981,21.506-76.5S1855.633,868.406,1855.633,868.406Z" transform="translate(-1667.678 -787.762)" fill="#0055fe"/>
      <path id="Rectangle_328" data-name="Rectangle 328" d="M0,0H8.4a0,0,0,0,1,0,0V38.427a4.2,4.2,0,0,1-4.2,4.2h0a4.2,4.2,0,0,1-4.2-4.2V0A0,0,0,0,1,0,0Z" transform="translate(126.583 148.167)" fill="#87a0f9"/>
      <rect id="Rectangle_329" data-name="Rectangle 329" width="66.656" height="10.452" rx="5.226" transform="translate(82.246 140.053)" fill="#87a0f9"/>
      <path id="Path_7769" data-name="Path 7769" d="M1794.494,898.686a12.534,12.534,0,0,1,5.014-9.265.72.72,0,0,1,1.062.277,64.353,64.353,0,0,0,9.533,13.966.408.408,0,0,0,.709-.272,75.757,75.757,0,0,1,3.859-22.985" transform="translate(-1683.142 -792.314)" fill="none" stroke="#bdbdbd" stroke-linecap="round" stroke-linejoin="round" stroke-width="1"/>
      <rect id="Rectangle_330" data-name="Rectangle 330" width="11.044" height="52.555" transform="translate(129.515 197.492)" fill="#87a0f9"/>
      <path id="Path_7770" data-name="Path 7770" d="M1842.686,1152.382a1.726,1.726,0,0,0,1.509-2.572c-5.232-9.1-17.627-15.508-32.092-15.508s-26.86,6.4-32.093,15.508a1.726,1.726,0,0,0,1.509,2.572Z" transform="translate(-1677.562 -888.604)" fill="#87a0f9"/>
      <path id="Path_7771" data-name="Path 7771" d="M1719.7,1111.462a24.174,24.174,0,0,0,16.776-8.306.425.425,0,0,0-.366-.7,117.736,117.736,0,0,1-14.187.285.429.429,0,0,1-.285-.733,115.617,115.617,0,0,0,20.073-28.091" transform="translate(-1654.775 -865.704)" fill="none" stroke="#626262" stroke-linecap="round" stroke-linejoin="round" stroke-width="1"/>
      <path id="Path_7772" data-name="Path 7772" d="M1695.989,988.144c-9.459,9.172,13.039,78.968,13.295,82.292s-3.068,5.369-1.534,8.181" transform="translate(-1644.904 -833.173)" fill="none" stroke="#626262" stroke-linecap="round" stroke-linejoin="round" stroke-width="1"/>
      <path id="Path_7773" data-name="Path 7773" d="M1841.639,840.375l6.189-7.316s3.937,6.208,3.937,9.387c0,0,11.605-4.036,18.521-11.632" transform="translate(-1701.022 -773.506)" fill="none" stroke="#bdbdbd" stroke-linecap="round" stroke-linejoin="round" stroke-width="1"/>
    </g>
  </g>
</svg>
