<svg xmlns="http://www.w3.org/2000/svg" xmlns:xlink="http://www.w3.org/1999/xlink" width="365.75" height="353.651" viewBox="0 0 365.75 353.651">
  <defs>
    <linearGradient id="linear-gradient" x1="1.325" y1="-2.016" x2="-0.307" y2="2.963" gradientUnits="objectBoundingBox">
      <stop offset="0" stop-color="#f6f6f6"/>
      <stop offset="1" stop-color="#c9d6ff"/>
    </linearGradient>
    <linearGradient id="linear-gradient-2" x1="0.5" y1="-0.158" x2="0.5" y2="-0.057" xlink:href="#linear-gradient"/>
    <linearGradient id="linear-gradient-5" x1="0.525" y1="-0.1" x2="0.473" y2="1.152" gradientUnits="objectBoundingBox">
      <stop offset="0" stop-color="#006dfe"/>
      <stop offset="1" stop-color="#e6007e"/>
    </linearGradient>
    <linearGradient id="linear-gradient-6" x1="0.5" y1="-0.259" x2="0.5" y2="0.625" xlink:href="#linear-gradient"/>
    <linearGradient id="linear-gradient-7" x1="0.633" y1="1.133" x2="0.528" y2="0.6" xlink:href="#linear-gradient"/>
    <linearGradient id="linear-gradient-8" x1="0.545" y1="0.112" x2="0.44" y2="1.017" xlink:href="#linear-gradient"/>
    <linearGradient id="linear-gradient-9" x1="0.393" y1="-0.115" x2="0.683" y2="1.528" gradientUnits="objectBoundingBox">
      <stop offset="0" stop-color="#1d4891"/>
      <stop offset="1" stop-color="#182e65"/>
    </linearGradient>
    <linearGradient id="linear-gradient-10" x1="-0.022" y1="-0.183" x2="1.473" y2="1.774" gradientUnits="objectBoundingBox">
      <stop offset="0" stop-color="#f9b233"/>
      <stop offset="1" stop-color="#e6007e"/>
    </linearGradient>
    <linearGradient id="linear-gradient-11" x1="-0.227" y1="-1.357" x2="1.268" y2="2.461" xlink:href="#linear-gradient-10"/>
    <linearGradient id="linear-gradient-12" x1="-0.16" y1="-0.599" x2="1.335" y2="1.891" xlink:href="#linear-gradient-10"/>
    <linearGradient id="linear-gradient-13" x1="-0.114" y1="-0.265" x2="1.381" y2="1.597" xlink:href="#linear-gradient-10"/>
    <linearGradient id="linear-gradient-14" x1="-0.292" y1="-0.767" x2="1.204" y2="1.627" xlink:href="#linear-gradient-10"/>
    <linearGradient id="linear-gradient-15" x1="-0.469" y1="-1.274" x2="1.026" y2="1.464" xlink:href="#linear-gradient-10"/>
    <linearGradient id="linear-gradient-16" x1="0.523" y1="-0.069" x2="0.472" y2="1.183" xlink:href="#linear-gradient-5"/>
    <linearGradient id="linear-gradient-17" x1="0.314" y1="1.161" x2="0.368" y2="0.968" xlink:href="#linear-gradient"/>
    <linearGradient id="linear-gradient-18" x1="0.467" y1="0.701" x2="0.322" y2="0.508" xlink:href="#linear-gradient"/>
    <linearGradient id="linear-gradient-19" x1="1.126" y1="-0.245" x2="-0.055" y2="1.161" xlink:href="#linear-gradient"/>
    <linearGradient id="linear-gradient-20" x1="1.391" y1="0.042" x2="-0.291" y2="0.906" xlink:href="#linear-gradient"/>
    <linearGradient id="linear-gradient-21" x1="5.43" y1="0.277" x2="-3.874" y2="0.698" xlink:href="#linear-gradient"/>
    <linearGradient id="linear-gradient-22" x1="0.5" y1="-0.748" x2="0.5" y2="1.773" gradientUnits="objectBoundingBox">
      <stop offset="0" stop-color="#525f81"/>
      <stop offset="1" stop-color="#006dfe"/>
    </linearGradient>
    <linearGradient id="linear-gradient-23" x1="0.529" y1="-0.358" x2="0.451" y2="1.988" xlink:href="#linear-gradient-10"/>
    <linearGradient id="linear-gradient-24" x1="-0.13" y1="0.924" x2="0.441" y2="0.54" xlink:href="#linear-gradient"/>
    <linearGradient id="linear-gradient-25" x1="-0.228" y1="0.946" x2="0.431" y2="0.542" xlink:href="#linear-gradient"/>
    <linearGradient id="linear-gradient-26" x1="0.02" y1="0.77" x2="0.455" y2="0.525" xlink:href="#linear-gradient"/>
    <linearGradient id="linear-gradient-27" x1="0.483" y1="0.549" x2="-0.035" y2="2.07" xlink:href="#linear-gradient"/>
    <linearGradient id="linear-gradient-28" x1="0.486" y1="0.542" x2="0.049" y2="1.835" xlink:href="#linear-gradient"/>
    <linearGradient id="linear-gradient-29" x1="0.487" y1="0.539" x2="0.082" y2="1.759" xlink:href="#linear-gradient"/>
    <linearGradient id="linear-gradient-32" x1="0.486" y1="0.538" x2="0.038" y2="1.902" xlink:href="#linear-gradient"/>
    <linearGradient id="linear-gradient-33" x1="0.488" y1="0.535" x2="0.125" y2="1.63" xlink:href="#linear-gradient"/>
    <linearGradient id="linear-gradient-34" x1="0.423" y1="0.987" x2="0.371" y2="1.321" xlink:href="#linear-gradient"/>
    <linearGradient id="linear-gradient-35" x1="0.423" y1="0.987" x2="0.371" y2="1.321" xlink:href="#linear-gradient"/>
    <linearGradient id="linear-gradient-87" x1="0.487" y1="0.539" x2="0.079" y2="1.748" xlink:href="#linear-gradient"/>
    <linearGradient id="linear-gradient-104" x1="-371.975" y1="1.161" x2="-371.921" y2="0.968" xlink:href="#linear-gradient"/>
    <linearGradient id="linear-gradient-105" x1="-389.729" y1="0.701" x2="-389.875" y2="0.508" xlink:href="#linear-gradient"/>
    <linearGradient id="linear-gradient-106" x1="-121.543" y1="-0.245" x2="-122.724" y2="1.161" xlink:href="#linear-gradient"/>
    <linearGradient id="linear-gradient-107" x1="-127.666" y1="0.042" x2="-129.348" y2="0.906" xlink:href="#linear-gradient"/>
    <linearGradient id="linear-gradient-108" x1="-2472.606" y1="0.277" x2="-2481.91" y2="0.698" xlink:href="#linear-gradient"/>
    <linearGradient id="linear-gradient-109" x1="0.5" y1="-0.748" x2="0.5" y2="1.773" xlink:href="#linear-gradient-5"/>
    <linearGradient id="linear-gradient-110" x1="-140.098" y1="0.924" x2="-139.528" y2="0.54" xlink:href="#linear-gradient"/>
    <linearGradient id="linear-gradient-111" x1="-207.742" y1="0.946" x2="-207.083" y2="0.542" xlink:href="#linear-gradient"/>
    <linearGradient id="linear-gradient-112" x1="-429.926" y1="0.77" x2="-429.491" y2="0.525" xlink:href="#linear-gradient"/>
    <linearGradient id="linear-gradient-113" x1="-611.874" y1="0.549" x2="-612.393" y2="2.07" xlink:href="#linear-gradient"/>
    <linearGradient id="linear-gradient-114" x1="-1203.934" y1="0.542" x2="-1204.371" y2="1.835" xlink:href="#linear-gradient"/>
    <linearGradient id="linear-gradient-115" x1="-1391.349" y1="0.539" x2="-1391.754" y2="1.759" xlink:href="#linear-gradient"/>
    <linearGradient id="linear-gradient-116" x1="-1382.18" y1="0.539" x2="-1382.586" y2="1.759" xlink:href="#linear-gradient"/>
    <linearGradient id="linear-gradient-117" x1="-1380.527" y1="0.539" x2="-1380.932" y2="1.759" xlink:href="#linear-gradient"/>
    <linearGradient id="linear-gradient-118" x1="-1086.369" y1="0.538" x2="-1086.816" y2="1.902" xlink:href="#linear-gradient"/>
    <linearGradient id="linear-gradient-119" x1="-1681.783" y1="0.535" x2="-1682.146" y2="1.63" xlink:href="#linear-gradient"/>
    <linearGradient id="linear-gradient-120" x1="-2066.105" y1="0.987" x2="-2066.157" y2="1.321" xlink:href="#linear-gradient"/>
    <linearGradient id="linear-gradient-121" x1="-2064.865" y1="0.987" x2="-2064.917" y2="1.321" xlink:href="#linear-gradient"/>
    <linearGradient id="linear-gradient-122" x1="-2063.612" y1="0.987" x2="-2063.664" y2="1.321" xlink:href="#linear-gradient"/>
    <linearGradient id="linear-gradient-123" x1="-2067.381" y1="0.987" x2="-2067.433" y2="1.321" xlink:href="#linear-gradient"/>
    <linearGradient id="linear-gradient-124" x1="-2073.216" y1="0.987" x2="-2073.269" y2="1.321" xlink:href="#linear-gradient"/>
    <linearGradient id="linear-gradient-125" x1="-2068.241" y1="0.987" x2="-2068.294" y2="1.321" xlink:href="#linear-gradient"/>
    <linearGradient id="linear-gradient-126" x1="-2070.107" y1="0.987" x2="-2070.159" y2="1.321" xlink:href="#linear-gradient"/>
    <linearGradient id="linear-gradient-127" x1="-2065.077" y1="0.987" x2="-2065.13" y2="1.321" xlink:href="#linear-gradient"/>
    <linearGradient id="linear-gradient-128" x1="-2063.793" y1="0.987" x2="-2063.846" y2="1.321" xlink:href="#linear-gradient"/>
    <linearGradient id="linear-gradient-129" x1="-2062.584" y1="0.987" x2="-2062.637" y2="1.321" xlink:href="#linear-gradient"/>
    <linearGradient id="linear-gradient-130" x1="-2066.353" y1="0.987" x2="-2066.406" y2="1.321" xlink:href="#linear-gradient"/>
    <linearGradient id="linear-gradient-131" x1="-2060.077" y1="0.987" x2="-2060.129" y2="1.321" xlink:href="#linear-gradient"/>
    <linearGradient id="linear-gradient-132" x1="-2058.837" y1="0.987" x2="-2058.889" y2="1.321" xlink:href="#linear-gradient"/>
    <linearGradient id="linear-gradient-133" x1="-2057.583" y1="0.987" x2="-2057.636" y2="1.321" xlink:href="#linear-gradient"/>
    <linearGradient id="linear-gradient-134" x1="-2061.352" y1="0.987" x2="-2061.405" y2="1.321" xlink:href="#linear-gradient"/>
    <linearGradient id="linear-gradient-135" x1="-2055.071" y1="0.987" x2="-2055.124" y2="1.321" xlink:href="#linear-gradient"/>
    <linearGradient id="linear-gradient-136" x1="-2056.303" y1="0.987" x2="-2056.356" y2="1.321" xlink:href="#linear-gradient"/>
    <linearGradient id="linear-gradient-137" x1="-2054.434" y1="0.987" x2="-2054.486" y2="1.321" xlink:href="#linear-gradient"/>
    <linearGradient id="linear-gradient-138" x1="-2055.709" y1="0.987" x2="-2055.762" y2="1.321" xlink:href="#linear-gradient"/>
    <linearGradient id="linear-gradient-139" x1="-2065.688" y1="0.987" x2="-2065.741" y2="1.321" xlink:href="#linear-gradient"/>
    <linearGradient id="linear-gradient-140" x1="-2064.405" y1="0.987" x2="-2064.457" y2="1.321" xlink:href="#linear-gradient"/>
    <linearGradient id="linear-gradient-141" x1="-2063.195" y1="0.987" x2="-2063.248" y2="1.321" xlink:href="#linear-gradient"/>
    <linearGradient id="linear-gradient-142" x1="-2066.964" y1="0.987" x2="-2067.017" y2="1.321" xlink:href="#linear-gradient"/>
    <linearGradient id="linear-gradient-143" x1="-2060.688" y1="0.987" x2="-2060.74" y2="1.321" xlink:href="#linear-gradient"/>
    <linearGradient id="linear-gradient-144" x1="-2059.448" y1="0.987" x2="-2059.5" y2="1.321" xlink:href="#linear-gradient"/>
    <linearGradient id="linear-gradient-145" x1="-2058.195" y1="0.987" x2="-2058.247" y2="1.321" xlink:href="#linear-gradient"/>
    <linearGradient id="linear-gradient-146" x1="-2061.964" y1="0.987" x2="-2062.016" y2="1.321" xlink:href="#linear-gradient"/>
    <linearGradient id="linear-gradient-147" x1="-2055.683" y1="0.987" x2="-2055.735" y2="1.321" xlink:href="#linear-gradient"/>
    <linearGradient id="linear-gradient-148" x1="-2056.958" y1="0.987" x2="-2057.011" y2="1.321" xlink:href="#linear-gradient"/>
    <linearGradient id="linear-gradient-149" x1="-2067.594" y1="0.987" x2="-2067.647" y2="1.321" xlink:href="#linear-gradient"/>
    <linearGradient id="linear-gradient-150" x1="-2066.354" y1="0.987" x2="-2066.407" y2="1.321" xlink:href="#linear-gradient"/>
    <linearGradient id="linear-gradient-151" x1="-2065.101" y1="0.987" x2="-2065.154" y2="1.321" xlink:href="#linear-gradient"/>
    <linearGradient id="linear-gradient-152" x1="-2068.87" y1="0.987" x2="-2068.923" y2="1.321" xlink:href="#linear-gradient"/>
    <linearGradient id="linear-gradient-153" x1="-2062.594" y1="0.987" x2="-2062.646" y2="1.321" xlink:href="#linear-gradient"/>
    <linearGradient id="linear-gradient-154" x1="-2061.354" y1="0.987" x2="-2061.406" y2="1.321" xlink:href="#linear-gradient"/>
    <linearGradient id="linear-gradient-155" x1="-2060.101" y1="0.987" x2="-2060.153" y2="1.321" xlink:href="#linear-gradient"/>
    <linearGradient id="linear-gradient-156" x1="-2063.869" y1="0.987" x2="-2063.922" y2="1.321" xlink:href="#linear-gradient"/>
    <linearGradient id="linear-gradient-157" x1="-2057.589" y1="0.987" x2="-2057.641" y2="1.321" xlink:href="#linear-gradient"/>
    <linearGradient id="linear-gradient-158" x1="-2056.348" y1="0.987" x2="-2056.401" y2="1.321" xlink:href="#linear-gradient"/>
    <linearGradient id="linear-gradient-159" x1="-2055.095" y1="0.987" x2="-2055.148" y2="1.321" xlink:href="#linear-gradient"/>
    <linearGradient id="linear-gradient-160" x1="-2058.864" y1="0.987" x2="-2058.917" y2="1.321" xlink:href="#linear-gradient"/>
    <linearGradient id="linear-gradient-161" x1="-2071.957" y1="0.987" x2="-2072.009" y2="1.321" xlink:href="#linear-gradient"/>
    <linearGradient id="linear-gradient-162" x1="-2069.438" y1="0.987" x2="-2069.49" y2="1.321" xlink:href="#linear-gradient"/>
    <linearGradient id="linear-gradient-163" x1="-2068.198" y1="0.987" x2="-2068.25" y2="1.321" xlink:href="#linear-gradient"/>
    <linearGradient id="linear-gradient-164" x1="-2066.945" y1="0.987" x2="-2066.997" y2="1.321" xlink:href="#linear-gradient"/>
    <linearGradient id="linear-gradient-165" x1="-2070.713" y1="0.987" x2="-2070.766" y2="1.321" xlink:href="#linear-gradient"/>
    <linearGradient id="linear-gradient-166" x1="-2064.437" y1="0.987" x2="-2064.49" y2="1.321" xlink:href="#linear-gradient"/>
    <linearGradient id="linear-gradient-167" x1="-2063.197" y1="0.987" x2="-2063.25" y2="1.321" xlink:href="#linear-gradient"/>
    <linearGradient id="linear-gradient-168" x1="-2061.944" y1="0.987" x2="-2061.996" y2="1.321" xlink:href="#linear-gradient"/>
    <linearGradient id="linear-gradient-169" x1="-2065.713" y1="0.987" x2="-2065.765" y2="1.321" xlink:href="#linear-gradient"/>
    <linearGradient id="linear-gradient-170" x1="-2059.388" y1="0.987" x2="-2059.441" y2="1.321" xlink:href="#linear-gradient"/>
    <linearGradient id="linear-gradient-171" x1="-2058.192" y1="0.987" x2="-2058.244" y2="1.321" xlink:href="#linear-gradient"/>
    <linearGradient id="linear-gradient-172" x1="-2060.708" y1="0.987" x2="-2060.76" y2="1.321" xlink:href="#linear-gradient"/>
    <linearGradient id="linear-gradient-173" x1="-2366.254" y1="0.539" x2="-2366.662" y2="1.748" xlink:href="#linear-gradient"/>
    <linearGradient id="linear-gradient-174" x1="-2371.382" y1="0.539" x2="-2371.79" y2="1.748" xlink:href="#linear-gradient"/>
    <linearGradient id="linear-gradient-175" x1="-2374.524" y1="0.539" x2="-2374.932" y2="1.748" xlink:href="#linear-gradient"/>
    <linearGradient id="linear-gradient-176" x1="-2372.986" y1="0.539" x2="-2373.394" y2="1.748" xlink:href="#linear-gradient"/>
    <linearGradient id="linear-gradient-177" x1="-2376.319" y1="0.539" x2="-2376.727" y2="1.748" xlink:href="#linear-gradient"/>
    <linearGradient id="linear-gradient-178" x1="-2379.52" y1="0.539" x2="-2379.928" y2="1.748" xlink:href="#linear-gradient"/>
    <linearGradient id="linear-gradient-179" x1="-2377.924" y1="0.539" x2="-2378.332" y2="1.748" xlink:href="#linear-gradient"/>
    <linearGradient id="linear-gradient-180" x1="-2381.047" y1="0.539" x2="-2381.455" y2="1.748" xlink:href="#linear-gradient"/>
    <linearGradient id="linear-gradient-181" x1="-2384.189" y1="0.539" x2="-2384.597" y2="1.748" xlink:href="#linear-gradient"/>
    <linearGradient id="linear-gradient-182" x1="-2382.593" y1="0.539" x2="-2383.001" y2="1.748" xlink:href="#linear-gradient"/>
    <linearGradient id="linear-gradient-183" x1="-2385.927" y1="0.539" x2="-2386.334" y2="1.748" xlink:href="#linear-gradient"/>
    <linearGradient id="linear-gradient-184" x1="-2389.185" y1="0.539" x2="-2389.593" y2="1.748" xlink:href="#linear-gradient"/>
    <linearGradient id="linear-gradient-185" x1="-2390.948" y1="0.539" x2="-2391.356" y2="1.748" xlink:href="#linear-gradient"/>
    <linearGradient id="linear-gradient-186" x1="-2387.589" y1="0.539" x2="-2387.997" y2="1.748" xlink:href="#linear-gradient"/>
    <linearGradient id="linear-gradient-187" x1="-2364.732" y1="0.539" x2="-2365.14" y2="1.748" xlink:href="#linear-gradient"/>
    <linearGradient id="linear-gradient-188" x1="-2365.43" y1="0.539" x2="-2365.838" y2="1.748" xlink:href="#linear-gradient"/>
    <linearGradient id="linear-gradient-189" x1="-2363.076" y1="0.539" x2="-2363.484" y2="1.748" xlink:href="#linear-gradient"/>
    <linearGradient id="linear-gradient-190" x1="0.11" y1="-2.566" x2="0.697" y2="2.05" xlink:href="#linear-gradient"/>
    <linearGradient id="linear-gradient-191" x1="-211.465" y1="0.5" x2="-210.465" y2="0.5" xlink:href="#linear-gradient-9"/>
    <linearGradient id="linear-gradient-192" x1="-211.633" y1="-0.095" x2="-212.347" y2="1.811" xlink:href="#linear-gradient-9"/>
    <linearGradient id="linear-gradient-193" x1="10.331" y1="0.5" x2="11.331" y2="0.5" xlink:href="#linear-gradient-9"/>
    <linearGradient id="linear-gradient-194" x1="11.098" y1="-0.095" x2="10.385" y2="1.811" xlink:href="#linear-gradient-9"/>
    <linearGradient id="linear-gradient-195" x1="-108.403" y1="0.836" x2="-108.3" y2="0.268" gradientUnits="objectBoundingBox">
      <stop offset="0" stop-color="#fad6c7"/>
      <stop offset="1" stop-color="#e4857f"/>
    </linearGradient>
    <linearGradient id="linear-gradient-196" x1="12.631" y1="-0.527" x2="12.537" y2="-0.088" xlink:href="#linear-gradient-9"/>
    <linearGradient id="linear-gradient-197" x1="73.026" y1="2.041" x2="73.366" y2="1.577" xlink:href="#linear-gradient-9"/>
    <linearGradient id="linear-gradient-198" x1="9.119" y1="0.709" x2="9.712" y2="0.459" xlink:href="#linear-gradient-9"/>
    <linearGradient id="linear-gradient-199" x1="4.194" y1="0.862" x2="4.726" y2="0.508" xlink:href="#linear-gradient-9"/>
    <linearGradient id="linear-gradient-200" x1="8.335" y1="1.24" x2="8.836" y2="-0.222" xlink:href="#linear-gradient-9"/>
    <linearGradient id="linear-gradient-202" x1="0.203" y1="0.009" x2="0.47" y2="0.455" xlink:href="#linear-gradient"/>
    <linearGradient id="linear-gradient-203" x1="29.559" y1="2.011" x2="29.559" y2="1.74" xlink:href="#linear-gradient-9"/>
    <linearGradient id="linear-gradient-204" x1="0.397" y1="0.897" x2="0.718" y2="-0.042" xlink:href="#linear-gradient-195"/>
    <linearGradient id="linear-gradient-205" x1="0.655" y1="-0.281" x2="0.387" y2="1.294" xlink:href="#linear-gradient-5"/>
    <linearGradient id="linear-gradient-206" x1="7.81" y1="0.199" x2="6.954" y2="1.898" xlink:href="#linear-gradient-9"/>
    <linearGradient id="linear-gradient-207" x1="7.851" y1="0.288" x2="8.715" y2="0.551" xlink:href="#linear-gradient-9"/>
    <linearGradient id="linear-gradient-209" x1="-482.384" y1="0.724" x2="-482.384" y2="0.304" xlink:href="#linear-gradient-195"/>
    <linearGradient id="linear-gradient-210" x1="-517.539" y1="-34.801" x2="-517.591" y2="-35.401" xlink:href="#linear-gradient-195"/>
    <linearGradient id="linear-gradient-211" x1="-243.065" y1="-0.527" x2="-243.159" y2="-0.088" xlink:href="#linear-gradient-9"/>
    <linearGradient id="linear-gradient-212" x1="-1507.972" y1="2.041" x2="-1507.633" y2="1.577" xlink:href="#linear-gradient-9"/>
    <linearGradient id="linear-gradient-213" x1="-497.019" y1="0.836" x2="-496.916" y2="0.268" xlink:href="#linear-gradient-195"/>
    <linearGradient id="linear-gradient-214" x1="-187.563" y1="0.709" x2="-186.969" y2="0.459" xlink:href="#linear-gradient-9"/>
    <linearGradient id="linear-gradient-215" x1="-87.725" y1="0.862" x2="-87.194" y2="0.508" xlink:href="#linear-gradient-9"/>
    <linearGradient id="linear-gradient-216" x1="-164.265" y1="1.24" x2="-163.764" y2="-0.222" xlink:href="#linear-gradient-9"/>
    <linearGradient id="linear-gradient-217" x1="-499.183" y1="0.836" x2="-499.079" y2="0.268" xlink:href="#linear-gradient-195"/>
    <linearGradient id="linear-gradient-218" x1="-589.706" y1="2.011" x2="-589.706" y2="1.74" xlink:href="#linear-gradient-9"/>
    <linearGradient id="linear-gradient-219" x1="-103.765" y1="0.5" x2="-102.765" y2="0.5" xlink:href="#linear-gradient-195"/>
    <linearGradient id="linear-gradient-220" x1="-147.425" y1="0.199" x2="-148.28" y2="1.898" xlink:href="#linear-gradient-9"/>
    <linearGradient id="linear-gradient-221" x1="-164.291" y1="0.288" x2="-163.428" y2="0.551" xlink:href="#linear-gradient-9"/>
    <linearGradient id="linear-gradient-222" x1="-306.583" y1="1.002" x2="-306.583" y2="0.581" xlink:href="#linear-gradient-195"/>
    <linearGradient id="linear-gradient-223" x1="201.616" y1="0.705" x2="201.564" y2="0.104" xlink:href="#linear-gradient-195"/>
    <linearGradient id="linear-gradient-224" x1="0.5" y1="-0.158" x2="0.5" y2="-0.057" xlink:href="#linear-gradient-10"/>
    <linearGradient id="linear-gradient-227" x1="0.5" y1="-0.158" x2="0.5" y2="-0.057" xlink:href="#linear-gradient-10"/>
    <linearGradient id="linear-gradient-231" x1="0.5" y1="0.454" x2="0.5" y2="1.026" xlink:href="#linear-gradient-5"/>
    <linearGradient id="linear-gradient-232" x1="2.616" y1="-3.992" x2="1.635" y2="-1.909" xlink:href="#linear-gradient"/>
    <linearGradient id="linear-gradient-233" x1="3.735" y1="-6.085" x2="1.992" y2="-2.537" xlink:href="#linear-gradient"/>
    <linearGradient id="linear-gradient-234" x1="6.448" y1="-10.756" x2="3.373" y2="-4.936" xlink:href="#linear-gradient"/>
    <linearGradient id="linear-gradient-235" x1="3" y1="-4.231" x2="-0.076" y2="1.59" xlink:href="#linear-gradient"/>
    <linearGradient id="linear-gradient-236" x1="1.982" y1="-2.305" x2="-1.093" y2="3.515" xlink:href="#linear-gradient"/>
    <linearGradient id="linear-gradient-237" x1="-3.396" y1="-2.719" x2="-3.396" y2="-0.552" xlink:href="#linear-gradient"/>
    <linearGradient id="linear-gradient-238" x1="-216.9" y1="0.277" x2="-217.218" y2="1.518" xlink:href="#linear-gradient-5"/>
    <linearGradient id="linear-gradient-239" x1="-516.013" y1="-5.955" x2="-515.234" y2="-6.658" xlink:href="#linear-gradient-195"/>
    <linearGradient id="linear-gradient-240" x1="-462.347" y1="0.663" x2="-462.003" y2="-0.015" xlink:href="#linear-gradient-195"/>
    <linearGradient id="linear-gradient-241" x1="-368.599" y1="0.347" x2="-368.526" y2="-0.177" xlink:href="#linear-gradient-195"/>
    <linearGradient id="linear-gradient-242" x1="-27.212" y1="-14.276" x2="-27.096" y2="-16.955" xlink:href="#linear-gradient-195"/>
    <linearGradient id="linear-gradient-243" x1="-106.293" y1="-19.711" x2="-106.283" y2="-20.566" xlink:href="#linear-gradient-195"/>
    <linearGradient id="linear-gradient-244" x1="-442.287" y1="1.584" x2="-443.724" y2="-2.785" xlink:href="#linear-gradient"/>
    <linearGradient id="linear-gradient-245" x1="-15.246" y1="1.161" x2="-15.257" y2="0.952" xlink:href="#linear-gradient"/>
    <linearGradient id="linear-gradient-246" x1="140.345" y1="-0.13" x2="140.345" y2="1.072" xlink:href="#linear-gradient"/>
    <linearGradient id="linear-gradient-247" x1="42.573" y1="0.216" x2="42.411" y2="0.602" xlink:href="#linear-gradient"/>
    <linearGradient id="linear-gradient-248" x1="140.35" y1="0.354" x2="140.367" y2="0.951" xlink:href="#linear-gradient"/>
    <linearGradient id="linear-gradient-249" x1="42.469" y1="0.563" x2="43.015" y2="1.192" xlink:href="#linear-gradient"/>
    <linearGradient id="linear-gradient-250" x1="-19.685" y1="-0.125" x2="-19.202" y2="2.17" xlink:href="#linear-gradient-9"/>
    <linearGradient id="linear-gradient-251" x1="-35.367" y1="-0.302" x2="-35.507" y2="-0.111" xlink:href="#linear-gradient-10"/>
    <linearGradient id="linear-gradient-252" x1="-23.692" y1="-0.321" x2="-22.849" y2="1.221" gradientUnits="objectBoundingBox">
      <stop offset="0" stop-color="#006dfe"/>
      <stop offset="1" stop-color="#0047ff"/>
    </linearGradient>
  </defs>
  <g id="process-illustration" transform="translate(-1012.871 -296.103)">
    <g id="Group_276" data-name="Group 276" transform="translate(1067.718 296.103)">
      <path id="Path_7804" data-name="Path 7804" d="M1210.171,920.88l20.659-11.926a3.33,3.33,0,0,1,3.33,0l20.657,11.926a3.33,3.33,0,0,1,0,5.768l-20.657,11.929a3.33,3.33,0,0,1-3.331,0l-20.659-11.928A3.33,3.33,0,0,1,1210.171,920.88Z" transform="translate(-1195.326 -695.56)" opacity="0.25" fill="url(#linear-gradient)"/>
      <ellipse id="Ellipse_65" data-name="Ellipse 65" cx="28.78" cy="13.975" rx="28.78" ry="13.975" transform="translate(89.285 238.498)" opacity="0.25" fill="url(#linear-gradient-2)"/>
      <ellipse id="Ellipse_66" data-name="Ellipse 66" cx="28.78" cy="13.975" rx="28.78" ry="13.975" transform="translate(173.982 238.498)" opacity="0.25" fill="url(#linear-gradient-2)"/>
      <path id="Path_7805" data-name="Path 7805" d="M1523.946,953.891c-36.847-21.27-97.13-21.27-133.97,0-19.828,11.45-28.985,26.82-27.47,41.889.032.292.064.583.1.871h34.415c-2.065-10.248,3.672-20.931,17.215-28.749,23.5-13.568,61.945-13.568,85.445,0,13.687,7.9,19.4,18.734,17.143,29.081-1.618,7.419-7.331,14.587-17.143,20.248-11.75,6.788-27.239,10.18-42.725,10.18v19.784c24.283,0,48.566-5.317,66.987-15.952,17.012-9.824,26.168-22.533,27.471-35.461C1552.931,980.711,1543.774,965.341,1523.946,953.891Z" transform="translate(-1295.671 -714.757)" opacity="0.25" fill="url(#linear-gradient-2)"/>
      <path id="Path_7806" data-name="Path 7806" d="M1396.743,496.642v82.644a193.522,193.522,0,0,0-45.546,7.953q-4.576,1.405-8.978,3.06a131.976,131.976,0,0,0-19.807,9.262q-3.1,1.786-5.927,3.677-3.651,2.43-6.855,5.008c-9.586,7.691-16.17,16.266-19.742,25.174V550.776c4.369-10.9,13.242-21.291,26.6-30.182q2.83-1.891,5.927-3.677A139.754,139.754,0,0,1,1351.2,504.6,193.524,193.524,0,0,1,1396.743,496.642Z" transform="translate(-1248.41 -426.91)" opacity="0.3" fill="url(#linear-gradient-5)"/>
      <rect id="Rectangle_336" data-name="Rectangle 336" width="4.604" height="38.676" transform="translate(165.358 289.051)" fill="url(#linear-gradient-6)"/>
      <path id="Path_7807" data-name="Path 7807" d="M1534.067,850.364a43.18,43.18,0,0,0-6.077-17.826,55.8,55.8,0,0,0-5.434-7.558,82.1,82.1,0,0,0-21.76-17.569c-44.628-25.762-117.64-25.762-162.258,0a82.1,82.1,0,0,0-21.77,17.579,55.264,55.264,0,0,0-5.424,7.549c-3.445,5.777-6.8,11.794-6.078,17.826.126,1.055,41.918,1.186,41.932,1.055,1.132-9.8,8.144-19.4,21.049-26.85,28.282-16.331,74.555-16.331,102.838,0,13.074,7.548,20.1,17.318,21.087,27.252,1.146,11.555-5.884,23.337-21.087,32.115-14.144,8.168-32.782,12.247-51.421,12.247v24.233c29.41,0,58.82-6.441,81.131-19.321C1524.81,887.231,1535.9,868.616,1534.067,850.364Z" transform="translate(-1258.377 -617.014)" fill="url(#linear-gradient-7)"/>
      <path id="Path_7808" data-name="Path 7808" d="M1500.614,785.035c-44.628-25.761-117.64-25.761-162.258,0-24.015,13.868-35.105,32.483-33.271,50.734.039.353.078.707.126,1.055h41.681c-2.5-12.411,4.447-25.35,20.85-34.82,28.461-16.432,75.025-16.432,103.486,0,16.577,9.571,23.5,22.689,20.763,35.221-1.96,8.986-8.879,17.666-20.763,24.523-14.231,8.221-32.991,12.329-51.746,12.329v23.962c29.41,0,58.82-6.441,81.131-19.321,20.6-11.9,31.694-27.29,33.271-42.949C1535.719,817.517,1524.628,798.9,1500.614,785.035Z" transform="translate(-1258.195 -602.419)" fill="url(#linear-gradient-8)"/>
      <g id="Group_218" data-name="Group 218" transform="translate(50.408 165.084)" opacity="0.7">
        <path id="Path_7809" data-name="Path 7809" d="M1534.773,821.3a47.3,47.3,0,0,0-5.84-10.854c-5.511-7.737-13.645-14.821-24.136-20.879-43.205-24.944-113.5-24.944-156.693,0-15.232,8.8-25.5,19.757-29.976,31.733a39.5,39.5,0,0,0-2.56,13.935,38.316,38.316,0,0,0,.319,4.945h1.5a37.471,37.471,0,0,1-.329-4.945,40.072,40.072,0,0,1,6.494-21.484c5.342-8.511,13.9-16.307,25.3-22.892,21.392-12.353,49.5-18.527,77.6-18.527s56.207,6.174,77.6,18.527c11.4,6.581,19.945,14.376,25.287,22.883a40.015,40.015,0,0,1,6.5,21.494c0,16.776-11.289,32.536-31.791,44.371-21.392,12.353-49.5,18.528-77.6,18.528v1.471h.01c28.374,0,56.744-6.232,78.339-18.7,20.981-12.116,32.536-28.336,32.536-45.668A39.5,39.5,0,0,0,1534.773,821.3Z" transform="translate(-1315.568 -770.859)" fill="url(#linear-gradient-9)"/>
      </g>
      <g id="Group_219" data-name="Group 219" transform="translate(51.917 80.353)" opacity="0.3">
        <path id="Path_7810" data-name="Path 7810" d="M1545.565,527.187v61.98l-1.079.131q-3.331.406-6.619.929V527.971Q1541.692,527.492,1545.565,527.187Z" transform="translate(-1462.078 -527.187)" fill="url(#linear-gradient-10)"/>
        <path id="Path_7811" data-name="Path 7811" d="M1499.955,624.749V655.33c-1.4.285-2.787.581-4.166.9q-1.778.4-3.537.837V626.288Q1496.055,625.431,1499.955,624.749Z" transform="translate(-1432.324 -590.824)" fill="url(#linear-gradient-11)"/>
        <path id="Path_7812" data-name="Path 7812" d="M1457.425,587.762v47.086c-.741.218-1.476.436-2.207.663q-2.439.747-4.829,1.572c-.223.078-.446.155-.663.232V590.147q2-.689,4.045-1.316C1454.976,588.458,1456.2,588.106,1457.425,587.762Z" transform="translate(-1404.586 -566.699)" fill="url(#linear-gradient-12)"/>
        <path id="Path_7813" data-name="Path 7813" d="M1415.636,556.73v62.9c-.223.082-.445.174-.668.266q-3.585,1.466-7.031,3.1V560.2Q1411.668,558.346,1415.636,556.73Z" transform="translate(-1377.328 -546.457)" fill="url(#linear-gradient-13)"/>
        <path id="Path_7814" data-name="Path 7814" d="M1370.884,624.526V671.3c-.3.169-.6.339-.9.513-.949.547-1.882,1.1-2.792,1.665q-1.6.987-3.136,2.013l-.871.581V629.868q2.4-1.88,5.076-3.663Q1369.539,625.356,1370.884,624.526Z" transform="translate(-1348.138 -590.679)" fill="url(#linear-gradient-14)"/>
        <path id="Path_7815" data-name="Path 7815" d="M1327.607,680.286v37.708a77.188,77.188,0,0,0-6.619,6.2c-.368.387-.726.779-1.079,1.166V690.723A50.722,50.722,0,0,1,1327.607,680.286Z" transform="translate(-1319.909 -627.05)" fill="url(#linear-gradient-15)"/>
      </g>
      <path id="Path_7816" data-name="Path 7816" d="M1670.911,496.642v82.644a193.524,193.524,0,0,1,45.546,7.953q4.576,1.405,8.978,3.06a131.981,131.981,0,0,1,19.807,9.262q3.1,1.786,5.927,3.677,3.651,2.43,6.855,5.008c9.586,7.691,16.17,16.266,19.742,25.174V550.776c-4.369-10.9-13.242-21.291-26.6-30.182q-2.83-1.891-5.927-3.677a139.754,139.754,0,0,0-28.785-12.322A193.526,193.526,0,0,0,1670.911,496.642Z" transform="translate(-1496.942 -426.91)" opacity="0.3" fill="url(#linear-gradient-16)"/>
      <g id="Group_220" data-name="Group 220" transform="translate(71.502 144.528)">
        <path id="Path_7817" data-name="Path 7817" d="M1416.75,794.462v9.4a6.028,6.028,0,0,0,3.014,5.22l.177.1a5.223,5.223,0,0,0,5.151.04l2.117-1.178a1.3,1.3,0,0,0,.058-2.234l-2.343-1.469a6.029,6.029,0,0,1-2.825-5.126l.026-7.854Z" transform="translate(-1402.66 -763.675)" fill="url(#linear-gradient-17)"/>
        <path id="Path_7818" data-name="Path 7818" d="M1418.411,792.553l-.187,9.416c0,2.153.637,4.013,2.5,5.089l.177.1a5.222,5.222,0,0,0,5.151.04l2.116-1.178a1.3,1.3,0,0,0,.058-2.234l-2.343-1.469a6.029,6.029,0,0,1-2.825-5.126l.026-7.854Z" transform="translate(-1403.621 -762.357)" fill="url(#linear-gradient-18)"/>
        <path id="Path_7819" data-name="Path 7819" d="M1410.036,712.866l-1.687-1.124-32.119,18.543,1.687,1.124Z" transform="translate(-1376.23 -711.742)" fill="url(#linear-gradient-19)"/>
        <path id="Path_7820" data-name="Path 7820" d="M1381.08,758.243V733.518l32.119-18.543V739.7Z" transform="translate(-1379.394 -713.851)" fill="url(#linear-gradient-20)"/>
        <path id="Path_7821" data-name="Path 7821" d="M1376.23,789.793l1.687,1.124V766.193l-1.687-1.124Z" transform="translate(-1376.23 -746.526)" fill="url(#linear-gradient-21)"/>
        <path id="Path_7822" data-name="Path 7822" d="M1383.839,757.162V736.126l30.2-17.435v21.035Z" transform="translate(-1381.193 -716.275)" fill="url(#linear-gradient-22)"/>
      </g>
      <path id="Path_7823" data-name="Path 7823" d="M1786.726,616.2c-3.571-2.143-6.784-3.832-10.365-3.789a7.155,7.155,0,0,0-12.537,6.378,192.828,192.828,0,0,0-14.516,14.879c-4.51,4.984-8.352,7.142-11.429,6.4-6.639-1.587-10.679-16.471-14.245-29.6-1.4-5.139-2.841-10.456-4.423-15.024-1.839-5.289-4.05-7.8-6.755-7.669-4.476.213-7.868,8.066-10.035,13.96a134.714,134.714,0,0,0-3.949,12.934,1.452,1.452,0,0,0,2.821.687c2.855-11.749,7.989-24.523,11.3-24.682.435-.02,2,.329,3.876,5.724,1.549,4.471,2.981,9.74,4.365,14.831,4.142,15.261,8.056,29.676,16.369,31.67a8.364,8.364,0,0,0,1.931.227c3.726,0,7.78-2.478,12.329-7.5,5.8-6.411,10.209-11.018,13.766-14.211a7.162,7.162,0,0,0,12.634-4.621,6.918,6.918,0,0,0-.145-1.432c2.328.329,4.616,1.6,7.52,3.334a1.45,1.45,0,0,0,1.49-2.487Zm-15.929,5.516a4.841,4.841,0,1,1,4.844-4.839A4.84,4.84,0,0,1,1770.8,621.712Z" transform="translate(-1514.892 -486.346)" opacity="0.3" fill="url(#linear-gradient-23)"/>
      <g id="Group_237" data-name="Group 237" transform="translate(86.634 185.946)">
        <path id="Path_7824" data-name="Path 7824" d="M1439.561,830.855l-19.812,11.451,9.63,5.54,19.812-11.451Z" transform="translate(-1419.749 -830.855)" fill="url(#linear-gradient-24)"/>
        <path id="Path_7825" data-name="Path 7825" d="M1467.256,846.786v1.1l-19.812,11.451v-1.1Z" transform="translate(-1437.813 -841.247)" fill="url(#linear-gradient-25)"/>
        <path id="Path_7826" data-name="Path 7826" d="M1419.749,863.787v1.1l9.631,5.54v-1.1Z" transform="translate(-1419.748 -852.336)" fill="url(#linear-gradient-26)"/>
        <path id="Path_7827" data-name="Path 7827" d="M1465.869,855.14l-5.685,3.259,1.035.662,5.685-3.259Z" transform="translate(-1446.123 -846.695)" fill="url(#linear-gradient-27)"/>
        <path id="Path_7828" data-name="Path 7828" d="M1442.229,867.295l-2.451,1.417.981.566,2.451-1.417Z" transform="translate(-1432.813 -854.624)" fill="url(#linear-gradient-28)"/>
        <path id="Path_7829" data-name="Path 7829" d="M1437.675,865.98l-1.991,1.124.981.566,1.991-1.124Z" transform="translate(-1430.143 -853.766)" fill="url(#linear-gradient-29)"/>
        <path id="Path_7830" data-name="Path 7830" d="M1476.855,833.958l-1.991,1.124.981.566,1.991-1.124Z" transform="translate(-1455.699 -832.879)" fill="url(#linear-gradient-29)"/>
        <path id="Path_7831" data-name="Path 7831" d="M1484.005,838.647l-1.991,1.124.981.566,1.991-1.124Z" transform="translate(-1460.363 -835.938)" fill="url(#linear-gradient-29)"/>
        <path id="Path_7832" data-name="Path 7832" d="M1486.672,841.078l-2.749,1.552.981.566,2.793-1.577Z" transform="translate(-1461.608 -837.523)" fill="url(#linear-gradient-32)"/>
        <path id="Path_7833" data-name="Path 7833" d="M1433.221,864.632l-1.48.83.981.566,1.48-.83Z" transform="translate(-1427.571 -852.887)" fill="url(#linear-gradient-33)"/>
        <path id="Path_7834" data-name="Path 7834" d="M1448.237,870.79l1-.577,1,.577-1,.577Z" transform="translate(-1438.331 -856.527)" fill="url(#linear-gradient-34)"/>
        <path id="Path_7835" data-name="Path 7835" d="M1451.8,868.686l1-.577,1,.577-1,.577Z" transform="translate(-1440.654 -855.155)" fill="url(#linear-gradient-35)"/>
        <path id="Path_7836" data-name="Path 7836" d="M1455.4,866.528l1-.577,1,.577-1,.577Z" transform="translate(-1443.002 -853.747)" fill="url(#linear-gradient-35)"/>
        <path id="Path_7837" data-name="Path 7837" d="M1444.572,872.927l1-.577,1,.577-1,.577Z" transform="translate(-1435.94 -857.922)" fill="url(#linear-gradient-35)"/>
        <path id="Path_7838" data-name="Path 7838" d="M1427.808,863.785l1-.577,1,.577-1,.577Z" transform="translate(-1425.005 -851.958)" fill="url(#linear-gradient-35)"/>
        <path id="Path_7839" data-name="Path 7839" d="M1442.1,864.365l1-.577,1,.577-1,.577Z" transform="translate(-1434.328 -852.336)" fill="url(#linear-gradient-35)"/>
        <path id="Path_7840" data-name="Path 7840" d="M1436.741,863.13l1-.577,1,.577-1,.577Z" transform="translate(-1430.832 -851.531)" fill="url(#linear-gradient-35)"/>
        <g id="Group_221" data-name="Group 221" transform="translate(9.658 9.695)">
          <path id="Path_7841" data-name="Path 7841" d="M1451.189,863.575l1-.577,1,.577-1,.577Z" transform="translate(-1449.915 -861.516)" fill="url(#linear-gradient-35)"/>
          <path id="Path_7842" data-name="Path 7842" d="M1454.751,861.472l1-.577,1,.577-1,.577Z" transform="translate(-1452.238 -860.144)" fill="url(#linear-gradient-35)"/>
          <path id="Path_7843" data-name="Path 7843" d="M1458.351,859.313l1-.577,1,.577-1,.577Z" transform="translate(-1454.586 -858.737)" fill="url(#linear-gradient-34)"/>
          <path id="Path_7844" data-name="Path 7844" d="M1447.524,865.713l1-.577,1,.577-1,.577Z" transform="translate(-1447.524 -862.911)" fill="url(#linear-gradient-35)"/>
        </g>
        <g id="Group_222" data-name="Group 222" transform="translate(14.654 6.746)">
          <path id="Path_7845" data-name="Path 7845" d="M1465.554,855.093l1-.577,1,.577-1,.577Z" transform="translate(-1464.28 -853.034)" fill="url(#linear-gradient-35)"/>
          <path id="Path_7846" data-name="Path 7846" d="M1469.117,852.989l1-.577,1,.577-1,.577Z" transform="translate(-1466.604 -851.662)" fill="url(#linear-gradient-34)"/>
          <path id="Path_7847" data-name="Path 7847" d="M1472.717,850.831l1-.577,1,.577-1,.577Z" transform="translate(-1468.952 -850.254)" fill="url(#linear-gradient-35)"/>
          <path id="Path_7848" data-name="Path 7848" d="M1461.89,857.23l1-.577,1,.577-1,.577Z" transform="translate(-1461.89 -854.428)" fill="url(#linear-gradient-35)"/>
        </g>
        <g id="Group_223" data-name="Group 223" transform="translate(19.654 5.297)">
          <path id="Path_7849" data-name="Path 7849" d="M1479.933,846.665l1-.577,1,.577-1,.577Z" transform="translate(-1478.659 -846.088)" fill="url(#linear-gradient-34)"/>
          <path id="Path_7850" data-name="Path 7850" d="M1476.269,848.8l1-.577,1,.577-1,.577Z" transform="translate(-1476.269 -847.482)" fill="url(#linear-gradient-35)"/>
        </g>
        <g id="Group_224" data-name="Group 224" transform="translate(20.291 6.81)">
          <path id="Path_7851" data-name="Path 7851" d="M1481.766,851.017l1-.577,1,.577-1,.577Z" transform="translate(-1480.491 -850.44)" fill="url(#linear-gradient-35)"/>
          <path id="Path_7852" data-name="Path 7852" d="M1478.1,853.154l1-.577,1,.577-1,.577Z" transform="translate(-1478.101 -851.834)" fill="url(#linear-gradient-35)"/>
        </g>
        <g id="Group_225" data-name="Group 225" transform="translate(9.048 8.444)">
          <path id="Path_7853" data-name="Path 7853" d="M1449.433,859.978l1-.577,1,.577-1,.577Z" transform="translate(-1448.159 -857.92)" fill="url(#linear-gradient-35)"/>
          <path id="Path_7854" data-name="Path 7854" d="M1453,857.875l1-.577,1,.577-1,.577Z" transform="translate(-1450.483 -856.547)" fill="url(#linear-gradient-34)"/>
          <path id="Path_7855" data-name="Path 7855" d="M1456.6,855.717l1-.577,1,.577-1,.577Z" transform="translate(-1452.831 -855.14)" fill="url(#linear-gradient-35)"/>
          <path id="Path_7856" data-name="Path 7856" d="M1445.769,862.116l1-.577,1,.577-1,.577Z" transform="translate(-1445.769 -859.314)" fill="url(#linear-gradient-35)"/>
        </g>
        <g id="Group_226" data-name="Group 226" transform="translate(14.043 5.495)">
          <path id="Path_7857" data-name="Path 7857" d="M1463.8,851.5l1-.577,1,.577-1,.577Z" transform="translate(-1462.524 -849.437)" fill="url(#linear-gradient-34)"/>
          <path id="Path_7858" data-name="Path 7858" d="M1467.361,849.392l1-.577,1,.577-1,.577Z" transform="translate(-1464.848 -848.065)" fill="url(#linear-gradient-35)"/>
          <path id="Path_7859" data-name="Path 7859" d="M1470.961,847.234l1-.577,1,.577-1,.577Z" transform="translate(-1467.196 -846.657)" fill="url(#linear-gradient-35)"/>
          <path id="Path_7860" data-name="Path 7860" d="M1460.134,853.633l1-.577,1,.577-1,.577Z" transform="translate(-1460.134 -850.831)" fill="url(#linear-gradient-35)"/>
        </g>
        <g id="Group_227" data-name="Group 227" transform="translate(19.043 4.046)">
          <path id="Path_7861" data-name="Path 7861" d="M1478.177,843.068l1-.577,1,.577-1,.577Z" transform="translate(-1476.903 -842.491)" fill="url(#linear-gradient-35)"/>
          <path id="Path_7862" data-name="Path 7862" d="M1474.513,845.205l1-.577,1,.577-1,.577Z" transform="translate(-1474.513 -843.885)" fill="url(#linear-gradient-34)"/>
        </g>
        <g id="Group_228" data-name="Group 228" transform="translate(7.144 8.073)">
          <path id="Path_7863" data-name="Path 7863" d="M1443.958,858.909l1-.577,1,.577-1,.577Z" transform="translate(-1442.683 -856.851)" fill="url(#linear-gradient-35)"/>
          <path id="Path_7864" data-name="Path 7864" d="M1447.52,856.806l1-.577,1,.577-1,.577Z" transform="translate(-1445.007 -855.479)" fill="url(#linear-gradient-35)"/>
          <path id="Path_7865" data-name="Path 7865" d="M1451.12,854.648l1-.577,1,.577-1,.577Z" transform="translate(-1447.355 -854.071)" fill="url(#linear-gradient-35)"/>
          <path id="Path_7866" data-name="Path 7866" d="M1440.293,861.047l1-.577,1,.577-1,.577Z" transform="translate(-1440.293 -858.245)" fill="url(#linear-gradient-35)"/>
        </g>
        <g id="Group_229" data-name="Group 229" transform="translate(12.139 5.123)">
          <path id="Path_7867" data-name="Path 7867" d="M1458.323,850.427l1-.577,1,.577-1,.577Z" transform="translate(-1457.049 -848.368)" fill="url(#linear-gradient-34)"/>
          <path id="Path_7868" data-name="Path 7868" d="M1461.886,848.323l1-.577,1,.577-1,.577Z" transform="translate(-1459.373 -846.996)" fill="url(#linear-gradient-35)"/>
          <path id="Path_7869" data-name="Path 7869" d="M1465.486,846.165l1-.577,1,.577-1,.577Z" transform="translate(-1461.721 -845.589)" fill="url(#linear-gradient-35)"/>
          <path id="Path_7870" data-name="Path 7870" d="M1454.659,852.565l1-.577,1,.577-1,.577Z" transform="translate(-1454.659 -849.763)" fill="url(#linear-gradient-35)"/>
        </g>
        <g id="Group_230" data-name="Group 230" transform="translate(17.139 2.193)">
          <path id="Path_7871" data-name="Path 7871" d="M1472.7,842l1-.577,1,.577-1,.577Z" transform="translate(-1471.428 -839.94)" fill="url(#linear-gradient-35)"/>
          <path id="Path_7872" data-name="Path 7872" d="M1476.265,839.9l1-.577,1,.577-1,.577Z" transform="translate(-1473.752 -838.568)" fill="url(#linear-gradient-35)"/>
          <path id="Path_7873" data-name="Path 7873" d="M1479.865,837.737l1-.577,1,.577-1,.577Z" transform="translate(-1476.1 -837.16)" fill="url(#linear-gradient-34)"/>
          <path id="Path_7874" data-name="Path 7874" d="M1469.038,844.136l1-.577,1,.577-1,.577Z" transform="translate(-1469.038 -841.334)" fill="url(#linear-gradient-35)"/>
        </g>
        <g id="Group_234" data-name="Group 234" transform="translate(4.061 2.401)">
          <path id="Path_7875" data-name="Path 7875" d="M1431.426,861.627l1-.577,1,.577-1,.577Z" transform="translate(-1431.426 -852.952)" fill="url(#linear-gradient-35)"/>
          <g id="Group_231" data-name="Group 231" transform="translate(1.242 5.13)">
            <path id="Path_7876" data-name="Path 7876" d="M1438.662,857.352l1-.577,1,.577-1,.577Z" transform="translate(-1437.388 -855.293)" fill="url(#linear-gradient-35)"/>
            <path id="Path_7877" data-name="Path 7877" d="M1442.225,855.248l1-.577,1,.577-1,.577Z" transform="translate(-1439.712 -853.921)" fill="url(#linear-gradient-35)"/>
            <path id="Path_7878" data-name="Path 7878" d="M1445.825,853.09l1-.577,1,.577-1,.577Z" transform="translate(-1442.06 -852.513)" fill="url(#linear-gradient-35)"/>
            <path id="Path_7879" data-name="Path 7879" d="M1435,859.489l1-.577,1,.577-1,.577Z" transform="translate(-1434.998 -856.687)" fill="url(#linear-gradient-34)"/>
          </g>
          <g id="Group_232" data-name="Group 232" transform="translate(6.237 2.18)">
            <path id="Path_7880" data-name="Path 7880" d="M1453.028,848.869l1-.577,1,.577-1,.577Z" transform="translate(-1451.754 -846.81)" fill="url(#linear-gradient-35)"/>
            <path id="Path_7881" data-name="Path 7881" d="M1456.591,846.766l1-.577,1,.577-1,.577Z" transform="translate(-1454.078 -845.438)" fill="url(#linear-gradient-35)"/>
            <path id="Path_7882" data-name="Path 7882" d="M1460.19,844.607l1-.577,1,.577-1,.577Z" transform="translate(-1456.426 -844.031)" fill="url(#linear-gradient-34)"/>
            <path id="Path_7883" data-name="Path 7883" d="M1449.364,851.007l1-.577,1,.577-1,.577Z" transform="translate(-1449.364 -848.205)" fill="url(#linear-gradient-35)"/>
          </g>
          <g id="Group_233" data-name="Group 233" transform="translate(11.237)">
            <path id="Path_7884" data-name="Path 7884" d="M1467.407,840.441l1-.577,1,.577-1,.577Z" transform="translate(-1466.133 -839.133)" fill="url(#linear-gradient-35)"/>
            <path id="Path_7885" data-name="Path 7885" d="M1470.969,838.337l1-.577,1,.577-1,.577Z" transform="translate(-1468.456 -837.76)" fill="url(#linear-gradient-34)"/>
            <path id="Path_7886" data-name="Path 7886" d="M1463.742,842.579l1-.577,1,.577-1,.577Z" transform="translate(-1463.742 -840.527)" fill="url(#linear-gradient-35)"/>
          </g>
        </g>
        <path id="Path_7887" data-name="Path 7887" d="M1488.014,848.815l-1.155.667.578.334,1.155-.667Z" transform="translate(-1463.522 -842.57)" fill="url(#linear-gradient-87)"/>
        <g id="Group_235" data-name="Group 235" transform="translate(11.89 0.495)">
          <path id="Path_7888" data-name="Path 7888" d="M1475.378,832.28l-1.156.667.578.334,1.155-.667Z" transform="translate(-1467.171 -832.28)" fill="url(#linear-gradient-87)"/>
          <path id="Path_7889" data-name="Path 7889" d="M1467.4,836.986l-1.155.667.578.334,1.155-.667Z" transform="translate(-1461.968 -835.35)" fill="url(#linear-gradient-87)"/>
          <path id="Path_7890" data-name="Path 7890" d="M1471.38,834.519l-1.156.667.578.334,1.156-.667Z" transform="translate(-1464.563 -833.741)" fill="url(#linear-gradient-87)"/>
          <path id="Path_7891" data-name="Path 7891" d="M1463.073,839.389l-1.156.667.578.334,1.156-.667Z" transform="translate(-1459.145 -836.917)" fill="url(#linear-gradient-87)"/>
          <path id="Path_7892" data-name="Path 7892" d="M1455.1,844.1l-1.155.667.578.334,1.156-.667Z" transform="translate(-1453.942 -839.987)" fill="url(#linear-gradient-87)"/>
          <path id="Path_7893" data-name="Path 7893" d="M1459.075,841.629l-1.156.667.578.334,1.155-.667Z" transform="translate(-1456.536 -838.378)" fill="url(#linear-gradient-87)"/>
        </g>
        <g id="Group_236" data-name="Group 236" transform="translate(1.936 5.436)">
          <path id="Path_7894" data-name="Path 7894" d="M1451.291,846.487l-1.156.667.578.334,1.156-.667Z" transform="translate(-1441.505 -846.487)" fill="url(#linear-gradient-87)"/>
          <path id="Path_7895" data-name="Path 7895" d="M1443.314,851.193l-1.156.667.578.334,1.156-.667Z" transform="translate(-1436.302 -849.557)" fill="url(#linear-gradient-87)"/>
          <path id="Path_7896" data-name="Path 7896" d="M1447.292,848.726l-1.156.667.578.334,1.155-.667Z" transform="translate(-1438.897 -847.947)" fill="url(#linear-gradient-87)"/>
          <path id="Path_7897" data-name="Path 7897" d="M1438.985,853.6l-1.156.667.578.334,1.155-.667Z" transform="translate(-1433.478 -851.124)" fill="url(#linear-gradient-87)"/>
          <path id="Path_7898" data-name="Path 7898" d="M1431.009,858.3l-1.156.667.578.334,1.156-.667Z" transform="translate(-1428.276 -854.194)" fill="url(#linear-gradient-87)"/>
          <path id="Path_7899" data-name="Path 7899" d="M1426.471,861.115l-1.156.667.578.334,1.156-.667Z" transform="translate(-1425.316 -856.028)" fill="url(#linear-gradient-87)"/>
          <path id="Path_7900" data-name="Path 7900" d="M1434.987,855.836l-1.156.667.578.334,1.156-.667Z" transform="translate(-1430.87 -852.585)" fill="url(#linear-gradient-87)"/>
        </g>
        <path id="Path_7901" data-name="Path 7901" d="M1491.949,846.575l-1.156.667.578.334,1.156-.667Z" transform="translate(-1466.09 -841.109)" fill="url(#linear-gradient-87)"/>
        <path id="Path_7902" data-name="Path 7902" d="M1490.066,845.455l-1.156.667.578.334,1.155-.667Z" transform="translate(-1464.861 -840.378)" fill="url(#linear-gradient-87)"/>
        <path id="Path_7903" data-name="Path 7903" d="M1495.933,844.369l-1.155.667.578.334,1.155-.667Z" transform="translate(-1468.688 -839.67)" fill="url(#linear-gradient-87)"/>
      </g>
      <g id="Group_238" data-name="Group 238" transform="translate(217.272 144.528)">
        <path id="Path_7904" data-name="Path 7904" d="M1831.276,794.462v9.4a6.027,6.027,0,0,1-3.014,5.22l-.176.1a5.223,5.223,0,0,1-5.151.04l-2.117-1.178a1.3,1.3,0,0,1-.058-2.234l2.343-1.469a6.027,6.027,0,0,0,2.825-5.126l-.025-7.854Z" transform="translate(-1811.56 -763.675)" fill="url(#linear-gradient-104)"/>
        <path id="Path_7905" data-name="Path 7905" d="M1830.577,792.553l.188,9.416c0,2.153-.637,4.013-2.5,5.089l-.176.1a5.222,5.222,0,0,1-5.151.04l-2.117-1.178a1.3,1.3,0,0,1-.058-2.234l2.343-1.469a6.027,6.027,0,0,0,2.825-5.126l-.025-7.854Z" transform="translate(-1811.56 -762.357)" fill="url(#linear-gradient-105)"/>
        <path id="Path_7906" data-name="Path 7906" d="M1795.444,712.866l1.686-1.124,32.119,18.543-1.686,1.124Z" transform="translate(-1795.444 -711.742)" fill="url(#linear-gradient-106)"/>
        <path id="Path_7907" data-name="Path 7907" d="M1827.563,758.243V733.518l-32.119-18.543V739.7Z" transform="translate(-1795.444 -713.851)" fill="url(#linear-gradient-107)"/>
        <path id="Path_7908" data-name="Path 7908" d="M1889.5,789.793l-1.686,1.124V766.193l1.686-1.124Z" transform="translate(-1855.694 -746.526)" fill="url(#linear-gradient-108)"/>
        <path id="Path_7909" data-name="Path 7909" d="M1828.4,757.162V736.126l-30.2-17.435v21.035Z" transform="translate(-1797.244 -716.275)" fill="url(#linear-gradient-109)"/>
      </g>
      <g id="Group_255" data-name="Group 255" transform="translate(206.503 185.946)">
        <path id="Path_7910" data-name="Path 7910" d="M1774.1,830.855l19.812,11.451-9.63,5.54-19.812-11.451Z" transform="translate(-1764.473 -830.855)" fill="url(#linear-gradient-110)"/>
        <path id="Path_7911" data-name="Path 7911" d="M1764.473,846.786v1.1l19.812,11.451v-1.1Z" transform="translate(-1764.472 -841.247)" fill="url(#linear-gradient-111)"/>
        <path id="Path_7912" data-name="Path 7912" d="M1831.079,863.787v1.1l-9.631,5.54v-1.1Z" transform="translate(-1801.637 -852.336)" fill="url(#linear-gradient-112)"/>
        <path id="Path_7913" data-name="Path 7913" d="M1790.417,855.14l5.686,3.259-1.036.662-5.685-3.259Z" transform="translate(-1780.72 -846.695)" fill="url(#linear-gradient-113)"/>
        <path id="Path_7914" data-name="Path 7914" d="M1820.227,867.295l2.451,1.417-.981.566-2.451-1.417Z" transform="translate(-1800.2 -854.624)" fill="url(#linear-gradient-114)"/>
        <path id="Path_7915" data-name="Path 7915" d="M1825.644,865.98l1.991,1.124-.981.566-1.991-1.124Z" transform="translate(-1803.733 -853.766)" fill="url(#linear-gradient-115)"/>
        <path id="Path_7916" data-name="Path 7916" d="M1786.463,833.958l1.991,1.124-.981.566-1.991-1.124Z" transform="translate(-1778.177 -832.879)" fill="url(#linear-gradient-116)"/>
        <path id="Path_7917" data-name="Path 7917" d="M1779.313,838.647l1.991,1.124-.981.566-1.991-1.124Z" transform="translate(-1773.513 -835.938)" fill="url(#linear-gradient-117)"/>
        <path id="Path_7918" data-name="Path 7918" d="M1775.141,841.078l2.749,1.552-.981.566-2.793-1.577Z" transform="translate(-1770.763 -837.523)" fill="url(#linear-gradient-118)"/>
        <path id="Path_7919" data-name="Path 7919" d="M1831.057,864.632l1.48.83-.981.566-1.48-.83Z" transform="translate(-1807.264 -852.887)" fill="url(#linear-gradient-119)"/>
        <path id="Path_7920" data-name="Path 7920" d="M1816.909,870.79l-1-.577-1,.577,1,.577Z" transform="translate(-1797.373 -856.527)" fill="url(#linear-gradient-120)"/>
        <path id="Path_7921" data-name="Path 7921" d="M1813.347,868.686l-1-.577-1,.577,1,.577Z" transform="translate(-1795.049 -855.155)" fill="url(#linear-gradient-121)"/>
        <path id="Path_7922" data-name="Path 7922" d="M1809.747,866.528l-1-.577-1,.577,1,.577Z" transform="translate(-1792.701 -853.747)" fill="url(#linear-gradient-122)"/>
        <path id="Path_7923" data-name="Path 7923" d="M1820.574,872.927l-1-.577-1,.577,1,.577Z" transform="translate(-1799.763 -857.922)" fill="url(#linear-gradient-123)"/>
        <path id="Path_7924" data-name="Path 7924" d="M1837.338,863.785l-1-.577-1,.577,1,.577Z" transform="translate(-1810.698 -851.958)" fill="url(#linear-gradient-124)"/>
        <path id="Path_7925" data-name="Path 7925" d="M1823.046,864.365l-1-.577-1,.577,1,.577Z" transform="translate(-1801.375 -852.336)" fill="url(#linear-gradient-125)"/>
        <path id="Path_7926" data-name="Path 7926" d="M1828.4,863.13l-1-.577-1,.577,1,.577Z" transform="translate(-1804.871 -851.531)" fill="url(#linear-gradient-126)"/>
        <g id="Group_239" data-name="Group 239" transform="translate(14.022 9.695)">
          <path id="Path_7927" data-name="Path 7927" d="M1813.957,863.575l-1-.577-1,.577,1,.577Z" transform="translate(-1809.469 -861.516)" fill="url(#linear-gradient-127)"/>
          <path id="Path_7928" data-name="Path 7928" d="M1810.395,861.472l-1-.577-1,.577,1,.577Z" transform="translate(-1807.145 -860.144)" fill="url(#linear-gradient-128)"/>
          <path id="Path_7929" data-name="Path 7929" d="M1806.795,859.313l-1-.577-1,.577,1,.577Z" transform="translate(-1804.797 -858.737)" fill="url(#linear-gradient-129)"/>
          <path id="Path_7930" data-name="Path 7930" d="M1817.622,865.713l-1-.577-1,.577,1,.577Z" transform="translate(-1811.859 -862.911)" fill="url(#linear-gradient-130)"/>
        </g>
        <g id="Group_240" data-name="Group 240" transform="translate(9.027 6.746)">
          <path id="Path_7931" data-name="Path 7931" d="M1799.592,855.093l-1-.577-1,.577,1,.577Z" transform="translate(-1795.103 -853.034)" fill="url(#linear-gradient-131)"/>
          <path id="Path_7932" data-name="Path 7932" d="M1796.029,852.989l-1-.577-1,.577,1,.577Z" transform="translate(-1792.779 -851.662)" fill="url(#linear-gradient-132)"/>
          <path id="Path_7933" data-name="Path 7933" d="M1792.429,850.831l-1-.577-1,.577,1,.577Z" transform="translate(-1790.431 -850.254)" fill="url(#linear-gradient-133)"/>
          <path id="Path_7934" data-name="Path 7934" d="M1803.256,857.23l-1-.577-1,.577,1,.577Z" transform="translate(-1797.494 -854.428)" fill="url(#linear-gradient-134)"/>
        </g>
        <g id="Group_241" data-name="Group 241" transform="translate(6.517 5.297)">
          <path id="Path_7935" data-name="Path 7935" d="M1785.213,846.665l-1-.577-1,.577,1,.577Z" transform="translate(-1783.215 -846.088)" fill="url(#linear-gradient-135)"/>
          <path id="Path_7936" data-name="Path 7936" d="M1788.877,848.8l-1-.577-1,.577,1,.577Z" transform="translate(-1785.605 -847.482)" fill="url(#linear-gradient-136)"/>
        </g>
        <g id="Group_242" data-name="Group 242" transform="translate(5.88 6.81)">
          <path id="Path_7937" data-name="Path 7937" d="M1783.38,851.017l-1-.577-1,.577,1,.577Z" transform="translate(-1781.383 -850.44)" fill="url(#linear-gradient-137)"/>
          <path id="Path_7938" data-name="Path 7938" d="M1787.045,853.154l-1-.577-1,.577,1,.577Z" transform="translate(-1783.773 -851.834)" fill="url(#linear-gradient-138)"/>
        </g>
        <g id="Group_243" data-name="Group 243" transform="translate(14.632 8.444)">
          <path id="Path_7939" data-name="Path 7939" d="M1815.713,859.978l-1-.577-1,.577,1,.577Z" transform="translate(-1811.224 -857.92)" fill="url(#linear-gradient-139)"/>
          <path id="Path_7940" data-name="Path 7940" d="M1812.15,857.875l-1-.577-1,.577,1,.577Z" transform="translate(-1808.901 -856.547)" fill="url(#linear-gradient-140)"/>
          <path id="Path_7941" data-name="Path 7941" d="M1808.551,855.717l-1-.577-1,.577,1,.577Z" transform="translate(-1806.553 -855.14)" fill="url(#linear-gradient-141)"/>
          <path id="Path_7942" data-name="Path 7942" d="M1819.378,862.116l-1-.577-1,.577,1,.577Z" transform="translate(-1813.615 -859.314)" fill="url(#linear-gradient-142)"/>
        </g>
        <g id="Group_244" data-name="Group 244" transform="translate(9.637 5.495)">
          <path id="Path_7943" data-name="Path 7943" d="M1801.347,851.5l-1-.577-1,.577,1,.577Z" transform="translate(-1796.859 -849.437)" fill="url(#linear-gradient-143)"/>
          <path id="Path_7944" data-name="Path 7944" d="M1797.785,849.392l-1-.577-1,.577,1,.577Z" transform="translate(-1794.535 -848.065)" fill="url(#linear-gradient-144)"/>
          <path id="Path_7945" data-name="Path 7945" d="M1794.185,847.234l-1-.577-1,.577,1,.577Z" transform="translate(-1792.187 -846.657)" fill="url(#linear-gradient-145)"/>
          <path id="Path_7946" data-name="Path 7946" d="M1805.012,853.633l-1-.577-1,.577,1,.577Z" transform="translate(-1799.249 -850.831)" fill="url(#linear-gradient-146)"/>
        </g>
        <g id="Group_245" data-name="Group 245" transform="translate(7.128 4.046)">
          <path id="Path_7947" data-name="Path 7947" d="M1786.968,843.068l-1-.577-1,.577,1,.577Z" transform="translate(-1784.97 -842.491)" fill="url(#linear-gradient-147)"/>
          <path id="Path_7948" data-name="Path 7948" d="M1790.633,845.205l-1-.577-1,.577,1,.577Z" transform="translate(-1787.361 -843.885)" fill="url(#linear-gradient-148)"/>
        </g>
        <g id="Group_246" data-name="Group 246" transform="translate(16.536 8.073)">
          <path id="Path_7949" data-name="Path 7949" d="M1821.188,858.909l-1-.577-1,.577,1,.577Z" transform="translate(-1816.7 -856.851)" fill="url(#linear-gradient-149)"/>
          <path id="Path_7950" data-name="Path 7950" d="M1817.625,856.806l-1-.577-1,.577,1,.577Z" transform="translate(-1814.376 -855.479)" fill="url(#linear-gradient-150)"/>
          <path id="Path_7951" data-name="Path 7951" d="M1814.026,854.648l-1-.577-1,.577,1,.577Z" transform="translate(-1812.028 -854.071)" fill="url(#linear-gradient-151)"/>
          <path id="Path_7952" data-name="Path 7952" d="M1824.853,861.047l-1-.577-1,.577,1,.577Z" transform="translate(-1819.09 -858.245)" fill="url(#linear-gradient-152)"/>
        </g>
        <g id="Group_247" data-name="Group 247" transform="translate(11.541 5.123)">
          <path id="Path_7953" data-name="Path 7953" d="M1806.823,850.427l-1-.577-1,.577,1,.577Z" transform="translate(-1802.334 -848.368)" fill="url(#linear-gradient-153)"/>
          <path id="Path_7954" data-name="Path 7954" d="M1803.26,848.323l-1-.577-1,.577,1,.577Z" transform="translate(-1800.01 -846.996)" fill="url(#linear-gradient-154)"/>
          <path id="Path_7955" data-name="Path 7955" d="M1799.66,846.165l-1-.577-1,.577,1,.577Z" transform="translate(-1797.662 -845.589)" fill="url(#linear-gradient-155)"/>
          <path id="Path_7956" data-name="Path 7956" d="M1810.487,852.565l-1-.577-1,.577,1,.577Z" transform="translate(-1804.724 -849.763)" fill="url(#linear-gradient-156)"/>
        </g>
        <g id="Group_248" data-name="Group 248" transform="translate(6.541 2.193)">
          <path id="Path_7957" data-name="Path 7957" d="M1792.444,842l-1-.577-1,.577,1,.577Z" transform="translate(-1787.955 -839.94)" fill="url(#linear-gradient-157)"/>
          <path id="Path_7958" data-name="Path 7958" d="M1788.881,839.9l-1-.577-1,.577,1,.577Z" transform="translate(-1785.631 -838.568)" fill="url(#linear-gradient-158)"/>
          <path id="Path_7959" data-name="Path 7959" d="M1785.281,837.737l-1-.577-1,.577,1,.577Z" transform="translate(-1783.283 -837.16)" fill="url(#linear-gradient-159)"/>
          <path id="Path_7960" data-name="Path 7960" d="M1796.108,844.136l-1-.577-1,.577,1,.577Z" transform="translate(-1790.345 -841.334)" fill="url(#linear-gradient-160)"/>
        </g>
        <g id="Group_252" data-name="Group 252" transform="translate(9.634 2.401)">
          <path id="Path_7961" data-name="Path 7961" d="M1833.72,861.627l-1-.577-1,.577,1,.577Z" transform="translate(-1817.972 -852.952)" fill="url(#linear-gradient-161)"/>
          <g id="Group_249" data-name="Group 249" transform="translate(8.743 5.13)">
            <path id="Path_7962" data-name="Path 7962" d="M1826.484,857.352l-1-.577-1,.577,1,.577Z" transform="translate(-1821.995 -855.293)" fill="url(#linear-gradient-162)"/>
            <path id="Path_7963" data-name="Path 7963" d="M1822.921,855.248l-1-.577-1,.577,1,.577Z" transform="translate(-1819.671 -853.921)" fill="url(#linear-gradient-163)"/>
            <path id="Path_7964" data-name="Path 7964" d="M1819.321,853.09l-1-.577-1,.577,1,.577Z" transform="translate(-1817.323 -852.513)" fill="url(#linear-gradient-164)"/>
            <path id="Path_7965" data-name="Path 7965" d="M1830.148,859.489l-1-.577-1,.577,1,.577Z" transform="translate(-1824.385 -856.687)" fill="url(#linear-gradient-165)"/>
          </g>
          <g id="Group_250" data-name="Group 250" transform="translate(3.748 2.18)">
            <path id="Path_7966" data-name="Path 7966" d="M1812.118,848.869l-1-.577-1,.577,1,.577Z" transform="translate(-1807.63 -846.81)" fill="url(#linear-gradient-166)"/>
            <path id="Path_7967" data-name="Path 7967" d="M1808.555,846.766l-1-.577-1,.577,1,.577Z" transform="translate(-1805.306 -845.438)" fill="url(#linear-gradient-167)"/>
            <path id="Path_7968" data-name="Path 7968" d="M1804.956,844.607l-1-.577-1,.577,1,.577Z" transform="translate(-1802.958 -844.031)" fill="url(#linear-gradient-168)"/>
            <path id="Path_7969" data-name="Path 7969" d="M1815.782,851.007l-1-.577-1,.577,1,.577Z" transform="translate(-1810.02 -848.205)" fill="url(#linear-gradient-169)"/>
          </g>
          <g id="Group_251" data-name="Group 251">
            <path id="Path_7970" data-name="Path 7970" d="M1797.739,840.441l-1-.577-1,.577,1,.577Z" transform="translate(-1794.502 -839.133)" fill="url(#linear-gradient-170)"/>
            <path id="Path_7971" data-name="Path 7971" d="M1794.176,838.337l-1-.577-1,.577,1,.577Z" transform="translate(-1792.178 -837.76)" fill="url(#linear-gradient-171)"/>
            <path id="Path_7972" data-name="Path 7972" d="M1801.4,842.579l-1-.577-1,.577,1,.577Z" transform="translate(-1796.892 -840.527)" fill="url(#linear-gradient-172)"/>
          </g>
        </g>
        <path id="Path_7973" data-name="Path 7973" d="M1777.629,848.815l1.156.667-.578.334-1.156-.667Z" transform="translate(-1772.677 -842.57)" fill="url(#linear-gradient-173)"/>
        <g id="Group_253" data-name="Group 253" transform="translate(8.768 0.495)">
          <path id="Path_7974" data-name="Path 7974" d="M1790.264,832.28l1.156.667-.578.334-1.155-.667Z" transform="translate(-1789.686 -832.28)" fill="url(#linear-gradient-174)"/>
          <path id="Path_7975" data-name="Path 7975" d="M1798.24,836.986l1.156.667-.578.334-1.156-.667Z" transform="translate(-1794.889 -835.35)" fill="url(#linear-gradient-175)"/>
          <path id="Path_7976" data-name="Path 7976" d="M1794.262,834.519l1.156.667-.578.334-1.156-.667Z" transform="translate(-1792.294 -833.741)" fill="url(#linear-gradient-176)"/>
          <path id="Path_7977" data-name="Path 7977" d="M1802.569,839.389l1.156.667-.578.334-1.156-.667Z" transform="translate(-1797.713 -836.917)" fill="url(#linear-gradient-177)"/>
          <path id="Path_7978" data-name="Path 7978" d="M1810.545,844.1l1.156.667-.578.334-1.156-.667Z" transform="translate(-1802.915 -839.987)" fill="url(#linear-gradient-178)"/>
          <path id="Path_7979" data-name="Path 7979" d="M1806.567,841.629l1.156.667-.578.334-1.155-.667Z" transform="translate(-1800.321 -838.378)" fill="url(#linear-gradient-179)"/>
        </g>
        <g id="Group_254" data-name="Group 254" transform="translate(17.143 5.436)">
          <path id="Path_7980" data-name="Path 7980" d="M1814.352,846.487l1.156.667-.578.334-1.156-.667Z" transform="translate(-1813.774 -846.487)" fill="url(#linear-gradient-180)"/>
          <path id="Path_7981" data-name="Path 7981" d="M1822.328,851.193l1.156.667-.578.334-1.156-.667Z" transform="translate(-1818.977 -849.557)" fill="url(#linear-gradient-181)"/>
          <path id="Path_7982" data-name="Path 7982" d="M1818.35,848.726l1.156.667-.578.334-1.155-.667Z" transform="translate(-1816.382 -847.947)" fill="url(#linear-gradient-182)"/>
          <path id="Path_7983" data-name="Path 7983" d="M1826.657,853.6l1.156.667-.578.334-1.156-.667Z" transform="translate(-1821.801 -851.124)" fill="url(#linear-gradient-183)"/>
          <path id="Path_7984" data-name="Path 7984" d="M1834.633,858.3l1.156.667-.578.334-1.156-.667Z" transform="translate(-1827.003 -854.194)" fill="url(#linear-gradient-184)"/>
          <path id="Path_7985" data-name="Path 7985" d="M1839.171,861.115l1.156.667-.578.334-1.156-.667Z" transform="translate(-1829.963 -856.028)" fill="url(#linear-gradient-185)"/>
          <path id="Path_7986" data-name="Path 7986" d="M1830.655,855.836l1.156.667-.578.334-1.156-.667Z" transform="translate(-1824.409 -852.585)" fill="url(#linear-gradient-186)"/>
        </g>
        <path id="Path_7987" data-name="Path 7987" d="M1773.693,846.575l1.156.667-.578.334-1.156-.667Z" transform="translate(-1770.11 -841.109)" fill="url(#linear-gradient-187)"/>
        <path id="Path_7988" data-name="Path 7988" d="M1775.576,845.455l1.156.667-.578.334-1.156-.667Z" transform="translate(-1771.338 -840.378)" fill="url(#linear-gradient-188)"/>
        <path id="Path_7989" data-name="Path 7989" d="M1769.71,844.369l1.156.667-.578.334-1.156-.667Z" transform="translate(-1767.512 -839.67)" fill="url(#linear-gradient-189)"/>
      </g>
      <rect id="Rectangle_337" data-name="Rectangle 337" width="41.834" height="5.986" transform="translate(46.988 234.246)" fill="url(#linear-gradient-190)"/>
      <path id="Path_7990" data-name="Path 7990" d="M1708.755,1028.644a14.2,14.2,0,0,0,12.8,0c1.969-1.137,2.836-2.679,2.6-4.172a4.78,4.78,0,0,0-2.6-3.215,14.19,14.19,0,0,0-12.8,0,4.781,4.781,0,0,0-2.6,3.215C1705.919,1025.966,1706.786,1027.508,1708.755,1028.644Z" transform="translate(-1519.906 -768.109)" fill="url(#linear-gradient-191)"/>
      <path id="Path_7991" data-name="Path 7991" d="M1706.226,1024.472a4.776,4.776,0,0,0,2.6,3.214,14.2,14.2,0,0,0,12.8,0,3.288,3.288,0,0,0,0-6.43,14.19,14.19,0,0,0-12.8,0A4.781,4.781,0,0,0,1706.226,1024.472Z" transform="translate(-1519.977 -768.109)" fill="url(#linear-gradient-192)"/>
      <g id="Group_264" data-name="Group 264" transform="translate(95.894 185.945)">
        <path id="Path_7992" data-name="Path 7992" d="M1525.466,1028.644a14.2,14.2,0,0,1-12.8,0c-1.969-1.137-2.836-2.679-2.6-4.172a4.779,4.779,0,0,1,2.6-3.215,14.19,14.19,0,0,1,12.8,0,4.781,4.781,0,0,1,2.6,3.215C1528.3,1025.966,1527.434,1027.508,1525.466,1028.644Z" transform="translate(-1487.898 -954.054)" fill="url(#linear-gradient-193)"/>
        <path id="Path_7993" data-name="Path 7993" d="M1528.137,1024.472a4.777,4.777,0,0,1-2.6,3.214,14.2,14.2,0,0,1-12.8,0,3.288,3.288,0,0,1,0-6.43,14.19,14.19,0,0,1,12.8,0A4.781,4.781,0,0,1,1528.137,1024.472Z" transform="translate(-1487.97 -954.054)" fill="url(#linear-gradient-194)"/>
        <g id="Group_263" data-name="Group 263" transform="translate(0 0)">
          <g id="Group_256" data-name="Group 256" transform="translate(11.238 23.171)">
            <path id="Path_7994" data-name="Path 7994" d="M1487.119,972.209l-8.421-5.057,7.209.916-1.182-10.99,4.064,3.1-.038,9.839.241.6A1.3,1.3,0,0,1,1487.119,972.209Z" transform="translate(-1478.698 -936.357)" fill="url(#linear-gradient-195)"/>
            <path id="Path_7995" data-name="Path 7995" d="M1524.248,910.832l-8.336,5.549-18.372-10.225a.98.98,0,0,0-1.471.838l-.892,15.695c-.014,1.377-1.647.7-2.647-.246l-4.017-3.8,1.513-16.12a5.551,5.551,0,0,1,7.333-4.73l23.906,8.228Z" transform="translate(-1485.099 -897.488)" fill="#1d1d1b"/>
            <path id="Path_7996" data-name="Path 7996" d="M1487.119,988.459,1478.7,983.4l6.643.49-.111-1.9,3.959,2.9-.2,1.98A1.3,1.3,0,0,1,1487.119,988.459Z" transform="translate(-1478.698 -952.607)" fill="#1d1d1b"/>
          </g>
          <g id="Group_257" data-name="Group 257" transform="translate(23.331 66.214)">
            <path id="Path_7997" data-name="Path 7997" d="M1521.314,1029.68a11.325,11.325,0,0,1-5.538-1.322,4.26,4.26,0,0,1-2.3-2.855l0-.025,0-.025a4.265,4.265,0,0,1,2.3-2.856,12.255,12.255,0,0,1,11.076,0,4.261,4.261,0,0,1,2.3,2.856l0,.025,0,.025a4.259,4.259,0,0,1-2.3,2.855A11.328,11.328,0,0,1,1521.314,1029.68Zm-7.516-4.2a3.974,3.974,0,0,0,2.137,2.6,11.909,11.909,0,0,0,10.759,0,2.657,2.657,0,0,0,0-5.211,11.9,11.9,0,0,0-10.759,0A3.977,3.977,0,0,0,1513.8,1025.478Z" transform="translate(-1513.477 -1021.274)" fill="url(#linear-gradient-196)"/>
          </g>
          <g id="Group_258" data-name="Group 258" transform="translate(29.901 36.51)">
            <path id="Path_7998" data-name="Path 7998" d="M1533.639,970.7a1.267,1.267,0,0,1-1.267-1.267V937.115a1.267,1.267,0,1,1,2.535,0v32.314A1.267,1.267,0,0,1,1533.639,970.7Z" transform="translate(-1532.372 -935.848)" fill="url(#linear-gradient-197)"/>
          </g>
          <g id="Group_259" data-name="Group 259" transform="translate(10.679 25.661)">
            <path id="Path_7999" data-name="Path 7999" d="M1497.593,956.4v-4.23l-20.465-13.678-.017,4.5a2.728,2.728,0,0,0,1.365,2.374Z" transform="translate(-1477.104 -926.725)" fill="url(#linear-gradient-198)"/>
            <path id="Path_8000" data-name="Path 8000" d="M1478.393,914.51l15.259-8.81a7.86,7.86,0,0,1,7.861,0l19.157,11.063-23.089,13.33-19.188-11.08A2.6,2.6,0,0,1,1478.393,914.51Z" transform="translate(-1477.093 -904.647)" fill="url(#linear-gradient-199)"/>
            <path id="Path_8001" data-name="Path 8001" d="M1559.1,939.493v4.439l-23.088,13.121v-4.23Z" transform="translate(-1515.526 -927.377)" fill="url(#linear-gradient-200)"/>
          </g>
          <g id="Group_260" data-name="Group 260" transform="translate(0 29.27)">
            <path id="Path_8002" data-name="Path 8002" d="M1454.8,989.747l-8.42-5.056,7.209.915-1.182-10.99,4.065,3.1-.038,9.839.241.6A1.3,1.3,0,0,1,1454.8,989.747Z" transform="translate(-1446.38 -953.896)" fill="url(#linear-gradient-195)"/>
            <path id="Path_8003" data-name="Path 8003" d="M1500.848,925.885l-14.036,7.084a4.34,4.34,0,0,1-4.5-.1l-17.087-9.174a.98.98,0,0,0-1.472.838l-.892,15.695c-.014,1.376-1.647.7-2.647-.246l-4.017-3.8,1.513-16.12a5.551,5.551,0,0,1,7.334-4.73l19.847,6.832,17.607-2.1h0A4.339,4.339,0,0,1,1500.848,925.885Z" transform="translate(-1452.781 -915.027)" fill="#1d1d1b"/>
            <path id="Path_8004" data-name="Path 8004" d="M1454.8,1006l-8.42-5.056,6.643.49-.111-1.9,3.959,2.9-.2,1.98A1.3,1.3,0,0,1,1454.8,1006Z" transform="translate(-1446.38 -970.146)" fill="#1d1d1b"/>
          </g>
          <path id="Path_8005" data-name="Path 8005" d="M1537.413,837.43a6.835,6.835,0,0,0-9.34-6.091c-5.952,2.364-12.879,5.688-14.055,8.719-2.125,5.476-3.947,27.343-1.237,28.6s5.843,5.234,5.843,5.234l19.893-8.734Z" transform="translate(-1488.803 -830.852)" fill="url(#linear-gradient-202)"/>
          <g id="Group_261" data-name="Group 261" transform="translate(42.69 11.366)">
            <path id="Path_8006" data-name="Path 8006" d="M1570.418,904.136a1.268,1.268,0,0,1-1.243-1.521l3.465-16.976a20.7,20.7,0,0,0,.4-4.043v-16.79a1.268,1.268,0,0,1,2.535,0V881.6a23.256,23.256,0,0,1-.45,4.544l-3.466,16.981A1.268,1.268,0,0,1,1570.418,904.136Z" transform="translate(-1569.15 -863.539)" fill="url(#linear-gradient-203)"/>
          </g>
          <path id="Path_8007" data-name="Path 8007" d="M1476.617,871c.9,6.457-.137,15.768-13.495,16.155l-.427-2.825-4.378,2,2.728,4.28s24.078-1.145,27.481-17.435c1.418-6.788-.679-9.357-3.608-10.046A6.96,6.96,0,0,0,1476.617,871Z" transform="translate(-1454.167 -851.791)" fill="url(#linear-gradient-204)"/>
          <path id="Path_8008" data-name="Path 8008" d="M1506.636,870l-.028-5.243a8.983,8.983,0,0,1,2.99-6.741h0a5.779,5.779,0,0,1,7.224-.387c3.946,2.823,8.937,8.022,6.134,15.091C1522.955,872.716,1511.536,865.055,1506.636,870Z" transform="translate(-1485.665 -847.608)" fill="url(#linear-gradient-205)"/>
          <g id="Group_262" data-name="Group 262" transform="translate(32.88 3.08)">
            <path id="Path_8009" data-name="Path 8009" d="M1566.57,841.361l-19.518,9.8a5.385,5.385,0,0,0-2.693,4.664l0,14.324-3.424-1.977V854.84a7.166,7.166,0,0,1,3.54-6.181l14.24-8.357C1560.94,839,1564.337,840.071,1566.57,841.361Z" transform="translate(-1540.937 -839.709)" fill="url(#linear-gradient-206)"/>
            <path id="Path_8010" data-name="Path 8010" d="M1550.779,858.359l0,14.106,23.089-13.33V845.408a2.14,2.14,0,0,0-3.209-1.853l-17,9.813A5.764,5.764,0,0,0,1550.779,858.359Z" transform="translate(-1547.357 -842.028)" fill="url(#linear-gradient-207)"/>
          </g>
        </g>
      </g>
      <path id="Path_8011" data-name="Path 8011" d="M1330.393,986.97l15.873,33.149h16.986l-9.97-33.149Z" transform="translate(-1274.83 -746.739)" fill="url(#linear-gradient-6)"/>
      <path id="Path_8012" data-name="Path 8012" d="M1544.844,820.476s.273,4.661.971,5.155,4.321,4.363,2.468-3.349S1544.844,820.476,1544.844,820.476Z" transform="translate(-1414.711 -636.729)" fill="url(#linear-gradient-209)"/>
      <circle id="Ellipse_67" data-name="Ellipse 67" cx="4.533" cy="4.533" r="4.533" transform="translate(126.028 177.437)" fill="url(#linear-gradient-210)"/>
      <path id="Path_8013" data-name="Path 8013" d="M1525.249,771.039a12.493,12.493,0,0,0,2.582,10.141,6.092,6.092,0,0,1,.153-1.054l3.2.63s.331,1.319,1.033,1.368.6,1.353.6,1.353,1.589-2.885,1.63-.554a2.079,2.079,0,0,1-.882,1.766,2.091,2.091,0,0,0,1.49,1.031c6.637,1.166,13.056-3.831,14.221-10.46a12.2,12.2,0,1,0-24.024-4.222Z" transform="translate(-1401.802 -599.313)" fill="#1d1d1b"/>
      <g id="Group_274" data-name="Group 274" transform="translate(167.023 158.117)">
        <g id="Group_271" data-name="Group 271" transform="translate(0 27.827)">
          <g id="Group_265" data-name="Group 265" transform="translate(20.386 66.214)">
            <path id="Path_8014" data-name="Path 8014" d="M1711.862,1028.357a4.259,4.259,0,0,1-2.3-2.855l0-.025,0-.025a4.262,4.262,0,0,1,2.3-2.856,12.255,12.255,0,0,1,11.076,0,4.264,4.264,0,0,1,2.3,2.856l0,.025,0,.025a4.259,4.259,0,0,1-2.3,2.855,12.26,12.26,0,0,1-11.076,0Zm10.917-5.486a11.9,11.9,0,0,0-10.759,0,2.657,2.657,0,0,0,0,5.211,11.909,11.909,0,0,0,10.759,0,2.657,2.657,0,0,0,0-5.211Z" transform="translate(-1709.562 -1021.274)" fill="url(#linear-gradient-211)"/>
          </g>
          <g id="Group_266" data-name="Group 266" transform="translate(26.956 36.51)">
            <path id="Path_8015" data-name="Path 8015" d="M1729.725,970.7a1.268,1.268,0,0,0,1.267-1.267V937.115a1.268,1.268,0,0,0-2.535,0v32.314A1.268,1.268,0,0,0,1729.725,970.7Z" transform="translate(-1728.457 -935.848)" fill="url(#linear-gradient-212)"/>
          </g>
          <path id="Path_8016" data-name="Path 8016" d="M1761.512,972.209l8.42-5.057-7.209.916,1.182-10.99-4.065,3.1.038,9.839-.241.6A1.3,1.3,0,0,0,1761.512,972.209Z" transform="translate(-1721.777 -913.185)" fill="url(#linear-gradient-213)"/>
          <path id="Path_8017" data-name="Path 8017" d="M1761.32,988.459l8.42-5.057-6.644.49.111-1.9-3.959,2.9.2,1.98A1.3,1.3,0,0,0,1761.32,988.459Z" transform="translate(-1721.586 -929.436)" fill="#1d1d1b"/>
          <path id="Path_8018" data-name="Path 8018" d="M1676.836,910.832l8.337,5.549,18.371-10.225a.98.98,0,0,1,1.472.838l.892,15.695c.013,1.377,1.647.7,2.647-.246l4.017-3.8-1.513-16.12a5.551,5.551,0,0,0-7.333-4.73l-23.906,8.228Z" transform="translate(-1667.83 -874.317)" fill="#1d1d1b"/>
          <g id="Group_267" data-name="Group 267" transform="translate(5.136 25.661)">
            <path id="Path_8019" data-name="Path 8019" d="M1732.1,956.4v-4.23l20.466-13.678.017,4.5a2.729,2.729,0,0,1-1.364,2.374Z" transform="translate(-1709.015 -926.725)" fill="url(#linear-gradient-214)"/>
            <path id="Path_8020" data-name="Path 8020" d="M1707.982,914.51l-15.259-8.81a7.859,7.859,0,0,0-7.861,0L1665.7,916.764l23.089,13.33,19.188-11.08A2.6,2.6,0,0,0,1707.982,914.51Z" transform="translate(-1665.705 -904.647)" fill="url(#linear-gradient-215)"/>
            <path id="Path_8021" data-name="Path 8021" d="M1665.706,939.493v4.439l23.088,13.121v-4.23Z" transform="translate(-1665.705 -927.377)" fill="url(#linear-gradient-216)"/>
          </g>
          <g id="Group_268" data-name="Group 268" transform="translate(9.155 29.27)">
            <path id="Path_8022" data-name="Path 8022" d="M1793.83,989.747l8.421-5.056-7.209.915,1.182-10.99-4.064,3.1.038,9.839-.241.6A1.3,1.3,0,0,0,1793.83,989.747Z" transform="translate(-1752.013 -953.896)" fill="url(#linear-gradient-217)"/>
            <path id="Path_8023" data-name="Path 8023" d="M1679.435,925.885l14.036,7.084a4.339,4.339,0,0,0,4.5-.1l17.088-9.174a.98.98,0,0,1,1.472.838l.892,15.695c.014,1.376,1.647.7,2.647-.246l4.017-3.8-1.513-16.12a5.551,5.551,0,0,0-7.333-4.73l-19.847,6.832-17.607-2.1h0A4.34,4.34,0,0,0,1679.435,925.885Z" transform="translate(-1677.265 -915.027)" fill="#1d1d1b"/>
            <path id="Path_8024" data-name="Path 8024" d="M1793.638,1006l8.421-5.056-6.644.49.111-1.9-3.959,2.9.2,1.98A1.3,1.3,0,0,0,1793.638,1006Z" transform="translate(-1751.821 -970.146)" fill="#1d1d1b"/>
          </g>
          <path id="Path_8025" data-name="Path 8025" d="M1679.875,837.43a6.835,6.835,0,0,1,9.341-6.091c5.952,2.364,12.879,5.688,14.055,8.719,2.125,5.476,3.947,27.343,1.237,28.6s-5.843,5.234-5.843,5.234l-19.893-8.734Z" transform="translate(-1669.093 -830.852)" fill="#006dfe"/>
          <g id="Group_269" data-name="Group 269" transform="translate(10.278 11.366)">
            <path id="Path_8026" data-name="Path 8026" d="M1685.649,904.136a1.281,1.281,0,0,0,.255-.026,1.268,1.268,0,0,0,.989-1.5l-3.465-16.976a20.723,20.723,0,0,1-.4-4.043v-16.79a1.267,1.267,0,1,0-2.535,0V881.6a23.294,23.294,0,0,0,.449,4.544l3.466,16.981A1.267,1.267,0,0,0,1685.649,904.136Z" transform="translate(-1680.493 -863.539)" fill="url(#linear-gradient-218)"/>
          </g>
          <path id="Path_8027" data-name="Path 8027" d="M1732.326,857.325s9.275,21.375,24.206,7.275l-1.7-2.3,4.51-1.682,1.1,4.955s-17.831,16.221-31.758,7.113S1732.326,857.325,1732.326,857.325Z" transform="translate(-1698.148 -848.119)" fill="url(#linear-gradient-219)"/>
          <path id="Path_8028" data-name="Path 8028" d="M1737.48,863.925l-6.533-6.6-4.037.223a5.756,5.756,0,0,0-5.37,4.771c-.8,4.786-.686,12.044,6.327,15.071C1727.868,877.389,1730.521,863.9,1737.48,863.925Z" transform="translate(-1696.77 -848.119)" fill="#006dfe"/>
          <g id="Group_270" data-name="Group 270" transform="translate(0 3.08)">
            <path id="Path_8029" data-name="Path 8029" d="M1653.465,841.361l19.519,9.8a5.386,5.386,0,0,1,2.693,4.664l0,14.324,3.424-1.977V854.84a7.167,7.167,0,0,0-3.539-6.181l-14.24-8.357C1659.1,839,1655.7,840.071,1653.465,841.361Z" transform="translate(-1652.585 -839.709)" fill="url(#linear-gradient-220)"/>
            <path id="Path_8030" data-name="Path 8030" d="M1674.027,858.359l0,14.106-23.089-13.33V845.408a2.14,2.14,0,0,1,3.21-1.853l17,9.813A5.763,5.763,0,0,1,1674.027,858.359Z" transform="translate(-1650.936 -842.028)" fill="url(#linear-gradient-221)"/>
          </g>
        </g>
        <g id="Group_273" data-name="Group 273" transform="translate(18.239)">
          <g id="Group_272" data-name="Group 272" transform="translate(0 10.601)">
            <path id="Path_8031" data-name="Path 8031" d="M1713.656,815.5s-.325,5.55-1.156,6.138-5.145,5.2-2.938-3.989S1713.656,815.5,1713.656,815.5Z" transform="translate(-1707.01 -801.933)" fill="url(#linear-gradient-222)"/>
            <circle id="Ellipse_68" data-name="Ellipse 68" cx="5.398" cy="5.398" r="5.398" transform="translate(1.287 6.599)" fill="url(#linear-gradient-223)"/>
            <path id="Path_8032" data-name="Path 8032" d="M1710.847,763.831s5.537-4.371,1.093-7.649-8.815,5.61-8.815,5.61l1.267,4.075s-.141-2.106.587-1.62.546,2.113.546,2.113l.482-2.107Z" transform="translate(-1703.389 -750.824)" fill="#1d1d1b"/>
          </g>
        </g>
      </g>
      <path id="Path_8033" data-name="Path 8033" d="M1693.858,573.935l.339,4.556c.146,1.965.842,3.5,1.729,3.828l2.059.75-2.059.75c-.888.323-1.583,1.863-1.729,3.828l-.339,4.556-.339-4.556c-.146-1.965-.842-3.5-1.729-3.828l-2.059-.75,2.059-.75c.887-.324,1.583-1.864,1.729-3.828Z" transform="translate(-1509.218 -477.326)" opacity="0.3" fill="url(#linear-gradient-224)"/>
      <path id="Path_8034" data-name="Path 8034" d="M1828.805,547.667l.339,4.556c.146,1.965.842,3.5,1.729,3.828l2.059.75-2.059.75c-.888.324-1.583,1.863-1.729,3.828l-.339,4.556-.339-4.556c-.146-1.965-.842-3.5-1.729-3.828l-2.059-.75,2.059-.75c.887-.323,1.583-1.863,1.729-3.828Z" transform="translate(-1597.24 -460.192)" opacity="0.3" fill="url(#linear-gradient-224)"/>
      <path id="Path_8035" data-name="Path 8035" d="M1307.826,617.833l.339,4.556c.146,1.965.842,3.5,1.73,3.828l2.058.75-2.058.75c-.888.324-1.583,1.863-1.73,3.828l-.339,4.556-.339-4.556c-.146-1.965-.842-3.5-1.729-3.828l-2.059-.75,2.059-.75c.888-.323,1.583-1.863,1.729-3.828Z" transform="translate(-1257.418 -505.96)" opacity="0.3" fill="url(#linear-gradient-224)"/>
      <path id="Path_8036" data-name="Path 8036" d="M1563.214,608.073l.639,8.581c.276,3.7,1.586,6.6,3.257,7.21l3.877,1.414-3.877,1.413c-1.672.609-2.982,3.509-3.257,7.209l-.639,8.581-.639-8.581c-.275-3.7-1.586-6.6-3.258-7.209l-3.877-1.413,3.877-1.414c1.672-.61,2.982-3.51,3.258-7.21Z" transform="translate(-1421.624 -499.594)" opacity="0.3" fill="url(#linear-gradient-227)"/>
      <path id="Path_8037" data-name="Path 8037" d="M1434.116,457.778l.638,8.581c.275,3.7,1.586,6.6,3.258,7.21l3.877,1.413-3.877,1.414c-1.672.609-2.982,3.509-3.258,7.209l-.638,8.581-.639-8.581c-.276-3.7-1.586-6.6-3.258-7.209l-3.877-1.414,3.877-1.413c1.672-.61,2.982-3.51,3.258-7.21Z" transform="translate(-1337.415 -401.56)" opacity="0.3" fill="url(#linear-gradient-227)"/>
      <path id="Path_8038" data-name="Path 8038" d="M1231.827,756.907l.639,8.581c.275,3.7,1.586,6.6,3.258,7.209l3.877,1.414-3.877,1.413c-1.672.61-2.982,3.51-3.258,7.21l-.639,8.581-.639-8.581c-.276-3.7-1.586-6.6-3.258-7.21l-3.877-1.413,3.877-1.414c1.672-.609,2.982-3.509,3.258-7.209Z" transform="translate(-1205.468 -596.674)" opacity="0.3" fill="url(#linear-gradient-224)"/>
      <path id="Path_8039" data-name="Path 8039" d="M1914.325,701.348l.638,8.581c.275,3.7,1.586,6.6,3.258,7.209l3.877,1.414-3.877,1.413c-1.672.61-2.982,3.51-3.258,7.21l-.638,8.581-.639-8.581c-.275-3.7-1.586-6.6-3.257-7.21l-3.877-1.413,3.877-1.414c1.672-.609,2.982-3.509,3.257-7.209Z" transform="translate(-1650.644 -560.435)" opacity="0.3" fill="url(#linear-gradient-224)"/>
      <path id="Path_8040" data-name="Path 8040" d="M1559.018,366.1a250.4,250.4,0,0,0,19.312-21.9c8.121-10.557,12.239-18.42,12.239-23.369a5.724,5.724,0,0,0-1.669-4.4c-3.379-3.14-11.517-.759-24.188,7.077-4.42,2.733-9.168,6-14.106,9.7-2.462-20.9-7.365-37.1-14.455-37.1s-11.992,16.2-14.455,37.1c-4.939-3.7-9.686-6.965-14.106-9.7-12.671-7.836-20.809-10.217-24.188-7.077a5.724,5.724,0,0,0-1.669,4.4c0,4.949,4.118,12.812,12.239,23.369a250.449,250.449,0,0,0,19.312,21.9,250.485,250.485,0,0,0-19.312,21.9c-8.122,10.557-12.239,18.42-12.239,23.369a5.219,5.219,0,0,0,5.71,5.74c4.343,0,11.086-2.814,20.148-8.418,4.42-2.733,9.167-6,14.106-9.7,2.462,20.9,7.364,37.1,14.455,37.1s11.993-16.2,14.455-37.1c4.938,3.7,9.686,6.965,14.106,9.7,9.062,5.6,15.8,8.418,20.147,8.418a5.219,5.219,0,0,0,5.71-5.74c0-4.95-4.118-12.812-12.239-23.369A250.433,250.433,0,0,0,1559.018,366.1Zm7.114-39.138c9.664-5.976,15.7-8.035,18.779-8.035a3.034,3.034,0,0,1,2.085.587c.125.116.419.389.419,1.313,0,6.034-10.744,22.371-30.868,42.776q-2.055-2.053-4.18-4.1c-.162-7.518-.6-15.02-1.3-22.094C1556.35,333.4,1561.432,329.872,1566.132,326.966ZM1545.6,374.226q-4.722,4.388-9.45,8.466-4.713-4.073-9.449-8.466c-1.245-1.156-2.453-2.3-3.645-3.439-.023-1.553-.039-3.112-.039-4.684s.016-3.131.039-4.684c1.191-1.138,2.4-2.283,3.645-3.439q4.721-4.388,9.449-8.466,4.714,4.073,9.45,8.466c1.244,1.156,2.453,2.3,3.645,3.439.023,1.553.039,3.112.039,4.684s-.016,3.131-.039,4.684C1548.054,371.926,1546.845,373.07,1545.6,374.226Zm3.534,1.558c-.179,5.808-.52,11.429-1.01,16.758q-4.541-3.541-9.222-7.5,4.3-3.738,8.6-7.733C1548.051,376.8,1548.593,376.294,1549.135,375.785Zm-15.737,9.261q-4.668,3.945-9.222,7.5c-.49-5.328-.831-10.949-1.01-16.758.542.51,1.083,1.02,1.63,1.528Q1529.092,381.3,1533.4,385.046Zm-13.531-17.339c-.548-.537-1.087-1.07-1.624-1.6.536-.532,1.075-1.065,1.624-1.6q0,.8,0,1.6T1519.867,367.707Zm3.3-11.283c.179-5.808.52-11.429,1.01-16.758q4.541,3.541,9.222,7.5-4.3,3.738-8.6,7.733C1524.25,355.4,1523.708,355.914,1523.167,356.424Zm15.736-9.261q4.668-3.945,9.222-7.5c.49,5.328.831,10.949,1.01,16.758-.542-.51-1.083-1.02-1.63-1.528Q1543.209,350.9,1538.9,347.162Zm13.531,17.339c.548.537,1.087,1.07,1.623,1.6-.536.532-1.075,1.065-1.623,1.6q0-.8,0-1.6T1552.434,364.5Zm-25.161-46.031c1.933-8.942,5.279-18.5,8.877-18.5s6.945,9.554,8.877,18.5a169.288,169.288,0,0,1,2.667,16.949c-3.774,2.908-7.641,6.049-11.544,9.373-3.9-3.324-7.77-6.465-11.544-9.373A169.457,169.457,0,0,1,1527.273,318.471Zm-42.387,2.36c0-.924.293-1.2.419-1.313a3.031,3.031,0,0,1,2.085-.587c3.079,0,9.117,2.059,18.78,8.035,4.7,2.906,9.781,6.437,15.07,10.444-.7,7.074-1.143,14.575-1.3,22.094q-2.123,2.049-4.181,4.1C1495.631,343.2,1484.886,326.864,1484.886,320.831Zm21.283,84.412c-12.8,7.915-19.238,8.959-20.864,7.448-.126-.117-.419-.389-.419-1.313,0-6.034,10.745-22.371,30.868-42.776q2.055,2.053,4.181,4.1c.162,7.518.6,15.019,1.3,22.094C1515.951,398.806,1510.869,402.337,1506.17,405.243Zm38.858,8.495c-1.932,8.942-5.279,18.5-8.877,18.5s-6.944-9.555-8.877-18.5a169.359,169.359,0,0,1-2.666-16.949c3.774-2.908,7.641-6.049,11.543-9.373,3.9,3.324,7.77,6.465,11.544,9.373A169.29,169.29,0,0,1,1545.028,413.738ZM1587,412.691c-1.626,1.512-8.066.467-20.864-7.448-4.7-2.906-9.781-6.437-15.07-10.444.7-7.074,1.143-14.575,1.3-22.094q2.123-2.049,4.18-4.1c20.124,20.405,30.868,36.743,30.868,42.776C1587.415,412.3,1587.121,412.574,1587,412.691Z" transform="translate(-1373.545 -296.103)" fill="url(#linear-gradient-231)"/>
      <path id="Path_8041" data-name="Path 8041" d="M1182.682,1184.41l40.107-23.154a3.33,3.33,0,0,1,3.33,0l40.1,23.154a3.33,3.33,0,0,1,0,5.768l-40.1,23.157a3.33,3.33,0,0,1-3.331,0l-40.107-23.158A3.33,3.33,0,0,1,1182.682,1184.41Z" transform="translate(-1177.396 -860.13)" opacity="0.25" fill="url(#linear-gradient-232)"/>
      <path id="Path_8042" data-name="Path 8042" d="M1476.845,1233.159l20.659-11.927a3.33,3.33,0,0,1,3.33,0l20.657,11.926a3.33,3.33,0,0,1,0,5.768l-20.657,11.928a3.33,3.33,0,0,1-3.331,0l-20.659-11.928A3.33,3.33,0,0,1,1476.845,1233.159Z" transform="translate(-1369.271 -899.252)" opacity="0.25" fill="url(#linear-gradient-233)"/>
      <path id="Path_8043" data-name="Path 8043" d="M1172.268,1026.085l9.85-5.687a3.331,3.331,0,0,1,3.33,0l9.849,5.686a3.33,3.33,0,0,1,0,5.768l-9.849,5.687a3.33,3.33,0,0,1-3.33,0l-9.85-5.687A3.33,3.33,0,0,1,1172.268,1026.085Z" transform="translate(-1170.603 -768.253)" opacity="0.25" fill="url(#linear-gradient-234)"/>
      <path id="Path_8044" data-name="Path 8044" d="M1990.57,1075.025l9.85-5.687a3.331,3.331,0,0,1,3.33,0l9.849,5.686a3.33,3.33,0,0,1,0,5.768l-9.849,5.687a3.331,3.331,0,0,1-3.331,0l-9.85-5.687A3.33,3.33,0,0,1,1990.57,1075.025Z" transform="translate(-1704.362 -800.175)" opacity="0.25" fill="url(#linear-gradient-235)"/>
      <path id="Path_8045" data-name="Path 8045" d="M1974.058,890.213l9.85-5.686a3.331,3.331,0,0,1,3.33,0l9.849,5.687a3.33,3.33,0,0,1,0,5.768l-9.849,5.687a3.33,3.33,0,0,1-3.331,0l-9.849-5.687A3.33,3.33,0,0,1,1974.058,890.213Z" transform="translate(-1693.591 -679.627)" opacity="0.25" fill="url(#linear-gradient-236)"/>
      <g id="Group_275" data-name="Group 275" transform="translate(241.3 202.458)">
        <ellipse id="Ellipse_69" data-name="Ellipse 69" cx="29.815" cy="7.906" rx="29.815" ry="7.906" transform="translate(2.851 134.741)" opacity="0.25" fill="url(#linear-gradient-237)"/>
        <path id="Path_8046" data-name="Path 8046" d="M1864.544,932.772l13.159-2.429,4.266,19.807-12.681,3.57Z" transform="translate(-1864.544 -912.261)" fill="url(#linear-gradient-238)"/>
        <path id="Path_8047" data-name="Path 8047" d="M1971.84,937.054l.814,16.547-5.24,19.582-1.813,1.965,4.441-20.583-1.828-18.072Z" transform="translate(-1930.461 -916.272)" fill="url(#linear-gradient-239)"/>
        <path id="Path_8048" data-name="Path 8048" d="M1961.874,1048.573l-2.344,40.107,2.344,44.423-7.338-1.793,5.448-1.785-4.935-41.788-1.378-39.164Z" transform="translate(-1922.68 -989.379)" fill="url(#linear-gradient-240)"/>
        <path id="Path_8049" data-name="Path 8049" d="M1963.375,1282.639l-1.768-1.261-5.448,1.785,7.338,1.793Z" transform="translate(-1924.303 -1141.232)" fill="#1d1d1b"/>
        <path id="Path_8050" data-name="Path 8050" d="M1942.818,1060.071l-5.254,40.107,2.344,44.424-7.338-1.793,5.448-1.785-4.935-41.788,1.785-39.164Z" transform="translate(-1908.915 -996.879)" fill="url(#linear-gradient-241)"/>
        <path id="Path_8051" data-name="Path 8051" d="M1939.785,1294.138l-1.768-1.261-5.448,1.785,7.338,1.793Z" transform="translate(-1908.915 -1148.733)" fill="#1d1d1b"/>
        <path id="Path_8052" data-name="Path 8052" d="M1948.344,966.669c-.968,4.725-2.855,4.272-2.508,9.083l.033,4.649v.012l-3.3,1.541a5.282,5.282,0,0,1-4.844-.194h0l-2.168-1.255c-6.3-3.649-10.8,1.992-10.3-5.273l2.779-41.114c-2.25-2.329-3.935-6.386-1.789-8.819l4.8-6.383a8.76,8.76,0,0,1,8.81-3.307l2.663.562s4.156,1.972,2.744,11.282c-1.127,7.429-6.449,9.842-2.677,17.694C1946.131,952.521,1949.223,962.382,1948.344,966.669Z" transform="translate(-1904.122 -902.527)" fill="#006dfe"/>
        <circle id="Ellipse_70" data-name="Ellipse 70" cx="4.286" cy="4.286" r="4.286" transform="translate(28.38 2.112)" fill="url(#linear-gradient-242)"/>
        <path id="Path_8053" data-name="Path 8053" d="M1947.577,878.612a2.041,2.041,0,0,0-1.167,2.925c1.019,1.878,2.967,5.746,3,7.96a17.886,17.886,0,0,1-.286,4.177,1.392,1.392,0,0,0,.758,1.648c3.263,1.456,10.563,4.222,10.566-.167,0-2.2-1.941-7.834-2.369-10.415-.782-4.726-3.162-5.991-7.7-6.365A7.515,7.515,0,0,0,1947.577,878.612Z" transform="translate(-1917.78 -878.34)" fill="#1d1d1b"/>
        <path id="Path_8054" data-name="Path 8054" d="M1896.811,945.411l-6.582,16.989-23.028-6.938-2.657-2.724,2.105-3.066.909,3.1,2.657-.533-1.978,2.2,20.33,4.372,4.122-16.948Z" transform="translate(-1864.544 -919.78)" fill="url(#linear-gradient-243)"/>
        <path id="Path_8055" data-name="Path 8055" d="M1942.848,928.142c-1.063.984-2.13,2.735-2.124,5.8l6.417,3.593s5.233-6.259-.323-9.7A3.3,3.3,0,0,0,1942.848,928.142Z" transform="translate(-1914.234 -910.286)" fill="url(#linear-gradient-244)"/>
      </g>
    </g>
    <g id="Group_279" data-name="Group 279" transform="translate(1012.871 500.384)">
      <path id="Path_8056" data-name="Path 8056" d="M1094.241,999.174s-4.406,25.874-21.737,23.779l-55.06-32.294c-6.7-3.643-5.7-10.118.79-14.129l6.768-4.186Z" transform="translate(-1012.871 -941.48)" opacity="0.25" fill="url(#linear-gradient-245)"/>
      <g id="Group_278" data-name="Group 278" transform="translate(7.562 2.583)">
        <path id="Path_8057" data-name="Path 8057" d="M1052.241,897.794v-6.783l-17.623,10.175,5.923,3.42Z" transform="translate(-1034.619 -891.012)" fill="url(#linear-gradient-246)"/>
        <g id="Group_277" data-name="Group 277">
          <path id="Path_8058" data-name="Path 8058" d="M1034.619,932.972v-12.7l58.744,33.916v20.348l-52.118-30.089A13.251,13.251,0,0,1,1034.619,932.972Z" transform="translate(-1034.619 -910.097)" fill="url(#linear-gradient-247)"/>
          <path id="Path_8059" data-name="Path 8059" d="M1214.761,1012.6l-11.205,6.469V998.721l17.622-10.175v12.94A12.833,12.833,0,0,1,1214.761,1012.6Z" transform="translate(-1144.813 -954.631)" fill="url(#linear-gradient-248)"/>
          <path id="Path_8060" data-name="Path 8060" d="M1144.041,924.927,1085.3,891.012v6.783l52.869,30.524Z" transform="translate(-1067.675 -891.012)" fill="url(#linear-gradient-249)"/>
        </g>
        <path id="Path_8061" data-name="Path 8061" d="M1051.654,917.329l11.7-6.812,52.869,30.524-11.748,6.784Z" transform="translate(-1045.73 -903.735)" fill="url(#linear-gradient-250)"/>
        <path id="Path_8062" data-name="Path 8062" d="M1085.3,919.708s4.728-13.246,14.606-9.137-2.576,14.3,10.878,7.4,10.293,22.083,10.293,22.083Z" transform="translate(-1067.677 -903.254)" fill="url(#linear-gradient-251)"/>
      </g>
      <path id="Path_8063" data-name="Path 8063" d="M1072.827,900.154s.513-17.417,8.463-16.539-2.951,28.007,8.144,16.418,7.968,13.257,19.05,10.21,18.362-20.5,19.05-1.684-9.19,17.475-9.19,17.475Z" transform="translate(-1051.979 -883.583)" fill="url(#linear-gradient-252)"/>
    </g>
  </g>
</svg>
