<svg xmlns="http://www.w3.org/2000/svg" xmlns:xlink="http://www.w3.org/1999/xlink" viewBox="0 0 1172.31 956.06"><defs><style>.cls-1{mask:url(#mask);filter:url(#luminosity-noclip-18);}.cls-10,.cls-12,.cls-14,.cls-16,.cls-18,.cls-2,.cls-20,.cls-22,.cls-24,.cls-26,.cls-28,.cls-30,.cls-32,.cls-34,.cls-4,.cls-6,.cls-8{mix-blend-mode:multiply;}.cls-2{fill:url(#linear-gradient);}.cls-3{mask:url(#mask-2);filter:url(#luminosity-noclip-23);}.cls-4{fill:url(#linear-gradient-2);}.cls-5{mask:url(#mask-3);filter:url(#luminosity-noclip-24);}.cls-6{fill:url(#linear-gradient-3);}.cls-7{mask:url(#mask-4);filter:url(#luminosity-noclip-25);}.cls-8{fill:url(#linear-gradient-4);}.cls-9{mask:url(#mask-5);filter:url(#luminosity-noclip-26);}.cls-10{fill:url(#linear-gradient-5);}.cls-11{mask:url(#mask-6);filter:url(#luminosity-noclip-27);}.cls-12{fill:url(#linear-gradient-6);}.cls-13{mask:url(#mask-7);filter:url(#luminosity-noclip-19);}.cls-14{fill:url(#linear-gradient-7);}.cls-15{mask:url(#mask-8);filter:url(#luminosity-noclip-28);}.cls-16{fill:url(#linear-gradient-8);}.cls-17{mask:url(#mask-9);filter:url(#luminosity-noclip-29);}.cls-18{fill:url(#linear-gradient-9);}.cls-19{mask:url(#mask-10);filter:url(#luminosity-noclip-30);}.cls-20{fill:url(#linear-gradient-10);}.cls-21{mask:url(#mask-11);filter:url(#luminosity-noclip-31);}.cls-22{fill:url(#linear-gradient-11);}.cls-23{mask:url(#mask-12);filter:url(#luminosity-noclip-32);}.cls-24{fill:url(#linear-gradient-12);}.cls-25{mask:url(#mask-13);filter:url(#luminosity-noclip-33);}.cls-26{fill:url(#linear-gradient-13);}.cls-27{mask:url(#mask-14);filter:url(#luminosity-noclip-34);}.cls-28{fill:url(#linear-gradient-14);}.cls-29{mask:url(#mask-15);filter:url(#luminosity-noclip-20);}.cls-30{fill:url(#linear-gradient-15);}.cls-31{mask:url(#mask-16);filter:url(#luminosity-noclip-21);}.cls-32{fill:url(#linear-gradient-16);}.cls-33{mask:url(#mask-17);filter:url(#luminosity-noclip-22);}.cls-34{fill:url(#linear-gradient-17);}.cls-35{mask:url(#mask-18);}.cls-36{fill:url(#linear-gradient-18);}.cls-37{mask:url(#mask-19);}.cls-38{fill:url(#linear-gradient-19);}.cls-39{mask:url(#mask-20);}.cls-40{fill:url(#linear-gradient-20);}.cls-41{fill:#d4dffc;}.cls-42{mask:url(#mask-21);}.cls-43{fill:url(#linear-gradient-21);}.cls-44{fill:url(#linear-gradient-22);}.cls-45{fill:#f3f6ff;}.cls-46{fill:url(#linear-gradient-23);}.cls-47{fill:url(#linear-gradient-24);}.cls-48{fill:url(#linear-gradient-25);}.cls-49{fill:url(#linear-gradient-26);}.cls-50{fill:url(#linear-gradient-27);}.cls-51{mask:url(#mask-22);}.cls-52{fill:url(#linear-gradient-28);}.cls-53{fill:url(#linear-gradient-29);}.cls-54{fill:url(#linear-gradient-30);}.cls-55{fill:url(#linear-gradient-31);}.cls-56{fill:url(#linear-gradient-32);}.cls-57{fill:url(#linear-gradient-33);}.cls-58{fill:url(#linear-gradient-34);}.cls-59{fill:url(#linear-gradient-35);}.cls-60{fill:url(#linear-gradient-36);}.cls-61{fill:url(#linear-gradient-37);}.cls-62{fill:url(#linear-gradient-38);}.cls-63{fill:url(#linear-gradient-39);}.cls-64{fill:url(#linear-gradient-40);}.cls-65{fill:url(#linear-gradient-41);}.cls-66{fill:url(#linear-gradient-42);}.cls-67{fill:url(#linear-gradient-43);}.cls-68{fill:url(#linear-gradient-44);}.cls-69{fill:url(#linear-gradient-45);}.cls-70{fill:url(#linear-gradient-46);}.cls-71{fill:url(#linear-gradient-47);}.cls-72{fill:url(#linear-gradient-48);}.cls-73{fill:url(#linear-gradient-49);}.cls-74{fill:url(#linear-gradient-50);}.cls-75{mask:url(#mask-23);}.cls-76{fill:url(#linear-gradient-51);}.cls-77{fill:url(#linear-gradient-52);}.cls-78{fill:url(#linear-gradient-53);}.cls-79{mask:url(#mask-24);}.cls-80{fill:url(#linear-gradient-54);}.cls-81{fill:url(#linear-gradient-55);}.cls-82{fill:url(#linear-gradient-56);}.cls-83{fill:url(#linear-gradient-57);}.cls-84{fill:url(#linear-gradient-58);}.cls-85{fill:#012860;}.cls-86{fill:url(#linear-gradient-59);}.cls-87{fill:url(#linear-gradient-60);}.cls-88{fill:url(#linear-gradient-61);}.cls-89{fill:url(#linear-gradient-62);}.cls-90{fill:url(#linear-gradient-63);}.cls-91{fill:url(#linear-gradient-64);}.cls-92{fill:url(#linear-gradient-65);}.cls-93{fill:url(#linear-gradient-66);}.cls-94{fill:url(#linear-gradient-67);}.cls-95{fill:url(#linear-gradient-68);}.cls-96{mask:url(#mask-25);}.cls-97{fill:url(#linear-gradient-69);}.cls-98{fill:url(#linear-gradient-70);}.cls-99{fill:url(#linear-gradient-71);}.cls-100{fill:url(#linear-gradient-72);}.cls-101{fill:url(#linear-gradient-73);}.cls-102{fill:url(#linear-gradient-74);}.cls-103{fill:url(#linear-gradient-75);}.cls-104{fill:url(#linear-gradient-76);}.cls-105{mask:url(#mask-26);}.cls-106{fill:url(#linear-gradient-77);}.cls-107{fill:url(#linear-gradient-78);}.cls-108{fill:url(#linear-gradient-79);}.cls-109{fill:url(#linear-gradient-80);}.cls-110{fill:url(#linear-gradient-81);}.cls-111{fill:url(#linear-gradient-82);}.cls-112{fill:url(#linear-gradient-83);}.cls-113{fill:url(#linear-gradient-84);}.cls-114{fill:url(#linear-gradient-85);}.cls-115{fill:url(#linear-gradient-86);}.cls-116{fill:url(#linear-gradient-87);}.cls-117{fill:url(#linear-gradient-88);}.cls-118{fill:url(#linear-gradient-89);}.cls-119{fill:url(#linear-gradient-90);}.cls-120{mask:url(#mask-27);}.cls-121{fill:url(#linear-gradient-91);}.cls-122{fill:url(#linear-gradient-92);}.cls-123{fill:url(#linear-gradient-93);}.cls-124{fill:url(#linear-gradient-94);}.cls-125{fill:url(#linear-gradient-95);}.cls-126{fill:url(#linear-gradient-96);}.cls-127{fill:url(#linear-gradient-97);}.cls-128{fill:url(#linear-gradient-98);}.cls-129{fill:url(#linear-gradient-99);}.cls-130{fill:url(#linear-gradient-100);}.cls-131{fill:url(#linear-gradient-101);}.cls-132{fill:url(#linear-gradient-102);}.cls-133{fill:url(#linear-gradient-103);}.cls-134{fill:url(#linear-gradient-104);}.cls-135{fill:url(#linear-gradient-105);}.cls-136{fill:url(#linear-gradient-106);}.cls-137{fill:url(#linear-gradient-107);}.cls-138{fill:url(#linear-gradient-108);}.cls-139{fill:url(#linear-gradient-109);}.cls-140{fill:url(#linear-gradient-110);}.cls-141{fill:url(#linear-gradient-111);}.cls-142{fill:url(#linear-gradient-112);}.cls-143{fill:url(#linear-gradient-113);}.cls-144{fill:url(#linear-gradient-114);}.cls-145{mask:url(#mask-28);}.cls-146{fill:url(#linear-gradient-115);}.cls-147{mask:url(#mask-29);}.cls-148{fill:url(#linear-gradient-116);}.cls-149{mask:url(#mask-30);}.cls-150{fill:url(#linear-gradient-117);}.cls-151{mask:url(#mask-31);}.cls-152{fill:url(#linear-gradient-118);}.cls-153{mask:url(#mask-32);}.cls-154{fill:url(#linear-gradient-119);}.cls-155{mask:url(#mask-33);}.cls-156{fill:url(#linear-gradient-120);}.cls-157{mask:url(#mask-34);}.cls-158{fill:url(#linear-gradient-121);}.cls-159{fill:url(#linear-gradient-122);}.cls-160{fill:url(#linear-gradient-123);}.cls-161{fill:none;stroke:#000;stroke-miterlimit:10;}.cls-162{fill:url(#linear-gradient-124);}.cls-163{fill:url(#linear-gradient-125);}.cls-164{fill:url(#linear-gradient-126);}.cls-165{fill:url(#linear-gradient-127);}.cls-166{fill:url(#linear-gradient-128);}.cls-167{fill:url(#linear-gradient-129);}.cls-168{fill:url(#linear-gradient-130);}.cls-169{fill:url(#linear-gradient-131);}.cls-170{fill:url(#linear-gradient-132);}.cls-171{fill:url(#linear-gradient-133);}.cls-172{fill:url(#linear-gradient-134);}.cls-173{fill:url(#linear-gradient-135);}.cls-174{fill:url(#linear-gradient-136);}.cls-175{fill:url(#linear-gradient-137);}.cls-176{fill:url(#linear-gradient-138);}.cls-177{fill:url(#linear-gradient-139);}.cls-178{filter:url(#luminosity-noclip-17);}.cls-179{filter:url(#luminosity-noclip-16);}.cls-180{filter:url(#luminosity-noclip-15);}.cls-181{filter:url(#luminosity-noclip-14);}.cls-182{filter:url(#luminosity-noclip-13);}.cls-183{filter:url(#luminosity-noclip-12);}.cls-184{filter:url(#luminosity-noclip-11);}.cls-185{filter:url(#luminosity-noclip-10);}.cls-186{filter:url(#luminosity-noclip-9);}.cls-187{filter:url(#luminosity-noclip-8);}.cls-188{filter:url(#luminosity-noclip-7);}.cls-189{filter:url(#luminosity-noclip-6);}.cls-190{filter:url(#luminosity-noclip-5);}.cls-191{filter:url(#luminosity-noclip-4);}.cls-192{filter:url(#luminosity-noclip-3);}.cls-193{filter:url(#luminosity-noclip-2);}.cls-194{filter:url(#luminosity-noclip);}</style><filter id="luminosity-noclip" x="367.53" y="-8636.24" width="602.71" height="32766" filterUnits="userSpaceOnUse" color-interpolation-filters="sRGB"><feFlood flood-color="#fff" result="bg"/><feBlend in="SourceGraphic" in2="bg"/></filter><mask id="mask" x="367.53" y="-8636.24" width="602.71" height="32766" maskUnits="userSpaceOnUse"><g class="cls-194"/></mask><linearGradient id="linear-gradient" x1="367.53" y1="472.15" x2="970.25" y2="472.15" gradientUnits="userSpaceOnUse"><stop offset="0" stop-color="#666"/><stop offset="0.12" stop-color="#7f7f7f"/><stop offset="0.42" stop-color="#b6b6b6"/><stop offset="0.67" stop-color="#ddd"/><stop offset="0.88" stop-color="#f6f6f6"/><stop offset="1" stop-color="#fff"/></linearGradient><filter id="luminosity-noclip-2" x="67.27" y="-8636.24" width="36.78" height="32766" filterUnits="userSpaceOnUse" color-interpolation-filters="sRGB"><feFlood flood-color="#fff" result="bg"/><feBlend in="SourceGraphic" in2="bg"/></filter><mask id="mask-2" x="67.27" y="-8636.24" width="36.78" height="32766" maskUnits="userSpaceOnUse"><g class="cls-193"/></mask><linearGradient id="linear-gradient-2" x1="85.62" y1="239.46" x2="85.71" y2="478.81" gradientUnits="userSpaceOnUse"><stop offset="0" stop-color="#999"/><stop offset="0.2" stop-color="#b4b4b4"/><stop offset="0.55" stop-color="#dcdcdc"/><stop offset="0.83" stop-color="#f6f6f6"/><stop offset="1" stop-color="#fff"/></linearGradient><filter id="luminosity-noclip-3" x="287.4" y="-8636.24" width="36.73" height="32766" filterUnits="userSpaceOnUse" color-interpolation-filters="sRGB"><feFlood flood-color="#fff" result="bg"/><feBlend in="SourceGraphic" in2="bg"/></filter><mask id="mask-3" x="287.4" y="-8636.24" width="36.73" height="32766" maskUnits="userSpaceOnUse"><g class="cls-192"/></mask><linearGradient id="linear-gradient-3" x1="304.65" y1="294.03" x2="307.67" y2="369.99" xlink:href="#linear-gradient-2"/><filter id="luminosity-noclip-4" x="347.76" y="-8636.24" width="31.55" height="32766" filterUnits="userSpaceOnUse" color-interpolation-filters="sRGB"><feFlood flood-color="#fff" result="bg"/><feBlend in="SourceGraphic" in2="bg"/></filter><mask id="mask-4" x="347.76" y="-8636.24" width="31.55" height="32766" maskUnits="userSpaceOnUse"><g class="cls-191"/></mask><linearGradient id="linear-gradient-4" x1="347.76" y1="513.69" x2="379.3" y2="513.69" gradientUnits="userSpaceOnUse"><stop offset="0" stop-color="#666"/><stop offset="0.06" stop-color="#737373"/><stop offset="0.28" stop-color="#a5a5a5"/><stop offset="0.5" stop-color="#ccc"/><stop offset="0.7" stop-color="#e8e8e8"/><stop offset="0.87" stop-color="#f9f9f9"/><stop offset="1" stop-color="#fff"/></linearGradient><filter id="luminosity-noclip-5" x="353.21" y="-8636.24" width="26.14" height="32766" filterUnits="userSpaceOnUse" color-interpolation-filters="sRGB"><feFlood flood-color="#fff" result="bg"/><feBlend in="SourceGraphic" in2="bg"/></filter><mask id="mask-5" x="353.21" y="-8636.24" width="26.14" height="32766" maskUnits="userSpaceOnUse"><g class="cls-190"/></mask><linearGradient id="linear-gradient-5" x1="353.21" y1="424.05" x2="379.34" y2="424.05" gradientUnits="userSpaceOnUse"><stop offset="0"/><stop offset="1" stop-color="#fff"/></linearGradient><filter id="luminosity-noclip-6" x="262.74" y="-8636.24" width="163.2" height="32766" filterUnits="userSpaceOnUse" color-interpolation-filters="sRGB"><feFlood flood-color="#fff" result="bg"/><feBlend in="SourceGraphic" in2="bg"/></filter><mask id="mask-6" x="262.74" y="-8636.24" width="163.2" height="32766" maskUnits="userSpaceOnUse"><g class="cls-189"/></mask><linearGradient id="linear-gradient-6" x1="262.74" y1="702.48" x2="425.94" y2="702.48" xlink:href="#linear-gradient-4"/><filter id="luminosity-noclip-7" x="522.27" y="-8636.24" width="389.74" height="32766" filterUnits="userSpaceOnUse" color-interpolation-filters="sRGB"><feFlood flood-color="#fff" result="bg"/><feBlend in="SourceGraphic" in2="bg"/></filter><mask id="mask-7" x="522.27" y="-8636.24" width="389.74" height="32766" maskUnits="userSpaceOnUse"><g class="cls-188"/></mask><linearGradient id="linear-gradient-7" x1="522.27" y1="790.25" x2="912.01" y2="790.25" gradientUnits="userSpaceOnUse"><stop offset="0" stop-color="#fff"/><stop offset="0.12" stop-color="#f6f6f6"/><stop offset="0.33" stop-color="#ddd"/><stop offset="0.58" stop-color="#b6b6b6"/><stop offset="0.88" stop-color="#7f7f7f"/><stop offset="1" stop-color="#666"/></linearGradient><filter id="luminosity-noclip-8" x="58.88" y="-8636.24" width="6.28" height="32766" filterUnits="userSpaceOnUse" color-interpolation-filters="sRGB"><feFlood flood-color="#fff" result="bg"/><feBlend in="SourceGraphic" in2="bg"/></filter><mask id="mask-8" x="58.88" y="-8636.24" width="6.28" height="32766" maskUnits="userSpaceOnUse"><g class="cls-187"/></mask><linearGradient id="linear-gradient-8" x1="58.88" y1="661.17" x2="65.15" y2="661.17" xlink:href="#linear-gradient-4"/><filter id="luminosity-noclip-9" x="38.79" y="-8636.24" width="46.44" height="32766" filterUnits="userSpaceOnUse" color-interpolation-filters="sRGB"><feFlood flood-color="#fff" result="bg"/><feBlend in="SourceGraphic" in2="bg"/></filter><mask id="mask-9" x="38.79" y="-8636.24" width="46.44" height="32766" maskUnits="userSpaceOnUse"><g class="cls-186"/></mask><linearGradient id="linear-gradient-9" x1="85.24" y1="500.91" x2="38.79" y2="500.91" xlink:href="#linear-gradient-4"/><filter id="luminosity-noclip-10" x="1076.3" y="-8636.24" width="6.28" height="32766" filterUnits="userSpaceOnUse" color-interpolation-filters="sRGB"><feFlood flood-color="#fff" result="bg"/><feBlend in="SourceGraphic" in2="bg"/></filter><mask id="mask-10" x="1076.3" y="-8636.24" width="6.28" height="32766" maskUnits="userSpaceOnUse"><g class="cls-185"/></mask><linearGradient id="linear-gradient-10" x1="1076.3" y1="444.03" x2="1082.58" y2="444.03" xlink:href="#linear-gradient-4"/><filter id="luminosity-noclip-11" x="1056.22" y="-8636.24" width="46.44" height="32766" filterUnits="userSpaceOnUse" color-interpolation-filters="sRGB"><feFlood flood-color="#fff" result="bg"/><feBlend in="SourceGraphic" in2="bg"/></filter><mask id="mask-11" x="1056.22" y="-8636.24" width="46.44" height="32766" maskUnits="userSpaceOnUse"><g class="cls-184"/></mask><linearGradient id="linear-gradient-11" x1="1102.66" y1="251.29" x2="1056.22" y2="251.29" gradientTransform="translate(1154.58 -854.46) rotate(80.78)" xlink:href="#linear-gradient-4"/><filter id="luminosity-noclip-12" x="528.67" y="-8636.24" width="4.44" height="32766" filterUnits="userSpaceOnUse" color-interpolation-filters="sRGB"><feFlood flood-color="#fff" result="bg"/><feBlend in="SourceGraphic" in2="bg"/></filter><mask id="mask-12" x="528.67" y="-8636.24" width="4.44" height="32766" maskUnits="userSpaceOnUse"><g class="cls-183"/></mask><linearGradient id="linear-gradient-12" x1="528.67" y1="815.77" x2="533.1" y2="815.77" xlink:href="#linear-gradient-4"/><filter id="luminosity-noclip-13" x="514.46" y="-8636.24" width="32.85" height="32766" filterUnits="userSpaceOnUse" color-interpolation-filters="sRGB"><feFlood flood-color="#fff" result="bg"/><feBlend in="SourceGraphic" in2="bg"/></filter><mask id="mask-13" x="514.46" y="-8636.24" width="32.85" height="32766" maskUnits="userSpaceOnUse"><g class="cls-182"/></mask><linearGradient id="linear-gradient-13" x1="547.31" y1="702.43" x2="514.46" y2="702.43" gradientTransform="translate(1092.55 24.36) rotate(76.72)" xlink:href="#linear-gradient-4"/><filter id="luminosity-noclip-14" x="887.98" y="-8636.24" width="208.67" height="32766" filterUnits="userSpaceOnUse" color-interpolation-filters="sRGB"><feFlood flood-color="#fff" result="bg"/><feBlend in="SourceGraphic" in2="bg"/></filter><mask id="mask-14" x="887.98" y="-8636.24" width="208.67" height="32766" maskUnits="userSpaceOnUse"><g class="cls-181"/></mask><linearGradient id="linear-gradient-14" x1="903.88" y1="771.69" x2="1114.8" y2="771.69" gradientTransform="matrix(0.99, 0.05, -0.06, 1.01, 40.47, -15.73)" xlink:href="#linear-gradient-4"/><filter id="luminosity-noclip-15" x="157.61" y="-8636.24" width="203.32" height="32766" filterUnits="userSpaceOnUse" color-interpolation-filters="sRGB"><feFlood flood-color="#fff" result="bg"/><feBlend in="SourceGraphic" in2="bg"/></filter><mask id="mask-15" x="157.61" y="-8636.24" width="203.32" height="32766" maskUnits="userSpaceOnUse"><g class="cls-180"/></mask><linearGradient id="linear-gradient-15" x1="157.61" y1="613.18" x2="360.93" y2="613.18" xlink:href="#linear-gradient"/><filter id="luminosity-noclip-16" x="766.48" y="-8636.24" width="336.01" height="32766" filterUnits="userSpaceOnUse" color-interpolation-filters="sRGB"><feFlood flood-color="#fff" result="bg"/><feBlend in="SourceGraphic" in2="bg"/></filter><mask id="mask-16" x="766.48" y="-8636.24" width="336.01" height="32766" maskUnits="userSpaceOnUse"><g class="cls-179"/></mask><linearGradient id="linear-gradient-16" x1="-1112.76" y1="348.03" x2="-776.76" y2="348.03" gradientTransform="matrix(-1, 0, 0, 1, -10.27, 0)" xlink:href="#linear-gradient-4"/><filter id="luminosity-noclip-17" x="477.37" y="-8636.24" width="226.27" height="32766" filterUnits="userSpaceOnUse" color-interpolation-filters="sRGB"><feFlood flood-color="#fff" result="bg"/><feBlend in="SourceGraphic" in2="bg"/></filter><mask id="mask-17" x="477.37" y="-8636.24" width="226.27" height="32766" maskUnits="userSpaceOnUse"><g class="cls-178"/></mask><linearGradient id="linear-gradient-17" x1="590.58" y1="291.34" x2="590.15" y2="517.61" gradientUnits="userSpaceOnUse"><stop offset="0"/><stop offset="0.01" stop-color="#030303"/><stop offset="0.15" stop-color="#292929"/><stop offset="0.3" stop-color="#494949"/><stop offset="0.46" stop-color="#616161"/><stop offset="0.62" stop-color="#727272"/><stop offset="0.79" stop-color="#7d7d7d"/><stop offset="1" stop-color="gray"/></linearGradient><filter id="luminosity-noclip-18" x="367.53" y="298.12" width="602.71" height="348.07" filterUnits="userSpaceOnUse" color-interpolation-filters="sRGB"><feFlood flood-color="#fff" result="bg"/><feBlend in="SourceGraphic" in2="bg"/></filter><mask id="mask-18" x="367.53" y="298.12" width="602.71" height="348.07" maskUnits="userSpaceOnUse"><g class="cls-1"><path class="cls-2" d="M378.69,487.55,641.94,639.74c14.89,8.6,39,8.6,53.89,0L959.09,487.57C974,479,974,465,959.08,456.43l-263-151.86c-14.89-8.6-39-8.61-53.92,0L378.71,456.43C363.82,465,363.81,479,378.69,487.55Z"/></g></mask><linearGradient id="linear-gradient-18" x1="367.53" y1="472.15" x2="970.25" y2="472.15" gradientUnits="userSpaceOnUse"><stop offset="0" stop-color="#fff"/><stop offset="0.48" stop-color="#f2f6ff"/><stop offset="1" stop-color="#e9efff"/></linearGradient><filter id="luminosity-noclip-19" x="522.27" y="677.71" width="389.74" height="225.08" filterUnits="userSpaceOnUse" color-interpolation-filters="sRGB"><feFlood flood-color="#fff" result="bg"/><feBlend in="SourceGraphic" in2="bg"/></filter><mask id="mask-19" x="522.27" y="677.71" width="389.74" height="225.08" maskUnits="userSpaceOnUse"><g class="cls-13"><path class="cls-14" d="M529.48,800.2l170.24,98.41c9.62,5.57,25.22,5.57,34.84,0l170.23-98.4c9.63-5.56,9.62-14.57,0-20.13l-170.08-98.2c-9.63-5.56-25.24-5.56-34.87,0L529.5,780.08C519.87,785.63,519.86,794.64,529.48,800.2Z"/></g></mask><linearGradient id="linear-gradient-19" x1="522.27" y1="790.25" x2="912.01" y2="790.25" gradientUnits="userSpaceOnUse"><stop offset="0" stop-color="#e9efff"/><stop offset="0.52" stop-color="#f2f6ff"/><stop offset="1" stop-color="#fff"/></linearGradient><filter id="luminosity-noclip-20" x="157.61" y="554.47" width="203.32" height="117.42" filterUnits="userSpaceOnUse" color-interpolation-filters="sRGB"><feFlood flood-color="#fff" result="bg"/><feBlend in="SourceGraphic" in2="bg"/></filter><mask id="mask-20" x="157.61" y="554.47" width="203.32" height="117.42" maskUnits="userSpaceOnUse"><g class="cls-29"><path class="cls-30" d="M161.37,618.37l88.81,51.34c5,2.91,13.16,2.91,18.18,0l88.81-51.33c5-2.9,5-7.6,0-10.5l-88.73-51.23c-5-2.9-13.16-2.9-18.18,0l-88.87,51.24C156.36,610.77,156.35,615.47,161.37,618.37Z"/></g></mask><linearGradient id="linear-gradient-20" x1="157.61" y1="613.18" x2="360.93" y2="613.18" xlink:href="#linear-gradient-18"/><filter id="luminosity-noclip-21" x="766.48" y="165.24" width="336.01" height="365.59" filterUnits="userSpaceOnUse" color-interpolation-filters="sRGB"><feFlood flood-color="#fff" result="bg"/><feBlend in="SourceGraphic" in2="bg"/></filter><mask id="mask-21" x="766.48" y="165.24" width="336.01" height="365.59" maskUnits="userSpaceOnUse"><g class="cls-31"><path class="cls-32" d="M1101.25,530.83c1.25-23.82,6.24-143.37-19-158a13.81,13.81,0,0,0-11.56-1.27c-12.71,4.22-22.26,26.47-33.33,52.23-8.72,20.3-19.57,45.57-28.53,48.55a4,4,0,0,1-3.56-.48c-12.83-7.41-14.47-66.29-15.79-113.61-2-70-4.36-113.24-21.37-123.06a12.59,12.59,0,0,0-11.39-.9c-13.56,5.52-22.25,34.28-35.3,80.76-10.06,35.81-22.58,80.37-35.51,85.64-1.13.46-2.6.75-4.89-.57C863.42,390,864.6,328,865.56,278.17,866.75,215.56,866.64,176.69,850,167a11.89,11.89,0,0,0-11.35-.67c-13.51,6.44-19.44,40-28,94.29-5.13,32.53-12.88,81.7-21.8,86-.14.07-.31.15-1-.25-7-4-14.08-36.48-8.09-96l-11-1.11c-1.57,15.61-8.31,94.1,13.58,106.74a11.86,11.86,0,0,0,11.32.65c13.51-6.44,19.43-40,28-94.24,5.14-32.55,12.89-81.75,21.82-86,.15-.08.32-.15,1,.25,11.86,6.87,10.86,59.25,10.05,101.33-1.16,60.88-2.25,118.39,21,131.79A16.16,16.16,0,0,0,890.05,411c18-7.31,29.63-48.88,42-92.9,8.72-31.07,19.58-69.74,28.81-73.5.35-.14.74-.3,1.67.24,12.87,7.43,14.51,66.39,15.83,113.77,1.95,69.93,4.36,113.1,21.33,122.9a15.11,15.11,0,0,0,12.59,1.39c13.69-4.55,24.15-28.9,35.22-54.68,8.32-19.36,18.66-43.44,26.64-46.09a2.77,2.77,0,0,1,2.53.34c14.26,8.24,16.48,91.38,13.51,147.78Z"/></g></mask><linearGradient id="linear-gradient-21" x1="-1112.76" y1="348.03" x2="-776.76" y2="348.03" gradientTransform="matrix(-1, 0, 0, 1, -10.27, 0)" gradientUnits="userSpaceOnUse"><stop offset="0" stop-color="#e9f2ff"/><stop offset="0.28" stop-color="#c7dbff"/><stop offset="0.56" stop-color="#abc8ff"/><stop offset="0.81" stop-color="#9abdff"/><stop offset="1" stop-color="#94b9ff"/></linearGradient><linearGradient id="linear-gradient-22" x1="421.15" y1="596.15" x2="764.33" y2="596.15" gradientUnits="userSpaceOnUse"><stop offset="0" stop-color="#6aaeff"/><stop offset="1" stop-color="#005eff"/></linearGradient><linearGradient id="linear-gradient-23" x1="548.89" y1="642.27" x2="558.12" y2="642.27" gradientUnits="userSpaceOnUse"><stop offset="0" stop-color="#e9f4ff"/><stop offset="1" stop-color="#d4e3ff"/></linearGradient><linearGradient id="linear-gradient-24" x1="590.5" y1="647.06" x2="603.24" y2="647.06" xlink:href="#linear-gradient-23"/><linearGradient id="linear-gradient-25" x1="636.12" y1="642.53" x2="647.01" y2="642.53" xlink:href="#linear-gradient-23"/><linearGradient id="linear-gradient-26" x1="477.37" y1="520.49" x2="703.63" y2="520.49" xlink:href="#linear-gradient-23"/><linearGradient id="linear-gradient-27" x1="522.24" y1="520.5" x2="658.76" y2="520.5" xlink:href="#linear-gradient-22"/><filter id="luminosity-noclip-22" x="477.37" y="146.42" width="226.27" height="442.08" filterUnits="userSpaceOnUse" color-interpolation-filters="sRGB"><feFlood flood-color="#fff" result="bg"/><feBlend in="SourceGraphic" in2="bg"/></filter><mask id="mask-22" x="477.37" y="146.42" width="226.27" height="442.08" maskUnits="userSpaceOnUse"><g class="cls-33"><path class="cls-34" d="M703.63,146.42V520.49a42.41,42.41,0,0,1-3.11,15.88c-11.91,29.91-56.66,52.13-110,52.13s-98.1-22.22-110-52.13a42.41,42.41,0,0,1-3.11-15.88V146.42a42.37,42.37,0,0,0,3.11,15.88c11.91,29.92,56.64,52.14,110,52.14s98.12-22.22,110-52.14A42.37,42.37,0,0,0,703.63,146.42Z"/></g></mask><linearGradient id="linear-gradient-28" x1="590.58" y1="291.34" x2="590.15" y2="517.61" gradientUnits="userSpaceOnUse"><stop offset="0" stop-color="#e9efff"/><stop offset="0.17" stop-color="#cbdeff"/><stop offset="0.35" stop-color="#b3d1ff"/><stop offset="0.54" stop-color="#a2c7ff"/><stop offset="0.75" stop-color="#97c1ff"/><stop offset="1" stop-color="#94bfff"/></linearGradient><linearGradient id="linear-gradient-29" x1="418.98" y1="450.99" x2="766.48" y2="450.99" xlink:href="#linear-gradient-22"/><linearGradient id="linear-gradient-30" x1="418.98" y1="410.17" x2="766.48" y2="410.17" gradientUnits="userSpaceOnUse"><stop offset="0" stop-color="#ff0007"/><stop offset="1" stop-color="#ffaaac"/></linearGradient><linearGradient id="linear-gradient-31" x1="418.98" y1="369.35" x2="766.48" y2="369.35" gradientUnits="userSpaceOnUse"><stop offset="0" stop-color="#f22aff"/><stop offset="1" stop-color="#6c00e9"/></linearGradient><linearGradient id="linear-gradient-32" x1="528.86" y1="199.8" x2="653.08" y2="199.8" xlink:href="#linear-gradient-31"/><linearGradient id="linear-gradient-33" x1="527.97" y1="87.28" x2="652.2" y2="87.28" xlink:href="#linear-gradient-31"/><linearGradient id="linear-gradient-34" x1="515.77" y1="99.14" x2="628.54" y2="99.14" xlink:href="#linear-gradient-30"/><linearGradient id="linear-gradient-35" x1="474.78" y1="143.53" x2="706.24" y2="143.53" xlink:href="#linear-gradient-30"/><linearGradient id="linear-gradient-36" x1="474.76" y1="143.53" x2="706.24" y2="143.53" xlink:href="#linear-gradient-22"/><linearGradient id="linear-gradient-37" x1="552.48" y1="99.14" x2="665.28" y2="99.14" xlink:href="#linear-gradient-22"/><linearGradient id="linear-gradient-38" x1="488.02" y1="159.43" x2="590.51" y2="159.43" xlink:href="#linear-gradient-22"/><linearGradient id="linear-gradient-39" x1="502.88" y1="274.16" x2="528.67" y2="274.16" gradientTransform="translate(664.1 -290.81) rotate(76.72)" xlink:href="#linear-gradient-31"/><linearGradient id="linear-gradient-40" x1="652.38" y1="12.9" x2="678.18" y2="12.9" xlink:href="#linear-gradient-22"/><linearGradient id="linear-gradient-41" x1="579.19" y1="810.31" x2="707.62" y2="810.31" xlink:href="#linear-gradient-22"/><linearGradient id="linear-gradient-42" x1="610.12" y1="782" x2="677.87" y2="782" gradientUnits="userSpaceOnUse"><stop offset="0" stop-color="#e9efff"/><stop offset="1" stop-color="#94bfff"/></linearGradient><linearGradient id="linear-gradient-43" x1="742.38" y1="715.6" x2="870.8" y2="715.6" xlink:href="#linear-gradient-22"/><linearGradient id="linear-gradient-44" x1="773.3" y1="687.29" x2="841.04" y2="687.29" xlink:href="#linear-gradient-22"/><linearGradient id="linear-gradient-45" x1="894.43" y1="625.59" x2="1022.84" y2="625.59" xlink:href="#linear-gradient-22"/><linearGradient id="linear-gradient-46" x1="925.35" y1="597.29" x2="993.11" y2="597.29" xlink:href="#linear-gradient-22"/><linearGradient id="linear-gradient-47" x1="635.74" y1="765.56" x2="707.62" y2="765.56" xlink:href="#linear-gradient-22"/><linearGradient id="linear-gradient-48" x1="742.37" y1="671.34" x2="815.32" y2="671.34" xlink:href="#linear-gradient-31"/><linearGradient id="linear-gradient-49" x1="923.84" y1="617.14" x2="1018.78" y2="617.14" xlink:href="#linear-gradient-30"/><linearGradient id="linear-gradient-50" x1="0" y1="329.16" x2="371.5" y2="329.16" xlink:href="#linear-gradient-22"/><filter id="luminosity-noclip-23" x="67.27" y="195.12" width="36.78" height="317.65" filterUnits="userSpaceOnUse" color-interpolation-filters="sRGB"><feFlood flood-color="#fff" result="bg"/><feBlend in="SourceGraphic" in2="bg"/></filter><mask id="mask-23" x="67.27" y="195.12" width="36.78" height="317.65" maskUnits="userSpaceOnUse"><g class="cls-3"><polygon class="cls-4" points="67.27 216.3 103.96 195.12 104.05 491.59 67.37 512.77 67.27 216.3"/></g></mask><linearGradient id="linear-gradient-51" x1="85.62" y1="239.46" x2="85.71" y2="478.81" gradientUnits="userSpaceOnUse"><stop offset="0" stop-color="#e9efff"/><stop offset="0.09" stop-color="#dfeaff"/><stop offset="0.49" stop-color="#b7d2ff"/><stop offset="0.81" stop-color="#9dc4ff"/><stop offset="1" stop-color="#94bfff"/></linearGradient><linearGradient id="linear-gradient-52" x1="159.51" y1="143.37" x2="158.32" y2="454.95" xlink:href="#linear-gradient-30"/><linearGradient id="linear-gradient-53" x1="230.21" y1="276.65" x2="235.9" y2="420.74" xlink:href="#linear-gradient-31"/><filter id="luminosity-noclip-24" x="287.4" y="258.62" width="36.73" height="127.13" filterUnits="userSpaceOnUse" color-interpolation-filters="sRGB"><feFlood flood-color="#fff" result="bg"/><feBlend in="SourceGraphic" in2="bg"/></filter><mask id="mask-24" x="287.4" y="258.62" width="36.73" height="127.13" maskUnits="userSpaceOnUse"><g class="cls-5"><polygon class="cls-6" points="287.4 279.8 324.09 258.62 324.13 364.58 287.45 385.76 287.4 279.8"/></g></mask><linearGradient id="linear-gradient-54" x1="304.65" y1="294.03" x2="307.67" y2="369.99" xlink:href="#linear-gradient-51"/><linearGradient id="linear-gradient-55" x1="872.51" y1="521.38" x2="899.12" y2="521.38" xlink:href="#linear-gradient-22"/><linearGradient id="linear-gradient-56" x1="852.46" y1="511.78" x2="879.07" y2="511.78" xlink:href="#linear-gradient-22"/><linearGradient id="linear-gradient-57" x1="878.75" y1="465.23" x2="897.03" y2="465.23" gradientUnits="userSpaceOnUse"><stop offset="0" stop-color="#ff7f83"/><stop offset="1" stop-color="#ffd4d5"/></linearGradient><linearGradient id="linear-gradient-58" x1="858.7" y1="455.63" x2="876.98" y2="455.63" xlink:href="#linear-gradient-57"/><linearGradient id="linear-gradient-59" x1="786.28" y1="282.14" x2="854.03" y2="282.14" xlink:href="#linear-gradient-57"/><linearGradient id="linear-gradient-60" x1="851.08" y1="294.69" x2="868.29" y2="294.69" gradientUnits="userSpaceOnUse"><stop offset="0" stop-color="#e9efff"/><stop offset="1" stop-color="#d4e3ff"/></linearGradient><linearGradient id="linear-gradient-61" x1="853.4" y1="332.06" x2="906.46" y2="332.06" xlink:href="#linear-gradient-60"/><linearGradient id="linear-gradient-62" x1="870.68" y1="333.67" x2="904.25" y2="333.67" xlink:href="#linear-gradient-57"/><linearGradient id="linear-gradient-63" x1="871.62" y1="285.47" x2="883.91" y2="285.47" xlink:href="#linear-gradient-57"/><linearGradient id="linear-gradient-64" x1="861.48" y1="268.7" x2="882.72" y2="268.7" xlink:href="#linear-gradient-57"/><linearGradient id="linear-gradient-65" x1="881.48" y1="304.95" x2="902.65" y2="304.95" xlink:href="#linear-gradient-60"/><linearGradient id="linear-gradient-66" x1="867.68" y1="327.32" x2="893.14" y2="327.32" xlink:href="#linear-gradient-22"/><linearGradient id="linear-gradient-67" x1="883.93" y1="340.83" x2="907.26" y2="340.83" xlink:href="#linear-gradient-22"/><linearGradient id="linear-gradient-68" x1="323.75" y1="439.12" x2="329.55" y2="439.12" xlink:href="#linear-gradient-30"/><filter id="luminosity-noclip-25" x="347.76" y="445.97" width="31.55" height="135.44" filterUnits="userSpaceOnUse" color-interpolation-filters="sRGB"><feFlood flood-color="#fff" result="bg"/><feBlend in="SourceGraphic" in2="bg"/></filter><mask id="mask-25" x="347.76" y="445.97" width="31.55" height="135.44" maskUnits="userSpaceOnUse"><g class="cls-7"><path class="cls-8" d="M379.28,450.94s.56,12.2-3.44,18.12-8.37,28.76-8.78,51.33,0,59.72,0,59.72a10.09,10.09,0,0,1-5.82,1.24,8.46,8.46,0,0,1-4.58-1.72l-8.9-123.18L351.41,446Z"/></g></mask><linearGradient id="linear-gradient-69" x1="347.76" y1="513.69" x2="379.3" y2="513.69" gradientUnits="userSpaceOnUse"><stop offset="0" stop-color="#e9f2ff"/><stop offset="0.55" stop-color="#daeaff"/><stop offset="1" stop-color="#d4e7ff"/></linearGradient><linearGradient id="linear-gradient-70" x1="322.71" y1="364.27" x2="337.98" y2="364.27" xlink:href="#linear-gradient-57"/><linearGradient id="linear-gradient-71" x1="320.3" y1="394.74" x2="333.83" y2="394.74" xlink:href="#linear-gradient-22"/><linearGradient id="linear-gradient-72" x1="339.04" y1="364.36" x2="352.06" y2="364.36" gradientUnits="userSpaceOnUse"><stop offset="0" stop-color="#ffd4d5"/><stop offset="1" stop-color="#ff7f83"/></linearGradient><linearGradient id="linear-gradient-73" x1="326.26" y1="348.03" x2="349.6" y2="348.03" xlink:href="#linear-gradient-72"/><linearGradient id="linear-gradient-74" x1="327.03" y1="416.94" x2="379.34" y2="416.94" xlink:href="#linear-gradient-22"/><linearGradient id="linear-gradient-75" x1="340.01" y1="382.31" x2="325.2" y2="419.04" gradientUnits="userSpaceOnUse"><stop offset="0" stop-color="#6aaeff"/><stop offset="1" stop-color="#005eff"/></linearGradient><linearGradient id="linear-gradient-76" x1="366.52" y1="390.75" x2="377.49" y2="390.75" gradientUnits="userSpaceOnUse"><stop offset="0" stop-color="#005eff"/><stop offset="1" stop-color="#6aaeff"/></linearGradient><filter id="luminosity-noclip-26" x="353.21" y="383.3" width="26.14" height="81.52" filterUnits="userSpaceOnUse" color-interpolation-filters="sRGB"><feFlood flood-color="#fff" result="bg"/><feBlend in="SourceGraphic" in2="bg"/></filter><mask id="mask-26" x="353.21" y="383.3" width="26.14" height="81.52" maskUnits="userSpaceOnUse"><g class="cls-9"><path class="cls-10" d="M379.33,451.78s-2,7.23-13.58,13c10.78-10.13,7.15-27.34-6.71-29.51s.66-14.4,5.71-18.37-.28-13.67-7.87-13.94S368.7,383.3,368.7,383.3c0,.83,0,1.69-.06,2.58-.37,9.08,1.69,17.76,4.12,26.24,1.15,4,2.38,8,3.49,12C379.69,436.39,379.33,451.78,379.33,451.78Z"/></g></mask><linearGradient id="linear-gradient-77" x1="353.21" y1="424.05" x2="379.34" y2="424.05" gradientUnits="userSpaceOnUse"><stop offset="0" stop-color="#6a8cff"/><stop offset="1" stop-color="#0011bf"/></linearGradient><linearGradient id="linear-gradient-78" x1="102.26" y1="775.88" x2="264.1" y2="775.88" xlink:href="#linear-gradient-60"/><linearGradient id="linear-gradient-79" x1="264.1" y1="775.9" x2="425.94" y2="775.9" xlink:href="#linear-gradient-60"/><linearGradient id="linear-gradient-80" x1="210.98" y1="793.41" x2="219.74" y2="793.41" xlink:href="#linear-gradient-22"/><linearGradient id="linear-gradient-81" x1="225.04" y1="801.89" x2="233.8" y2="801.89" xlink:href="#linear-gradient-22"/><linearGradient id="linear-gradient-82" x1="239.1" y1="810.08" x2="247.85" y2="810.08" xlink:href="#linear-gradient-22"/><linearGradient id="linear-gradient-83" x1="127.78" y1="749.46" x2="146.13" y2="749.46" xlink:href="#linear-gradient-30"/><linearGradient id="linear-gradient-84" x1="402.82" y1="739.16" x2="411.57" y2="739.16" xlink:href="#linear-gradient-22"/><linearGradient id="linear-gradient-85" x1="388.76" y1="747.64" x2="397.52" y2="747.64" xlink:href="#linear-gradient-22"/><linearGradient id="linear-gradient-86" x1="374.7" y1="755.83" x2="383.46" y2="755.83" xlink:href="#linear-gradient-22"/><linearGradient id="linear-gradient-87" x1="289.62" y1="802.69" x2="307.96" y2="802.69" xlink:href="#linear-gradient-30"/><linearGradient id="linear-gradient-88" x1="115.75" y1="700.54" x2="125.41" y2="700.54" xlink:href="#linear-gradient-22"/><linearGradient id="linear-gradient-89" x1="115.75" y1="694.42" x2="125.41" y2="694.42" xlink:href="#linear-gradient-60"/><linearGradient id="linear-gradient-90" x1="259.3" y1="617.35" x2="268.95" y2="617.35" xlink:href="#linear-gradient-22"/><filter id="luminosity-noclip-27" x="262.74" y="609.03" width="163.2" height="186.9" filterUnits="userSpaceOnUse" color-interpolation-filters="sRGB"><feFlood flood-color="#fff" result="bg"/><feBlend in="SourceGraphic" in2="bg"/></filter><mask id="mask-27" x="262.74" y="609.03" width="163.2" height="186.9" maskUnits="userSpaceOnUse"><g class="cls-11"><path class="cls-12" d="M264.1,795.93s29.16-110.34-1.36-186.12l1.36-.78L425.94,702.5Z"/></g></mask><linearGradient id="linear-gradient-91" x1="262.74" y1="702.48" x2="425.94" y2="702.48" xlink:href="#linear-gradient-69"/><linearGradient id="linear-gradient-92" x1="259.3" y1="611.23" x2="268.95" y2="611.23" xlink:href="#linear-gradient-60"/><linearGradient id="linear-gradient-93" x1="406.75" y1="699.34" x2="416.4" y2="699.34" xlink:href="#linear-gradient-22"/><linearGradient id="linear-gradient-94" x1="406.75" y1="693.22" x2="416.4" y2="693.22" xlink:href="#linear-gradient-60"/><linearGradient id="linear-gradient-95" x1="259.27" y1="782.11" x2="268.93" y2="782.11" xlink:href="#linear-gradient-22"/><linearGradient id="linear-gradient-96" x1="259.27" y1="775.99" x2="268.93" y2="775.99" xlink:href="#linear-gradient-60"/><linearGradient id="linear-gradient-97" x1="102.35" y1="829.3" x2="264.19" y2="829.3" xlink:href="#linear-gradient-22"/><linearGradient id="linear-gradient-98" x1="264.19" y1="829.31" x2="426.03" y2="829.31" xlink:href="#linear-gradient-22"/><linearGradient id="linear-gradient-99" x1="211.07" y1="846.83" x2="219.83" y2="846.83" xlink:href="#linear-gradient-60"/><linearGradient id="linear-gradient-100" x1="225.13" y1="855.31" x2="233.89" y2="855.31" xlink:href="#linear-gradient-60"/><linearGradient id="linear-gradient-101" x1="239.19" y1="863.5" x2="247.94" y2="863.5" xlink:href="#linear-gradient-60"/><linearGradient id="linear-gradient-102" x1="402.91" y1="792.58" x2="411.66" y2="792.58" xlink:href="#linear-gradient-60"/><linearGradient id="linear-gradient-103" x1="388.85" y1="801.06" x2="397.61" y2="801.06" xlink:href="#linear-gradient-60"/><linearGradient id="linear-gradient-104" x1="374.79" y1="809.25" x2="383.55" y2="809.25" xlink:href="#linear-gradient-60"/><linearGradient id="linear-gradient-105" x1="102.26" y1="882.64" x2="264.1" y2="882.64" xlink:href="#linear-gradient-60"/><linearGradient id="linear-gradient-106" x1="264.1" y1="882.66" x2="425.94" y2="882.66" xlink:href="#linear-gradient-60"/><linearGradient id="linear-gradient-107" x1="210.98" y1="900.17" x2="219.74" y2="900.17" xlink:href="#linear-gradient-22"/><linearGradient id="linear-gradient-108" x1="225.04" y1="908.65" x2="233.8" y2="908.65" xlink:href="#linear-gradient-22"/><linearGradient id="linear-gradient-109" x1="239.1" y1="916.84" x2="247.86" y2="916.84" xlink:href="#linear-gradient-22"/><linearGradient id="linear-gradient-110" x1="127.78" y1="856.22" x2="146.13" y2="856.22" xlink:href="#linear-gradient-30"/><linearGradient id="linear-gradient-111" x1="402.82" y1="845.92" x2="411.58" y2="845.92" xlink:href="#linear-gradient-22"/><linearGradient id="linear-gradient-112" x1="388.76" y1="854.4" x2="397.52" y2="854.4" xlink:href="#linear-gradient-22"/><linearGradient id="linear-gradient-113" x1="374.71" y1="862.59" x2="383.46" y2="862.59" xlink:href="#linear-gradient-22"/><linearGradient id="linear-gradient-114" x1="289.62" y1="909.45" x2="307.96" y2="909.45" xlink:href="#linear-gradient-30"/><filter id="luminosity-noclip-28" x="58.88" y="519.29" width="6.28" height="283.76" filterUnits="userSpaceOnUse" color-interpolation-filters="sRGB"><feFlood flood-color="#fff" result="bg"/><feBlend in="SourceGraphic" in2="bg"/></filter><mask id="mask-28" x="58.88" y="519.29" width="6.28" height="283.76" maskUnits="userSpaceOnUse"><g class="cls-15"><path class="cls-16" d="M58.88,519.29S61,665.59,62,803.05c0,0,2.22-221.41,3.14-283.76Z"/></g></mask><linearGradient id="linear-gradient-115" x1="58.88" y1="661.17" x2="65.15" y2="661.17" gradientTransform="matrix(1, 0, 0, 1, 0, 0)" xlink:href="#linear-gradient-21"/><filter id="luminosity-noclip-29" x="38.79" y="477.68" width="46.44" height="46.44" filterUnits="userSpaceOnUse" color-interpolation-filters="sRGB"><feFlood flood-color="#fff" result="bg"/><feBlend in="SourceGraphic" in2="bg"/></filter><mask id="mask-29" x="38.79" y="477.68" width="46.44" height="46.44" maskUnits="userSpaceOnUse"><g class="cls-17"><circle class="cls-18" cx="62.01" cy="500.91" r="23.22"/></g></mask><linearGradient id="linear-gradient-116" x1="85.24" y1="500.91" x2="38.79" y2="500.91" gradientTransform="matrix(1, 0, 0, 1, 0, 0)" xlink:href="#linear-gradient-21"/><filter id="luminosity-noclip-30" x="1076.3" y="269.67" width="6.28" height="348.71" filterUnits="userSpaceOnUse" color-interpolation-filters="sRGB"><feFlood flood-color="#fff" result="bg"/><feBlend in="SourceGraphic" in2="bg"/></filter><mask id="mask-30" x="1076.3" y="269.67" width="6.28" height="348.71" maskUnits="userSpaceOnUse"><g class="cls-19"><path class="cls-20" d="M1076.3,269.67s2.16,179.8,3.14,348.72c0,0,2.22-272.09,3.14-348.72Z"/></g></mask><linearGradient id="linear-gradient-117" x1="1076.3" y1="444.03" x2="1082.58" y2="444.03" gradientTransform="matrix(1, 0, 0, 1, 0, 0)" xlink:href="#linear-gradient-21"/><filter id="luminosity-noclip-31" x="1056.22" y="228.07" width="46.44" height="46.44" filterUnits="userSpaceOnUse" color-interpolation-filters="sRGB"><feFlood flood-color="#fff" result="bg"/><feBlend in="SourceGraphic" in2="bg"/></filter><mask id="mask-31" x="1056.22" y="228.07" width="46.44" height="46.44" maskUnits="userSpaceOnUse"><g class="cls-21"><circle class="cls-22" cx="1079.44" cy="251.29" r="23.22" transform="translate(658.49 1276.54) rotate(-80.78)"/></g></mask><linearGradient id="linear-gradient-118" x1="1102.66" y1="251.29" x2="1056.22" y2="251.29" gradientTransform="translate(1154.58 -854.46) rotate(80.78)" xlink:href="#linear-gradient-21"/><filter id="luminosity-noclip-32" x="528.67" y="715.43" width="4.44" height="200.69" filterUnits="userSpaceOnUse" color-interpolation-filters="sRGB"><feFlood flood-color="#fff" result="bg"/><feBlend in="SourceGraphic" in2="bg"/></filter><mask id="mask-32" x="528.67" y="715.43" width="4.44" height="200.69" maskUnits="userSpaceOnUse"><g class="cls-23"><path class="cls-24" d="M528.67,715.43s1.52,103.47,2.22,200.69c0,0,1.56-156.59,2.21-200.69Z"/></g></mask><linearGradient id="linear-gradient-119" x1="528.67" y1="815.77" x2="533.1" y2="815.77" gradientTransform="matrix(1, 0, 0, 1, 0, 0)" xlink:href="#linear-gradient-21"/><filter id="luminosity-noclip-33" x="514.46" y="686.01" width="32.85" height="32.85" filterUnits="userSpaceOnUse" color-interpolation-filters="sRGB"><feFlood flood-color="#fff" result="bg"/><feBlend in="SourceGraphic" in2="bg"/></filter><mask id="mask-33" x="514.46" y="686.01" width="32.85" height="32.85" maskUnits="userSpaceOnUse"><g class="cls-25"><circle class="cls-26" cx="530.89" cy="702.43" r="16.42" transform="translate(-274.73 1057.73) rotate(-76.72)"/></g></mask><linearGradient id="linear-gradient-120" x1="547.31" y1="702.43" x2="514.46" y2="702.43" gradientTransform="translate(1092.55 24.36) rotate(76.72)" xlink:href="#linear-gradient-21"/><filter id="luminosity-noclip-34" x="887.98" y="758.27" width="208.67" height="110.86" filterUnits="userSpaceOnUse" color-interpolation-filters="sRGB"><feFlood flood-color="#fff" result="bg"/><feBlend in="SourceGraphic" in2="bg"/></filter><mask id="mask-34" x="887.98" y="758.27" width="208.67" height="110.86" maskUnits="userSpaceOnUse"><g class="cls-27"><path class="cls-28" d="M1096.65,822.5l-10,13.27-.48.63-6.08,8.05L1057,839.69a78.77,78.77,0,0,1-13.43,7.3l8.82,10.87,1,1.25-5.74,1.35-35.08,8.18-9.91-12.22a150.42,150.42,0,0,1-18.89.21l-9.38,12.5-38-7.81-1.54-.32-1.72-.36.29-.38,9.1-12.1a81.16,81.16,0,0,1-13.54-6.9l-23.17,5.41-6.82-8.4-10.65-13.13,9.35-2.18,13.65-3.18a23.23,23.23,0,0,1-.34-10.13l-13.63-2.81L888,804.9,904.5,783l22.83,4.69c.89-.63,1.82-1.24,2.76-1.83.33-.22.65-.41,1-.62,1.23-.74,2.49-1.46,3.82-2.16,1.89-1,3.88-2,5.94-2.87l-1.15-1.43-8.49-10.45L972,758.76l9.55,11.78c2.48-.19,5-.33,7.51-.41,3.44-.1,6.88-.09,10.36,0,.58,0,1.18,0,1.76.08l2.54-3.38.18-.25.86-1.15,5.43-7.21,8.29,1.71,32.92,6.78-9,12a86.62,86.62,0,0,1,8,3.7,66.32,66.32,0,0,1,6,3.5l22.34-5.21,17.47,21.53L1084.56,805l-10.88,2.54a23.15,23.15,0,0,1,.14,10.28l12,2.49Z"/></g></mask><linearGradient id="linear-gradient-121" x1="903.88" y1="771.69" x2="1114.8" y2="771.69" gradientTransform="matrix(0.99, 0.05, -0.06, 1.01, 40.47, -15.73)" gradientUnits="userSpaceOnUse"><stop offset="0" stop-color="#e9f2ff"/><stop offset="1" stop-color="#e9f1ff"/></linearGradient><linearGradient id="linear-gradient-122" x1="903.88" y1="746.56" x2="1114.8" y2="746.56" gradientTransform="matrix(0.99, 0.05, -0.06, 1.01, 40.47, -15.73)" xlink:href="#linear-gradient-60"/><linearGradient id="linear-gradient-123" x1="968.18" y1="782.03" x2="1034.24" y2="782.03" gradientTransform="matrix(0.99, 0.03, -0.04, 1.01, 28.53, -24.38)" xlink:href="#linear-gradient-31"/><linearGradient id="linear-gradient-124" x1="945.02" y1="713.5" x2="955.46" y2="713.5" gradientTransform="matrix(0.99, 0.05, -0.06, 1.01, 40.47, -15.73)" gradientUnits="userSpaceOnUse"><stop offset="0" stop-color="#004daa"/><stop offset="1" stop-color="#0029e9"/></linearGradient><linearGradient id="linear-gradient-125" x1="1057.51" y1="704.69" x2="1065.82" y2="704.69" xlink:href="#linear-gradient-124"/><linearGradient id="linear-gradient-126" x1="1090.77" y1="738.91" x2="1113.08" y2="738.91" xlink:href="#linear-gradient-124"/><linearGradient id="linear-gradient-127" x1="1099.58" y1="768.95" x2="1114.8" y2="768.95" gradientTransform="matrix(0.99, 0.05, -0.06, 1.01, 40.47, -15.73)" xlink:href="#linear-gradient-22"/><linearGradient id="linear-gradient-128" x1="1076.05" y1="778.52" x2="1099.58" y2="778.52" xlink:href="#linear-gradient-124"/><linearGradient id="linear-gradient-129" x1="1063.01" y1="778.02" x2="1076.05" y2="778.02" gradientTransform="matrix(0.99, 0.05, -0.06, 1.01, 40.47, -15.73)" gradientUnits="userSpaceOnUse"><stop offset="0" stop-color="#025"/><stop offset="1" stop-color="#003a7f"/></linearGradient><linearGradient id="linear-gradient-130" x1="1033.21" y1="802.02" x2="1073.66" y2="802.02" gradientTransform="matrix(0.99, 0.05, -0.06, 1.01, 40.47, -15.73)" xlink:href="#linear-gradient-22"/><linearGradient id="linear-gradient-131" x1="1022.47" y1="802.03" x2="1033.21" y2="802.03" xlink:href="#linear-gradient-124"/><linearGradient id="linear-gradient-132" x1="1003.5" y1="796.84" x2="1022.47" y2="796.84" xlink:href="#linear-gradient-129"/><linearGradient id="linear-gradient-133" x1="994.85" y1="803.89" x2="1003.5" y2="803.89" xlink:href="#linear-gradient-124"/><linearGradient id="linear-gradient-134" x1="947.48" y1="786.53" x2="961.52" y2="786.53" xlink:href="#linear-gradient-129"/><linearGradient id="linear-gradient-135" x1="952.86" y1="807.21" x2="994.85" y2="807.21" gradientTransform="matrix(0.99, 0.05, -0.06, 1.01, 40.47, -15.73)" xlink:href="#linear-gradient-22"/><linearGradient id="linear-gradient-136" x1="924.52" y1="788.4" x2="947.48" y2="788.4" xlink:href="#linear-gradient-124"/><linearGradient id="linear-gradient-137" x1="905.6" y1="781.49" x2="924.52" y2="781.49" gradientTransform="matrix(0.99, 0.05, -0.06, 1.01, 40.47, -15.73)" xlink:href="#linear-gradient-22"/><linearGradient id="linear-gradient-138" x1="903.88" y1="752.06" x2="928.38" y2="752.06" xlink:href="#linear-gradient-124"/><linearGradient id="linear-gradient-139" x1="945.02" y1="727.05" x2="1114.8" y2="727.05" gradientTransform="matrix(0.99, 0.05, -0.06, 1.01, 40.47, -15.73)" gradientUnits="userSpaceOnUse"><stop offset="0" stop-color="#d4e3ff"/><stop offset="1" stop-color="#e9efff"/></linearGradient></defs><title>Asset 1</title><g id="Layer_2" data-name="Layer 2"><g id="Layer_1-2" data-name="Layer 1"><g class="cls-35"><path class="cls-36" d="M378.69,487.55,641.94,639.74c14.89,8.6,39,8.6,53.89,0L959.09,487.57C974,479,974,465,959.08,456.43l-263-151.86c-14.89-8.6-39-8.61-53.92,0L378.71,456.43C363.82,465,363.81,479,378.69,487.55Z"/></g><g class="cls-37"><path class="cls-38" d="M529.48,800.2l170.24,98.41c9.62,5.57,25.22,5.57,34.84,0l170.23-98.4c9.63-5.56,9.62-14.57,0-20.13l-170.08-98.2c-9.63-5.56-25.24-5.56-34.87,0L529.5,780.08C519.87,785.63,519.86,794.64,529.48,800.2Z"/></g><g class="cls-39"><path class="cls-40" d="M161.37,618.37l88.81,51.34c5,2.91,13.16,2.91,18.18,0l88.81-51.33c5-2.9,5-7.6,0-10.5l-88.73-51.23c-5-2.9-13.16-2.9-18.18,0l-88.87,51.24C156.36,610.77,156.35,615.47,161.37,618.37Z"/></g><path class="cls-41" d="M716.77,847.69a2.12,2.12,0,0,1-1.08-.3L708.22,843a2.16,2.16,0,0,1,2.18-3.73l7.46,4.35a2.16,2.16,0,0,1-1.09,4Z"/><path class="cls-41" d="M814,904.46a2.16,2.16,0,0,1-1.09-.3l-16.21-9.46a2.16,2.16,0,0,1,2.18-3.73l16.21,9.46a2.16,2.16,0,0,1-1.09,4Zm-32.42-18.93a2.17,2.17,0,0,1-1.09-.29l-16.21-9.46a2.16,2.16,0,0,1,2.18-3.73l16.21,9.46a2.16,2.16,0,0,1-1.09,4Zm-32.42-18.92a2.17,2.17,0,0,1-1.09-.29l-16.2-9.46a2.16,2.16,0,0,1,2.17-3.74l16.21,9.46a2.16,2.16,0,0,1-1.09,4Z"/><path class="cls-41" d="M837.7,918.62l-8.55-5a2.16,2.16,0,0,1,2.18-3.73l6.38,3.73,6.38-3.71a2.16,2.16,0,1,1,2.17,3.74Z"/><path class="cls-41" d="M860.19,905.24a2.16,2.16,0,0,1-1.08-4l15-8.71a2.16,2.16,0,1,1,2.17,3.74l-15,8.71A2.28,2.28,0,0,1,860.19,905.24Zm30-17.41a2.16,2.16,0,0,1-1.08-4l15-8.71a2.16,2.16,0,0,1,2.17,3.74l-15,8.7A2.12,2.12,0,0,1,890.22,887.83Zm30-17.41a2.16,2.16,0,0,1-1.09-4l15-8.71a2.16,2.16,0,1,1,2.16,3.74l-15,8.7A2.12,2.12,0,0,1,920.25,870.42Zm30-17.42a2.16,2.16,0,0,1-1.09-4l15-8.71a2.16,2.16,0,1,1,2.17,3.74l-15,8.7A2.14,2.14,0,0,1,950.28,853Zm30-17.41a2.16,2.16,0,0,1-1.87-1.07,2.18,2.18,0,0,1,.79-3l15-8.7a2.16,2.16,0,1,1,2.17,3.74l-15,8.7A2.11,2.11,0,0,1,980.3,835.59Zm30-17.41a2.16,2.16,0,0,1-1.09-4l15-8.7a2.16,2.16,0,0,1,2.17,3.74l-15,8.7A2.11,2.11,0,0,1,1010.33,818.18Zm30-17.41a2.16,2.16,0,0,1-1.09-4l15-8.7a2.16,2.16,0,1,1,2.16,3.73l-15,8.71A2.11,2.11,0,0,1,1040.36,800.77Zm30-17.41a2.16,2.16,0,0,1-1.09-4l15-8.7a2.16,2.16,0,1,1,2.16,3.73l-15,8.71A2.14,2.14,0,0,1,1070.39,783.36Zm30-17.41a2.16,2.16,0,0,1-1.08-4l15-8.7a2.16,2.16,0,0,1,2.17,3.73l-15,8.71A2.11,2.11,0,0,1,1100.41,766Zm30-17.41a2.16,2.16,0,0,1-1.08-4l15-8.71a2.16,2.16,0,0,1,2.17,3.74l-15,8.71A2.11,2.11,0,0,1,1130.44,748.54Z"/><path class="cls-41" d="M1160.47,731.13a2.16,2.16,0,0,1-1.09-4l4.2-2.43-4.24-2.37a2.16,2.16,0,1,1,2.11-3.77l10.86,6.07-10.76,6.24A2.21,2.21,0,0,1,1160.47,731.13Z"/><path class="cls-41" d="M1145.5,714.25a2.09,2.09,0,0,1-1-.28l-14.9-8.33a2.16,2.16,0,0,1,2.11-3.77l14.9,8.33a2.16,2.16,0,0,1-1.06,4Zm-29.79-16.66a2.16,2.16,0,0,1-1.06-.28L1099.76,689a2.16,2.16,0,1,1,2.11-3.77l14.89,8.33a2.16,2.16,0,0,1-1,4.05Zm-29.8-16.67a2.08,2.08,0,0,1-1.05-.27l-14.9-8.33a2.16,2.16,0,1,1,2.11-3.77l14.9,8.33a2.16,2.16,0,0,1-1.06,4Zm-29.79-16.66a2.14,2.14,0,0,1-1.06-.27l-14.89-8.33a2.16,2.16,0,0,1,2.11-3.77l14.89,8.33a2.15,2.15,0,0,1-1.05,4Z"/><path class="cls-41" d="M1026.32,647.6a2.19,2.19,0,0,1-1-.27l-7.54-4.22a2.16,2.16,0,1,1,2.11-3.77l7.54,4.22a2.16,2.16,0,0,1-1.06,4Z"/><path class="cls-41" d="M863.51,741.67a2.11,2.11,0,0,1-1.08-.29L855,737a2.16,2.16,0,1,1,2.16-3.73l7.48,4.33a2.16,2.16,0,0,1-1.09,4Z"/><path class="cls-41" d="M910.13,768.7a2.17,2.17,0,0,1-1.09-.29l-11.65-6.76a2.16,2.16,0,0,1,2.17-3.74l11.65,6.76a2.16,2.16,0,0,1-1.08,4Zm-23.31-13.51a2.12,2.12,0,0,1-1.08-.3l-11.66-6.75a2.16,2.16,0,0,1,2.17-3.74l11.65,6.76a2.16,2.16,0,0,1-1.08,4Z"/><path class="cls-41" d="M929.26,779.79a2.15,2.15,0,0,1-1.09-.29l-7.47-4.33a2.16,2.16,0,1,1,2.17-3.74l7.47,4.33a2.18,2.18,0,0,1,.79,3A2.16,2.16,0,0,1,929.26,779.79Z"/><g class="cls-42"><path class="cls-43" d="M1101.25,530.83c1.25-23.82,6.24-143.37-19-158a13.81,13.81,0,0,0-11.56-1.27c-12.71,4.22-22.26,26.47-33.33,52.23-8.72,20.3-19.57,45.57-28.53,48.55a4,4,0,0,1-3.56-.48c-12.83-7.41-14.47-66.29-15.79-113.61-2-70-4.36-113.24-21.37-123.06a12.59,12.59,0,0,0-11.39-.9c-13.56,5.52-22.25,34.28-35.3,80.76-10.06,35.81-22.58,80.37-35.51,85.64-1.13.46-2.6.75-4.89-.57C863.42,390,864.6,328,865.56,278.17,866.75,215.56,866.64,176.69,850,167a11.89,11.89,0,0,0-11.35-.67c-13.51,6.44-19.44,40-28,94.29-5.13,32.53-12.88,81.7-21.8,86-.14.07-.31.15-1-.25-7-4-14.08-36.48-8.09-96l-11-1.11c-1.57,15.61-8.31,94.1,13.58,106.74a11.86,11.86,0,0,0,11.32.65c13.51-6.44,19.43-40,28-94.24,5.14-32.55,12.89-81.75,21.82-86,.15-.08.32-.15,1,.25,11.86,6.87,10.86,59.25,10.05,101.33-1.16,60.88-2.25,118.39,21,131.79A16.16,16.16,0,0,0,890.05,411c18-7.31,29.63-48.88,42-92.9,8.72-31.07,19.58-69.74,28.81-73.5.35-.14.74-.3,1.67.24,12.87,7.43,14.51,66.39,15.83,113.77,1.95,69.93,4.36,113.1,21.33,122.9a15.11,15.11,0,0,0,12.59,1.39c13.69-4.55,24.15-28.9,35.22-54.68,8.32-19.36,18.66-43.44,26.64-46.09a2.77,2.77,0,0,1,2.53.34c14.26,8.24,16.48,91.38,13.51,147.78Z"/></g><path class="cls-44" d="M764.33,520.5v48.16a59.87,59.87,0,0,1-.7,9.23c-7.77,52.69-81.33,93.91-170.89,93.91s-163.12-41.22-170.88-93.91a59.87,59.87,0,0,1-.71-9.23V520.5a63.64,63.64,0,0,0,4.71,24,69.48,69.48,0,0,0,4.47,9.29c23.11,40.63,87.08,69.8,162.41,69.8s139.31-29.17,162.42-69.8a72,72,0,0,0,4.47-9.29A65,65,0,0,0,764.33,520.5Z"/><path class="cls-45" d="M764.33,520.48a64.36,64.36,0,0,1-4.72,24.09c-18.06,45.38-86,79.07-166.89,79.07S443.92,590,425.87,544.57a64.17,64.17,0,0,1-4.72-24.09c0-57,76.82-103.16,171.57-103.16S764.33,463.5,764.33,520.48Z"/><path class="cls-46" d="M558.12,642.27c0,5-2.07,9-4.62,9s-4.61-4-4.61-9,2.06-9,4.61-9S558.12,637.3,558.12,642.27Z"/><ellipse class="cls-47" cx="596.87" cy="647.06" rx="6.37" ry="9.01"/><ellipse class="cls-48" cx="641.56" cy="642.53" rx="5.44" ry="9.01"/><path class="cls-49" d="M703.63,520.49a42.41,42.41,0,0,1-3.11,15.88c-11.91,29.91-56.66,52.13-110,52.13s-98.1-22.22-110-52.13a42.41,42.41,0,0,1-3.11-15.88c0-37.58,50.64-68,113.12-68S703.63,482.91,703.63,520.49Z"/><path class="cls-50" d="M658.76,520.5a25.61,25.61,0,0,1-1.87,9.58c-7.19,18.06-34.2,31.46-66.4,31.46s-59.19-13.4-66.38-31.46a25.61,25.61,0,0,1-1.87-9.58c0-22.67,30.56-41,68.25-41S658.76,497.83,658.76,520.5Z"/><path class="cls-45" d="M624.68,520.48a12.7,12.7,0,0,1-.94,4.79c-3.59,9-17.11,15.74-33.21,15.74s-29.61-6.71-33.21-15.74a12.89,12.89,0,0,1-.94-4.79c0-11.34,15.29-20.53,34.15-20.53S624.68,509.14,624.68,520.48Z"/><g class="cls-51"><path class="cls-52" d="M703.63,146.42V520.49a42.41,42.41,0,0,1-3.11,15.88c-11.91,29.91-56.66,52.13-110,52.13s-98.1-22.22-110-52.13a42.41,42.41,0,0,1-3.11-15.88V146.42a42.37,42.37,0,0,0,3.11,15.88c11.91,29.92,56.64,52.14,110,52.14s98.12-22.22,110-52.14A42.37,42.37,0,0,0,703.63,146.42Z"/></g><path class="cls-53" d="M763.21,418.5a67.32,67.32,0,0,0-2.59-6.83A80,80,0,0,0,753,398.12c-.85-1.25-1.77-2.49-2.74-3.73-10.93-14.18-26.93-26.66-46.59-36.56v4.71c18.73,9.69,33.88,21.77,44,35.45.94,1.24,1.82,2.49,2.67,3.76a73.76,73.76,0,0,1,8.35,16.68,59.53,59.53,0,0,1,1.93,6.84,60.38,60.38,0,0,1,1.54,13.56,62.54,62.54,0,0,1-4.55,23.3c-8.15,20.45-27.22,39.13-54,53-1.58.83-3.18,1.62-4.82,2.41-30.39,14.59-67.06,22.31-106.09,22.31S517,532.12,486.64,517.53c-3.2-1.54-6.29-3.13-9.27-4.81-24.41-13.58-41.81-31.29-49.5-50.6a62.48,62.48,0,0,1-4.57-23.29,60.07,60.07,0,0,1,1.55-13.59,63.82,63.82,0,0,1,1.92-6.84,74.26,74.26,0,0,1,8.37-16.68c.85-1.27,1.73-2.52,2.67-3.76,9.34-12.56,22.89-23.79,39.56-33v-4.77c-17.62,9.49-32,21.13-42.11,34.22-1,1.22-1.87,2.46-2.75,3.71a80.77,80.77,0,0,0-7.65,13.57A67.9,67.9,0,0,0,419,438.83a66.48,66.48,0,0,0,4.89,24.9c8.58,21.58,27.65,40.17,53.5,54,30.9,16.6,71.47,26.41,115.35,26.41,41.8,0,80.63-8.9,110.91-24.09,28.13-14.07,48.93-33.56,58-56.34a66.46,66.46,0,0,0,4.87-24.9A65.2,65.2,0,0,0,763.21,418.5Z"/><path class="cls-54" d="M763.21,377.69a65,65,0,0,0-2.59-6.83c-9.42-21.39-29.68-40.11-57-53.86v4.71C731.23,336,751,355.48,758.69,377.6a59.69,59.69,0,0,1,1.93,6.85A60.53,60.53,0,0,1,762.16,398a61.57,61.57,0,0,1-1.54,13.65,63.17,63.17,0,0,1-1.93,6.76c-.33,1-.69,1.93-1.08,2.88-8.15,20.45-27.22,39.12-54,53-1.58.83-3.18,1.64-4.82,2.42C668.42,491.3,631.75,499,592.72,499S517,491.3,486.64,476.71q-4.8-2.29-9.27-4.81c-24.41-13.58-41.81-31.3-49.5-50.59-.39-1-.75-1.95-1.1-2.91a63.37,63.37,0,0,1-1.91-6.74,62.28,62.28,0,0,1,1.93-34.07c7.23-20.9,25.32-39.46,50.58-53.49v-4.77c-25.05,13.5-43.61,31.31-52.51,51.5a70,70,0,0,0-2.61,6.83,65.33,65.33,0,0,0,0,40.82c.49,1.49,1,3,1.62,4.43.31.77.63,1.56,1,2.33,9,20.58,27.6,38.33,52.52,51.7,30.9,16.59,71.47,26.4,115.35,26.4,41.8,0,80.63-8.9,110.91-24.08,27.15-13.6,47.46-32.22,57-54,.35-.78.68-1.57,1-2.36.59-1.46,1.13-2.93,1.6-4.41A65.81,65.81,0,0,0,766.48,398,65.15,65.15,0,0,0,763.21,377.69Z"/><path class="cls-55" d="M703.63,276.19v4.71c35.83,18.53,58.53,45.86,58.53,76.29a61.81,61.81,0,0,1-1.54,13.67,63.5,63.5,0,0,1-1.93,6.74c-.33,1-.69,1.93-1.08,2.88a74.7,74.7,0,0,1-7.39,13.91q-1.2,1.82-2.55,3.6c-10.09,13.52-25.14,25.71-44,35.49-1.58.83-3.18,1.64-4.82,2.41-30.39,14.59-67.06,22.3-106.09,22.3s-75.71-7.71-106.08-22.3c-3.2-1.52-6.29-3.13-9.27-4.8-16.82-9.35-30.3-20.68-39.56-33.13q-1.35-1.77-2.55-3.58a74.93,74.93,0,0,1-7.39-13.9c-.39-1-.75-1.93-1.08-2.89a58.84,58.84,0,0,1-1.93-6.76,60.4,60.4,0,0,1-1.56-13.64c0-29.14,20.83-55.46,54.07-73.9v-4.78C441.56,297.8,419,325.93,419,357.19a66.09,66.09,0,0,0,3.27,20.47c.49,1.48,1,3,1.62,4.42.31.78.63,1.55,1,2.33a80.51,80.51,0,0,0,7.66,13.68q1.25,1.85,2.63,3.63c10.14,13.31,24.6,25,42.23,34.39,30.9,16.59,71.47,26.4,115.35,26.4,41.8,0,80.63-8.9,110.91-24.08,19.65-9.82,35.72-22.29,46.71-36.68.9-1.2,1.78-2.4,2.62-3.63a81.11,81.11,0,0,0,7.66-13.67c.35-.77.68-1.57,1-2.36.59-1.45,1.13-2.94,1.6-4.4a66,66,0,0,0,3.27-20.5C766.48,324.65,742,295.51,703.63,276.19Z"/><path class="cls-56" d="M639.37,177.81c-.25,2.45-.62,4.85-1,7.21-.55,3.51-1.18,6.93-1.88,10.22a175.79,175.79,0,0,1-8,27.84c-1.25,3.25-2.58,6.35-3.94,9.25-9.62,20.28-22.08,31.83-34.09,31.83s-24.47-11.55-34-31.83c-3.54,1.51-7,2.85-10.36,4.06,11.28,23.46,26.87,37.77,44.41,37.77s33.17-14.34,44.41-37.8c1.43-2.94,2.76-6,4-9.17a191.22,191.22,0,0,0,9.55-33.45c.62-3.35,1.21-6.83,1.73-10.35q1.32-8.61,2-17.71Q646.13,171.76,639.37,177.81Zm13.64-40q-5.64-6.12-12.09-12.32c.41,5.84.59,11.88.59,18.1s-.18,12.23-.59,18.07q6.47-6.18,12.09-12.32c0-1.92.07-3.83.07-5.75S653.05,139.69,653,137.77ZM544.52,195.24c-.7-3.29-1.33-6.71-1.84-10.22-.41-2.36-.78-4.79-1-7.25q-6.69-6-12.78-12.06c.44,6.06,1.1,12,2,17.68.48,3.52,1.07,7,1.73,10.35a193.36,193.36,0,0,0,9.51,33.49c3.35-1.22,6.81-2.62,10.39-4.15A180.13,180.13,0,0,1,544.52,195.24Z"/><path class="cls-57" d="M652.2,121.4q-6.08-6.09-12.83-12.14c-.29-2.42-.62-4.85-1-7.18q-.82-5.26-1.88-10.25a175.87,175.87,0,0,0-8-27.8c-1.25-3.29-2.58-6.39-3.94-9.29C615,34.5,602.52,22.91,590.51,22.91S566,34.5,556.46,54.74q-2.1,4.35-4,9.29a180.22,180.22,0,0,0-8,27.8c-.7,3.32-1.33,6.74-1.84,10.25-.41,2.36-.74,4.76-1,7.22-.7,5.2-1.21,10.56-1.54,16.12-.41,5.84-.59,11.91-.59,18.13s.18,12.26.59,18.1c-4.28-4.15-8.33-8.27-12.05-12.32,0-1.92-.08-3.83-.08-5.78s0-3.89.08-5.81c.11-5.55.36-11.05.81-16.38.44-6.06,1.1-12,2-17.68.48-3.51,1.07-7,1.73-10.31a191.49,191.49,0,0,1,9.51-33.49c1.29-3.2,2.61-6.26,4-9.2C557.38,27.22,573,12.91,590.51,12.91s33.17,14.34,44.41,37.8c1.43,2.94,2.76,6,4,9.17a191.44,191.44,0,0,1,9.55,33.49c.66,3.35,1.21,6.8,1.73,10.31Q651.53,112.29,652.2,121.4Z"/><path class="cls-58" d="M515.77,135.15c2.22,2.75,4.57,5.56,7,8.4,1.66-1.91,3.43-3.86,5.24-5.81.11-5.55.36-11.05.81-16.38C524.21,126,519.83,130.59,515.77,135.15Zm65.05-56.37q-7.91,5.31-15.89,11.33-7,5.27-13.93,11.08c-1.54,1.31-3.13,2.65-4.71,4s-3.14,2.74-4.65,4.09c-.7,5.2-1.21,10.56-1.54,16.12,4.49-4.34,9.28-8.75,14.33-13.12s10.17-8.56,15.18-12.45c4.8-3.74,9.51-7.19,14.19-10.44,2.25-1.57,4.5-3.07,6.71-4.54C587.23,82.73,584,80.69,580.82,78.78Zm43.78-24a249.25,249.25,0,0,0-34.05,17.81q4.8,3,9.65,6.23A238,238,0,0,1,628.54,64C627.29,60.74,626,57.64,624.6,54.74Z"/><path class="cls-59" d="M697.67,105.08C696.31,108,694.76,111,693,114a203.43,203.43,0,0,1-20.56,29.53c-2.28,2.78-4.68,5.59-7.15,8.4-4.09,4.56-8.44,9.16-13.08,13.73q-6.08,6.07-12.83,12.13c-1.51,1.34-3,2.71-4.6,4.05s-3.17,2.71-4.72,4q-7,5.81-13.93,11.08-8,6-15.92,11.34c-3.24,2.17-6.48,4.24-9.69,6.22a263.83,263.83,0,0,1-23.29,12.9c-3.65,1.79-7.22,3.41-10.76,4.91s-7,2.85-10.36,4.06c-13.56,4.85-26.05,7.41-36.66,7.41s-19.35-2.53-25.54-7.89c-12.39-10.73-11.76-30.42-.56-53.92,1.37-2.91,3-5.91,4.68-8.94a205.81,205.81,0,0,1,20.57-29.5c2.28,2.78,4.68,5.59,7.18,8.4a196.84,196.84,0,0,0-17.06,24.55c-1.77,3.09-3.35,6.06-4.75,9-9.77,20.21-10.39,36-1.88,43.35s26.72,6.83,50-1.59c3.35-1.22,6.81-2.62,10.39-4.15a242.15,242.15,0,0,0,28.34-14.78c3.2-1.92,6.45-4,9.69-6.1,2.21-1.47,4.46-3,6.71-4.54,4.68-3.25,9.39-6.73,14.18-10.44,5-3.89,10.1-8,15.19-12.45s9.87-8.78,14.33-13.15q6.47-6.18,12.09-12.32c1.81-1.92,3.54-3.83,5.2-5.75q3.75-4.26,7.07-8.43a194.18,194.18,0,0,0,17-24.52q2.7-4.63,4.79-9c5.19-10.79,7.81-20.33,7.81-28,0-6.67-2-11.9-5.93-15.35s-10.06-5.14-17.77-5.14c-8.84,0-19.82,2.26-32.28,6.77-1.25-3.16-2.58-6.23-4-9.17,27.08-9.73,49.82-10.28,62.2.45S708.88,81.58,697.67,105.08Z"/><path class="cls-60" d="M483.9,51.16c-6.19,5.36-9.14,13-9.14,22.12s2.95,20,8.58,31.8c1.37,2.91,3,5.91,4.68,8.94,3.32-1.21,6.9-2.33,10.69-3.45-1.77-3.06-3.35-6.06-4.75-9-9.77-20.17-10.39-36-1.88-43.35s26.72-6.83,50,1.63c1.29-3.2,2.61-6.26,4-9.2C519,41,496.28,40.43,483.9,51.16ZM697.67,182c-1.36-2.91-2.91-5.91-4.68-8.94a204.9,204.9,0,0,0-20.56-29.5c-2.28,2.78-4.68,5.59-7.15,8.4a198.45,198.45,0,0,1,17,24.52c1.77,3.09,3.39,6.09,4.79,9,9.73,20.18,10.39,36,1.88,43.35s-26.76,6.83-50.05-1.63q-5-1.81-10.39-4.11A242.15,242.15,0,0,1,600.2,208.3c-3.24,2.17-6.48,4.24-9.69,6.22a255.4,255.4,0,0,0,34.09,17.81c3.5,1.51,7,2.85,10.32,4,13.56,4.88,26.05,7.44,36.66,7.44s19.39-2.53,25.54-7.89C709.5,225.18,708.88,205.49,697.67,182Z"/><path class="cls-61" d="M665.28,135.12q-3.31,4.17-7.07,8.43c-1.66-1.91-3.39-3.83-5.2-5.78q-5.64-6.12-12.09-12.32-6.69-6.56-14.33-13.15T611.37,99.85c-4.76-3.71-9.47-7.19-14.19-10.44-2.21-1.57-4.46-3.07-6.67-4.54-3.28-2.14-6.49-4.18-9.69-6.09A235.75,235.75,0,0,0,552.48,64q1.88-4.94,4-9.29a258.48,258.48,0,0,1,34.09,17.81q4.8,3,9.65,6.23c5.27,3.51,10.61,7.31,15.92,11.33q7,5.27,13.93,11.08c1.55,1.31,3.13,2.65,4.72,4s3.09,2.71,4.6,4.05q6.75,6,12.83,12.14Q659.16,128.29,665.28,135.12Z"/><path class="cls-62" d="M590.51,202.2c-3.24,2.14-6.49,4.18-9.69,6.1Q572.92,203,564.93,197q-7-5.27-13.93-11.08c-1.54-1.31-3.13-2.65-4.71-4s-3.14-2.71-4.65-4.09q-6.69-6-12.78-12.06-7-6.9-13.09-13.76c-2.5-2.81-4.9-5.62-7.18-8.4A207.56,207.56,0,0,1,488,114c3.32-1.21,6.9-2.33,10.69-3.45a197,197,0,0,0,17.06,24.58c2.22,2.75,4.57,5.56,7,8.4,1.7,1.92,3.43,3.83,5.24,5.78,3.72,4,7.77,8.17,12.05,12.32,4.49,4.34,9.28,8.75,14.33,13.12s10.17,8.56,15.22,12.45c4.76,3.71,9.47,7.19,14.19,10.44C586.05,199.23,588.3,200.73,590.51,202.2Z"/><circle class="cls-63" cx="515.77" cy="274.16" r="12.9" transform="translate(130.45 713.14) rotate(-76.72)"/><circle class="cls-64" cx="665.28" cy="12.9" r="12.9"/><path class="cls-65" d="M707.62,782v18a21.9,21.9,0,0,1-.27,3.45c-2.9,19.72-30.43,35.14-64,35.14s-61-15.42-63.94-35.14a21.9,21.9,0,0,1-.27-3.45V782a22.19,22.19,0,0,0,.12,2.31,19.4,19.4,0,0,0,.33,2.27c.07.38.16.75.24,1.13a21.12,21.12,0,0,0,.66,2.2s0,0,0,0c.12.36.26.72.41,1.08.21.54.44,1.07.7,1.59s.51,1,.8,1.54a2.79,2.79,0,0,0,.18.34l.52.88.59.91a22.35,22.35,0,0,0,1.34,1.87,35.37,35.37,0,0,0,4.45,4.85c.37.36.76.71,1.15,1.06l1.34,1.09c.29.25.58.46.87.69l.69.52c.3.22.6.45.9.65.47.33.94.65,1.42,1l1.06.69c.4.26.84.52,1.25.77,0,0,0,0,0,0,.47.28,1,.56,1.45.83s1.07.59,1.61.88l1.57.79c.28.13.55.28.84.41l2,.89c1.34.59,2.72,1.14,4.13,1.67s2.8,1,4.25,1.42c.59.19,1.2.36,1.8.54,1,.29,1.94.54,3,.79l2.06.49c.59.14,1.21.27,1.82.39l1.26.26c.25,0,.51.1.77.13.62.13,1.25.23,1.88.33.23,0,.45.08.68.1.52.09,1,.17,1.56.23s.93.14,1.41.19a5.94,5.94,0,0,0,.75.08c.64.09,1.28.16,1.94.22,1,.11,2.1.2,3.17.26.67.06,1.37.1,2.06.13s1.58.07,2.39.08,1.86.05,2.79.05h0c.94,0,1.88,0,2.81-.05s1.64,0,2.45-.08l1.73-.1c1.21-.08,2.42-.18,3.6-.31.52,0,1-.1,1.53-.15s.77-.09,1.15-.15.8-.1,1.19-.16c.64-.08,1.26-.17,1.88-.27l.17,0c.78-.11,1.54-.24,2.29-.39l.55-.1c.47-.08.93-.19,1.39-.27s1.1-.23,1.64-.36,1.36-.3,2-.48c.45-.1.9-.21,1.33-.34s1.09-.29,1.64-.45,1.31-.37,2-.58c1.45-.44,2.86-.92,4.24-1.42s2.8-1.08,4.14-1.67l2-.89c.36-.18.73-.35,1.09-.54s.88-.43,1.31-.66l1.48-.79,1.36-.78.49-.29c.36-.21.72-.43,1.06-.66.54-.33,1-.68,1.57-1,.36-.23.71-.48,1.05-.74s1-.69,1.43-1a10.82,10.82,0,0,0,.86-.69c.44-.32.85-.66,1.26-1s1-.87,1.47-1.33.93-.89,1.38-1.35.88-.92,1.29-1.4a33.06,33.06,0,0,0,3.49-4.68l.52-.88a2.79,2.79,0,0,0,.18-.34c.29-.51.57-1,.8-1.54s.49-1.05.7-1.59c.15-.36.28-.72.41-1.08s.24-.73.34-1.11a8.64,8.64,0,0,0,.29-1.08h0c.1-.38.19-.77.26-1.15A24,24,0,0,0,707.62,782Z"/><path class="cls-45" d="M706.91,787.73a10.87,10.87,0,0,1-.3,1.08c-.1.38-.23.75-.34,1.11s-.28.72-.42,1.08c-.22.54-.45,1-.69,1.59s-.51,1-.8,1.54-.46.82-.7,1.22a33.06,33.06,0,0,1-3.49,4.68c-.41.48-.85.94-1.29,1.4s-.9.91-1.38,1.35-1,.9-1.47,1.33-.82.7-1.26,1a10.82,10.82,0,0,1-.86.69c-.46.36-.94.71-1.43,1s-.69.49-1.05.74c-.52.34-1,.69-1.57,1-.34.23-.7.45-1.06.66l-.49.29-1.36.78-1.48.79c-.43.23-.86.46-1.31.66s-.73.36-1.09.54l-2,.89c-1.34.59-2.73,1.14-4.14,1.67s-2.79,1-4.24,1.42c-.64.21-1.29.39-2,.58s-1.08.32-1.64.45-.88.24-1.33.34c-.67.18-1.35.33-2,.48s-1.09.24-1.64.36-.92.19-1.39.27l-.55.1c-.75.15-1.51.28-2.29.39l-.17,0c-.62.1-1.24.2-1.88.27-.39.06-.79.12-1.19.16s-.77.1-1.15.15-1,.11-1.53.15c-1.18.13-2.39.23-3.6.31l-1.73.1c-.81,0-1.63.07-2.45.08s-1.87.05-2.81.05h0c-.93,0-1.87,0-2.79-.05s-1.6,0-2.39-.08-1.39-.07-2.06-.13c-1.07-.06-2.12-.15-3.17-.26-.66-.06-1.3-.13-1.94-.22a5.94,5.94,0,0,1-.75-.08c-.48,0-.94-.12-1.41-.19s-1-.13-1.56-.23c-.23,0-.45-.06-.68-.1-.63-.1-1.26-.2-1.88-.33-.26,0-.52-.09-.77-.13-.43-.09-.85-.16-1.26-.26-.61-.12-1.23-.25-1.82-.39l-2.06-.49c-1-.25-2-.5-3-.79-.6-.18-1.21-.35-1.8-.54-1.45-.44-2.87-.92-4.25-1.42s-2.79-1.08-4.13-1.67l-2-.89c-.29-.13-.56-.28-.84-.41l-1.57-.79c-.54-.29-1.08-.58-1.61-.88s-1-.55-1.45-.83c0,0,0,0,0,0-.41-.25-.85-.51-1.25-.77s-.72-.44-1.06-.69-.95-.63-1.42-1c-.3-.2-.6-.43-.9-.65l-.69-.52c-.29-.23-.58-.44-.87-.69L590.68,804c-.39-.35-.78-.7-1.15-1.06a35.37,35.37,0,0,1-4.45-4.85c-.49-.6-.92-1.24-1.34-1.87l-.59-.91c-.24-.4-.49-.8-.7-1.22s-.55-1-.8-1.54-.47-1.05-.69-1.59c-.14-.36-.27-.72-.42-1.08,0,0,0,0,0,0-.24-.72-.47-1.47-.66-2.2-.08-.38-.17-.75-.24-1.13a24.92,24.92,0,0,1-.45-4.58h0c0-21.13,28.24-38.29,63.26-38.58l-6.71,18.83a58,58,0,0,1,8.26-.6c18.69,0,33.87,9.12,33.87,20.36a12.53,12.53,0,0,1-.94,4.75c-.13.34-.27.65-.43,1Z"/><path class="cls-66" d="M677.87,782a12.53,12.53,0,0,1-.94,4.75c-.13.34-.27.65-.43,1-4.12,8.46-17.12,14.64-32.5,14.64-16,0-29.38-6.66-33-15.62a12.72,12.72,0,0,1-.93-4.75c0-9.53,10.91-17.54,25.62-19.76a58,58,0,0,1,8.26-.6C662.69,761.64,677.87,770.76,677.87,782Z"/><path class="cls-67" d="M870.8,687.29v18a23.16,23.16,0,0,1-.26,3.45c-2.91,19.72-30.45,35.14-64,35.14s-61-15.42-63.94-35.14a23.16,23.16,0,0,1-.26-3.45v-18a24.69,24.69,0,0,0,.25,3.45.68.68,0,0,0,0,.19,23.06,23.06,0,0,0,.72,3.17h0a21.65,21.65,0,0,0,.76,2.18h0c0,.06,0,.12.07.17.19.48.39,1,.62,1.42s.51,1,.79,1.54l.19.34c.17.3.35.59.52.88a36.12,36.12,0,0,0,6.44,7.68c.36.36.73.69,1.12,1a1.4,1.4,0,0,0,.22.17c.43.39.89.75,1.35,1.13l.16.12c.43.34.86.67,1.32,1,.72.52,1.46,1,2.23,1.54.38.26.77.5,1.16.73s1,.61,1.45.88.75.45,1.14.65c.55.32,1.11.62,1.68.92s.9.46,1.36.68c.31.16.63.32.95.46.65.3,1.29.6,2,.89.83.38,1.67.72,2.53,1.05,1,.42,2.1.81,3.18,1.18a86.4,86.4,0,0,0,8.39,2.44c.57.13,1.13.27,1.72.39q.43.1.9.18c.51.12,1,.22,1.55.32l.74.13c.69.13,1.39.26,2.1.36.11,0,.23,0,.34.06.58.1,1.16.19,1.75.26.44.07.89.13,1.34.17s.6.09.92.12c.54.07,1.11.13,1.65.17,1.14.13,2.31.21,3.47.29.62.05,1.26.08,1.89.11.79,0,1.6.07,2.42.09s1.87,0,2.82,0,1.89,0,2.83,0,1.61,0,2.41-.09c.64,0,1.27-.06,1.89-.11,1.14-.08,2.28-.16,3.4-.28.58-.05,1.14-.11,1.7-.18.34,0,.69-.08,1-.13l1.25-.16c.57-.07,1.11-.16,1.66-.25a3.12,3.12,0,0,0,.52-.08c.7-.1,1.41-.23,2.1-.36,1.07-.19,2.1-.39,3.13-.62.66-.15,1.31-.29,2-.46a2.22,2.22,0,0,0,.37-.09c.5-.12,1-.24,1.5-.39,1.12-.27,2.2-.59,3.28-.92.76-.23,1.51-.48,2.26-.72,2.23-.75,4.38-1.57,6.44-2.48l2-.89c.31-.14.63-.3,1-.46s.91-.45,1.35-.68,1.14-.6,1.69-.92c.39-.2.76-.42,1.13-.65s1-.56,1.46-.88.86-.53,1.27-.8l.36-.25c.46-.3.89-.6,1.32-.9l.35-.26c.49-.35,1-.7,1.41-1.06a.74.74,0,0,1,.16-.12c.46-.36.9-.74,1.35-1.13l.22-.17c.47-.4,1-.82,1.39-1.27s.94-.88,1.39-1.35.89-.92,1.29-1.4c0,0,0,0,.07-.07a27.62,27.62,0,0,0,2.22-2.81,17.9,17.9,0,0,0,1-1.5c.26-.39.49-.77.72-1.18.35-.62.68-1.25,1-1.88s.49-1.06.7-1.59c.28-.73.54-1.47.76-2.2s.37-1.34.52-2A24.71,24.71,0,0,0,870.8,687.29Z"/><path class="cls-45" d="M870.8,687.29a24.71,24.71,0,0,1-.49,4.79c-.15.68-.32,1.36-.52,2s-.48,1.47-.76,2.2c-.22.53-.45,1.05-.7,1.59a29.64,29.64,0,0,1-1.68,3.06c-.32.51-.66,1-1,1.5-.68.95-1.42,1.89-2.22,2.81,0,0,0,0-.07.07-.42.48-.85.94-1.29,1.4s-.91.91-1.39,1.35-.92.85-1.39,1.27l-.22.17c-.43.38-.89.75-1.35,1.13a.74.74,0,0,0-.16.12c-.46.35-.92.71-1.41,1.06l-.35.26-1.32.9-.36.25c-.42.27-.84.54-1.27.8s-1,.61-1.46.88-.74.45-1.13.65c-.55.32-1.11.62-1.69.92s-.89.46-1.35.68-.64.32-1,.46l-2,.89c-2.06.91-4.21,1.73-6.44,2.48-.75.24-1.5.49-2.26.72-1.08.33-2.16.65-3.28.92-.49.15-1,.27-1.5.39a2.22,2.22,0,0,1-.37.09c-.65.17-1.3.31-2,.46-1,.23-2.06.43-3.13.62-.69.13-1.4.26-2.1.36a3.12,3.12,0,0,1-.52.08c-.55.09-1.09.18-1.66.25l-1.25.16c-.33.05-.68.1-1,.13-.56.07-1.12.13-1.7.18-1.12.12-2.26.2-3.4.28-.62.05-1.25.08-1.89.11-.8,0-1.61.07-2.41.09s-1.88,0-2.83,0-1.88,0-2.82,0-1.63,0-2.42-.09c-.63,0-1.27-.06-1.89-.11-1.16-.08-2.33-.16-3.47-.29-.54,0-1.11-.1-1.65-.17-.32,0-.62-.08-.92-.12s-.9-.1-1.34-.17c-.59-.07-1.17-.16-1.75-.26-.11,0-.23,0-.34-.06-.71-.1-1.41-.23-2.1-.36l-.74-.13c-.52-.1-1-.2-1.55-.32q-.47-.07-.9-.18l-1.72-.39a86.4,86.4,0,0,1-8.39-2.44c-1.08-.37-2.14-.76-3.18-1.18-.86-.33-1.7-.67-2.53-1.05-.67-.29-1.31-.59-2-.89-.32-.14-.64-.3-.95-.46-.46-.22-.91-.45-1.36-.68s-1.13-.6-1.68-.92c-.39-.2-.76-.42-1.14-.65s-1-.56-1.45-.88-.78-.47-1.16-.73c-.77-.5-1.51-1-2.23-1.54-.46-.33-.89-.66-1.32-1l-.16-.12c-.46-.38-.92-.75-1.35-1.13a1.4,1.4,0,0,1-.22-.17c-.39-.35-.76-.68-1.12-1a36.12,36.12,0,0,1-6.44-7.68c-.25-.4-.48-.81-.71-1.22s-.54-1-.79-1.54-.43-.94-.62-1.42c0-.05,0-.11-.07-.17h0a21.65,21.65,0,0,1-.76-2.18h0a22,22,0,0,1-.72-3.17L775.19,694a13.57,13.57,0,0,1-1-2,12.53,12.53,0,0,1-.94-4.75c0-11.25,15.17-20.37,33.87-20.37a56.52,56.52,0,0,1,8.15.59V649.05C846.65,651.6,870.8,667.74,870.8,687.29Z"/><path class="cls-68" d="M841,687.29a12.71,12.71,0,0,1-.92,4.75c-3.57,9-17,15.61-33,15.61-14.79,0-27.37-5.7-32-13.65a13.57,13.57,0,0,1-1-2,12.53,12.53,0,0,1-.94-4.75c0-11.25,15.17-20.37,33.87-20.37a56.52,56.52,0,0,1,8.15.59C830.1,669.72,841,677.72,841,687.29Z"/><path class="cls-69" d="M1022.84,597.28v18a22,22,0,0,1-.26,3.46c-2.9,19.71-30.43,35.14-63.94,35.14-16.9,0-32.28-3.92-43.75-10.34-11.27-6.3-18.76-15-20.2-24.8a23.29,23.29,0,0,1-.26-3.46v-18c0,.78,0,1.56.11,2.32a22,22,0,0,0,.34,2.26,23.72,23.72,0,0,0,1.31,4.44c0,.05,0,.11.07.17.19.47.39.95.62,1.41s.5,1,.79,1.54l.19.35a6,6,0,0,0,.33.54c.16.29.34.58.53.87a33.92,33.92,0,0,0,4.44,5.54c.44.46.9.91,1.38,1.36s.91.83,1.38,1.25.88.75,1.34,1.09a10.82,10.82,0,0,0,.86.69c.45.35.9.68,1.37,1s1,.68,1.44,1,.84.56,1.27.82.84.53,1.27.77,1.08.64,1.64.95l1.45.78c.44.23.87.45,1.31.66s.72.36,1.1.54c.65.3,1.29.6,2,.89,1,.42,1.91.82,2.91,1.2l1.22.47c1.38.5,2.79,1,4.25,1.43.63.2,1.28.39,1.94.57.92.28,1.87.52,2.83.77l1.95.46h.1c.62.15,1.24.29,1.88.4s1.29.28,2,.38,1.25.23,1.88.33a5.31,5.31,0,0,0,.68.1c.5.09,1,.17,1.55.23s.94.15,1.42.19l.77.1,1.85.2c1.06.12,2.14.2,3.24.26.67.06,1.36.1,2.06.13s1.58.07,2.39.09,1.85,0,2.79,0h0c.94,0,1.88,0,2.81,0s1.64-.05,2.45-.09l1.73-.1c1.21-.07,2.42-.17,3.6-.3.53-.05,1.06-.1,1.58-.18.75-.07,1.49-.17,2.22-.27s1.25-.17,1.87-.27c.1,0,.22,0,.32-.06.78-.12,1.53-.25,2.27-.39a1.91,1.91,0,0,0,.36-.07q.78-.14,1.53-.3c.59-.12,1.17-.23,1.74-.38s1.29-.29,1.92-.45,1-.25,1.51-.38,1.23-.34,1.83-.51,1.07-.3,1.58-.47c.74-.22,1.46-.46,2.18-.71,2.14-.72,4.22-1.53,6.21-2.39.66-.29,1.31-.59,1.95-.89l.77-.38c1.13-.54,2.23-1.12,3.3-1.71.36-.2.72-.4,1.06-.62.49-.27,1-.56,1.43-.86s1-.62,1.48-1,1.17-.78,1.71-1.2,1-.76,1.54-1.15l.16-.13c.52-.39,1-.81,1.5-1.24s1-.86,1.48-1.32.94-.9,1.39-1.36.87-.92,1.28-1.4c0,0,0,0,.07-.07a31.26,31.26,0,0,0,2.15-2.69,3.83,3.83,0,0,0,.28-.42c.29-.39.55-.79.8-1.19l.08-.13c.22-.35.43-.69.64-1.05.05-.12.13-.23.18-.35.25-.45.49-.91.71-1.37a1.45,1.45,0,0,0,.13-.29q.31-.64.57-1.29c0-.06,0-.12.08-.17.14-.36.27-.72.4-1.1a23.73,23.73,0,0,0,.86-3.12A24,24,0,0,0,1022.84,597.28Z"/><path class="cls-45" d="M1022.84,597.28a24,24,0,0,1-.49,4.8,22.52,22.52,0,0,1-.86,3.12c-.13.38-.26.74-.4,1.1,0,.05-.05.11-.08.17q-.25.64-.57,1.29a1.45,1.45,0,0,1-.13.29c-.22.46-.46.92-.71,1.37s-.53.94-.82,1.4l-25.72-12.43a13.33,13.33,0,0,1-.89,3.66c-3.57,9-17,15.61-32.95,15.61-9.27,0-17.67-2.25-23.78-5.88l-11.6,18c-1-.38-2-.78-2.91-1.2-.67-.29-1.31-.59-2-.89-.38-.18-.74-.35-1.1-.54s-.87-.43-1.31-.66l-1.45-.78c-.56-.31-1.11-.61-1.64-.95s-.85-.5-1.27-.77-.85-.54-1.27-.82-1-.65-1.44-1-.92-.66-1.37-1a10.82,10.82,0,0,1-.86-.69c-.46-.34-.91-.72-1.34-1.09l-1.38-1.25c-.48-.45-.94-.9-1.38-1.36a33.92,33.92,0,0,1-4.44-5.54c-.19-.29-.37-.58-.53-.87s-.35-.59-.52-.89c-.29-.5-.55-1-.79-1.54s-.43-.94-.62-1.41c0-.06,0-.12-.07-.17a23.72,23.72,0,0,1-1.31-4.44c-.15-.75-.26-1.5-.34-2.26s-.11-1.54-.11-2.32c0-21.33,28.74-38.61,64.2-38.61S1022.84,576,1022.84,597.28Z"/><path class="cls-70" d="M993.11,597.28c0,.37,0,.73-.05,1.11a13.33,13.33,0,0,1-.89,3.66c-3.57,9-17,15.61-32.95,15.61-9.27,0-17.67-2.25-23.78-5.88-4.42-2.62-7.66-6-9.16-9.73a12.82,12.82,0,0,1-.93-4.77c0-11.25,15.16-20.36,33.87-20.36S993.11,586,993.11,597.28Z"/><path class="cls-71" d="M707.62,782h0a24,24,0,0,1-.45,4.58c-.08.39-.17.78-.26,1.15H676.5c.16-.33.3-.64.43-1a12.53,12.53,0,0,0,.94-4.75c0-11.24-15.18-20.36-33.87-20.36a58,58,0,0,0-8.26.6l6.71-18.83c.31,0,.62,0,.94,0C678.85,743.39,707.62,760.67,707.62,782Z"/><path class="cls-72" d="M815.32,649.05v18.46a56.52,56.52,0,0,0-8.15-.59c-18.7,0-33.87,9.12-33.87,20.37a12.53,12.53,0,0,0,.94,4.75,13.57,13.57,0,0,0,1,2l-32.53-3.07a.68.68,0,0,1,0-.19,24.69,24.69,0,0,1-.25-3.45v.57c0-.18,0-.39,0-.57,0-21.33,28.76-38.61,64.21-38.61C809.55,648.68,812.47,648.79,815.32,649.05Z"/><path class="cls-73" d="M1018.78,610.82l-.08.13c-.25.4-.51.79-.8,1.19a3.83,3.83,0,0,1-.28.42c-.67.92-1.39,1.81-2.15,2.69,0,0,0,.06-.07.07-.41.48-.84.94-1.28,1.4s-.91.91-1.39,1.36-1,.89-1.48,1.32-1,.84-1.5,1.24l-.16.13c-.49.39-1,.78-1.54,1.15s-1.13.81-1.71,1.2-1,.64-1.48,1-.94.59-1.43.86c-.34.22-.7.42-1.06.62-1.07.59-2.17,1.17-3.3,1.71l-.77.38c-.64.3-1.29.6-1.95.89-2,.86-4.07,1.67-6.21,2.39-.72.25-1.44.49-2.18.71-.51.17-1.05.31-1.58.47s-1.21.35-1.83.51-1,.27-1.51.38-1.27.32-1.92.45-1.15.26-1.74.38-1,.21-1.53.3a1.91,1.91,0,0,1-.36.07c-.74.14-1.51.27-2.27.39-.1,0-.22,0-.32.06-.62.1-1.24.18-1.87.27s-1.47.2-2.22.27c-.52.08-1,.13-1.58.18-1.18.13-2.39.23-3.6.3l-1.73.1c-.81,0-1.63.07-2.45.09s-1.87,0-2.81,0h0c-.94,0-1.87,0-2.79,0s-1.6-.05-2.39-.09-1.39-.07-2.06-.13c-1.1-.06-2.18-.14-3.24-.26l-1.85-.2-.77-.1c-.48,0-1-.12-1.42-.19s-1-.13-1.55-.23a5.31,5.31,0,0,1-.68-.1c-.63-.1-1.27-.2-1.88-.33s-1.32-.23-2-.38-1.26-.25-1.88-.4H936l-1.95-.46c-1-.25-1.91-.49-2.83-.77-.66-.18-1.31-.37-1.94-.57-1.46-.45-2.87-.93-4.25-1.43l-1.22-.47,11.6-18c6.11,3.63,14.51,5.88,23.78,5.88,16,0,29.38-6.66,32.95-15.61a13.33,13.33,0,0,0,.89-3.66Z"/><path class="cls-74" d="M371.5,85.89a9.43,9.43,0,0,0-5.89.56,10.46,10.46,0,0,0-1,.51l-3.76,2.16L22.77,284.37a21,21,0,0,0-10.51,18.2V565.23a12.38,12.38,0,0,0,3,8.14,12.62,12.62,0,0,0,4.61,3.38l-10-3.37a12.5,12.5,0,0,1-2.46-.83h0a12.75,12.75,0,0,1-5.27-4.44,12.37,12.37,0,0,1-2.1-7V298.49a21.06,21.06,0,0,1,10.51-18.21L352.36,82.88a9.54,9.54,0,0,1,8.43-.6l.11,0Z"/><path class="cls-45" d="M379.12,95.34V363.8a19.56,19.56,0,0,1-9.79,16.95L31,576.07a12.3,12.3,0,0,1-11.11.7l-.06,0a12.62,12.62,0,0,1-4.61-3.38,12.38,12.38,0,0,1-3-8.14V302.57a21,21,0,0,1,10.51-18.2L360.85,89.12,364.61,87a10.46,10.46,0,0,1,1-.51,9.43,9.43,0,0,1,5.89-.56l1.95.66A9.57,9.57,0,0,1,379.12,95.34Z"/><g class="cls-75"><polygon class="cls-76" points="67.27 216.3 103.96 195.12 104.05 491.59 67.37 512.77 67.27 216.3"/></g><polygon class="cls-77" points="140.67 87.28 177.35 66.76 177.4 449.3 140.72 470.48 140.67 87.28"/><polygon class="cls-78" points="214.05 258.59 250.74 237.41 250.79 406.88 214.1 428.05 214.05 258.59"/><g class="cls-79"><polygon class="cls-80" points="287.4 279.8 324.09 258.62 324.13 364.58 287.45 385.76 287.4 279.8"/></g><path class="cls-81" d="M886.8,513.4s-17.07,17.29-13.9,20.38,25.38-8.45,26.09-14.12c.77-6.18-2-7-2-7l-6.09-4.17Z"/><path class="cls-82" d="M866.74,503.8s-17.06,17.29-13.89,20.38,25.38-8.45,26.09-14.12c.77-6.18-2-7-2-7l-6.09-4.17Z"/><path class="cls-83" d="M878.75,423.53l8,89.87s3.41,2.23,6.21,1.58a7.06,7.06,0,0,0,4-2.35l-3.52-89.19-2.45-8.07Z"/><path class="cls-84" d="M858.7,413.93l8,89.87s3.42,2.23,6.22,1.58a7.06,7.06,0,0,0,4-2.35l-3.52-89.19L871,405.77Z"/><path class="cls-85" d="M904.35,378.72s.23,10,1.15,19,1,24.78,1,24.78-17.17,3-33.38,0S849.93,414,849.93,414l5.61-44.88,9.21-4.68Z"/><path class="cls-86" d="M853.89,288.94S809.15,274.27,804.83,271s-17.91-5.37-18.53-4.38,8.65,3.45,9.27,5.77,1.7,8,5.86,7.26,13.59,2.11,23.32,6.15,28.65,12.05,28.65,12.05a16,16,0,0,1,.49-3.19C854.2,294.08,853.89,288.94,853.89,288.94Z"/><path class="cls-87" d="M868.29,289.49l-11.76-3.88a16.14,16.14,0,0,0-4.33,7.15,27.07,27.07,0,0,0-1.12,7.75l7.81,3.26a44.44,44.44,0,0,0,5-1.06C864.52,302.36,868.29,289.49,868.29,289.49Z"/><path class="cls-88" d="M882.45,284.82s17.18,11.29,16.29,27.73-1.5,19.91,1.94,28.48,6,11.12,5.76,22-2.09,15.69-2.09,15.69-18.32,2.38-33.71-2.49-17.24-9.49-17.24-9.49,7.87-27.16,6.14-34.88S853.63,317,856.41,310s7.41-20.35,14.47-21.52A39.28,39.28,0,0,0,882.45,284.82Z"/><path class="cls-89" d="M904.24,319.5c.25,1.74-2.32,5.37-5.69,9.33-5.45,6.32-12.95,13.47-14.23,15a4.56,4.56,0,0,0-.39.54c-1.54,2.22-.5,4.2-1.48,7.15-.61,1.85-1.26,4-1.69,5.43a3.2,3.2,0,0,1-3.63,2.22A16.66,16.66,0,0,1,873.5,358c-6.91-2.8,1.06-11.21,1.06-11.21s.76-1.94,4.57-6.7c.48-.6,1-1.25,1.6-1.95,5.2-6.17,10-10.65,12.35-13.95l.06-.09c2.2-3.28-1.08-6.88-1.08-6.88l2.8-9.09,6.11,3.52A18.87,18.87,0,0,1,904.24,319.5Z"/><path class="cls-90" d="M883.4,276.53l.51,7.54s-.26,4.86-2.23,8.19-7.5,6.45-7.5,6.45-3.1-6.44-2.47-10.61.62-3.7.25-5.42a29.06,29.06,0,0,1-.23-5.12l7.42-5.33Z"/><path class="cls-91" d="M863,258.39A31.63,31.63,0,0,0,865.79,284s10.92-.85,14.88-7.21,1-18.24,1-18.24l-7.54-5.1Z"/><path class="cls-85" d="M889.71,269.44c-2.2,4.74-5.77,8.12-9,7.32-7.59-1.87-6.83-11.49-8.85-15.5s-8.85-2.87-8.85-2.87,2.47-14.87,19.65-10.41a12.63,12.63,0,0,1,5.57,2.93C893,255.49,892.45,263.52,889.71,269.44Z"/><path class="cls-85" d="M898.52,269.27s-5.79,3.46-8.81.17c2.74-5.92,3.32-13.95-1.52-18.53,0,0,3.65-2,5.57.58s-.92,13.54.49,15.58A6.11,6.11,0,0,0,898.52,269.27Z"/><path class="cls-92" d="M894,294.23c-3.59-4.19-10.5-2.31-12.06,3a10.65,10.65,0,0,0,.45,7.38c3.12,7.29,5.49,13.31,5.49,13.31s2.64.71,8.39-2.66,6.38-6,6.38-6-5-9.64-8.11-14.27A6.76,6.76,0,0,0,894,294.23Z"/><path class="cls-93" d="M893.08,324.22c-2.31,3.3-7.15,7.78-12.35,13.95-.6.7-1.12,1.35-1.6,1.95L867.68,330l14.45-15.49,11,9.6Z"/><path class="cls-94" d="M907.26,336.43l-13.71,16.39-9.62-8.48a4.56,4.56,0,0,1,.39-.54c1.28-1.5,8.78-8.65,14.23-15Z"/><path class="cls-95" d="M329.55,460.24l-1.87,1.94-3.93-6.37s.41-5.85,1.6-15.08a119.61,119.61,0,0,0,.56-19.36l3.14-5.31a74.9,74.9,0,0,1,.26,11.51c-.54,11.18-1.21,16.06-.67,25A72.58,72.58,0,0,0,329.55,460.24Z"/><path class="cls-85" d="M367.06,580.11a24.6,24.6,0,0,1,1.5,10.09c-.43,5.37-4.67,2.6-16.17.07-7.51-1.65-13.66-3.43-12.73-5.87s17-4.77,17-4.77l5.11-.53Z"/><path class="cls-85" d="M352.72,594.27a25,25,0,0,1,1.53,10.24c-.44,5.44-4.75,2.63-16.41.07-7.63-1.68-13.87-3.48-12.93-6s17.26-4.84,17.26-4.84l5.18-.54Z"/><g class="cls-96"><path class="cls-97" d="M379.28,450.94s.56,12.2-3.44,18.12-8.37,28.76-8.78,51.33,0,59.72,0,59.72a10.09,10.09,0,0,1-5.82,1.24,8.46,8.46,0,0,1-4.58-1.72l-8.9-123.18L351.41,446Z"/></g><path class="cls-45" d="M365.12,463.18s.57,12.39-3.49,18.4-8.49,29.18-8.91,52.08,0,60.61,0,60.61a10.3,10.3,0,0,1-5.91,1.26,8.59,8.59,0,0,1-4.64-1.75l-9-125,3.71-10.63Z"/><path class="cls-98" d="M335.85,364.91a10.94,10.94,0,0,0-3,6.17s-1.59,2.24-2.48,2.1-7.06-2.88-7.06-2.88,1.84-3,.35-4.85a3.86,3.86,0,0,1-.28-4.57,15.67,15.67,0,0,1,3-3.21c1.82-1.55,3.87-2.88,4.25-2.07.68,1.42-2.68,5.23-1.92,5.28h0a37.37,37.37,0,0,0,9.2-1.05S338.51,362.4,335.85,364.91Z"/><path class="cls-99" d="M324.14,419.49s-3.65-7.13-3.78-26.82,0-21.59,0-21.59A19.33,19.33,0,0,1,327,370a24.55,24.55,0,0,1,6.8,1.43l-.73,13.72Z"/><path class="cls-100" d="M339.07,359.52a52,52,0,0,1,0,9.39c-.52,3.6,5.39,6.52,5.59,6.38s7.4-7.54,7.4-7.54l-1.73-10.88s-.21-1.81-.73-2-7.83-1.43-7.83-1.43Z"/><path class="cls-101" d="M348.46,352.94c-2.27,3.86-6.45,5.87-10.53,6.89a37.37,37.37,0,0,1-9.2,1.05h0c-.76-.05,2.6-3.86,1.92-5.28-.38-.81-2.43.52-4.25,2.07a31.66,31.66,0,0,1,.38-8.14A54.75,54.75,0,0,1,329,340.8l9.06-5.61S353.89,343.7,348.46,352.94Z"/><path class="cls-102" d="M379.33,451.78s-2,7.23-13.58,13-33.94,5.25-33.94,5.25a86.22,86.22,0,0,1-2.26-9.82,72.58,72.58,0,0,1-.91-7.65c-.54-9,.13-13.84.67-25a74.9,74.9,0,0,0-.26-11.51c-.49-4.86-1.34-9.12-1.91-14.84-.94-9.64,4.21-24.7,7.47-28.65s13.1-7.53,13.1-7.53a49.5,49.5,0,0,1,12.61-1.15c2.27.18,4.15,1.62,5.55,4.16l.07.13a11.62,11.62,0,0,1,.52,1.06.42.42,0,0,0,.06.14c1.43,3.3,2.2,8,2.18,13.92,0,.83,0,1.69-.06,2.58-.37,9.08,1.69,17.76,4.12,26.24,1.15,4,2.38,8,3.49,12C379.69,436.39,379.33,451.78,379.33,451.78Z"/><path class="cls-103" d="M343.77,379.42a6.5,6.5,0,0,0-10.15-2.65c-2,1.67-4.14,4.57-5.92,9.57-5,14.12-7.28,32.15-1.78,35,11.4,6,16-19.14,18.46-30.55A19.11,19.11,0,0,0,343.77,379.42Z"/><path class="cls-104" d="M372.76,412.12c-2.43-8.48-4.49-17.16-4.12-26.24.29-7.09-.49-12.72-2.12-16.5,2.21,4.64,9.39,20.17,10.82,29.4C378.15,404,375.64,408.62,372.76,412.12Z"/><g class="cls-105"><path class="cls-106" d="M379.33,451.78s-2,7.23-13.58,13c10.78-10.13,7.15-27.34-6.71-29.51s.66-14.4,5.71-18.37-.28-13.67-7.87-13.94S368.7,383.3,368.7,383.3c0,.83,0,1.69-.06,2.58-.37,9.08,1.69,17.76,4.12,26.24,1.15,4,2.38,8,3.49,12C379.69,436.39,379.33,451.78,379.33,451.78Z"/></g><path class="cls-85" d="M324.84,326.14s-2.08,9.5,4.16,14.66,6.28,5.89,6.85,8.15a7.26,7.26,0,0,1-.6,4.53s4.7-5,6-3.35-1.92,6.42,2.48,7.42,11.53-1.74,13.79-6.63a17.1,17.1,0,0,0,1.38-9.48s.57-9-4.59-12.67c-3.77-2.71-4.59-.46-7.65-2.15-1.05-.58-.11-4-4.05-4-3,0-4.26,3.44-7.7,1.81-2.79-1.32.92-5.12-2.88-6.84S324.84,326.14,324.84,326.14Z"/><polygon class="cls-45" points="425.94 702.5 264.1 795.93 102.25 702.47 262.74 609.81 264.1 609.03 425.94 702.5"/><polygon class="cls-107" points="102.26 702.47 102.26 755.86 264.1 849.3 264.1 795.93 102.26 702.47"/><polygon class="cls-108" points="264.1 849.3 425.94 755.87 425.94 702.5 264.1 795.93 264.1 849.3"/><path class="cls-109" d="M211.63,789.43a4.45,4.45,0,0,0-.59,3.15,7.58,7.58,0,0,0,1.07,2.91,7.48,7.48,0,0,0,.95,1.23c2.06,2.2,4.75,2.5,6,.67s.64-5.09-1.42-7.29S212.9,787.6,211.63,789.43Z"/><path class="cls-110" d="M225.69,797.91a4.45,4.45,0,0,0-.59,3.15,7.58,7.58,0,0,0,1.07,2.91,7.48,7.48,0,0,0,1,1.23c2,2.2,4.75,2.5,6,.67s.64-5.09-1.42-7.29S227,796.08,225.69,797.91Z"/><path class="cls-111" d="M239.75,806.1a4.4,4.4,0,0,0-.59,3.15,7.78,7.78,0,0,0,2,4.14c2.06,2.2,4.76,2.5,6,.67s.63-5.09-1.43-7.29S241,804.27,239.75,806.1Z"/><path class="cls-112" d="M127.78,742.14v4.6a1.6,1.6,0,0,0,.8,1.39l16.3,9.42a.83.83,0,0,0,1.24-.71V752.3a1.92,1.92,0,0,0-1-1.66l-16-9.27A.89.89,0,0,0,127.78,742.14Z"/><path class="cls-113" d="M410.92,735.18a4.45,4.45,0,0,1,.6,3.15,7.87,7.87,0,0,1-2,4.14c-2.06,2.2-4.76,2.5-6,.67s-.63-5.09,1.43-7.29S409.65,733.35,410.92,735.18Z"/><path class="cls-114" d="M396.86,743.66a4.45,4.45,0,0,1,.6,3.15,7.87,7.87,0,0,1-2,4.14c-2.06,2.2-4.75,2.5-6,.67s-.63-5.09,1.43-7.29S395.6,741.84,396.86,743.66Z"/><path class="cls-115" d="M382.81,751.85a4.45,4.45,0,0,1,.59,3.15,7.58,7.58,0,0,1-1.07,2.91,7.48,7.48,0,0,1-.95,1.23c-2.05,2.2-4.75,2.5-6,.67s-.64-5.09,1.42-7.29S381.54,750,382.81,751.85Z"/><path class="cls-116" d="M308,795.37V800a1.61,1.61,0,0,1-.81,1.38l-16.3,9.42a.82.82,0,0,1-1.23-.71v-4.53a1.91,1.91,0,0,1,1-1.67l16.05-9.27A.89.89,0,0,1,308,795.37Z"/><path class="cls-117" d="M125.41,694.42v9c0,1.81-2.16,3.28-4.83,3.28s-4.83-1.47-4.83-3.28v-9c0,1.81,2.17,3.28,4.83,3.28S125.41,696.23,125.41,694.42Z"/><path class="cls-118" d="M125.41,694.42c0,1.81-2.16,3.28-4.83,3.28s-4.83-1.47-4.83-3.28,2.17-3.28,4.83-3.28S125.41,692.61,125.41,694.42Z"/><path class="cls-119" d="M269,611.23v9c0,1.81-2.16,3.28-4.82,3.28s-4.83-1.47-4.83-3.28v-9c0,1.8,2.16,3.27,4.83,3.27S269,613,269,611.23Z"/><g class="cls-120"><path class="cls-121" d="M264.1,795.93s29.16-110.34-1.36-186.12l1.36-.78L425.94,702.5Z"/></g><path class="cls-122" d="M269,611.23c0,1.8-2.16,3.27-4.82,3.27s-4.83-1.47-4.83-3.27,2.16-3.28,4.83-3.28S269,609.42,269,611.23Z"/><path class="cls-123" d="M416.4,693.22v9c0,1.81-2.15,3.28-4.82,3.28s-4.83-1.47-4.83-3.28v-9c0,1.8,2.16,3.27,4.83,3.27S416.4,695,416.4,693.22Z"/><path class="cls-124" d="M416.4,693.22c0,1.8-2.15,3.27-4.82,3.27s-4.83-1.47-4.83-3.27,2.16-3.28,4.83-3.28S416.4,691.41,416.4,693.22Z"/><path class="cls-125" d="M268.93,776v9c0,1.81-2.16,3.28-4.83,3.28s-4.83-1.47-4.83-3.28v-9c0,1.81,2.16,3.28,4.83,3.28S268.93,777.8,268.93,776Z"/><path class="cls-126" d="M268.93,776c0,1.81-2.16,3.28-4.83,3.28s-4.83-1.47-4.83-3.28,2.16-3.28,4.83-3.28S268.93,774.18,268.93,776Z"/><polygon class="cls-127" points="102.35 755.88 102.35 809.27 264.19 902.71 264.19 849.35 102.35 755.88"/><polygon class="cls-128" points="264.19 902.71 426.03 809.28 426.03 755.91 264.19 849.35 264.19 902.71"/><path class="cls-129" d="M211.72,842.85a4.45,4.45,0,0,0-.59,3.15,7.58,7.58,0,0,0,1.07,2.91,7.93,7.93,0,0,0,1,1.23c2.06,2.2,4.75,2.5,6,.67s.64-5.09-1.42-7.29S213,841,211.72,842.85Z"/><path class="cls-130" d="M225.78,851.33a4.45,4.45,0,0,0-.59,3.15,7.58,7.58,0,0,0,1.07,2.91,7.93,7.93,0,0,0,1,1.23c2,2.2,4.75,2.5,6,.67s.64-5.09-1.42-7.29S227.05,849.5,225.78,851.33Z"/><path class="cls-131" d="M239.84,859.52a4.4,4.4,0,0,0-.59,3.15,7.42,7.42,0,0,0,1.07,2.91,7.86,7.86,0,0,0,.94,1.23c2.06,2.2,4.76,2.5,6,.67s.63-5.09-1.43-7.29S241.11,857.69,239.84,859.52Z"/><path class="cls-45" d="M127.87,795.56v4.6a1.6,1.6,0,0,0,.8,1.39L145,811a.83.83,0,0,0,1.24-.71v-4.54a1.9,1.9,0,0,0-1-1.66l-16-9.27A.89.89,0,0,0,127.87,795.56Z"/><path class="cls-132" d="M411,788.6a4.45,4.45,0,0,1,.6,3.15,7.87,7.87,0,0,1-2,4.14c-2.06,2.2-4.76,2.5-6,.67s-.63-5.09,1.43-7.29S409.74,786.77,411,788.6Z"/><path class="cls-133" d="M397,797.08a4.45,4.45,0,0,1,.6,3.15,7.87,7.87,0,0,1-2,4.14c-2.06,2.2-4.75,2.5-6,.67s-.63-5.09,1.43-7.29S395.69,795.25,397,797.08Z"/><path class="cls-134" d="M382.9,805.27a4.45,4.45,0,0,1,.59,3.15,7.58,7.58,0,0,1-1.07,2.91,7.48,7.48,0,0,1-.95,1.23c-2.05,2.2-4.75,2.5-6,.67s-.64-5.09,1.42-7.29S381.63,803.44,382.9,805.27Z"/><path class="cls-45" d="M308.05,848.79v4.6a1.62,1.62,0,0,1-.81,1.39l-16.3,9.42a.82.82,0,0,1-1.23-.71V859a1.91,1.91,0,0,1,1-1.66L306.72,848A.89.89,0,0,1,308.05,848.79Z"/><polygon class="cls-135" points="102.26 809.23 102.26 862.62 264.1 956.06 264.1 902.7 102.26 809.23"/><polygon class="cls-136" points="264.1 956.06 425.94 862.63 425.94 809.26 264.1 902.7 264.1 956.06"/><path class="cls-137" d="M211.64,896.19a4.45,4.45,0,0,0-.6,3.15,7.87,7.87,0,0,0,2,4.14c2.06,2.2,4.76,2.5,6,.67s.63-5.09-1.43-7.29S212.91,894.36,211.64,896.19Z"/><path class="cls-138" d="M225.69,904.67a4.5,4.5,0,0,0-.59,3.15,7.87,7.87,0,0,0,2,4.14c2.06,2.2,4.75,2.5,6,.67s.64-5.09-1.42-7.29S227,902.84,225.69,904.67Z"/><path class="cls-139" d="M239.75,912.86a4.45,4.45,0,0,0-.59,3.15,7.58,7.58,0,0,0,1.07,2.91,7.48,7.48,0,0,0,1,1.23c2,2.2,4.75,2.5,6,.67s.64-5.09-1.42-7.29S241,911,239.75,912.86Z"/><path class="cls-140" d="M127.78,848.9v4.6a1.61,1.61,0,0,0,.8,1.39l16.31,9.42a.82.82,0,0,0,1.23-.71v-4.54a1.93,1.93,0,0,0-1-1.66l-16-9.27A.89.89,0,0,0,127.78,848.9Z"/><path class="cls-141" d="M410.93,841.94a4.5,4.5,0,0,1,.59,3.15,7.44,7.44,0,0,1-1.08,2.91,7.94,7.94,0,0,1-.94,1.24c-2.06,2.19-4.75,2.49-6,.66s-.64-5.09,1.42-7.29S409.66,840.12,410.93,841.94Z"/><path class="cls-142" d="M396.87,850.42a4.45,4.45,0,0,1,.59,3.15,7.52,7.52,0,0,1-1.07,2.91,8,8,0,0,1-.95,1.24c-2.05,2.19-4.75,2.49-6,.66s-.64-5.09,1.42-7.29S395.6,848.6,396.87,850.42Z"/><path class="cls-143" d="M382.81,858.61a4.4,4.4,0,0,1,.59,3.15,7.52,7.52,0,0,1-1.07,2.91,7.94,7.94,0,0,1-.94,1.24c-2.06,2.19-4.76,2.49-6,.66s-.63-5.09,1.42-7.29S381.54,856.79,382.81,858.61Z"/><path class="cls-144" d="M308,902.14v4.6a1.6,1.6,0,0,1-.8,1.38l-16.31,9.42a.82.82,0,0,1-1.23-.71V912.3a1.93,1.93,0,0,1,1-1.67l16.05-9.27A.89.89,0,0,1,308,902.14Z"/><g class="cls-145"><path class="cls-146" d="M58.88,519.29S61,665.59,62,803.05c0,0,2.22-221.41,3.14-283.76Z"/></g><g class="cls-147"><circle class="cls-148" cx="62.01" cy="500.91" r="23.22"/></g><g class="cls-149"><path class="cls-150" d="M1076.3,269.67s2.16,179.8,3.14,348.72c0,0,2.22-272.09,3.14-348.72Z"/></g><g class="cls-151"><circle class="cls-152" cx="1079.44" cy="251.29" r="23.22" transform="translate(658.49 1276.54) rotate(-80.78)"/></g><g class="cls-153"><path class="cls-154" d="M528.67,715.43s1.52,103.47,2.22,200.69c0,0,1.56-156.59,2.21-200.69Z"/></g><g class="cls-155"><circle class="cls-156" cx="530.89" cy="702.43" r="16.42" transform="translate(-274.73 1057.73) rotate(-76.72)"/></g><g class="cls-157"><path class="cls-158" d="M1096.65,822.5l-10,13.27-.48.63-6.08,8.05L1057,839.69a78.77,78.77,0,0,1-13.43,7.3l8.82,10.87,1,1.25-5.74,1.35-35.08,8.18-9.91-12.22a150.42,150.42,0,0,1-18.89.21l-9.38,12.5-38-7.81-1.54-.32-1.72-.36.29-.38,9.1-12.1a81.16,81.16,0,0,1-13.54-6.9l-23.17,5.41-6.82-8.4-10.65-13.13,9.35-2.18,13.65-3.18a23.23,23.23,0,0,1-.34-10.13l-13.63-2.81L888,804.9,904.5,783l22.83,4.69c.89-.63,1.82-1.24,2.76-1.83.33-.22.65-.41,1-.62,1.23-.74,2.49-1.46,3.82-2.16,1.89-1,3.88-2,5.94-2.87l-1.15-1.43-8.49-10.45L972,758.76l9.55,11.78c2.48-.19,5-.33,7.51-.41,3.44-.1,6.88-.09,10.36,0,.58,0,1.18,0,1.76.08l2.54-3.38.18-.25.86-1.15,5.43-7.21,8.29,1.71,32.92,6.78-9,12a86.62,86.62,0,0,1,8,3.7,66.32,66.32,0,0,1,6,3.5l22.34-5.21,17.47,21.53L1084.56,805l-10.88,2.54a23.15,23.15,0,0,1,.14,10.28l12,2.49Z"/></g><path class="cls-159" d="M1098.23,797.23l-10,13.26-.48.64-6.07,8-23.09-4.76a79.25,79.25,0,0,1-13.44,7.3l8.82,10.87,1,1.25-5.74,1.35-35.08,8.18-9.92-12.22a152.18,152.18,0,0,1-18.88.21L976,843.85l-38-7.81-1.55-.31-1.72-.36.29-.38,9.1-12.1a80.66,80.66,0,0,1-13.53-6.9l-23.18,5.4L900.65,813,890,799.86l9.35-2.17L913,794.51a23.08,23.08,0,0,1-.33-10.13L899,781.57l-9.47-2,16.53-22,22.83,4.7c.89-.63,1.82-1.24,2.76-1.83.32-.22.64-.41,1-.62,1.23-.74,2.5-1.47,3.82-2.17,1.89-1,3.88-2,5.95-2.87l-1.16-1.42L932.78,743l40.83-9.53,9.54,11.78c2.49-.19,5-.32,7.51-.4q5.16-.17,10.36,0l1.76.07,2.54-3.37.18-.25.87-1.15,5.42-7.21,8.29,1.7,32.92,6.78-9,12c2.84,1.15,5.52,2.38,8,3.69a66.35,66.35,0,0,1,6,3.51l22.34-5.21L1097.79,777l-11.64,2.71-10.89,2.53a23.05,23.05,0,0,1,.14,10.29l12,2.49Z"/><ellipse class="cls-160" cx="993.72" cy="788.67" rx="32.8" ry="17.39" transform="translate(-7.17 9.12) rotate(-0.52)"/><path class="cls-161" d="M1054,832.59l3.62-2.32C1056.46,831.07,1055.25,831.84,1054,832.59Z"/><path class="cls-162" d="M942.41,754.89c-2.06.9-4,1.86-5.94,2.87-1.32.69-2.59,1.42-3.82,2.16l-1,.61L932.77,743Z"/><path class="cls-163" d="M1053,741.48l-1,15.68q-3.75-2-8-3.69Z"/><path class="cls-164" d="M1097.79,777l-1,15.85-9.35,2.18-12-2.49a23,23,0,0,0-.13-10.28l10.88-2.54Z"/><polygon class="cls-165" points="1098.23 797.23 1097.24 813.07 1080.72 835.02 1081.71 819.18 1087.78 811.12 1098.23 797.23"/><polygon class="cls-166" points="1081.71 819.18 1080.72 835.02 1057.62 830.27 1058.61 814.42 1081.71 819.18"/><path class="cls-167" d="M1058.61,814.43l-1,15.84-3.62,2.32-8.81-10.87A79.34,79.34,0,0,0,1058.61,814.43Z"/><polygon class="cls-168" points="1055.02 833.84 1054.03 849.68 1013.21 859.21 1014.2 843.37 1049.28 835.18 1055.02 833.84"/><polygon class="cls-169" points="1014.2 843.37 1013.21 859.21 1003.29 846.99 1004.28 831.15 1014.2 843.37"/><path class="cls-170" d="M1004.28,831.15l-1,15.84a150.3,150.3,0,0,1-18.88.21l1-15.83A154.13,154.13,0,0,0,1004.28,831.15Z"/><polygon class="cls-171" points="985.4 831.37 984.41 847.21 975.02 859.7 976.01 843.86 985.4 831.37"/><path class="cls-172" d="M944.19,822.88,935.08,835c-1.92-1-3.72-2.06-5.42-3.16l1-15.84A79.64,79.64,0,0,0,944.19,822.88Z"/><polygon class="cls-173" points="976.01 843.86 975.02 859.7 933.8 851.21 934.79 835.37 936.51 835.72 938.05 836.04 976.01 843.86"/><polygon class="cls-174" points="930.65 815.99 929.66 831.83 906.48 837.24 907.47 821.4 930.65 815.99"/><polygon class="cls-175" points="907.47 821.4 906.48 837.24 889.01 815.71 890.01 799.87 900.66 813 907.47 821.4"/><path class="cls-176" d="M913,794.5l-13.65,3.19-10.78-2.22,1-15.84,9.46,1.94,13.64,2.81A23,23,0,0,0,913,794.5Z"/><path class="cls-177" d="M1098.23,797.23l-10,13.26c-46.15-44-101.64-56.14-147-57L932.78,743l40.83-9.53,9.54,11.78c2.49-.19,5-.32,7.51-.4q5.16-.17,10.36,0l1.76.07,2.54-3.37.18-.25.87-1.15,5.42-7.21,8.29,1.7,32.92,6.78-9,12c2.84,1.15,5.52,2.38,8,3.69a66.35,66.35,0,0,1,6,3.51l22.34-5.21L1097.79,777l-11.64,2.71-10.89,2.53a23.05,23.05,0,0,1,.14,10.29l12,2.49Z"/></g></g></svg>