<svg xmlns="http://www.w3.org/2000/svg" width="294.411" height="219.69" viewBox="0 0 294.411 219.69">
  <g id="Group_604" data-name="Group 604" transform="translate(-910.56 -381.082)">
    <path id="Path_8935" data-name="Path 8935" d="M945.266,581.4l-4.07-.1v1.021a3.332,3.332,0,0,1-3.358,3.3h-23.92a3.332,3.332,0,0,1-3.358-3.3v-21.2a3.332,3.332,0,0,1,3.358-3.3h23.92a3.332,3.332,0,0,1,3.358,3.3v12.42l4.6,6.928A.605.605,0,0,1,945.266,581.4Z" transform="translate(0 -132.295)" fill="#006dfe"/>
    <rect id="Rectangle_358" data-name="Rectangle 358" width="171.466" height="125.261" transform="translate(977.424 381.082)" fill="#ebf2fc"/>
    <path id="Path_8936" data-name="Path 8936" d="M1311.017,620.333l-9.632,56.014-9.708-56.021,9.708.718Z" transform="translate(-285.293 -179.092)" fill="#006dfe"/>
    <path id="Path_8937" data-name="Path 8937" d="M1311.017,462.887l-9.632.711-9.708-.718L1301.385,410Z" transform="translate(-285.293 -21.645)" fill="#d3edd5"/>
    <path id="Path_8938" data-name="Path 8938" d="M1275.1,410l-9.708,52.883-8.828-.65Z" transform="translate(-259.009 -21.645)" fill="#006dfe"/>
    <path id="Path_8939" data-name="Path 8939" d="M1275.1,674.412l-18.536-56.671,8.828.65Z" transform="translate(-259.009 -177.156)" fill="#d3edd5"/>
    <path id="Path_8940" data-name="Path 8940" d="M1348.823,462.23l-8.9.657L1330.287,410Z" transform="translate(-314.195 -21.645)" fill="#006dfe"/>
    <path id="Path_8941" data-name="Path 8941" d="M1348.823,617.741l-18.536,56.671,9.632-56.014Z" transform="translate(-314.195 -177.156)" fill="#d3edd5"/>
    <rect id="Rectangle_359" data-name="Rectangle 359" width="81.837" height="107.986" transform="translate(1058.698 389.719)" fill="#b5d4f4"/>
    <rect id="Rectangle_360" data-name="Rectangle 360" width="71.767" height="45.955" transform="translate(1063.733 395.505)" fill="#deecfc"/>
    <rect id="Rectangle_361" data-name="Rectangle 361" width="71.767" height="45.955" transform="translate(1063.733 445.965)" fill="#deecfc"/>
    <rect id="Rectangle_362" data-name="Rectangle 362" width="7.685" height="14.191" transform="translate(1082.016 422.606)" fill="#50cc65"/>
    <rect id="Rectangle_363" data-name="Rectangle 363" width="7.685" height="22.003" transform="translate(1095.774 414.794)" fill="#50cc65"/>
    <rect id="Rectangle_364" data-name="Rectangle 364" width="7.685" height="29.778" transform="translate(1109.532 407.018)" fill="#006dfe"/>
    <g id="Group_570" data-name="Group 570" transform="translate(1067.704 455.335)">
      <path id="Path_8942" data-name="Path 8942" d="M1577.783,703.62c-2.874,0-3.719-5.545-4.7-11.965-1.06-6.964-2.262-14.858-6.473-14.858-3.959,0-5.023,5.714-6.052,11.239-1.053,5.656-2.047,11-5.941,11-5.065,0-5.943-4.146-6.792-8.156-.45-2.124-.914-4.32-2.011-5.8-1.269-1.716-3.343-2.4-6.161-2.029a15.394,15.394,0,0,0-3.928,1.1l-.169-.354c.073-.034,7.346-3.32,10.58,1.055,1.147,1.551,1.621,3.789,2.079,5.953.854,4.034,1.66,7.844,6.4,7.844,3.562,0,4.527-5.186,5.55-10.677,1.058-5.683,2.152-11.56,6.443-11.56,4.553,0,5.729,7.723,6.866,15.191.911,5.982,1.771,11.632,4.3,11.632,2.744,0,3.284-5.456,3.806-10.731.547-5.529,1.113-11.247,4.306-11.247,3.495,0,4.167,5.449,4.761,10.257.453,3.669.881,7.135,2.448,7.135,1.5,0,3.017-2.042,4.375-5.9a47.549,47.549,0,0,0,1.627-6.008l.391.072c-.095.5-2.371,12.231-6.394,12.231-1.92,0-2.347-3.466-2.843-7.479-.573-4.647-1.224-9.913-4.366-9.913-2.833,0-3.38,5.538-3.91,10.893C1581.421,698.236,1580.888,703.62,1577.783,703.62Z" transform="translate(-1535.561 -676.406)" fill="#50cc65"/>
    </g>
    <g id="Group_571" data-name="Group 571" transform="translate(1067.594 457.468)">
      <path id="Path_8943" data-name="Path 8943" d="M1556.837,707.61c-3.1,0-3.661-4.7-4.2-9.254-.528-4.446-1.075-9.044-3.91-9.044-3.147,0-3.795,4.372-4.367,8.229-.5,3.354-.927,6.251-2.842,6.251-4.017,0-6.3-9.786-6.392-10.2l.388-.086c.023.1,2.3,9.9,6,9.9,1.571,0,2-2.874,2.448-5.916.6-4.014,1.27-8.564,4.761-8.564,3.19,0,3.757,4.774,4.306,9.39.521,4.379,1.059,8.908,3.807,8.908,2.537,0,3.4-4.693,4.3-9.662,1.086-5.939,2.317-12.669,6.866-12.669,4.285,0,5.381,4.9,6.441,9.645,1.02,4.561,1.983,8.869,5.551,8.869,4.748,0,5.552-3.163,6.4-6.512a11.755,11.755,0,0,1,2.088-4.975c1.343-1.512,3.6-2.141,6.53-1.82a17.866,17.866,0,0,1,4.027.94l-.145.365c-.071-.027-7.068-2.656-10.112.773a11.477,11.477,0,0,0-2,4.813c-.851,3.347-1.731,6.808-6.79,6.808-3.888,0-4.931-4.665-5.939-9.176-1.027-4.591-2.089-9.337-6.053-9.337-4.216,0-5.416,6.56-6.474,12.347C1560.594,702.76,1559.707,707.61,1556.837,707.61Z" transform="translate(-1535.124 -684.887)" fill="#f9c32b"/>
    </g>
    <ellipse id="Ellipse_141" data-name="Ellipse 141" cx="1.011" cy="0.995" rx="1.011" ry="0.995" transform="translate(1049.91 406.018)" fill="#f9c32b"/>
    <g id="Group_572" data-name="Group 572" transform="translate(1040.283 405.938)">
      <path id="Path_8944" data-name="Path 8944" d="M1433.641,480.334H1426.7a.2.2,0,1,1,0-.391h6.939a.2.2,0,1,1,0,.391Z" transform="translate(-1426.503 -479.942)" fill="#98c9f9"/>
    </g>
    <g id="Group_573" data-name="Group 573" transform="translate(1040.283 407.811)">
      <path id="Path_8945" data-name="Path 8945" d="M1433.641,487.782H1426.7a.2.2,0,1,1,0-.391h6.939a.2.2,0,1,1,0,.391Z" transform="translate(-1426.503 -487.39)" fill="#98c9f9"/>
    </g>
    <g id="Group_574" data-name="Group 574" transform="translate(1040.283 409.684)">
      <path id="Path_8946" data-name="Path 8946" d="M1439.162,495.231H1426.7a.2.2,0,1,1,0-.391h12.46a.2.2,0,1,1,0,.391Z" transform="translate(-1426.503 -494.839)" fill="#98c9f9"/>
    </g>
    <g id="Group_575" data-name="Group 575" transform="translate(1040.283 411.557)">
      <path id="Path_8947" data-name="Path 8947" d="M1439.162,502.68H1426.7a.2.2,0,1,1,0-.391h12.46a.2.2,0,1,1,0,.391Z" transform="translate(-1426.503 -502.288)" fill="#98c9f9"/>
    </g>
    <ellipse id="Ellipse_142" data-name="Ellipse 142" cx="1.011" cy="0.995" rx="1.011" ry="0.995" transform="translate(1046.526 474.812)" fill="#50cc65"/>
    <g id="Group_576" data-name="Group 576" transform="translate(1036.9 474.733)">
      <path id="Path_8948" data-name="Path 8948" d="M1420.184,753.948h-6.939a.2.2,0,1,1,0-.391h6.939a.2.2,0,1,1,0,.391Z" transform="translate(-1413.046 -753.556)" fill="#98c9f9"/>
    </g>
    <g id="Group_577" data-name="Group 577" transform="translate(1036.9 476.606)">
      <path id="Path_8949" data-name="Path 8949" d="M1420.184,761.4h-6.939a.2.2,0,1,1,0-.391h6.939a.2.2,0,1,1,0,.391Z" transform="translate(-1413.046 -761.004)" fill="#98c9f9"/>
    </g>
    <g id="Group_578" data-name="Group 578" transform="translate(1036.9 478.479)">
      <path id="Path_8950" data-name="Path 8950" d="M1425.705,768.844h-12.46a.2.2,0,1,1,0-.391h12.46a.2.2,0,1,1,0,.391Z" transform="translate(-1413.046 -768.453)" fill="#98c9f9"/>
    </g>
    <g id="Group_579" data-name="Group 579" transform="translate(1036.9 480.351)">
      <path id="Path_8951" data-name="Path 8951" d="M1425.705,776.292h-12.46a.2.2,0,1,1,0-.391h12.46a.2.2,0,1,1,0,.391Z" transform="translate(-1413.046 -775.901)" fill="#98c9f9"/>
    </g>
    <g id="Group_580" data-name="Group 580" transform="translate(1014.252 407.811)">
      <path id="Path_8952" data-name="Path 8952" d="M1323.169,493.868a.2.2,0,0,1-.091-.022.194.194,0,0,1-.086-.263l3.238-6.193h18.954a.2.2,0,1,1,0,.391h-18.711l-3.127,5.981A.2.2,0,0,1,1323.169,493.868Z" transform="translate(-1322.97 -487.39)" fill="#f9c32b"/>
    </g>
    <g id="Group_581" data-name="Group 581" transform="translate(1015.313 470.093)">
      <path id="Path_8953" data-name="Path 8953" d="M1345.159,742.91h-7.991l-9.9-7.456a.193.193,0,0,1-.037-.274.2.2,0,0,1,.279-.036l9.794,7.375h7.856a.2.2,0,1,1,0,.391Z" transform="translate(-1327.189 -735.103)" fill="#f9c32b"/>
    </g>
    <path id="Path_8954" data-name="Path 8954" d="M963.3,611.944,961.483,622.5l-1.83-10.561,1.83.135Z" transform="translate(-36.75 -172.816)" fill="#525f81"/>
    <path id="Path_8955" data-name="Path 8955" d="M963.3,582.263l-1.816.134-1.83-.135,1.83-9.969Z" transform="translate(-36.75 -143.135)" fill="#d3edd5"/>
    <path id="Path_8956" data-name="Path 8956" d="M956.529,572.293l-1.83,9.969-1.664-.122Z" transform="translate(-31.795 -143.135)" fill="#525f81"/>
    <path id="Path_8957" data-name="Path 8957" d="M956.529,622.138l-3.494-10.683,1.664.123Z" transform="translate(-31.795 -172.451)" fill="#d3edd5"/>
    <path id="Path_8958" data-name="Path 8958" d="M970.426,582.14l-1.678.124-1.816-9.97Z" transform="translate(-42.198 -143.135)" fill="#525f81"/>
    <path id="Path_8959" data-name="Path 8959" d="M970.426,611.455l-3.494,10.683,1.816-10.559Z" transform="translate(-42.198 -172.451)" fill="#d3edd5"/>
    <rect id="Rectangle_365" data-name="Rectangle 365" width="71.394" height="51.172" transform="translate(1026.128 501.121)" fill="#f9c32b"/>
    <path id="Path_8960" data-name="Path 8960" d="M1018.877,857.267v20.938a3.112,3.112,0,0,1-3.139,3.085H921.909a3.112,3.112,0,0,1-3.139-3.085V857.267a3.113,3.113,0,0,1,3.139-3.088h93.828A3.113,3.113,0,0,1,1018.877,857.267Z" transform="translate(-6.146 -354.146)" fill="#006dfe"/>
    <ellipse id="Ellipse_143" data-name="Ellipse 143" cx="1.736" cy="1.708" rx="1.736" ry="1.708" transform="translate(918.68 511.278)" fill="#d3edd5"/>
    <ellipse id="Ellipse_144" data-name="Ellipse 144" cx="1.736" cy="1.708" rx="1.736" ry="1.708" transform="translate(926.492 511.278)" fill="#d3edd5"/>
    <ellipse id="Ellipse_145" data-name="Ellipse 145" cx="1.736" cy="1.708" rx="1.736" ry="1.708" transform="translate(934.304 511.278)" fill="#d3edd5"/>
    <rect id="Rectangle_366" data-name="Rectangle 366" width="26.305" height="3.416" rx="1.708" transform="translate(977.409 511.278)" fill="#1a841a"/>
    <rect id="Rectangle_367" data-name="Rectangle 367" width="100.105" height="27.111" rx="13.556" transform="translate(912.012 526.542)" fill="#006dfe"/>
    <ellipse id="Ellipse_146" data-name="Ellipse 146" cx="1.736" cy="1.708" rx="1.736" ry="1.708" transform="translate(918.68 538.389)" fill="#d3edd5"/>
    <ellipse id="Ellipse_147" data-name="Ellipse 147" cx="1.736" cy="1.708" rx="1.736" ry="1.708" transform="translate(926.492 538.389)" fill="#d3edd5"/>
    <ellipse id="Ellipse_148" data-name="Ellipse 148" cx="1.736" cy="1.708" rx="1.736" ry="1.708" transform="translate(934.304 538.389)" fill="#d3edd5"/>
    <rect id="Rectangle_368" data-name="Rectangle 368" width="26.305" height="3.416" rx="1.708" transform="translate(977.409 538.389)" fill="#1a841a"/>
    <rect id="Rectangle_369" data-name="Rectangle 369" width="100.105" height="27.111" rx="13.556" transform="translate(912.012 553.653)" fill="#006dfe"/>
    <ellipse id="Ellipse_149" data-name="Ellipse 149" cx="1.736" cy="1.708" rx="1.736" ry="1.708" transform="translate(918.68 565.501)" fill="#d3edd5"/>
    <ellipse id="Ellipse_150" data-name="Ellipse 150" cx="1.736" cy="1.708" rx="1.736" ry="1.708" transform="translate(926.492 565.501)" fill="#d3edd5"/>
    <ellipse id="Ellipse_151" data-name="Ellipse 151" cx="1.736" cy="1.708" rx="1.736" ry="1.708" transform="translate(934.304 565.501)" fill="#d3edd5"/>
    <rect id="Rectangle_370" data-name="Rectangle 370" width="26.305" height="3.416" rx="1.708" transform="translate(977.409 565.501)" fill="#1a841a"/>
    <rect id="Rectangle_371" data-name="Rectangle 371" width="100.105" height="27.111" rx="13.556" transform="translate(1104.866 526.542)" fill="#006dfe"/>
    <ellipse id="Ellipse_152" data-name="Ellipse 152" cx="1.736" cy="1.708" rx="1.736" ry="1.708" transform="translate(1111.534 538.389)" fill="#d3edd5"/>
    <ellipse id="Ellipse_153" data-name="Ellipse 153" cx="1.736" cy="1.708" rx="1.736" ry="1.708" transform="translate(1119.346 538.389)" fill="#d3edd5"/>
    <ellipse id="Ellipse_154" data-name="Ellipse 154" cx="1.736" cy="1.708" rx="1.736" ry="1.708" transform="translate(1127.158 538.389)" fill="#d3edd5"/>
    <rect id="Rectangle_372" data-name="Rectangle 372" width="26.305" height="3.416" rx="1.708" transform="translate(1170.263 538.389)" fill="#1a841a"/>
    <rect id="Rectangle_373" data-name="Rectangle 373" width="100.105" height="27.111" rx="13.556" transform="translate(1104.866 553.653)" fill="#006dfe"/>
    <ellipse id="Ellipse_155" data-name="Ellipse 155" cx="1.736" cy="1.708" rx="1.736" ry="1.708" transform="translate(1111.534 565.501)" fill="#d3edd5"/>
    <ellipse id="Ellipse_156" data-name="Ellipse 156" cx="1.736" cy="1.708" rx="1.736" ry="1.708" transform="translate(1119.346 565.501)" fill="#d3edd5"/>
    <ellipse id="Ellipse_157" data-name="Ellipse 157" cx="1.736" cy="1.708" rx="1.736" ry="1.708" transform="translate(1127.158 565.501)" fill="#d3edd5"/>
    <rect id="Rectangle_374" data-name="Rectangle 374" width="26.305" height="3.416" rx="1.708" transform="translate(1170.263 565.501)" fill="#1a841a"/>
    <g id="Group_582" data-name="Group 582" transform="translate(924.075 570.697)">
      <path id="Path_8961" data-name="Path 8961" d="M1004.155,1165.3a148.524,148.524,0,0,1-19.825-1.225c-12.179-1.659-19.452-4.736-19.954-8.441-.569-4.2,2.708-6.38,5.877-8.491,2.594-1.728,5.045-3.361,5.194-5.966.266-4.634,3.368-5.9,3.5-5.952l.294.727-.147-.364.149.363c-.113.045-2.765,1.156-3,5.27-.171,2.992-2.9,4.811-5.542,6.571-3.105,2.069-6.038,4.023-5.534,7.74.438,3.232,7.823,6.209,19.274,7.769,12.938,1.762,29.195,1.607,45.775-.439l5.672-.7c24.417-3,43.7-5.365,44.377-8.587.162-.774-1.019-1.637-2.037-2.225-3.865-2.23-5.687-5.081-5-7.821,1.085-4.3,7.948-7.248,17.911-7.682,14.1-.614,31.2.22,33.009,4.592.475,1.151-.074,2.426-1.633,3.79-2.822,2.469-7.573,4.658-12.168,6.775-5.212,2.4-10.6,4.884-10.576,6.931.01.839.98,1.683,2.885,2.508,6.673,2.89,24.208-.833,41.163-4.434,14.948-3.174,29.066-6.172,36.521-5.021,4.438.686,8.13,1.471,11.387,2.164,8.688,1.849,14.964,3.184,27.278,1.165,10.688-1.754,13.776-4.255,14.484-6.045a3.431,3.431,0,0,0-.834-3.479,5.011,5.011,0,0,0-2.9-1.692,10.217,10.217,0,0,1-5.454-3.51l.606-.507a9.412,9.412,0,0,0,5.083,3.269,5.786,5.786,0,0,1,3.289,1.957,4.2,4.2,0,0,1,.948,4.245c-1.139,2.879-6.217,5.077-15.095,6.533-12.463,2.045-18.8.7-27.577-1.172-3.246-.691-6.926-1.474-11.342-2.156-7.306-1.13-22.01,1.993-36.229,5.013-17.08,3.627-34.742,7.378-41.652,4.385-2.246-.973-3.346-2.025-3.36-3.215-.03-2.551,5.1-4.913,11.034-7.649,4.544-2.094,9.242-4.258,11.976-6.651,1.28-1.12,1.759-2.1,1.424-2.911-1.314-3.186-14.571-4.875-32.236-4.1-11.472.5-16.393,3.989-17.174,7.088-.6,2.379,1.086,4.915,4.626,6.957,1.834,1.058,2.624,2.058,2.414,3.058-.756,3.612-15.161,5.536-45.058,9.206l-5.671.7A215.613,215.613,0,0,1,1004.155,1165.3Z" transform="translate(-964.311 -1135.228)" fill="#b5d4f4"/>
    </g>
    <g id="Group_583" data-name="Group 583" transform="translate(1035.794 512.368)">
      <path id="Path_8962" data-name="Path 8962" d="M1409,931.4a.358.358,0,0,1-.23-.084.346.346,0,0,1-.04-.493l11.192-12.891h11l5.919-7.222h13.771l8.66-7.386a.36.36,0,0,1,.5.035.346.346,0,0,1-.036.493l-8.861,7.557h-13.7l-5.92,7.222h-11.016l-10.979,12.646A.357.357,0,0,1,1409,931.4Z" transform="translate(-1408.649 -903.239)" fill="#fff8e6"/>
    </g>
    <path id="Path_8963" data-name="Path 8963" d="M1606.18,899.411l1.962,1.858.435-2.377Z" transform="translate(-520.72 -387.617)" fill="#fff8e6"/>
    <g id="Group_587" data-name="Group 587" transform="translate(1047.057 528.401)">
      <g id="Group_584" data-name="Group 584" transform="translate(0)">
        <rect id="Rectangle_375" data-name="Rectangle 375" width="0.355" height="0.874" fill="#fff8e6"/>
      </g>
      <g id="Group_585" data-name="Group 585" transform="translate(0 2.88)">
        <path id="Path_8964" data-name="Path 8964" d="M1453.8,984.48h-.355v-2.006h.355Zm0-4.012h-.355v-2.006h.355Z" transform="translate(-1453.445 -978.461)" fill="#fff8e6"/>
      </g>
      <g id="Group_586" data-name="Group 586" transform="translate(0 10.904)">
        <rect id="Rectangle_376" data-name="Rectangle 376" width="0.355" height="0.874" fill="#fff8e6"/>
      </g>
    </g>
    <g id="Group_591" data-name="Group 591" transform="translate(1058.067 528.401)">
      <g id="Group_588" data-name="Group 588" transform="translate(0)">
        <rect id="Rectangle_377" data-name="Rectangle 377" width="0.355" height="0.874" fill="#fff8e6"/>
      </g>
      <g id="Group_589" data-name="Group 589" transform="translate(0 2.88)">
        <path id="Path_8965" data-name="Path 8965" d="M1497.589,984.48h-.355v-2.006h.355Zm0-4.012h-.355v-2.006h.355Z" transform="translate(-1497.234 -978.461)" fill="#fff8e6"/>
      </g>
      <g id="Group_590" data-name="Group 590" transform="translate(0 10.904)">
        <rect id="Rectangle_378" data-name="Rectangle 378" width="0.355" height="0.874" fill="#fff8e6"/>
      </g>
    </g>
    <g id="Group_595" data-name="Group 595" transform="translate(1063.987 521.179)">
      <g id="Group_592" data-name="Group 592" transform="translate(0 0)">
        <rect id="Rectangle_379" data-name="Rectangle 379" width="0.355" height="0.874" fill="#fff8e6"/>
      </g>
      <g id="Group_593" data-name="Group 593" transform="translate(0 2.791)">
        <path id="Path_8966" data-name="Path 8966" d="M1521.133,962.8h-.355v-1.917h.355Zm0-3.834h-.355v-1.917h.355Zm0-3.834h-.355v-1.917h.355Zm0-3.834h-.355v-1.917h.355Z" transform="translate(-1520.778 -949.385)" fill="#fff8e6"/>
      </g>
      <g id="Group_594" data-name="Group 594" transform="translate(0 18.126)">
        <rect id="Rectangle_380" data-name="Rectangle 380" width="0.355" height="0.874" fill="#fff8e6"/>
      </g>
    </g>
    <g id="Group_599" data-name="Group 599" transform="translate(1077.72 521.179)">
      <g id="Group_596" data-name="Group 596" transform="translate(0 0)">
        <rect id="Rectangle_381" data-name="Rectangle 381" width="0.355" height="0.874" fill="#fff8e6"/>
      </g>
      <g id="Group_597" data-name="Group 597" transform="translate(0 2.791)">
        <path id="Path_8967" data-name="Path 8967" d="M1575.752,962.8h-.355v-1.917h.355Zm0-3.834h-.355v-1.917h.355Zm0-3.834h-.355v-1.917h.355Zm0-3.834h-.355v-1.917h.355Z" transform="translate(-1575.397 -949.385)" fill="#fff8e6"/>
      </g>
      <g id="Group_598" data-name="Group 598" transform="translate(0 18.126)">
        <rect id="Rectangle_382" data-name="Rectangle 382" width="0.355" height="0.874" fill="#fff8e6"/>
      </g>
    </g>
    <ellipse id="Ellipse_158" data-name="Ellipse 158" cx="1.26" cy="1.239" rx="1.26" ry="1.239" transform="translate(1043.418 507.629)" fill="#50cc65"/>
    <g id="Group_600" data-name="Group 600" transform="translate(1031.422 507.53)">
      <path id="Path_8968" data-name="Path 8968" d="M1400.154,884.487h-8.647a.244.244,0,1,1,0-.488h8.647a.244.244,0,1,1,0,.488Z" transform="translate(-1391.259 -883.999)" fill="#d3edd5"/>
    </g>
    <g id="Group_601" data-name="Group 601" transform="translate(1031.422 509.864)">
      <path id="Path_8969" data-name="Path 8969" d="M1400.154,893.768h-8.647a.244.244,0,1,1,0-.488h8.647a.244.244,0,1,1,0,.488Z" transform="translate(-1391.259 -893.28)" fill="#d3edd5"/>
    </g>
    <g id="Group_602" data-name="Group 602" transform="translate(1031.422 512.198)">
      <path id="Path_8970" data-name="Path 8970" d="M1407.034,903.05h-15.527a.244.244,0,1,1,0-.488h15.527a.244.244,0,1,1,0,.488Z" transform="translate(-1391.259 -902.562)" fill="#d3edd5"/>
    </g>
    <g id="Group_603" data-name="Group 603" transform="translate(1031.422 514.532)">
      <path id="Path_8971" data-name="Path 8971" d="M1407.034,912.333h-15.527a.244.244,0,1,1,0-.488h15.527a.244.244,0,1,1,0,.488Z" transform="translate(-1391.259 -911.845)" fill="#d3edd5"/>
    </g>
    <path id="Path_8972" data-name="Path 8972" d="M1838.056,1207.239a5.576,5.576,0,0,1,.845,3.5c-.171,2.1-1.452,3.444-3.927,3.36s-16.009-4.116-15.838-5.754,12.75-1.431,12.75-1.431l4.539-1.8Z" transform="translate(-680.132 -616.841)" fill="#f9c32b"/>
    <path id="Path_8973" data-name="Path 8973" d="M1862.279,1038.728l1.9,40.886s.568.885,3.044.885,3.125-.556,3.125-.556.376-14.312.29-21.452.922-19.6.922-19.6l-2.971-3.836Z" transform="translate(-712.429 -489.545)" fill="#f995a6"/>
    <path id="Path_8974" data-name="Path 8974" d="M1785.579,1217.3a5.9,5.9,0,0,1,.895,3.7c-.181,2.223-1.536,3.645-4.157,3.557s-16.944-4.357-16.763-6.09,13.5-1.515,13.5-1.515l4.8-1.908Z" transform="translate(-640.022 -624.278)" fill="#f9c32b"/>
    <path id="Path_8975" data-name="Path 8975" d="M1811.218,1038.943l2.016,43.275s.6.937,3.222.937,3.307-.589,3.307-.589.4-15.148.307-22.705.976-20.746.976-20.746l-3.145-4.06Z" transform="translate(-674.206 -489.545)" fill="#f995a6"/>
    <path id="Path_8976" data-name="Path 8976" d="M1826.978,946.523s-1.355.889-14.188,2.134-17.35-1.6-17.622-1.778,1.084-6.4,1.446-12.892.661-14.709.661-14.709l1.084-4.435,11.325-.978,9.279-.8,7.229,3.731a10.429,10.429,0,0,1,.264,3.795c-.029.388-.076.8-.141,1.245a40.6,40.6,0,0,0-.152,11.352C1826.707,938.166,1826.978,946.523,1826.978,946.523Z" transform="translate(-662.165 -398.227)" fill="#0e4713"/>
    <path id="Path_8977" data-name="Path 8977" d="M1861.4,897.785a8.389,8.389,0,0,1-1.569.651,10.434,10.434,0,0,1,.264,3.795c-4.186,1.295-10.2.9-12.673-1.006-2.653-2.041-6.958-2.507-7.327-2.546h-.025l3.253-3.172,7.143-6.967,9.951.345C1861.977,896.2,1861.4,897.785,1861.4,897.785Z" transform="translate(-695.805 -379.867)" fill="#033305"/>
    <path id="Path_8978" data-name="Path 8978" d="M1780.165,742.732a3.382,3.382,0,0,0-.076.524c-.111,2.09,1.846,4.126,2.709,6.455a6.383,6.383,0,0,1,.318,1.139,7.289,7.289,0,0,1,.092.771,40.071,40.071,0,0,1-.855,7.672l-.911.2L1775.9,731.8l8.363-.9a13.089,13.089,0,0,0-.835,1.245C1781.112,736.015,1780.595,740.881,1780.165,742.732Z" transform="translate(-647.765 -261.857)" fill="#50cc65"/>
    <path id="Path_8979" data-name="Path 8979" d="M1745.166,711.786s-2.712,7.61-6.778,6.277-10.874-23.842-11.959-24.761-2.289-1.393-2.319-3.438,2.41-2.341,2.259-4.208-1.747-5.512-1.024-5.631,2.892,4.742,3.555,7.32.633,4.645,1.175,5.868,9.037,14.4,9.037,14.4l6.055.119Z" transform="translate(-608.999 -223.778)" fill="#f995a6"/>
    <path id="Path_8980" data-name="Path 8980" d="M1888.2,782.965s.295,4.608-.94,5.616-3.554.444-3.554.444l-2.289-3.586,4.157-5.571a10.658,10.658,0,0,1,1.687,0C1887.348,779.956,1888.2,782.965,1888.2,782.965Z" transform="translate(-726.753 -298.489)" fill="#f995a6"/>
    <path id="Path_8981" data-name="Path 8981" d="M1882.916,725.685a18.42,18.42,0,0,1,2.731,7.281,73.967,73.967,0,0,1,.9,9.128s-1.024,1.067-4.639.533-3.494-6.164-3.494-6.164Z" transform="translate(-724.509 -257.96)" fill="#f79200"/>
    <path id="Path_8982" data-name="Path 8982" d="M1826.551,687.737a9.347,9.347,0,0,1,.183,1.916,12.982,12.982,0,0,1-.422,2.7l6.16,2.741,3.356-4.076a33.969,33.969,0,0,0-.238-5.215c-.316-1.245-2.53-1.334-2.756-1.423s-7.6,1.067-7.6,1.067Z" transform="translate(-684.694 -227.034)" fill="#f77c96"/>
    <path id="Path_8983" data-name="Path 8983" d="M1815.349,655.89a21.7,21.7,0,0,1-9.7.814,24.56,24.56,0,0,1-.072-7.134,18.849,18.849,0,0,1,2.3-6.586s4.941-.327,5.18,2.461-1.927,4.8-.961,7.113A6.743,6.743,0,0,0,1815.349,655.89Z" transform="translate(-669.817 -196.043)" fill="#f995a6"/>
    <path id="Path_8984" data-name="Path 8984" d="M1833.248,629.887c.546.576-1.1,3.439-1.24,5.921a7.094,7.094,0,0,1-3.893,3.19,6.968,6.968,0,0,1-5.245-.281,6.743,6.743,0,0,1-3.25-3.332c-.965-2.312,1.2-4.328.961-7.113s-5.18-2.461-5.18-2.461.473-3.827,6.445-5.363c5.531-1.422,9.6.928,11.206,5.036a8.573,8.573,0,0,1,.427,1.487,7.922,7.922,0,0,0-2.176-.064s-.513-.071-.481,1.291.282,1.387.282,1.387S1832.568,629.175,1833.248,629.887Z" transform="translate(-677.338 -178.87)" fill="#593e01"/>
    <path id="Path_8985" data-name="Path 8985" d="M1882.5,660.059s-3.423.427-4.388-2.241a4.2,4.2,0,0,1-.2-1.679c.145-2.482,1.786-5.345,1.24-5.921-.68-.711-2.143-.3-2.143-.3s-.253-.025-.282-1.387.481-1.291.481-1.291a7.925,7.925,0,0,1,2.176.064,3.3,3.3,0,0,1,2.975,2.5c.542,2.682-1.088,4.154-1.323,6.345A5.24,5.24,0,0,0,1882.5,660.059Z" transform="translate(-723.244 -199.202)" fill="#684602"/>
    <path id="Path_8986" data-name="Path 8986" d="M1825.834,764.222a8.412,8.412,0,0,1-1.568.65,26,26,0,0,1-10.547.775,67.2,67.2,0,0,0-9.191-.532,30.045,30.045,0,0,0-4.961.716,14.032,14.032,0,0,0-4.222,1.526,7.092,7.092,0,0,0-1.806,1.37,72.527,72.527,0,0,1,0-15.912c.386-3.527.871-6.537,1.285-9.073a40.05,40.05,0,0,0,.855-7.672,5.49,5.49,0,0,0,3.163,0,54.866,54.866,0,0,0,2.077-6.412c.259-.967.513-2.016.752-3.132,1.209-5.629.525-6,.525-6a6.8,6.8,0,0,1-.143,1.746,47.7,47.7,0,0,1-1.409,4.627c-1.214,3.527-2.706,7.39-2.706,7.39a8.315,8.315,0,0,1-2.67-.133c-.863-2.329-2.821-4.365-2.709-6.455a3.337,3.337,0,0,1,.076-.524c.43-1.852.947-6.717,3.258-10.6a13.168,13.168,0,0,1,.836-1.245,10.461,10.461,0,0,1,3.016-2.74l.123-.074a18.108,18.108,0,0,1,13.929-1.738c1.91.524,3.159.951,4.424,2.6,2.359,3.057,1.317,10.177,1.269,14.918s-2.459,8.537-.648,12.687,4.218,6.161,5.9,13.869c.032.157.072.309.1.462C1826.407,762.633,1825.834,764.222,1825.834,764.222Z" transform="translate(-660.236 -246.304)" fill="#f9c32b"/>
    <path id="Path_8987" data-name="Path 8987" d="M1790.818,740.52c-.665,3.1-4.114,12.017-4.114,12.017a8.39,8.39,0,0,1-2.668-.132,11.82,11.82,0,0,1-3-1c-.2-.1-.383-.2-.56-.3,0,0,0,0,0,0a5.487,5.487,0,0,1-2.928-3.613s1.384-3.852,3.774-9.069a7.886,7.886,0,0,1,2.089-2.838,4.85,4.85,0,0,1,1.251-.761,4.558,4.558,0,0,1,6.3,3.944A6.653,6.653,0,0,1,1790.818,740.52Z" transform="translate(-649.002 -264.549)" fill="#f9c32b"/>
    <path id="Path_8988" data-name="Path 8988" d="M1809.752,757.532c-.239,1.116-.493,2.165-.752,3.132-.143.556-.29,1.084-.438,1.577-.072.243-.143.482-.211.709-.044.153-.092.3-.139.45-.036.121-.076.239-.112.352-.131.415-.254.794-.374,1.139-.048.137-.091.27-.135.4-.1.3-.2.56-.283.787-.04.11-.079.211-.111.3s-.068.172-.091.243c-.115.3-.183.458-.183.458a5.491,5.491,0,0,1-3.163,0,7.322,7.322,0,0,0-.091-.771,6.4,6.4,0,0,0-.318-1.139,8.312,8.312,0,0,0,2.669.133s.04-.106.115-.3c.02-.051.04-.106.068-.172.012-.039.028-.078.044-.121s.032-.078.048-.121c.052-.141.115-.3.183-.482.028-.07.052-.137.08-.211.087-.231.183-.481.282-.752.048-.129.1-.262.147-.4.147-.387.3-.806.461-1.245.068-.18.135-.368.2-.556.028-.078.056-.161.088-.243.084-.227.167-.462.255-.7.064-.176.127-.356.191-.536.056-.16.115-.325.171-.486.124-.356.247-.712.37-1.065a47.706,47.706,0,0,0,1.409-4.627,6.8,6.8,0,0,0,.143-1.746S1810.961,751.9,1809.752,757.532Z" transform="translate(-668.316 -277.31)" fill="#f79200"/>
    <path id="Path_8989" data-name="Path 8989" d="M1201.7,735.27a4.44,4.44,0,0,1-.649,1.621c-.573.834-1.3.947-1.77,1.366a4.548,4.548,0,0,0-.828,2.364s-2.785.716-3,.752-1.556-2.032-1.556-2.032.736-2.016.107-2.6a2.069,2.069,0,0,1-.466-1.648,1.068,1.068,0,0,0,.111-.031c.354-.1,1.46-.49,1.615-1.484a2.993,2.993,0,0,0-.171-2.016.2.2,0,0,0-.028-.039,3.955,3.955,0,0,1,3.744-.881,3.372,3.372,0,0,1,2.944,2.572A4.857,4.857,0,0,1,1201.7,735.27Z" transform="translate(-211.82 -261.582)" fill="#f995a6"/>
    <path id="Path_8990" data-name="Path 8990" d="M1085.2,970.6s-.664.912-4.973,1.957a9.084,9.084,0,0,1-2.208.262,8.6,8.6,0,0,1-4.106-1.073,6.04,6.04,0,0,1-.847-.56s.032-1.491.044-4.051c.032-5.1-.008-14.44-.5-24.625-.1-2.133-.223-4.3-.37-6.478v0c0-.09-.012-.18-.02-.266-.048-.716-.1-1.437-.151-2.153-1.393-18.593-5.272-21.333-7.758-26.129a13.775,13.775,0,0,1-.891-9.716l.374-2.313.036-.211.481-2.994,3.123,1.237,8.431,3.343,8.2,3.249,1.11,69.058Z" transform="translate(-114.05 -382.641)" fill="#0e4713"/>
    <path id="Path_8991" data-name="Path 8991" d="M1047.309,941.576l-1.3,24.5-.076,1.409s-.7.834-4.9,1.558a8.31,8.31,0,0,1-6-1.186,5.424,5.424,0,0,1-.776-.587s1.643-18.182,1.544-36.106-3.64-20.8-5.705-25.557a13.23,13.23,0,0,1-.211-9.375L1031.1,891l7.186,3.421-3,1.46a16.561,16.561,0,0,0,1.627,12.33c3.581,5.872,9.613,19.869,10,26.618.008.086.016.176.02.266v0C1047.087,937.274,1047.206,939.443,1047.309,941.576Z" transform="translate(-88.748 -381.708)" fill="#0e4713"/>
    <path id="Path_8992" data-name="Path 8992" d="M1109.231,1207.163c-4.293.078-5.021-2.215-4.9-4.1a7.836,7.836,0,0,1,.573-2.415,8.6,8.6,0,0,0,4.106,1.073,9.082,9.082,0,0,0,2.208-.262c4.309-1.045,4.973-1.957,4.973-1.957l-.024-1.468s12.688-.164,13.122,1.762S1116.492,1207.034,1109.231,1207.163Z" transform="translate(-145.044 -611.541)" fill="#f7b81c"/>
    <path id="Path_8993" data-name="Path 8993" d="M1063.957,1194.339a7.845,7.845,0,0,0-.573,2.415,35.791,35.791,0,0,1-9.29,1.163c-6.975-.341-3.716-6.533-3.716-6.533a8.308,8.308,0,0,0,6,1.186c4.206-.724,4.9-1.558,4.9-1.558l.075-1.409s.712.039,1.8.125c-.012,2.56-.044,4.051-.044,4.051A6.067,6.067,0,0,0,1063.957,1194.339Z" transform="translate(-104.095 -605.235)" fill="#f7b81c"/>
    <path id="Path_8994" data-name="Path 8994" d="M1063.728,945.013c-.386-6.748-6.417-20.746-10-26.618a16.561,16.561,0,0,1-1.627-12.33l3-1.46.2.1-.374,2.313a13.775,13.775,0,0,0,.891,9.716c2.487,4.8,6.366,7.535,7.758,26.129C1063.629,943.577,1063.681,944.3,1063.728,945.013Z" transform="translate(-105.556 -391.894)" fill="#033305"/>
    <path id="Path_8995" data-name="Path 8995" d="M1214.677,620.927s2.03-3.062,4.682-3.584,5.239-1.044,6.963-2.805,2.122-1.827,1.575-.506-4.575,4.453-4.774,5.969-.846,3.229-2.387,3.278a3.909,3.909,0,0,0-2.561,1.2,21.618,21.618,0,0,1-3.059-.316C1215.115,624.014,1214.677,620.927,1214.677,620.927Z" transform="translate(-227.653 -173.696)" fill="#f995a6"/>
    <path id="Path_8996" data-name="Path 8996" d="M1070.876,665.629s12.975-5.245,19.165-9.676,15.833-12.427,15.833-12.427a4.848,4.848,0,0,1,3.52,1.6,6.25,6.25,0,0,1,1.392,3.371s-13.673,13.617-19,15.953-15.948,3.705-15.948,3.705Z" transform="translate(-120.008 -196.458)" fill="#3aaf4b"/>
    <path id="Path_8997" data-name="Path 8997" d="M1107.847,696.169a13.454,13.454,0,0,0-.526,2.915,27.3,27.3,0,0,0,.263,3.817l-9.58-1.924a28.079,28.079,0,0,1,.564-4.807c.464-1.75,3.216-4.619,3.216-4.619l5.377,1.554Z" transform="translate(-140.315 -232.407)" fill="#f77c96"/>
    <path id="Path_8998" data-name="Path 8998" d="M1129.839,665.285a10.54,10.54,0,0,1-8.94.031,1.449,1.449,0,0,0-.378-1.957,1.048,1.048,0,0,1-.231-.172,21.025,21.025,0,0,0,1.834-2.732q.484-.851.967-1.847c.446-.916.887-1.93,1.321-3.053q.2-.523.382-1.022a34.569,34.569,0,0,0,2.538-2.948,13.016,13.016,0,0,1,2.507,5.382A29.165,29.165,0,0,1,1129.839,665.285Z" transform="translate(-156.998 -202.491)" fill="#f995a6"/>
    <path id="Path_8999" data-name="Path 8999" d="M1091.619,628.517a15.4,15.4,0,0,1-.5,2.971q-.3,1.186-.78,2.638c-.175.532-.374,1.088-.589,1.675q-.179.5-.382,1.022c-.433,1.123-.875,2.137-1.321,3.053q-.484,1-.967,1.847a21.035,21.035,0,0,1-1.834,2.732,12.854,12.854,0,0,1-1.079,1.194,6.053,6.053,0,0,1-3.35,1.906,5.6,5.6,0,0,1-2.98-.466,5.485,5.485,0,0,1-.823-.458,6.063,6.063,0,0,1-1.425-1.343c-1.134-1.448-1.953-3.675-2.1-6.928a10.692,10.692,0,0,1,.179-2.478,9.988,9.988,0,0,1,5.367-7.144,6,6,0,0,1,2.885-.7,21.741,21.741,0,0,0,8.013-1.382,1.206,1.206,0,0,1,1.651.892A4.589,4.589,0,0,1,1091.619,628.517Z" transform="translate(-121.952 -183.76)" fill="#f9c32b"/>
    <path id="Path_9000" data-name="Path 9000" d="M1096.391,699.86a4.1,4.1,0,0,1-3.493,2.09,6.571,6.571,0,0,1-5.347-2.043,5.618,5.618,0,0,0,3.8.924,6.054,6.054,0,0,0,3.35-1.906,12.851,12.851,0,0,0,1.078-1.194,1.055,1.055,0,0,0,.23.172A1.449,1.449,0,0,1,1096.391,699.86Z" transform="translate(-132.49 -237.033)" fill="#593e01"/>
    <path id="Path_9001" data-name="Path 9001" d="M1129.3,682.541a5.819,5.819,0,0,0-1.715-1.178q.483-.851.967-1.847a5.941,5.941,0,0,1,.481,1.229A5.394,5.394,0,0,1,1129.3,682.541Z" transform="translate(-162.458 -223.398)" fill="#593e01"/>
    <path id="Path_9002" data-name="Path 9002" d="M1141.755,631.127a8.327,8.327,0,0,1-1.015,1.73,34.573,34.573,0,0,1-2.538,2.948,42.332,42.332,0,0,0,1.369-4.314,15.387,15.387,0,0,0,.5-2.971,1.337,1.337,0,0,0,.986-.72,2.163,2.163,0,0,0,.231-1.233S1142.949,628.191,1141.755,631.127Z" transform="translate(-170.406 -183.763)" fill="#593e01"/>
    <path id="Path_9003" data-name="Path 9003" d="M1090.337,646.825c-.175.532-.374,1.088-.589,1.675q-.179.5-.382,1.022c-.433,1.123-.875,2.137-1.321,3.053q-.484,1-.967,1.847a21.04,21.04,0,0,1-1.834,2.732,12.868,12.868,0,0,1-1.079,1.194,6.052,6.052,0,0,1-3.35,1.906,5.6,5.6,0,0,1-2.98-.466,5.485,5.485,0,0,1-.823-.458,6.063,6.063,0,0,1-1.425-1.343c-1.134-1.448-1.953-3.675-2.1-6.928a10.693,10.693,0,0,1,.179-2.478c1.938-1.683,6.159-4.952,9.425-5.053C1085.909,643.446,1088.718,645.423,1090.337,646.825Z" transform="translate(-121.952 -196.458)" fill="#f7b81c"/>
    <ellipse id="Ellipse_159" data-name="Ellipse 159" cx="0.872" cy="0.857" rx="0.872" ry="0.857" transform="translate(962.572 454.932)" fill="#f79200"/>
    <ellipse id="Ellipse_160" data-name="Ellipse 160" cx="0.872" cy="0.857" rx="0.872" ry="0.857" transform="translate(963.898 452.074)" fill="#f79200"/>
    <path id="Path_9004" data-name="Path 9004" d="M1059.664,776.365s-1.194.881-7.19,0c-.955-.141-1.8-.305-2.578-.493-4.09-.982-6.107-2.56-10.631-4.2-5.379-1.957-14.315.685-14.315.685s.354-4.588.835-8.3c.151-1.186.318-2.282.489-3.116a33.988,33.988,0,0,1,1.818-5.672,31.012,31.012,0,0,0,1.432-7.308c.318-3.041.585-5.781.891-8.247v-.016c.644-5.163,1.472-9.136,3.354-12.225,1.134-1.859,3.449-3.022,5.793-3.746a19.606,19.606,0,0,1,13.5.7,10.14,10.14,0,0,1,4.365,3.12,4.547,4.547,0,0,1,.4.681c.939,2,1.027,7.1,1.11,12.89.032,2.58.068,5.292.183,7.935.032.857.075,1.711.131,2.544a29.257,29.257,0,0,1-1.365-2.767c-1.584-3.652-2.9-8.146-4.03-11.5a34.711,34.711,0,0,1-1.512-5.973,3.636,3.636,0,0,1,0-1.08l-.04-.066s-1.277.857.175,6.6,1.985,10.96,4.174,14.613c.107.176.211.348.318.513a16.231,16.231,0,0,0,2.578,3.139c.008.067.016.133.024.2.032.25.064.5.1.748A93.515,93.515,0,0,1,1059.664,776.365Z" transform="translate(-85.629 -255.833)" fill="#d3edd5"/>
    <path id="Path_9005" data-name="Path 9005" d="M1146.566,767.765a.012.012,0,0,1-.008,0,3.446,3.446,0,0,1-.943.427,2.929,2.929,0,0,1-2.737-.732,10.282,10.282,0,0,1-2.208-2.846c-2.212-3.875-3.963-10-5.4-14.268a34.712,34.712,0,0,1-1.512-5.973,3.6,3.6,0,0,1,5.085-3.809,3.522,3.522,0,0,1,.732.435,11.816,11.816,0,0,1,3.529,4.65c.533,1.162,1.4,3.041,2.288,5.237q.423,1.033.831,2.145C1148.344,758.758,1149.98,765.6,1146.566,767.765Z" transform="translate(-167.053 -268.863)" fill="#50cc65"/>
    <path id="Path_9006" data-name="Path 9006" d="M1193.862,767.493s-1.341,5.969-3.433,12.28a20.025,20.025,0,0,1-2.045,4.529,19.642,19.642,0,0,0,.49-4.674c0-4.279-2.455-9.9-2.455-9.9l1.452-4.106a4.8,4.8,0,0,1,3.406.074A4.944,4.944,0,0,1,1193.862,767.493Z" transform="translate(-206.499 -287.67)" fill="#50cc65"/>
    <path id="Path_9007" data-name="Path 9007" d="M1186.658,792.6a19.637,19.637,0,0,1-.49,4.674c-1.265,1.957-2.28,2.251-2.371,2.27,3.414-2.169,1.779-9.007-.338-14.73l.744-2.11S1186.658,788.32,1186.658,792.6Z" transform="translate(-204.284 -300.642)" fill="#3aaf4b"/>
    <path id="Path_9008" data-name="Path 9008" d="M1147.481,722.36a2.99,2.99,0,0,1,.171,2.016c-.155.994-1.261,1.386-1.615,1.484l-.068-.016-16.057-3.981.931-3.629,2.964.736Z" transform="translate(-164.2 -252.382)" fill="#593e01"/>
    <path id="Path_9009" data-name="Path 9009" d="M1227.564,743.985c-.386,1.5-.855,1.715-.855,1.715l-3.247-.806a4.44,4.44,0,0,0,.649-1.621,4.857,4.857,0,0,0,.06-2.059l3.465.861S1227.95,742.481,1227.564,743.985Z" transform="translate(-234.229 -269.583)" fill="#593e01"/>
    <path id="Path_9010" data-name="Path 9010" d="M1158.063,726.567c-.155.994-1.261,1.386-1.615,1.484l-.068-.016a3.369,3.369,0,0,0,.9-1.714c0-.755-1.417-.877-5.447-1.808s-6.875-1.288-6.875-1.288l-1.134-1.037.4-1.026,13.675,3.39A2.992,2.992,0,0,1,1158.063,726.567Z" transform="translate(-174.612 -254.573)" fill="#754f03"/>
    <path id="Path_9011" data-name="Path 9011" d="M1132.393,692.951c-.064.051-.649.5-1.528,1.237-.028.02-.056.043-.084.067a54.848,54.848,0,0,0-5.98,5.825,1.533,1.533,0,0,1,.036,1.62l-1.48,2.529a1.6,1.6,0,0,1-1.946.681c-.115.215-.219.435-.318.65a43.552,43.552,0,0,0-2.757,7.848v0c-.115.482-.2.9-.27,1.257-.159.818-.2,1.264-.2,1.264s-.048-.415-.108-1.116c-.183-2.294-.462-7.668.585-11.669a1.545,1.545,0,0,1-.314-1.949l1.48-2.525a1.606,1.606,0,0,1,2.121-.607,32.689,32.689,0,0,1,8.9-4.517c1.01-.352,1.707-.556,1.842-.6A.076.076,0,0,1,1132.393,692.951Z" transform="translate(-154.968 -233.456)" fill="#f9c32b"/>
    <path id="Path_9012" data-name="Path 9012" d="M1127.143,723.315h0a1.615,1.615,0,0,1-.606-2.225h0a1.671,1.671,0,0,1,2.262-.6h0a1.615,1.615,0,0,1,.606,2.225h0A1.67,1.67,0,0,1,1127.143,723.315Z" transform="translate(-161.508 -253.91)" fill="#f79200"/>
    <path id="Path_9013" data-name="Path 9013" d="M1133.5,693.609c-.067.051-.692.528-1.627,1.319a53.05,53.05,0,0,0-5.749,5.605,1.484,1.484,0,0,1,.036,1.574l-1.436,2.458a1.557,1.557,0,0,1-1.89.661c-.111.207-.215.419-.31.63a40.779,40.779,0,0,0-2.869,8.459c-.215,1.041-.271,1.617-.271,1.617h-.672s.044-.446.2-1.264c.067-.352.155-.775.27-1.257v0a43.545,43.545,0,0,1,2.757-7.848c.1-.215.2-.435.318-.65a1.6,1.6,0,0,0,1.946-.681l1.48-2.529a1.533,1.533,0,0,0-.036-1.62,54.837,54.837,0,0,1,5.98-5.825c.028-.023.056-.047.083-.067.879-.74,1.464-1.186,1.528-1.237Z" transform="translate(-155.813 -233.456)" fill="#f79200"/>
    <path id="Path_9014" data-name="Path 9014" d="M1028.273,814.255c.151-1.186.318-2.282.489-3.116,1.062-5.151,2.387-4.76,3.25-12.98.318-3.041.585-5.781.891-8.247-.016.348-.239,6.157,1.5,10.1C1036.19,804.063,1028.273,814.255,1028.273,814.255Z" transform="translate(-88.116 -306.038)" fill="#3aaf4b"/>
    <path id="Path_9015" data-name="Path 9015" d="M1139.424,776.96a16.625,16.625,0,0,1-2.9-3.652c-2.188-3.652-2.721-8.874-4.173-14.613s-.175-6.6-.175-6.6l.04.066a3.631,3.631,0,0,0,0,1.08,34.689,34.689,0,0,0,1.512,5.974c1.432,4.271,3.183,10.393,5.395,14.268C1139.2,774.682,1139.3,775.845,1139.424,776.96Z" transform="translate(-165.509 -277.73)" fill="#3aaf4b"/>
  </g>
</svg>
