<svg id="data-mining" xmlns="http://www.w3.org/2000/svg" width="104.932" height="104.932" viewBox="0 0 104.932 104.932">
  <g id="Group_465" data-name="Group 465" transform="translate(18.855 81.978)">
    <path id="Path_8471" data-name="Path 8471" d="M12.32,58.2a.82.82,0,0,1-.82-.82V50.82a.82.82,0,0,1,1.64,0v6.558A.82.82,0,0,1,12.32,58.2Z" transform="translate(-11.5 -50)" fill="#006dfe"/>
  </g>
  <g id="Group_466" data-name="Group 466" transform="translate(15.576 85.257)">
    <path id="Path_8472" data-name="Path 8472" d="M16.878,53.64H10.32a.82.82,0,0,1,0-1.64h6.558a.82.82,0,0,1,0,1.64Z" transform="translate(-9.5 -52)" fill="#006dfe"/>
  </g>
  <g id="Group_467" data-name="Group 467" transform="translate(31.971 96.734)">
    <path id="Path_8473" data-name="Path 8473" d="M20.32,67.2a.82.82,0,0,1-.82-.82V59.82a.82.82,0,1,1,1.64,0v6.558A.82.82,0,0,1,20.32,67.2Z" transform="translate(-19.5 -59)" fill="#006dfe"/>
  </g>
  <g id="Group_468" data-name="Group 468" transform="translate(28.692 100.013)">
    <path id="Path_8474" data-name="Path 8474" d="M24.878,62.64H18.32a.82.82,0,0,1,0-1.64h6.558a.82.82,0,0,1,0,1.64Z" transform="translate(-17.5 -61)" fill="#006dfe"/>
  </g>
  <g id="Group_469" data-name="Group 469" transform="translate(34.473 63.834)">
    <path id="Path_8475" data-name="Path 8475" d="M22.326,46.848a.823.823,0,0,1-.58-.239,2.462,2.462,0,0,1,0-3.479l3.478-3.478a2.465,2.465,0,0,1,3.479,0,.82.82,0,1,1-1.159,1.159.824.824,0,0,0-1.161,0L22.9,44.291a.812.812,0,0,0-.239.58.822.822,0,0,0,.239.58.817.817,0,0,1-.579,1.4Z" transform="translate(-21.026 -38.934)" fill="#006dfe"/>
  </g>
  <g id="Group_470" data-name="Group 470" transform="translate(45.967 75.325)">
    <path id="Path_8476" data-name="Path 8476" d="M49.726,74.727a2.457,2.457,0,0,1-1.74-.718l-9.275-9.275L28.221,51.921a.82.82,0,0,1,1.271-1.038L39.926,63.636l9.221,9.214a.82.82,0,0,0,1.159,0l4.638-4.637a.822.822,0,0,0,0-1.161l-9.275-9.275L32.978,47.4a.82.82,0,1,1,1.038-1.271L46.768,56.561,56.1,65.892a2.463,2.463,0,0,1,0,3.479l-4.638,4.637A2.452,2.452,0,0,1,49.726,74.727Z" transform="translate(-28.036 -45.942)" fill="#006dfe"/>
  </g>
  <g id="Group_471" data-name="Group 471" transform="translate(30.176 58.04)">
    <path id="Path_8477" data-name="Path 8477" d="M45.709,42.175,23.681,64.2a1.638,1.638,0,0,1-2.318,0l-1.976-1.976a1.639,1.639,0,0,1-.231-2.028l5.006-8.011a1.577,1.577,0,0,1,.231-.29l15.52-15.52a1.638,1.638,0,0,1,2.318,0l3.477,3.477A1.64,1.64,0,0,1,45.709,42.175Z" transform="translate(-18.084 -35.082)" fill="#6babff"/>
    <path id="Path_8478" data-name="Path 8478" d="M22.843,65.821a2.444,2.444,0,0,1-1.74-.72l-1.976-1.976a2.45,2.45,0,0,1-.346-3.043l5.006-8.009a2.424,2.424,0,0,1,.349-.438L39.654,36.118a2.463,2.463,0,0,1,3.478,0L46.61,39.6a2.461,2.461,0,0,1,0,3.477L24.583,65.1A2.444,2.444,0,0,1,22.843,65.821Zm18.55-28.784a.823.823,0,0,0-.58.239L25.294,52.794a.858.858,0,0,0-.115.143l-5.007,8.013a.817.817,0,0,0,.116,1.015l1.976,1.976a.839.839,0,0,0,1.159,0L45.451,41.913a.82.82,0,0,0,0-1.159l-3.479-3.479A.822.822,0,0,0,41.393,37.037Z" transform="translate(-18.405 -35.4)" fill="#006dfe"/>
  </g>
  <g id="Group_472" data-name="Group 472" transform="translate(0 41.809)">
    <path id="Path_8479" data-name="Path 8479" d="M23.774,56.652H2.459A2.462,2.462,0,0,1,0,54.192V27.959A2.462,2.462,0,0,1,2.459,25.5H23.774a2.462,2.462,0,0,1,2.459,2.459V54.192A2.462,2.462,0,0,1,23.774,56.652ZM2.459,27.14a.82.82,0,0,0-.82.82V54.192a.82.82,0,0,0,.82.82H23.774a.82.82,0,0,0,.82-.82V27.959a.82.82,0,0,0-.82-.82Z" transform="translate(0 -25.5)" fill="#006dfe"/>
  </g>
  <g id="Group_473" data-name="Group 473" transform="translate(5.738 47.547)">
    <circle id="Ellipse_112" data-name="Ellipse 112" cx="6.558" cy="6.558" r="6.558" transform="translate(0.82 0.82)" fill="#527aff"/>
    <path id="Path_8480" data-name="Path 8480" d="M10.878,43.756a7.378,7.378,0,1,1,7.378-7.378A7.387,7.387,0,0,1,10.878,43.756Zm0-13.116a5.738,5.738,0,1,0,5.738,5.738A5.745,5.745,0,0,0,10.878,30.64Z" transform="translate(-3.5 -29)" fill="#006dfe"/>
  </g>
  <g id="Group_474" data-name="Group 474" transform="translate(12.297 47.547)">
    <path id="Path_8481" data-name="Path 8481" d="M12.947,41.825a.823.823,0,0,1-.58-.239L7.739,36.958a.826.826,0,0,1-.239-.58V29.82a.82.82,0,1,1,1.64,0v6.219l4.387,4.387a.819.819,0,0,1-.58,1.4Z" transform="translate(-7.5 -29)" fill="#006dfe"/>
  </g>
  <g id="Group_475" data-name="Group 475" transform="translate(5.738 54.105)">
    <path id="Path_8482" data-name="Path 8482" d="M10.878,34.64H4.32a.82.82,0,0,1,0-1.64h6.558a.82.82,0,1,1,0,1.64Z" transform="translate(-3.5 -33)" fill="#006dfe"/>
  </g>
  <g id="Group_476" data-name="Group 476" transform="translate(5.738 64.762)">
    <path id="Path_8483" data-name="Path 8483" d="M17.436,41.14H4.32a.82.82,0,0,1,0-1.64H17.436a.82.82,0,1,1,0,1.64Z" transform="translate(-3.5 -39.5)" fill="#006dfe"/>
  </g>
  <g id="Group_477" data-name="Group 477" transform="translate(78.699 61.483)">
    <path id="Path_8484" data-name="Path 8484" d="M71.774,48.977H50.459A2.462,2.462,0,0,1,48,46.518V39.959A2.462,2.462,0,0,1,50.459,37.5H71.774a2.462,2.462,0,0,1,2.459,2.459v6.558A2.462,2.462,0,0,1,71.774,48.977ZM50.459,39.14a.82.82,0,0,0-.82.82v6.558a.82.82,0,0,0,.82.82H71.774a.82.82,0,0,0,.82-.82V39.959a.82.82,0,0,0-.82-.82Z" transform="translate(-48 -37.5)" fill="#006dfe"/>
  </g>
  <g id="Group_478" data-name="Group 478" transform="translate(90.995 66.402)">
    <path id="Path_8485" data-name="Path 8485" d="M63.7,42.14H56.32a.82.82,0,0,1,0-1.64H63.7a.82.82,0,1,1,0,1.64Z" transform="translate(-55.5 -40.5)" fill="#006dfe"/>
  </g>
  <g id="Group_479" data-name="Group 479" transform="translate(78.699 51.646)">
    <path id="Path_8486" data-name="Path 8486" d="M71.774,42.977H50.459A2.462,2.462,0,0,1,48,40.518V33.959A2.462,2.462,0,0,1,50.459,31.5H71.774a2.462,2.462,0,0,1,2.459,2.459v6.558A2.462,2.462,0,0,1,71.774,42.977ZM50.459,33.14a.82.82,0,0,0-.82.82v6.558a.82.82,0,0,0,.82.82H71.774a.82.82,0,0,0,.82-.82V33.959a.82.82,0,0,0-.82-.82Z" transform="translate(-48 -31.5)" fill="#006dfe"/>
  </g>
  <g id="Group_480" data-name="Group 480" transform="translate(90.995 56.565)">
    <path id="Path_8487" data-name="Path 8487" d="M63.7,36.14H56.32a.82.82,0,0,1,0-1.64H63.7a.82.82,0,1,1,0,1.64Z" transform="translate(-55.5 -34.5)" fill="#006dfe"/>
  </g>
  <g id="Group_481" data-name="Group 481" transform="translate(78.699 41.809)">
    <path id="Path_8488" data-name="Path 8488" d="M71.774,36.977H50.459A2.462,2.462,0,0,1,48,34.518V27.959A2.462,2.462,0,0,1,50.459,25.5H71.774a2.462,2.462,0,0,1,2.459,2.459v6.558A2.462,2.462,0,0,1,71.774,36.977ZM50.459,27.14a.82.82,0,0,0-.82.82v6.558a.82.82,0,0,0,.82.82H71.774a.82.82,0,0,0,.82-.82V27.959a.82.82,0,0,0-.82-.82Z" transform="translate(-48 -25.5)" fill="#006dfe"/>
  </g>
  <g id="Group_482" data-name="Group 482" transform="translate(90.995 46.727)">
    <path id="Path_8489" data-name="Path 8489" d="M63.7,30.14H56.32a.82.82,0,0,1,0-1.64H63.7a.82.82,0,0,1,0,1.64Z" transform="translate(-55.5 -28.5)" fill="#006dfe"/>
  </g>
  <g id="Group_483" data-name="Group 483" transform="translate(29.512)">
    <path id="Path_8490" data-name="Path 8490" d="M58.669,31.652H22.6a4.1,4.1,0,0,1-4.1-4.1V4.6A4.1,4.1,0,0,1,22.6.5h36.07a4.1,4.1,0,0,1,4.1,4.1V27.553A4.1,4.1,0,0,1,58.669,31.652Z" transform="translate(-17.68 0.32)" fill="#006dfe" opacity="0.29"/>
    <path id="Path_8491" data-name="Path 8491" d="M58.989,32.791H22.919A4.925,4.925,0,0,1,18,27.872V4.919A4.925,4.925,0,0,1,22.919,0h36.07a4.925,4.925,0,0,1,4.919,4.919V27.872A4.925,4.925,0,0,1,58.989,32.791ZM22.919,1.64A3.282,3.282,0,0,0,19.64,4.919V27.872a3.282,3.282,0,0,0,3.279,3.279h36.07a3.282,3.282,0,0,0,3.279-3.279V4.919A3.282,3.282,0,0,0,58.989,1.64Z" transform="translate(-18)" fill="#006dfe"/>
  </g>
  <g id="Group_484" data-name="Group 484" transform="translate(46.727 31.152)">
    <path id="Path_8492" data-name="Path 8492" d="M39.157,27.2H29.32a.82.82,0,0,1-.82-.82V19.82a.82.82,0,0,1,.82-.82h9.837a.82.82,0,0,1,.82.82v6.558A.82.82,0,0,1,39.157,27.2Zm-9.018-1.64h8.2V20.64h-8.2Z" transform="translate(-28.5 -19)" fill="#006dfe"/>
  </g>
  <g id="Group_485" data-name="Group 485" transform="translate(41.809 37.71)">
    <path id="Path_8493" data-name="Path 8493" d="M45.994,24.64H26.32a.82.82,0,0,1,0-1.64H45.994a.82.82,0,0,1,0,1.64Z" transform="translate(-25.5 -23)" fill="#006dfe"/>
  </g>
  <g id="Group_486" data-name="Group 486" transform="translate(39.472 8.379)">
    <path id="Path_8494" data-name="Path 8494" d="M36.488,19.5a.823.823,0,0,1-.58-.239l-5.217-5.217-5.217,5.217A.82.82,0,0,1,24.315,18.1l5.8-5.8a.82.82,0,0,1,1.159,0l5.217,5.217L48.662,5.351A.82.82,0,0,1,49.821,6.51L37.069,19.264A.823.823,0,0,1,36.488,19.5Z" transform="translate(-24.075 -5.111)" fill="#006dfe"/>
  </g>
  <g id="Group_487" data-name="Group 487" transform="translate(57.262 8.38)">
    <path id="Path_8495" data-name="Path 8495" d="M42.3,13.309a.82.82,0,0,1-.82-.82V6.751H35.745a.82.82,0,0,1,0-1.64H42.3a.82.82,0,0,1,.82.82v6.558A.82.82,0,0,1,42.3,13.309Z" transform="translate(-34.925 -5.111)" fill="#006dfe"/>
  </g>
  <g id="Group_488" data-name="Group 488" transform="translate(12.297 18.445)">
    <path id="Path_8496" data-name="Path 8496" d="M8.32,28.465a.82.82,0,0,1-.82-.82V20.268a9.027,9.027,0,0,1,9.018-9.018h4.1a.82.82,0,1,1,0,1.64h-4.1A7.387,7.387,0,0,0,9.14,20.268v7.378A.82.82,0,0,1,8.32,28.465Z" transform="translate(-7.5 -11.25)" fill="#006dfe"/>
  </g>
  <g id="Group_489" data-name="Group 489" transform="translate(19.674 13.529)">
    <path id="Path_8497" data-name="Path 8497" d="M12.82,19.726a.819.819,0,0,1-.58-1.4l4.338-4.338L12.24,9.651A.82.82,0,0,1,13.4,8.492l4.919,4.919a.82.82,0,0,1,0,1.159L13.4,19.488A.822.822,0,0,1,12.82,19.726Z" transform="translate(-12 -8.252)" fill="#006dfe"/>
  </g>
  <g id="Group_490" data-name="Group 490" transform="translate(78.699 18.445)">
    <path id="Path_8498" data-name="Path 8498" d="M61.116,28.465a.82.82,0,0,1-.82-.82V20.268a7.387,7.387,0,0,0-7.378-7.378h-4.1a.82.82,0,0,1,0-1.64h4.1a9.027,9.027,0,0,1,9.018,9.018v7.378A.82.82,0,0,1,61.116,28.465Z" transform="translate(-48 -11.25)" fill="#006dfe"/>
  </g>
  <g id="Group_491" data-name="Group 491" transform="translate(86.076 29.103)">
    <path id="Path_8499" data-name="Path 8499" d="M58.239,24.308a.823.823,0,0,1-.58-.239L52.74,19.15A.82.82,0,0,1,53.9,17.991l4.34,4.338,4.338-4.338a.82.82,0,0,1,1.159,1.159l-4.919,4.919A.817.817,0,0,1,58.239,24.308Z" transform="translate(-52.5 -17.751)" fill="#006dfe"/>
  </g>
  <g id="Group_492" data-name="Group 492" transform="translate(96.734 87.17)">
    <path id="Path_8500" data-name="Path 8500" d="M61.459,54.807H59.82a.82.82,0,1,1,0-1.64h1.64a.82.82,0,0,1,0,1.64Z" transform="translate(-59 -53.167)" fill="#006dfe"/>
  </g>
  <g id="Group_493" data-name="Group 493" transform="translate(75.42 87.17)">
    <path id="Path_8501" data-name="Path 8501" d="M64.855,54.807H46.82a.82.82,0,1,1,0-1.64H64.855a.82.82,0,0,1,0,1.64Z" transform="translate(-46 -53.167)" fill="#006dfe"/>
  </g>
  <g id="Group_494" data-name="Group 494" transform="translate(70.501 82.252)">
    <path id="Path_8502" data-name="Path 8502" d="M61.855,51.807H43.82a.82.82,0,1,1,0-1.64H61.855a.82.82,0,0,1,0,1.64Z" transform="translate(-43 -50.167)" fill="#006dfe"/>
  </g>
</svg>
