<svg id="data-collection" xmlns="http://www.w3.org/2000/svg" width="100.606" height="102.34" viewBox="0 0 100.606 102.34">
  <path id="Path_7775" data-name="Path 7775" d="M49.63,59.142V73.019L8,60.877V47Z" transform="translate(0.673 29.322)" fill="#006dfe"/>
  <path id="Path_7776" data-name="Path 7776" d="M73.63,47V60.877L32,73.019V59.142Z" transform="translate(18.303 29.322)" fill="#68607c"/>
  <path id="Path_7777" data-name="Path 7777" d="M49.63,40,91.26,52.142,49.63,64.284,8,52.142Z" transform="translate(0.673 24.18)" fill="#72afff"/>
  <path id="Path_7778" data-name="Path 7778" d="M31,23h3.469V66.365H31Z" transform="translate(17.568 11.692)" fill="#68607c"/>
  <path id="Path_7779" data-name="Path 7779" d="M35.458,53.91l-8.165-8.165,2.453-2.453L35.458,49l5.712-5.712,2.453,2.453Z" transform="translate(14.845 26.598)" fill="#68607c"/>
  <path id="Path_7780" data-name="Path 7780" d="M45.458,43.91l-8.165-8.165,2.453-2.453L45.458,39l5.712-5.712,2.453,2.453Z" transform="translate(22.191 19.253)" fill="#68607c"/>
  <path id="Path_7781" data-name="Path 7781" d="M44.469,49.019H41V42.08a8.683,8.683,0,0,1,8.673-8.673h5.2a5.21,5.21,0,0,0,5.2-5.2V23H63.55v5.2a8.683,8.683,0,0,1-8.673,8.673h-5.2a5.21,5.21,0,0,0-5.2,5.2Z" transform="translate(24.914 11.692)" fill="#68607c"/>
  <path id="Path_7782" data-name="Path 7782" d="M25.458,43.91l-8.165-8.165,2.453-2.453L25.458,39l5.712-5.712,2.453,2.453Z" transform="translate(7.499 19.253)" fill="#68607c"/>
  <path id="Path_7783" data-name="Path 7783" d="M32.55,49.019H29.08V42.08a5.21,5.21,0,0,0-5.2-5.2h-5.2A8.683,8.683,0,0,1,10,28.2V23h3.469v5.2a5.21,5.21,0,0,0,5.2,5.2h5.2A8.683,8.683,0,0,1,32.55,42.08Z" transform="translate(2.142 11.692)" fill="#68607c"/>
  <path id="Path_7784" data-name="Path 7784" d="M45,41.161V3H62.346L72.753,13.407V41.161Z" transform="translate(27.852 -3)" fill="#d5e7ff"/>
  <path id="Path_7785" data-name="Path 7785" d="M65.407,13.407H55V3Z" transform="translate(35.198 -3)" fill="#4e9bb9"/>
  <path id="Path_7786" data-name="Path 7786" d="M24,41.161V3H41.346L51.753,13.407V41.161Z" transform="translate(12.426 -3)" fill="#d5e7ff"/>
  <path id="Path_7787" data-name="Path 7787" d="M3,41.161V3H20.346L30.753,13.407V41.161Z" transform="translate(-3 -3)" fill="#d5e7ff"/>
  <path id="Path_7788" data-name="Path 7788" d="M44.407,13.407H34V3Z" transform="translate(19.772 -3)" fill="#4e9bb9"/>
  <path id="Path_7789" data-name="Path 7789" d="M23.407,13.407H13V3Z" transform="translate(4.346 -3)" fill="#4e9bb9"/>
  <g id="Group_217" data-name="Group 217" transform="translate(5.204 8.673)">
    <path id="Path_7790" data-name="Path 7790" d="M27,12H44.346v3.469H27Z" transform="translate(9.426 -5.062)" fill="#68607c"/>
    <path id="Path_7791" data-name="Path 7791" d="M27,16H44.346v3.469H27Z" transform="translate(9.426 -2.123)" fill="#68607c"/>
    <path id="Path_7792" data-name="Path 7792" d="M27,8h6.938v3.469H27Z" transform="translate(9.426 -8)" fill="#68607c"/>
    <path id="Path_7793" data-name="Path 7793" d="M6,12H23.346v3.469H6Z" transform="translate(-6 -5.062)" fill="#68607c"/>
    <path id="Path_7794" data-name="Path 7794" d="M6,16H23.346v3.469H6Z" transform="translate(-6 -2.123)" fill="#68607c"/>
    <path id="Path_7795" data-name="Path 7795" d="M6,20H23.346v3.469H6Z" transform="translate(-6 0.815)" fill="#68607c"/>
    <path id="Path_7796" data-name="Path 7796" d="M6,8h6.938v3.469H6Z" transform="translate(-6 -8)" fill="#68607c"/>
    <path id="Path_7797" data-name="Path 7797" d="M48,12H65.346v3.469H48Z" transform="translate(24.852 -5.062)" fill="#68607c"/>
    <path id="Path_7798" data-name="Path 7798" d="M48,16H65.346v3.469H48Z" transform="translate(24.852 -2.123)" fill="#68607c"/>
    <path id="Path_7799" data-name="Path 7799" d="M48,20H65.346v3.469H48Z" transform="translate(24.852 0.815)" fill="#68607c"/>
    <path id="Path_7800" data-name="Path 7800" d="M48,8h6.938v3.469H48Z" transform="translate(24.852 -8)" fill="#68607c"/>
    <path id="Path_7801" data-name="Path 7801" d="M27,20h3.469v3.469H27Z" transform="translate(9.426 0.815)" fill="#68607c"/>
    <path id="Path_7802" data-name="Path 7802" d="M31,20h3.469v3.469H31Z" transform="translate(12.365 0.815)" fill="#68607c"/>
    <path id="Path_7803" data-name="Path 7803" d="M35,20h3.469v3.469H35Z" transform="translate(15.303 0.815)" fill="#68607c"/>
  </g>
</svg>
