<svg xmlns="http://www.w3.org/2000/svg" width="99.895" height="100.483" viewBox="0 0 99.895 100.483">
  <g id="statistics" transform="translate(-2 -1.647)">
    <path id="Path_8092" data-name="Path 8092" d="M12.663,30.977A38.264,38.264,0,0,1,47.293,9V47.293L10.332,57.249h-.017a38.234,38.234,0,0,1,2.348-26.272Z" transform="translate(4.654 4.889)" fill="#ffd086"/>
    <path id="Path_8093" data-name="Path 8093" d="M24.168,62.918A38.157,38.157,0,0,1,9.8,41.956L46.761,32V70.293A38.137,38.137,0,0,1,24.168,62.918Z" transform="translate(5.186 20.182)" fill="#ed6571"/>
    <path id="Path_8094" data-name="Path 8094" d="M53.611,63.6A37.969,37.969,0,0,1,32,70.293V32H70.293A38.231,38.231,0,0,1,53.611,63.6Z" transform="translate(19.948 20.182)" fill="#006dfe"/>
    <path id="Path_8095" data-name="Path 8095" d="M62.66,11V45.963H56V11Z" transform="translate(35.906 6.219)" fill="#006dfe"/>
    <path id="Path_8096" data-name="Path 8096" d="M58.66,20V39.979H52V20Z" transform="translate(33.246 12.203)" fill="#91cbd7"/>
    <path id="Path_8097" data-name="Path 8097" d="M54.66,23.325V43.3H48V15h6.66Z" transform="translate(30.586 8.879)" fill="#006dfe"/>
    <path id="Path_8098" data-name="Path 8098" d="M50.66,18.325v28.3H44V10h6.66Z" transform="translate(27.927 5.554)" fill="#91cbd7"/>
    <path id="Path_8099" data-name="Path 8099" d="M46.66,16V42.639H40V16Z" transform="translate(25.267 9.544)" fill="#006dfe"/>
    <path id="Path_8100" data-name="Path 8100" d="M32,23h6.66V37.984H32Z" transform="translate(19.948 14.198)" fill="#006dfe"/>
    <path id="Path_8101" data-name="Path 8101" d="M42.66,20V39.979H36V20Z" transform="translate(22.607 12.203)" fill="#91cbd7"/>
    <g id="Group_288" data-name="Group 288" transform="translate(2 2.235)">
      <path id="Path_8102" data-name="Path 8102" d="M32,31H81.948v3.33H32Z" transform="translate(17.948 17.283)" fill="#68607c"/>
      <path id="Path_8103" data-name="Path 8103" d="M52,52H68.649v3.33H52Z" transform="translate(31.246 31.246)" fill="#68607c"/>
      <path id="Path_8104" data-name="Path 8104" d="M52,56H68.649v3.33H52Z" transform="translate(31.246 33.906)" fill="#68607c"/>
      <path id="Path_8105" data-name="Path 8105" d="M52,60H68.649v3.33H52Z" transform="translate(31.246 36.565)" fill="#68607c"/>
      <path id="Path_8106" data-name="Path 8106" d="M2,52H18.649v3.33H2Z" transform="translate(-2 31.246)" fill="#68607c"/>
      <path id="Path_8107" data-name="Path 8107" d="M2,56H18.649v3.33H2Z" transform="translate(-2 33.906)" fill="#68607c"/>
      <path id="Path_8108" data-name="Path 8108" d="M2,60H18.649v3.33H2Z" transform="translate(-2 36.565)" fill="#68607c"/>
      <path id="Path_8109" data-name="Path 8109" d="M58.449,61.119H52.765L37.293,45.647l2.354-2.354,14.5,14.5h4.305Z" transform="translate(21.467 25.456)" fill="#68607c"/>
      <path id="Path_8110" data-name="Path 8110" d="M2,2H21.979V5.33H2Z" transform="translate(-2 -2)" fill="#68607c"/>
      <path id="Path_8111" data-name="Path 8111" d="M2,6H21.979V9.33H2Z" transform="translate(-2 0.66)" fill="#68607c"/>
      <path id="Path_8112" data-name="Path 8112" d="M2,10H21.979v3.33H2Z" transform="translate(-2 3.319)" fill="#68607c"/>
      <path id="Path_8113" data-name="Path 8113" d="M23.137,38.486,6,21.349V14H9.33v5.97L25.491,36.132Z" transform="translate(0.66 5.979)" fill="#68607c"/>
      <path id="Path_8114" data-name="Path 8114" d="M18.019,59.789H14V56.46h2.641L27.807,45.293l2.354,2.354Z" transform="translate(5.979 26.786)" fill="#68607c"/>
    </g>
    <path id="Path_8115" data-name="Path 8115" d="M37.647,21.726l-2.354-2.354L53.016,1.647,63.3,10.215l13.989-7.77L78.9,5.355l-15.98,8.879-9.7-8.082Z" transform="translate(22.137)" fill="#ffd086"/>
  </g>
</svg>
